  0
SECTION
  2
HEADER
  9
$ACADVER
  1
AC1009
  9
$FILLMODE
 70
0
  9
$EXTMIN
 10
7.519193
 20
-3.071358
 30
0.000000
  9
$EXTMAX
 10
15.630413
 20
1.496555
 30
0.000000
  0
ENDSEC
  0
SECTION
  2
TABLES
  0
TABLE
  2
LTYPE
 70
1
  0
LTYPE
  2
CONTINUOUS
 70
64
  3
Solid line
 72
65
 73
0
 40
0
  0
ENDTAB
  0
TABLE
  2
LAYER
 70
255
  0
LAYER
  2
1
 70
64
 62
14
  6
CONTINUOUS
  0
LAYER
  2
16
 70
64
 62
174
  6
CONTINUOUS
  0
LAYER
  2
17
 70
64
 62
94
  6
CONTINUOUS
  0
LAYER
  2
18
 70
64
 62
94
  6
CONTINUOUS
  0
LAYER
  2
19
 70
64
 62
54
  6
CONTINUOUS
  0
LAYER
  2
20
 70
64
 62
178
  6
CONTINUOUS
  0
LAYER
  2
21
 70
64
 62
250
  6
CONTINUOUS
  0
LAYER
  2
22
 70
64
 62
250
  6
CONTINUOUS
  0
LAYER
  2
23
 70
64
 62
178
  6
CONTINUOUS
  0
LAYER
  2
24
 70
64
 62
178
  6
CONTINUOUS
  0
LAYER
  2
25
 70
64
 62
250
  6
CONTINUOUS
  0
LAYER
  2
26
 70
64
 62
250
  6
CONTINUOUS
  0
LAYER
  2
27
 70
64
 62
250
  6
CONTINUOUS
  0
LAYER
  2
28
 70
64
 62
250
  6
CONTINUOUS
  0
LAYER
  2
39
 70
64
 62
14
  6
CONTINUOUS
  0
LAYER
  2
40
 70
64
 62
174
  6
CONTINUOUS
  0
LAYER
  2
41
 70
64
 62
14
  6
CONTINUOUS
  0
LAYER
  2
42
 70
64
 62
174
  6
CONTINUOUS
  0
LAYER
  2
43
 70
64
 62
94
  6
CONTINUOUS
  0
LAYER
  2
48
 70
64
 62
250
  6
CONTINUOUS
  0
LAYER
  2
49
 70
64
 62
250
  6
CONTINUOUS
  0
LAYER
  2
51
 70
64
 62
250
  6
CONTINUOUS
  0
LAYER
  2
52
 70
64
 62
250
  6
CONTINUOUS
  0
ENDTAB
  0
ENDSEC
  0
SECTION
  2
BLOCKS
  0
BLOCK
  8
0
  2
RECT
 70
64
 10
0.000000
 20
0.000000
 30
0.000000
  3
RECT
  0
SOLID
  8
0
 10
-0.500000
 20
-0.500000
 30
0.000000
 11
0.500000
 21
-0.500000
 31
0.000000
 12
-0.500000
 22
0.500000
 32
0.000000
 13
0.500000
 23
0.500000
 33
0.000000
  0
ENDBLK
  8
0
  0
BLOCK
  8
0
  2
PIE
 70
64
 10
0.000000
 20
0.000000
 30
0.000000
  3
PIE
  0
CIRCLE
  8
0
 10
0.000000
 20
0.000000
 30
0.000000
 40
0.500000
  0
ENDBLK
  8
0
  0
BLOCK
  8
0
  2
OCTAGONP
 70
64
 10
0.000000
 20
0.000000
 30
0.000000
  3
OCTAGONP
  0
POLYLINE
  8
0
 66
1
 10
0.000000
 20
0.000000
 30
0.000000
 40
0.000000
 41
0.000000
 70
1
  0
VERTEX
  8
0
 10
-0.500000
 20
-0.207107
 30
0.000000
  0
VERTEX
  8
0
 10
-0.500000
 20
0.207107
 30
0.000000
  0
VERTEX
  8
0
 10
-0.207107
 20
0.500000
 30
0.000000
  0
VERTEX
  8
0
 10
0.207107
 20
0.500000
 30
0.000000
  0
VERTEX
  8
0
 10
0.500000
 20
0.207107
 30
0.000000
  0
VERTEX
  8
0
 10
0.500000
 20
-0.207107
 30
0.000000
  0
VERTEX
  8
0
 10
0.207107
 20
-0.500000
 30
0.000000
  0
VERTEX
  8
0
 10
-0.207107
 20
-0.500000
 30
0.000000
  0
SEQEND
  8
0
  0
ENDBLK
  8
0
  0
BLOCK
  8
0
  2
SQUAREP
 70
64
 10
0.000000
 20
0.000000
 30
0.000000
  3
SQUAREP
  0
SOLID
  8
0
 10
-0.500000
 20
-0.500000
 30
0.000000
 11
0.500000
 21
-0.500000
 31
0.000000
 12
-0.500000
 22
0.500000
 32
0.000000
 13
0.500000
 23
0.500000
 33
0.000000
  0
ENDBLK
  8
0
  0
BLOCK
  8
0
  2
ROUNDP
 70
64
 10
0.000000
 20
0.000000
 30
0.000000
  3
ROUNDP
  0
CIRCLE
  8
0
 10
0.000000
 20
0.000000
 30
0.000000
 40
0.500000
  0
ENDBLK
  8
0
  0
BLOCK
  8
0
  2
ANNULUSP
 70
64
 10
0.000000
 20
0.000000
 30
0.000000
  3
ANNULUSP
  0
CIRCLE
  8
0
 10
0.000000
 20
0.000000
 30
0.000000
 40
0.500000
  0
ENDBLK
  8
0
  0
BLOCK
  8
0
  2
THERMALP
 70
64
 10
0.000000
 20
0.000000
 30
0.000000
  3
THERMALP
  0
LINE
  8
0
 10
-0.237868
 20
0.450000
 30
0.000000
 11
0.237868
 21
0.450000
 31
0.000000
  0
LINE
  8
0
 10
0.450000
 20
0.237868
 30
0.000000
 11
0.450000
 21
-0.237868
 31
0.000000
  0
LINE
  8
0
 10
0.237868
 20
-0.450000
 30
0.000000
 11
-0.237868
 21
-0.450000
 31
0.000000
  0
LINE
  8
0
 10
-0.450000
 20
-0.237868
 30
0.000000
 11
-0.450000
 21
0.237868
 31
0.000000
  0
ENDBLK
  8
0
  0
BLOCK
  8
0
  2
OCTAGONV
 70
64
 10
0.000000
 20
0.000000
 30
0.000000
  3
OCTAGONV
  0
POLYLINE
  8
0
 66
1
 10
0.000000
 20
0.000000
 30
0.000000
 40
0.000000
 41
0.000000
 70
1
  0
VERTEX
  8
0
 10
-0.500000
 20
-0.207107
 30
0.000000
  0
VERTEX
  8
0
 10
-0.500000
 20
0.207107
 30
0.000000
  0
VERTEX
  8
0
 10
-0.207107
 20
0.500000
 30
0.000000
  0
VERTEX
  8
0
 10
0.207107
 20
0.500000
 30
0.000000
  0
VERTEX
  8
0
 10
0.500000
 20
0.207107
 30
0.000000
  0
VERTEX
  8
0
 10
0.500000
 20
-0.207107
 30
0.000000
  0
VERTEX
  8
0
 10
0.207107
 20
-0.500000
 30
0.000000
  0
VERTEX
  8
0
 10
-0.207107
 20
-0.500000
 30
0.000000
  0
SEQEND
  8
0
  0
ENDBLK
  8
0
  0
BLOCK
  8
0
  2
SQUAREV
 70
64
 10
0.000000
 20
0.000000
 30
0.000000
  3
SQUAREV
  0
SOLID
  8
0
 10
-0.500000
 20
-0.500000
 30
0.000000
 11
0.500000
 21
-0.500000
 31
0.000000
 12
-0.500000
 22
0.500000
 32
0.000000
 13
0.500000
 23
0.500000
 33
0.000000
  0
ENDBLK
  8
0
  0
BLOCK
  8
0
  2
ROUNDV
 70
64
 10
0.000000
 20
0.000000
 30
0.000000
  3
ROUNDV
  0
CIRCLE
  8
0
 10
0.000000
 20
0.000000
 30
0.000000
 40
0.500000
  0
ENDBLK
  8
0
  0
BLOCK
  8
0
  2
ANNULUSV
 70
64
 10
0.000000
 20
0.000000
 30
0.000000
  3
ANNULUSV
  0
CIRCLE
  8
0
 10
0.000000
 20
0.000000
 30
0.000000
 40
0.500000
  0
ENDBLK
  8
0
  0
BLOCK
  8
0
  2
THERMALV
 70
64
 10
0.000000
 20
0.000000
 30
0.000000
  3
THERMALV
  0
LINE
  8
0
 10
-0.237868
 20
0.450000
 30
0.000000
 11
0.237868
 21
0.450000
 31
0.000000
  0
LINE
  8
0
 10
0.450000
 20
0.237868
 30
0.000000
 11
0.450000
 21
-0.237868
 31
0.000000
  0
LINE
  8
0
 10
0.237868
 20
-0.450000
 30
0.000000
 11
-0.237868
 21
-0.450000
 31
0.000000
  0
LINE
  8
0
 10
-0.450000
 20
-0.237868
 30
0.000000
 11
-0.450000
 21
0.237868
 31
0.000000
  0
ENDBLK
  8
0
  0
ENDSEC
  0
SECTION
  2
ENTITIES
  0
LINE
  8
48
 10
8.531496
 20
0.500000
 30
0.000000
 11
8.531496
 21
1.220472
 31
0.000000
  0
LINE
  8
48
 10
8.531496
 20
1.220472
 30
0.000000
 11
11.307087
 21
1.220472
 31
0.000000
  0
LINE
  8
48
 10
7.803150
 20
-0.118110
 30
0.000000
 11
7.874016
 21
-0.118110
 31
0.000000
  0
LINE
  8
48
 10
7.874016
 20
-0.118110
 30
0.000000
 11
7.874016
 21
1.496063
 31
0.000000
  0
LINE
  8
48
 10
8.118110
 20
1.220472
 30
0.000000
 11
8.464567
 21
1.220472
 31
0.000000
  0
LINE
  8
48
 10
8.464567
 20
1.220472
 30
0.000000
 11
8.464567
 21
0.500000
 31
0.000000
  0
LINE
  8
48
 10
8.464567
 20
0.500000
 30
0.000000
 11
8.531496
 21
0.500000
 31
0.000000
  0
LINE
  8
48
 10
8.118110
 20
1.220472
 30
0.000000
 11
8.118110
 21
1.496063
 31
0.000000
  0
LINE
  8
48
 10
8.118110
 20
1.496063
 30
0.000000
 11
7.874016
 21
1.496063
 31
0.000000
  0
LINE
  8
48
 10
11.307087
 20
1.220472
 30
0.000000
 11
11.307087
 21
1.496063
 31
0.000000
  0
LINE
  8
48
 10
8.858268
 20
-0.118110
 30
0.000000
 11
8.858268
 21
0.476378
 31
0.000000
  0
LINE
  8
48
 10
8.858268
 20
0.476378
 30
0.000000
 11
8.984252
 21
0.476378
 31
0.000000
  0
LINE
  8
48
 10
8.984252
 20
0.476378
 30
0.000000
 11
8.984252
 21
-0.118110
 31
0.000000
  0
LINE
  8
48
 10
11.023622
 20
-0.118110
 30
0.000000
 11
11.023622
 21
0.472441
 31
0.000000
  0
LINE
  8
48
 10
11.023622
 20
0.472441
 30
0.000000
 11
11.149606
 21
0.472441
 31
0.000000
  0
LINE
  8
48
 10
11.149606
 20
0.472441
 30
0.000000
 11
11.149606
 21
-0.118110
 31
0.000000
  0
LINE
  8
48
 10
11.023622
 20
-0.118110
 30
0.000000
 11
8.984252
 21
-0.118110
 31
0.000000
  0
LINE
  8
48
 10
15.118110
 20
-0.118110
 30
0.000000
 11
11.535433
 21
-0.118110
 31
0.000000
  0
LINE
  8
48
 10
11.535433
 20
-0.118110
 30
0.000000
 11
11.149606
 21
-0.118110
 31
0.000000
  0
LINE
  8
48
 10
7.519685
 20
-2.952756
 30
0.000000
 11
7.519685
 21
-1.456693
 31
0.000000
  0
LINE
  8
48
 10
7.519685
 20
-1.456693
 30
0.000000
 11
7.519685
 21
0.157480
 31
0.000000
  0
LINE
  8
48
 10
7.519685
 20
0.157480
 30
0.000000
 11
7.732283
 21
0.157480
 31
0.000000
  0
LINE
  8
48
 10
7.732283
 20
0.157480
 30
0.000000
 11
7.732283
 21
-0.866142
 31
0.000000
  0
LINE
  8
48
 10
7.732283
 20
-0.866142
 30
0.000000
 11
7.803150
 21
-0.866142
 31
0.000000
  0
LINE
  8
48
 10
7.803150
 20
-0.866142
 30
0.000000
 11
7.803150
 21
-0.118110
 31
0.000000
  0
LINE
  8
48
 10
15.118110
 20
-0.118110
 30
0.000000
 11
15.118110
 21
-0.866142
 31
0.000000
  0
LINE
  8
48
 10
15.118110
 20
-0.866142
 30
0.000000
 11
15.244094
 21
-0.866142
 31
0.000000
  0
LINE
  8
48
 10
15.244094
 20
-0.866142
 30
0.000000
 11
15.244094
 21
-0.118110
 31
0.000000
  0
LINE
  8
48
 10
15.244094
 20
-0.118110
 30
0.000000
 11
15.440945
 21
-0.118110
 31
0.000000
  0
LINE
  8
48
 10
11.149606
 20
-0.118110
 30
0.000000
 11
11.023622
 21
-0.118110
 31
0.000000
  0
LINE
  8
48
 10
8.984252
 20
-0.118110
 30
0.000000
 11
8.858268
 21
-0.118110
 31
0.000000
  0
LINE
  8
48
 10
8.858268
 20
-0.118110
 30
0.000000
 11
7.874016
 21
-0.118110
 31
0.000000
  0
LINE
  8
48
 10
15.629921
 20
-1.456693
 30
0.000000
 11
7.519685
 21
-1.456693
 31
0.000000
  0
LINE
  8
48
 10
15.629921
 20
-3.070866
 30
0.000000
 11
15.629921
 21
-1.456693
 31
0.000000
  0
LINE
  8
48
 10
15.629921
 20
-1.456693
 30
0.000000
 11
15.629921
 21
0.035433
 31
0.000000
  0
LINE
  8
48
 10
11.307087
 20
1.496063
 30
0.000000
 11
11.535433
 21
1.496063
 31
0.000000
  0
LINE
  8
48
 10
11.535433
 20
-0.118110
 30
0.000000
 11
11.535433
 21
1.496063
 31
0.000000
  0
LINE
  8
48
 10
15.629921
 20
0.035433
 30
0.000000
 11
15.460630
 21
0.035433
 31
0.000000
  0
LINE
  8
48
 10
15.440945
 20
0.019685
 30
0.000000
 11
15.440945
 21
-0.118110
 31
0.000000
  0
ARC
  8
48
 10
15.458661
 20
0.017716
 30
0.000000
 40
0.017826
 50
83.659939
 51
173.659939
  0
LINE
  8
48
 10
12.125984
 20
-2.795276
 30
0.000000
 11
14.181102
 21
-2.795276
 31
0.000000
  0
LINE
  8
48
 10
8.031496
 20
-2.795276
 30
0.000000
 11
15.346457
 21
-2.795276
 31
0.000000
  0
LINE
  8
48
 10
15.629921
 20
-3.070866
 30
0.000000
 11
15.417323
 21
-3.070866
 31
0.000000
  0
LINE
  8
48
 10
15.417323
 20
-3.070866
 30
0.000000
 11
15.417323
 21
-2.047244
 31
0.000000
  0
LINE
  8
48
 10
15.417323
 20
-2.047244
 30
0.000000
 11
15.346457
 21
-2.047244
 31
0.000000
  0
LINE
  8
48
 10
15.346457
 20
-2.047244
 30
0.000000
 11
15.346457
 21
-2.795276
 31
0.000000
  0
LINE
  8
48
 10
8.031496
 20
-2.795276
 30
0.000000
 11
8.031496
 21
-2.047244
 31
0.000000
  0
LINE
  8
48
 10
8.031496
 20
-2.047244
 30
0.000000
 11
7.905512
 21
-2.047244
 31
0.000000
  0
LINE
  8
48
 10
7.905512
 20
-2.047244
 30
0.000000
 11
7.905512
 21
-2.795276
 31
0.000000
  0
LINE
  8
48
 10
7.905512
 20
-2.795276
 30
0.000000
 11
7.708661
 21
-2.795276
 31
0.000000
  0
LINE
  8
48
 10
7.519685
 20
-2.952756
 30
0.000000
 11
7.688976
 21
-2.952756
 31
0.000000
  0
LINE
  8
48
 10
7.708661
 20
-2.937008
 30
0.000000
 11
7.708661
 21
-2.795276
 31
0.000000
  0
ARC
  8
48
 10
7.690945
 20
-2.935039
 30
0.000000
 40
0.017826
 50
263.659786
 51
353.659044
  0
ENDSEC
  0
EOF
