  0
SECTION
  2
HEADER
  9
$ACADVER
  1
AC1009
  9
$FILLMODE
 70
0
  9
$EXTMIN
 10
-3.1048
 20
-46.0000
 30
0.0000
  9
$EXTMAX
 10
299.6048
 20
67.0560
 30
0.0000
  0
ENDSEC
  0
SECTION
  2
TABLES
  0
TABLE
  2
LTYPE
 70
1
  0
LTYPE
  2
CONTINUOUS
 70
64
  3
Solid line
 72
65
 73
0
 40
0
  0
ENDTAB
  0
TABLE
  2
LAYER
 70
255
  0
LAYER
  2
160
 70
64
 62
1
  6
CONTINUOUS
  0
LAYER
  2
161
 70
64
 62
1
  6
CONTINUOUS
  0
ENDTAB
  0
ENDSEC
  0
SECTION
  2
BLOCKS
  0
BLOCK
  8
0
  2
RECT
 70
64
 10
0.0000
 20
0.0000
 30
0.0000
  3
RECT
  0
SOLID
  8
0
 10
-0.5000
 20
-0.5000
 30
0.0000
 11
0.5000
 21
-0.5000
 31
0.0000
 12
-0.5000
 22
0.5000
 32
0.0000
 13
0.5000
 23
0.5000
 33
0.0000
  0
ENDBLK
  8
0
  0
BLOCK
  8
0
  2
PIE
 70
64
 10
0.0000
 20
0.0000
 30
0.0000
  3
PIE
  0
CIRCLE
  8
0
 10
0.0000
 20
0.0000
 30
0.0000
 40
0.5000
  0
ENDBLK
  8
0
  0
BLOCK
  8
0
  2
OCTAGONP
 70
64
 10
0.0000
 20
0.0000
 30
0.0000
  3
OCTAGONP
  0
POLYLINE
  8
0
 66
1
 10
0.0000
 20
0.0000
 30
0.0000
 40
0.0000
 41
0.0000
 70
1
  0
VERTEX
  8
0
 10
-0.5000
 20
-0.2071
 30
0.0000
  0
VERTEX
  8
0
 10
-0.5000
 20
0.2071
 30
0.0000
  0
VERTEX
  8
0
 10
-0.2071
 20
0.5000
 30
0.0000
  0
VERTEX
  8
0
 10
0.2071
 20
0.5000
 30
0.0000
  0
VERTEX
  8
0
 10
0.5000
 20
0.2071
 30
0.0000
  0
VERTEX
  8
0
 10
0.5000
 20
-0.2071
 30
0.0000
  0
VERTEX
  8
0
 10
0.2071
 20
-0.5000
 30
0.0000
  0
VERTEX
  8
0
 10
-0.2071
 20
-0.5000
 30
0.0000
  0
SEQEND
  8
0
  0
ENDBLK
  8
0
  0
BLOCK
  8
0
  2
SQUAREP
 70
64
 10
0.0000
 20
0.0000
 30
0.0000
  3
SQUAREP
  0
SOLID
  8
0
 10
-0.5000
 20
-0.5000
 30
0.0000
 11
0.5000
 21
-0.5000
 31
0.0000
 12
-0.5000
 22
0.5000
 32
0.0000
 13
0.5000
 23
0.5000
 33
0.0000
  0
ENDBLK
  8
0
  0
BLOCK
  8
0
  2
ROUNDP
 70
64
 10
0.0000
 20
0.0000
 30
0.0000
  3
ROUNDP
  0
CIRCLE
  8
0
 10
0.0000
 20
0.0000
 30
0.0000
 40
0.5000
  0
ENDBLK
  8
0
  0
BLOCK
  8
0
  2
ANNULUSP
 70
64
 10
0.0000
 20
0.0000
 30
0.0000
  3
ANNULUSP
  0
CIRCLE
  8
0
 10
0.0000
 20
0.0000
 30
0.0000
 40
0.5000
  0
ENDBLK
  8
0
  0
BLOCK
  8
0
  2
THERMALP
 70
64
 10
0.0000
 20
0.0000
 30
0.0000
  3
THERMALP
  0
LINE
  8
0
 10
-0.2379
 20
0.4500
 30
0.0000
 11
0.2379
 21
0.4500
 31
0.0000
  0
LINE
  8
0
 10
0.4500
 20
0.2379
 30
0.0000
 11
0.4500
 21
-0.2379
 31
0.0000
  0
LINE
  8
0
 10
0.2379
 20
-0.4500
 30
0.0000
 11
-0.2379
 21
-0.4500
 31
0.0000
  0
LINE
  8
0
 10
-0.4500
 20
-0.2379
 30
0.0000
 11
-0.4500
 21
0.2379
 31
0.0000
  0
ENDBLK
  8
0
  0
BLOCK
  8
0
  2
OCTAGONV
 70
64
 10
0.0000
 20
0.0000
 30
0.0000
  3
OCTAGONV
  0
POLYLINE
  8
0
 66
1
 10
0.0000
 20
0.0000
 30
0.0000
 40
0.0000
 41
0.0000
 70
1
  0
VERTEX
  8
0
 10
-0.5000
 20
-0.2071
 30
0.0000
  0
VERTEX
  8
0
 10
-0.5000
 20
0.2071
 30
0.0000
  0
VERTEX
  8
0
 10
-0.2071
 20
0.5000
 30
0.0000
  0
VERTEX
  8
0
 10
0.2071
 20
0.5000
 30
0.0000
  0
VERTEX
  8
0
 10
0.5000
 20
0.2071
 30
0.0000
  0
VERTEX
  8
0
 10
0.5000
 20
-0.2071
 30
0.0000
  0
VERTEX
  8
0
 10
0.2071
 20
-0.5000
 30
0.0000
  0
VERTEX
  8
0
 10
-0.2071
 20
-0.5000
 30
0.0000
  0
SEQEND
  8
0
  0
ENDBLK
  8
0
  0
BLOCK
  8
0
  2
SQUAREV
 70
64
 10
0.0000
 20
0.0000
 30
0.0000
  3
SQUAREV
  0
SOLID
  8
0
 10
-0.5000
 20
-0.5000
 30
0.0000
 11
0.5000
 21
-0.5000
 31
0.0000
 12
-0.5000
 22
0.5000
 32
0.0000
 13
0.5000
 23
0.5000
 33
0.0000
  0
ENDBLK
  8
0
  0
BLOCK
  8
0
  2
ROUNDV
 70
64
 10
0.0000
 20
0.0000
 30
0.0000
  3
ROUNDV
  0
CIRCLE
  8
0
 10
0.0000
 20
0.0000
 30
0.0000
 40
0.5000
  0
ENDBLK
  8
0
  0
BLOCK
  8
0
  2
ANNULUSV
 70
64
 10
0.0000
 20
0.0000
 30
0.0000
  3
ANNULUSV
  0
CIRCLE
  8
0
 10
0.0000
 20
0.0000
 30
0.0000
 40
0.5000
  0
ENDBLK
  8
0
  0
BLOCK
  8
0
  2
THERMALV
 70
64
 10
0.0000
 20
0.0000
 30
0.0000
  3
THERMALV
  0
LINE
  8
0
 10
-0.2379
 20
0.4500
 30
0.0000
 11
0.2379
 21
0.4500
 31
0.0000
  0
LINE
  8
0
 10
0.4500
 20
0.2379
 30
0.0000
 11
0.4500
 21
-0.2379
 31
0.0000
  0
LINE
  8
0
 10
0.2379
 20
-0.4500
 30
0.0000
 11
-0.2379
 21
-0.4500
 31
0.0000
  0
LINE
  8
0
 10
-0.4500
 20
-0.2379
 30
0.0000
 11
-0.4500
 21
0.2379
 31
0.0000
  0
ENDBLK
  8
0
  0
ENDSEC
  0
SECTION
  2
ENTITIES
  0
LINE
  8
161
 10
297.0000
 20
-1.0000
 30
0.0000
 11
297.0000
 21
-46.0000
 31
0.0000
  0
LINE
  8
161
 10
297.0000
 20
-46.0000
 30
0.0000
 11
0.0000
 21
-46.0000
 31
0.0000
  0
LINE
  8
161
 10
0.0000
 20
-46.0000
 30
0.0000
 11
0.0000
 21
-1.0000
 31
0.0000
  0
LINE
  8
161
 10
49.6000
 20
-0.9500
 30
0.0000
 11
49.6000
 21
-8.0000
 31
0.0000
  0
LINE
  8
161
 10
49.6000
 20
-8.0000
 30
0.0000
 11
59.1000
 21
-8.0000
 31
0.0000
  0
LINE
  8
161
 10
0.0000
 20
-1.0000
 30
0.0000
 11
49.6000
 21
-0.9500
 31
0.0000
  0
LINE
  8
161
 10
289.7000
 20
-8.0000
 30
0.0000
 11
289.7000
 21
-1.0000
 31
0.0000
  0
LINE
  8
161
 10
289.7000
 20
-1.0000
 30
0.0000
 11
297.0000
 21
-1.0000
 31
0.0000
  0
LINE
  8
161
 10
59.1000
 20
-8.0000
 30
0.0000
 11
59.1000
 21
-26.0000
 31
0.0000
  0
LINE
  8
161
 10
59.1000
 20
-26.0000
 30
0.0000
 11
61.1000
 21
-26.0000
 31
0.0000
  0
LINE
  8
161
 10
61.1000
 20
-26.0000
 30
0.0000
 11
61.1000
 21
-8.0000
 31
0.0000
  0
LINE
  8
161
 10
61.1000
 20
-8.0000
 30
0.0000
 11
79.1000
 21
-8.0000
 31
0.0000
  0
LINE
  8
161
 10
79.1000
 20
-8.0000
 30
0.0000
 11
79.1000
 21
-26.0000
 31
0.0000
  0
LINE
  8
161
 10
79.1000
 20
-26.0000
 30
0.0000
 11
81.1000
 21
-26.0000
 31
0.0000
  0
LINE
  8
161
 10
81.1000
 20
-26.0000
 30
0.0000
 11
81.1000
 21
-8.0000
 31
0.0000
  0
LINE
  8
161
 10
99.1000
 20
-8.0000
 30
0.0000
 11
99.1000
 21
-26.0000
 31
0.0000
  0
LINE
  8
161
 10
99.1000
 20
-26.0000
 30
0.0000
 11
101.1000
 21
-26.0000
 31
0.0000
  0
LINE
  8
161
 10
101.1000
 20
-26.0000
 30
0.0000
 11
101.1000
 21
-8.0000
 31
0.0000
  0
LINE
  8
161
 10
119.1000
 20
-8.0000
 30
0.0000
 11
119.1000
 21
-26.0000
 31
0.0000
  0
LINE
  8
161
 10
119.1000
 20
-26.0000
 30
0.0000
 11
121.1000
 21
-26.0000
 31
0.0000
  0
LINE
  8
161
 10
121.1000
 20
-26.0000
 30
0.0000
 11
121.1000
 21
-8.0000
 31
0.0000
  0
LINE
  8
161
 10
139.1000
 20
-8.0000
 30
0.0000
 11
139.1000
 21
-26.0000
 31
0.0000
  0
LINE
  8
161
 10
139.1000
 20
-26.0000
 30
0.0000
 11
141.1000
 21
-26.0000
 31
0.0000
  0
LINE
  8
161
 10
141.1000
 20
-26.0000
 30
0.0000
 11
141.1000
 21
-8.0000
 31
0.0000
  0
LINE
  8
161
 10
159.1000
 20
-8.0000
 30
0.0000
 11
159.1000
 21
-26.0000
 31
0.0000
  0
LINE
  8
161
 10
159.1000
 20
-26.0000
 30
0.0000
 11
161.1000
 21
-26.0000
 31
0.0000
  0
LINE
  8
161
 10
161.1000
 20
-26.0000
 30
0.0000
 11
161.1000
 21
-8.0000
 31
0.0000
  0
LINE
  8
161
 10
179.1000
 20
-8.0000
 30
0.0000
 11
179.1000
 21
-26.0000
 31
0.0000
  0
LINE
  8
161
 10
179.1000
 20
-26.0000
 30
0.0000
 11
181.1000
 21
-26.0000
 31
0.0000
  0
LINE
  8
161
 10
181.1000
 20
-26.0000
 30
0.0000
 11
181.1000
 21
-8.0000
 31
0.0000
  0
LINE
  8
161
 10
199.1000
 20
-8.0000
 30
0.0000
 11
199.1000
 21
-26.0000
 31
0.0000
  0
LINE
  8
161
 10
199.1000
 20
-26.0000
 30
0.0000
 11
201.1000
 21
-26.0000
 31
0.0000
  0
LINE
  8
161
 10
201.1000
 20
-26.0000
 30
0.0000
 11
201.1000
 21
-8.0000
 31
0.0000
  0
LINE
  8
161
 10
219.1000
 20
-8.0000
 30
0.0000
 11
219.1000
 21
-26.0000
 31
0.0000
  0
LINE
  8
161
 10
219.1000
 20
-26.0000
 30
0.0000
 11
221.1000
 21
-26.0000
 31
0.0000
  0
LINE
  8
161
 10
221.1000
 20
-26.0000
 30
0.0000
 11
221.1000
 21
-8.0000
 31
0.0000
  0
LINE
  8
161
 10
239.1000
 20
-8.0000
 30
0.0000
 11
239.1000
 21
-26.0000
 31
0.0000
  0
LINE
  8
161
 10
239.1000
 20
-26.0000
 30
0.0000
 11
241.1000
 21
-26.0000
 31
0.0000
  0
LINE
  8
161
 10
241.1000
 20
-26.0000
 30
0.0000
 11
241.1000
 21
-8.0000
 31
0.0000
  0
LINE
  8
161
 10
259.1000
 20
-8.0000
 30
0.0000
 11
259.1000
 21
-26.0000
 31
0.0000
  0
LINE
  8
161
 10
259.1000
 20
-26.0000
 30
0.0000
 11
261.1000
 21
-26.0000
 31
0.0000
  0
LINE
  8
161
 10
261.1000
 20
-26.0000
 30
0.0000
 11
261.1000
 21
-8.0000
 31
0.0000
  0
LINE
  8
161
 10
279.1000
 20
-8.0000
 30
0.0000
 11
279.1000
 21
-26.0000
 31
0.0000
  0
LINE
  8
161
 10
279.1000
 20
-26.0000
 30
0.0000
 11
281.1000
 21
-26.0000
 31
0.0000
  0
LINE
  8
161
 10
281.1000
 20
-26.0000
 30
0.0000
 11
281.1000
 21
-8.0000
 31
0.0000
  0
LINE
  8
161
 10
81.1000
 20
-8.0000
 30
0.0000
 11
99.1000
 21
-8.0000
 31
0.0000
  0
LINE
  8
161
 10
101.1000
 20
-8.0000
 30
0.0000
 11
119.1000
 21
-8.0000
 31
0.0000
  0
LINE
  8
161
 10
121.1000
 20
-8.0000
 30
0.0000
 11
139.1000
 21
-8.0000
 31
0.0000
  0
LINE
  8
161
 10
141.1000
 20
-8.0000
 30
0.0000
 11
159.1000
 21
-8.0000
 31
0.0000
  0
LINE
  8
161
 10
161.1000
 20
-8.0000
 30
0.0000
 11
179.1000
 21
-8.0000
 31
0.0000
  0
LINE
  8
161
 10
181.1000
 20
-8.0000
 30
0.0000
 11
199.1000
 21
-8.0000
 31
0.0000
  0
LINE
  8
161
 10
201.1000
 20
-8.0000
 30
0.0000
 11
219.1000
 21
-8.0000
 31
0.0000
  0
LINE
  8
161
 10
221.1000
 20
-8.0000
 30
0.0000
 11
239.1000
 21
-8.0000
 31
0.0000
  0
LINE
  8
161
 10
241.1000
 20
-8.0000
 30
0.0000
 11
259.0500
 21
-8.0000
 31
0.0000
  0
LINE
  8
161
 10
261.1000
 20
-8.0000
 30
0.0000
 11
279.1000
 21
-8.0000
 31
0.0000
  0
LINE
  8
161
 10
281.1000
 20
-8.0000
 30
0.0000
 11
289.7000
 21
-8.0000
 31
0.0000
  0
LINE
  8
160
 10
297.0000
 20
45.0000
 30
0.0000
 11
297.0000
 21
0.0000
 31
0.0000
  0
LINE
  8
160
 10
202.0000
 20
33.0000
 30
0.0000
 11
201.1000
 21
33.0000
 31
0.0000
  0
LINE
  8
160
 10
179.1000
 20
33.0000
 30
0.0000
 11
168.0000
 21
33.0000
 31
0.0000
  0
LINE
  8
160
 10
162.0000
 20
33.0000
 30
0.0000
 11
161.1000
 21
33.0000
 31
0.0000
  0
LINE
  8
160
 10
139.1000
 20
33.0000
 30
0.0000
 11
128.0000
 21
33.0000
 31
0.0000
  0
LINE
  8
160
 10
122.0000
 20
7.0000
 30
0.0000
 11
122.0000
 21
33.0000
 31
0.0000
  0
LINE
  8
160
 10
122.0000
 20
33.0000
 30
0.0000
 11
121.1000
 21
33.0000
 31
0.0000
  0
LINE
  8
160
 10
119.1000
 20
33.0000
 30
0.0000
 11
108.0000
 21
33.0000
 31
0.0000
  0
LINE
  8
160
 10
102.0000
 20
33.0000
 30
0.0000
 11
101.1000
 21
33.0000
 31
0.0000
  0
LINE
  8
160
 10
59.1000
 20
33.0000
 30
0.0000
 11
48.0000
 21
33.0000
 31
0.0000
  0
LINE
  8
160
 10
0.0000
 20
0.0000
 30
0.0000
 11
0.0000
 21
47.0000
 31
0.0000
  0
LINE
  8
160
 10
49.6000
 20
44.0000
 30
0.0000
 11
49.6000
 21
38.0000
 31
0.0000
  0
LINE
  8
160
 10
15.5000
 20
44.0000
 30
0.0000
 11
49.6000
 21
44.0000
 31
0.0000
  0
LINE
  8
160
 10
289.7000
 20
38.0000
 30
0.0000
 11
289.7000
 21
45.0000
 31
0.0000
  0
LINE
  8
160
 10
289.7000
 20
45.0000
 30
0.0000
 11
297.0000
 21
45.0000
 31
0.0000
  0
LINE
  8
160
 10
49.6000
 20
38.0000
 30
0.0000
 11
259.0500
 21
38.0000
 31
0.0000
  0
LINE
  8
160
 10
259.1000
 20
38.0000
 30
0.0000
 11
289.7000
 21
38.0000
 31
0.0000
  0
LINE
  8
160
 10
297.0000
 20
0.0000
 30
0.0000
 11
0.0000
 21
0.0000
 31
0.0000
  0
LINE
  8
160
 10
128.0000
 20
33.0000
 30
0.0000
 11
128.0000
 21
7.0000
 31
0.0000
  0
LINE
  8
160
 10
202.0000
 20
33.0000
 30
0.0000
 11
202.0000
 21
7.0000
 31
0.0000
  0
LINE
  8
160
 10
208.0000
 20
33.0000
 30
0.0000
 11
208.0000
 21
7.0000
 31
0.0000
  0
LINE
  8
160
 10
0.0000
 20
47.0000
 30
0.0000
 11
15.5000
 21
47.0000
 31
0.0000
  0
LINE
  8
160
 10
15.5000
 20
47.0000
 30
0.0000
 11
15.5000
 21
44.0000
 31
0.0000
  0
LINE
  8
160
 10
162.0000
 20
7.0000
 30
0.0000
 11
162.0000
 21
33.0000
 31
0.0000
  0
LINE
  8
160
 10
168.0000
 20
7.0000
 30
0.0000
 11
168.0000
 21
33.0000
 31
0.0000
  0
LINE
  8
160
 10
208.0000
 20
33.0000
 30
0.0000
 11
219.1000
 21
33.0000
 31
0.0000
  0
LINE
  8
160
 10
59.1000
 20
33.0000
 30
0.0000
 11
59.1000
 21
35.5000
 31
0.0000
  0
LINE
  8
160
 10
59.1000
 20
35.5000
 30
0.0000
 11
61.1000
 21
35.5000
 31
0.0000
  0
LINE
  8
160
 10
61.1000
 20
35.5000
 30
0.0000
 11
61.1000
 21
33.0000
 31
0.0000
  0
LINE
  8
160
 10
79.1000
 20
33.0000
 30
0.0000
 11
79.1000
 21
35.5000
 31
0.0000
  0
LINE
  8
160
 10
79.1000
 20
35.5000
 30
0.0000
 11
81.1000
 21
35.5000
 31
0.0000
  0
LINE
  8
160
 10
81.1000
 20
35.5000
 30
0.0000
 11
81.1000
 21
33.0000
 31
0.0000
  0
LINE
  8
160
 10
99.1000
 20
33.0000
 30
0.0000
 11
99.1000
 21
35.5000
 31
0.0000
  0
LINE
  8
160
 10
99.1000
 20
35.5000
 30
0.0000
 11
101.1000
 21
35.5000
 31
0.0000
  0
LINE
  8
160
 10
101.1000
 20
35.5000
 30
0.0000
 11
101.1000
 21
33.0000
 31
0.0000
  0
LINE
  8
160
 10
119.1000
 20
33.0000
 30
0.0000
 11
119.1000
 21
35.5000
 31
0.0000
  0
LINE
  8
160
 10
119.1000
 20
35.5000
 30
0.0000
 11
121.1000
 21
35.5000
 31
0.0000
  0
LINE
  8
160
 10
121.1000
 20
35.5000
 30
0.0000
 11
121.1000
 21
33.0000
 31
0.0000
  0
LINE
  8
160
 10
139.1000
 20
33.0000
 30
0.0000
 11
139.1000
 21
35.6000
 31
0.0000
  0
LINE
  8
160
 10
139.1000
 20
35.6000
 30
0.0000
 11
141.1000
 21
35.6000
 31
0.0000
  0
LINE
  8
160
 10
141.1000
 20
35.6000
 30
0.0000
 11
141.1000
 21
33.0000
 31
0.0000
  0
LINE
  8
160
 10
159.1000
 20
33.0000
 30
0.0000
 11
159.1000
 21
35.6000
 31
0.0000
  0
LINE
  8
160
 10
159.1000
 20
35.6000
 30
0.0000
 11
161.1000
 21
35.6000
 31
0.0000
  0
LINE
  8
160
 10
161.1000
 20
35.6000
 30
0.0000
 11
161.1000
 21
33.0000
 31
0.0000
  0
LINE
  8
160
 10
179.1000
 20
33.0000
 30
0.0000
 11
179.1000
 21
35.5000
 31
0.0000
  0
LINE
  8
160
 10
179.1000
 20
35.5000
 30
0.0000
 11
181.1000
 21
35.5000
 31
0.0000
  0
LINE
  8
160
 10
181.1000
 20
35.5000
 30
0.0000
 11
181.1000
 21
33.0000
 31
0.0000
  0
LINE
  8
160
 10
199.1000
 20
33.0000
 30
0.0000
 11
199.1000
 21
35.5000
 31
0.0000
  0
LINE
  8
160
 10
199.1000
 20
35.5000
 30
0.0000
 11
201.1000
 21
35.5000
 31
0.0000
  0
LINE
  8
160
 10
201.1000
 20
35.5000
 30
0.0000
 11
201.1000
 21
33.0000
 31
0.0000
  0
LINE
  8
160
 10
219.1000
 20
33.0000
 30
0.0000
 11
219.1000
 21
35.5000
 31
0.0000
  0
LINE
  8
160
 10
219.1000
 20
35.5000
 30
0.0000
 11
221.1000
 21
35.5000
 31
0.0000
  0
LINE
  8
160
 10
221.1000
 20
35.5000
 30
0.0000
 11
221.1000
 21
33.0000
 31
0.0000
  0
LINE
  8
160
 10
279.1000
 20
33.0000
 30
0.0000
 11
279.1000
 21
35.5000
 31
0.0000
  0
LINE
  8
160
 10
279.1000
 20
35.5000
 30
0.0000
 11
281.1000
 21
35.5000
 31
0.0000
  0
LINE
  8
160
 10
239.1000
 20
33.0000
 30
0.0000
 11
239.1000
 21
35.5000
 31
0.0000
  0
LINE
  8
160
 10
239.1000
 20
35.5000
 30
0.0000
 11
241.1000
 21
35.5000
 31
0.0000
  0
LINE
  8
160
 10
241.1000
 20
35.5000
 30
0.0000
 11
241.1000
 21
33.0000
 31
0.0000
  0
LINE
  8
160
 10
122.0000
 20
7.0000
 30
0.0000
 11
108.0000
 21
7.0000
 31
0.0000
  0
LINE
  8
160
 10
108.0000
 20
7.0000
 30
0.0000
 11
108.0000
 21
33.0000
 31
0.0000
  0
LINE
  8
160
 10
102.0000
 20
33.0000
 30
0.0000
 11
102.0000
 21
7.0000
 31
0.0000
  0
LINE
  8
160
 10
48.0000
 20
33.0000
 30
0.0000
 11
48.0000
 21
7.0000
 31
0.0000
  0
LINE
  8
160
 10
39.0000
 20
9.0000
 30
0.0000
 11
44.0000
 21
9.0000
 31
0.0000
  0
LINE
  8
160
 10
44.0000
 20
9.0000
 30
0.0000
 11
44.0000
 21
35.0000
 31
0.0000
  0
LINE
  8
160
 10
44.0000
 20
35.0000
 30
0.0000
 11
39.0000
 21
35.0000
 31
0.0000
  0
LINE
  8
160
 10
39.0000
 20
35.0000
 30
0.0000
 11
39.0000
 21
9.0000
 31
0.0000
  0
LINE
  8
160
 10
248.5000
 20
33.0000
 30
0.0000
 11
248.5000
 21
7.0000
 31
0.0000
  0
LINE
  8
160
 10
241.1000
 20
33.0000
 30
0.0000
 11
241.5000
 21
33.0000
 31
0.0000
  0
LINE
  8
160
 10
241.5000
 20
33.0000
 30
0.0000
 11
241.5000
 21
7.0000
 31
0.0000
  0
LINE
  8
160
 10
148.0000
 20
7.0000
 30
0.0000
 11
148.0000
 21
33.0000
 31
0.0000
  0
LINE
  8
160
 10
142.0000
 20
33.0000
 30
0.0000
 11
142.0000
 21
7.0000
 31
0.0000
  0
LINE
  8
160
 10
188.0000
 20
7.0000
 30
0.0000
 11
188.0000
 21
33.0000
 31
0.0000
  0
LINE
  8
160
 10
182.0000
 20
33.0000
 30
0.0000
 11
182.0000
 21
7.0000
 31
0.0000
  0
LINE
  8
160
 10
228.0000
 20
7.0000
 30
0.0000
 11
228.0000
 21
33.0000
 31
0.0000
  0
LINE
  8
160
 10
222.0000
 20
33.0000
 30
0.0000
 11
222.0000
 21
7.0000
 31
0.0000
  0
LINE
  8
160
 10
88.0000
 20
7.0000
 30
0.0000
 11
88.0000
 21
33.0000
 31
0.0000
  0
LINE
  8
160
 10
82.0000
 20
33.0000
 30
0.0000
 11
82.0000
 21
7.0000
 31
0.0000
  0
LINE
  8
160
 10
68.0000
 20
7.0000
 30
0.0000
 11
68.0000
 21
33.0000
 31
0.0000
  0
LINE
  8
160
 10
62.0000
 20
33.0000
 30
0.0000
 11
62.0000
 21
7.0000
 31
0.0000
  0
LINE
  8
160
 10
48.0000
 20
7.0000
 30
0.0000
 11
62.0000
 21
7.0000
 31
0.0000
  0
LINE
  8
160
 10
68.0000
 20
7.0000
 30
0.0000
 11
82.0000
 21
7.0000
 31
0.0000
  0
LINE
  8
160
 10
61.1000
 20
33.0000
 30
0.0000
 11
62.0000
 21
33.0000
 31
0.0000
  0
LINE
  8
160
 10
68.0000
 20
33.0000
 30
0.0000
 11
79.1000
 21
33.0000
 31
0.0000
  0
LINE
  8
160
 10
82.0000
 20
33.0000
 30
0.0000
 11
81.1000
 21
33.0000
 31
0.0000
  0
LINE
  8
160
 10
88.0000
 20
33.0000
 30
0.0000
 11
99.1000
 21
33.0000
 31
0.0000
  0
LINE
  8
160
 10
88.0000
 20
7.0000
 30
0.0000
 11
102.0000
 21
7.0000
 31
0.0000
  0
LINE
  8
160
 10
128.0000
 20
7.0000
 30
0.0000
 11
142.0000
 21
7.0000
 31
0.0000
  0
LINE
  8
160
 10
148.0000
 20
7.0000
 30
0.0000
 11
162.0000
 21
7.0000
 31
0.0000
  0
LINE
  8
160
 10
159.1000
 20
33.0000
 30
0.0000
 11
148.0000
 21
33.0000
 31
0.0000
  0
LINE
  8
160
 10
142.0000
 20
33.0000
 30
0.0000
 11
141.1000
 21
33.0000
 31
0.0000
  0
LINE
  8
160
 10
221.1000
 20
33.0000
 30
0.0000
 11
222.0000
 21
33.0000
 31
0.0000
  0
LINE
  8
160
 10
228.0000
 20
33.0000
 30
0.0000
 11
239.1000
 21
33.0000
 31
0.0000
  0
LINE
  8
160
 10
241.5000
 20
7.0000
 30
0.0000
 11
228.0000
 21
7.0000
 31
0.0000
  0
LINE
  8
160
 10
222.0000
 20
7.0000
 30
0.0000
 11
208.0000
 21
7.0000
 31
0.0000
  0
LINE
  8
160
 10
259.1000
 20
33.0000
 30
0.0000
 11
259.1000
 21
35.5000
 31
0.0000
  0
LINE
  8
160
 10
259.1000
 20
35.5000
 30
0.0000
 11
261.1000
 21
35.5000
 31
0.0000
  0
LINE
  8
160
 10
261.1000
 20
35.5000
 30
0.0000
 11
261.1000
 21
33.0000
 31
0.0000
  0
LINE
  8
160
 10
261.1000
 20
33.0000
 30
0.0000
 11
262.0000
 21
33.0000
 31
0.0000
  0
LINE
  8
160
 10
268.0000
 20
7.0000
 30
0.0000
 11
268.0000
 21
33.0000
 31
0.0000
  0
LINE
  8
160
 10
262.0000
 20
33.0000
 30
0.0000
 11
262.0000
 21
7.0000
 31
0.0000
  0
LINE
  8
160
 10
259.1000
 20
33.0000
 30
0.0000
 11
248.5000
 21
33.0000
 31
0.0000
  0
LINE
  8
160
 10
268.0000
 20
33.0000
 30
0.0000
 11
279.1000
 21
33.0000
 31
0.0000
  0
LINE
  8
160
 10
281.1000
 20
7.0000
 30
0.0000
 11
268.0000
 21
7.0000
 31
0.0000
  0
LINE
  8
160
 10
262.0000
 20
7.0000
 30
0.0000
 11
248.5000
 21
7.0000
 31
0.0000
  0
LINE
  8
160
 10
202.0000
 20
7.0000
 30
0.0000
 11
188.0000
 21
7.0000
 31
0.0000
  0
LINE
  8
160
 10
182.0000
 20
7.0000
 30
0.0000
 11
168.0000
 21
7.0000
 31
0.0000
  0
LINE
  8
160
 10
182.0000
 20
33.0000
 30
0.0000
 11
181.1000
 21
33.0000
 31
0.0000
  0
LINE
  8
160
 10
199.1000
 20
33.0000
 30
0.0000
 11
188.0000
 21
33.0000
 31
0.0000
  0
LINE
  8
160
 10
281.1000
 20
35.5000
 30
0.0000
 11
281.1000
 21
33.0000
 31
0.0000
  0
LINE
  8
160
 10
281.1000
 20
33.0000
 30
0.0000
 11
282.0000
 21
33.0000
 31
0.0000
  0
LINE
  8
160
 10
282.0000
 20
33.0000
 30
0.0000
 11
282.0000
 21
7.0000
 31
0.0000
  0
LINE
  8
160
 10
282.0000
 20
7.0000
 30
0.0000
 11
268.5000
 21
7.0000
 31
0.0000
  0
CIRCLE
  8
161
 10
10.0000
 20
-28.0000
 30
0.0000
 40
3.2000
  0
CIRCLE
  8
161
 10
10.0000
 20
-16.0000
 30
0.0000
 40
3.2000
  0
CIRCLE
  8
161
 10
289.4000
 20
-16.0000
 30
0.0000
 40
3.2000
  0
CIRCLE
  8
161
 10
289.4000
 20
-28.0000
 30
0.0000
 40
3.2000
  0
CIRCLE
  8
160
 10
10.0000
 20
18.0000
 30
0.0000
 40
3.2000
  0
CIRCLE
  8
160
 10
10.0000
 20
31.7500
 30
0.0000
 40
3.2000
  0
CIRCLE
  8
160
 10
289.4000
 20
31.7500
 30
0.0000
 40
3.2000
  0
CIRCLE
  8
160
 10
289.4000
 20
18.0000
 30
0.0000
 40
3.2000
  0
CIRCLE
  8
160
 10
10.0000
 20
43.0000
 30
0.0000
 40
3.2000
  0
CIRCLE
  8
160
 10
19.4500
 20
35.9000
 30
0.0000
 40
3.2000
  0
ENDSEC
  0
EOF
