  0
SECTION
  2
HEADER
  9
$ACADVER
  1
AC1009
  9
$FILLMODE
 70
0
  9
$EXTMIN
 10
-25.0457
 20
-0.0125
 30
0.0000
  9
$EXTMAX
 10
192.0457
 20
80.0000
 30
0.0000
  0
ENDSEC
  0
SECTION
  2
TABLES
  0
TABLE
  2
LTYPE
 70
1
  0
LTYPE
  2
CONTINUOUS
 70
64
  3
Solid line
 72
65
 73
0
 40
0
  0
ENDTAB
  0
TABLE
  2
LAYER
 70
255
  0
LAYER
  2
20
 70
64
 62
178
  6
CONTINUOUS
  0
ENDTAB
  0
ENDSEC
  0
SECTION
  2
BLOCKS
  0
BLOCK
  8
0
  2
RECT
 70
64
 10
0.0000
 20
0.0000
 30
0.0000
  3
RECT
  0
SOLID
  8
0
 10
-0.5000
 20
-0.5000
 30
0.0000
 11
0.5000
 21
-0.5000
 31
0.0000
 12
-0.5000
 22
0.5000
 32
0.0000
 13
0.5000
 23
0.5000
 33
0.0000
  0
ENDBLK
  8
0
  0
BLOCK
  8
0
  2
PIE
 70
64
 10
0.0000
 20
0.0000
 30
0.0000
  3
PIE
  0
CIRCLE
  8
0
 10
0.0000
 20
0.0000
 30
0.0000
 40
0.5000
  0
ENDBLK
  8
0
  0
BLOCK
  8
0
  2
OCTAGONP
 70
64
 10
0.0000
 20
0.0000
 30
0.0000
  3
OCTAGONP
  0
POLYLINE
  8
0
 66
1
 10
0.0000
 20
0.0000
 30
0.0000
 40
0.0000
 41
0.0000
 70
1
  0
VERTEX
  8
0
 10
-0.5000
 20
-0.2071
 30
0.0000
  0
VERTEX
  8
0
 10
-0.5000
 20
0.2071
 30
0.0000
  0
VERTEX
  8
0
 10
-0.2071
 20
0.5000
 30
0.0000
  0
VERTEX
  8
0
 10
0.2071
 20
0.5000
 30
0.0000
  0
VERTEX
  8
0
 10
0.5000
 20
0.2071
 30
0.0000
  0
VERTEX
  8
0
 10
0.5000
 20
-0.2071
 30
0.0000
  0
VERTEX
  8
0
 10
0.2071
 20
-0.5000
 30
0.0000
  0
VERTEX
  8
0
 10
-0.2071
 20
-0.5000
 30
0.0000
  0
SEQEND
  8
0
  0
ENDBLK
  8
0
  0
BLOCK
  8
0
  2
SQUAREP
 70
64
 10
0.0000
 20
0.0000
 30
0.0000
  3
SQUAREP
  0
SOLID
  8
0
 10
-0.5000
 20
-0.5000
 30
0.0000
 11
0.5000
 21
-0.5000
 31
0.0000
 12
-0.5000
 22
0.5000
 32
0.0000
 13
0.5000
 23
0.5000
 33
0.0000
  0
ENDBLK
  8
0
  0
BLOCK
  8
0
  2
ROUNDP
 70
64
 10
0.0000
 20
0.0000
 30
0.0000
  3
ROUNDP
  0
CIRCLE
  8
0
 10
0.0000
 20
0.0000
 30
0.0000
 40
0.5000
  0
ENDBLK
  8
0
  0
BLOCK
  8
0
  2
ANNULUSP
 70
64
 10
0.0000
 20
0.0000
 30
0.0000
  3
ANNULUSP
  0
CIRCLE
  8
0
 10
0.0000
 20
0.0000
 30
0.0000
 40
0.5000
  0
ENDBLK
  8
0
  0
BLOCK
  8
0
  2
THERMALP
 70
64
 10
0.0000
 20
0.0000
 30
0.0000
  3
THERMALP
  0
LINE
  8
0
 10
-0.2379
 20
0.4500
 30
0.0000
 11
0.2379
 21
0.4500
 31
0.0000
  0
LINE
  8
0
 10
0.4500
 20
0.2379
 30
0.0000
 11
0.4500
 21
-0.2379
 31
0.0000
  0
LINE
  8
0
 10
0.2379
 20
-0.4500
 30
0.0000
 11
-0.2379
 21
-0.4500
 31
0.0000
  0
LINE
  8
0
 10
-0.4500
 20
-0.2379
 30
0.0000
 11
-0.4500
 21
0.2379
 31
0.0000
  0
ENDBLK
  8
0
  0
BLOCK
  8
0
  2
OCTAGONV
 70
64
 10
0.0000
 20
0.0000
 30
0.0000
  3
OCTAGONV
  0
POLYLINE
  8
0
 66
1
 10
0.0000
 20
0.0000
 30
0.0000
 40
0.0000
 41
0.0000
 70
1
  0
VERTEX
  8
0
 10
-0.5000
 20
-0.2071
 30
0.0000
  0
VERTEX
  8
0
 10
-0.5000
 20
0.2071
 30
0.0000
  0
VERTEX
  8
0
 10
-0.2071
 20
0.5000
 30
0.0000
  0
VERTEX
  8
0
 10
0.2071
 20
0.5000
 30
0.0000
  0
VERTEX
  8
0
 10
0.5000
 20
0.2071
 30
0.0000
  0
VERTEX
  8
0
 10
0.5000
 20
-0.2071
 30
0.0000
  0
VERTEX
  8
0
 10
0.2071
 20
-0.5000
 30
0.0000
  0
VERTEX
  8
0
 10
-0.2071
 20
-0.5000
 30
0.0000
  0
SEQEND
  8
0
  0
ENDBLK
  8
0
  0
BLOCK
  8
0
  2
SQUAREV
 70
64
 10
0.0000
 20
0.0000
 30
0.0000
  3
SQUAREV
  0
SOLID
  8
0
 10
-0.5000
 20
-0.5000
 30
0.0000
 11
0.5000
 21
-0.5000
 31
0.0000
 12
-0.5000
 22
0.5000
 32
0.0000
 13
0.5000
 23
0.5000
 33
0.0000
  0
ENDBLK
  8
0
  0
BLOCK
  8
0
  2
ROUNDV
 70
64
 10
0.0000
 20
0.0000
 30
0.0000
  3
ROUNDV
  0
CIRCLE
  8
0
 10
0.0000
 20
0.0000
 30
0.0000
 40
0.5000
  0
ENDBLK
  8
0
  0
BLOCK
  8
0
  2
ANNULUSV
 70
64
 10
0.0000
 20
0.0000
 30
0.0000
  3
ANNULUSV
  0
CIRCLE
  8
0
 10
0.0000
 20
0.0000
 30
0.0000
 40
0.5000
  0
ENDBLK
  8
0
  0
BLOCK
  8
0
  2
THERMALV
 70
64
 10
0.0000
 20
0.0000
 30
0.0000
  3
THERMALV
  0
LINE
  8
0
 10
-0.2379
 20
0.4500
 30
0.0000
 11
0.2379
 21
0.4500
 31
0.0000
  0
LINE
  8
0
 10
0.4500
 20
0.2379
 30
0.0000
 11
0.4500
 21
-0.2379
 31
0.0000
  0
LINE
  8
0
 10
0.2379
 20
-0.4500
 30
0.0000
 11
-0.2379
 21
-0.4500
 31
0.0000
  0
LINE
  8
0
 10
-0.4500
 20
-0.2379
 30
0.0000
 11
-0.4500
 21
0.2379
 31
0.0000
  0
ENDBLK
  8
0
  0
ENDSEC
  0
SECTION
  2
ENTITIES
  0
LINE
  8
20
 10
9.2000
 20
9.9000
 30
0.0000
 11
12.0000
 21
9.9000
 31
0.0000
  0
LINE
  8
20
 10
12.0000
 20
9.9000
 30
0.0000
 11
14.7000
 21
9.9000
 31
0.0000
  0
LINE
  8
20
 10
12.0000
 20
7.6000
 30
0.0000
 11
12.0000
 21
9.9000
 31
0.0000
  0
LINE
  8
20
 10
24.8000
 20
10.7000
 30
0.0000
 11
22.0000
 21
10.7000
 31
0.0000
  0
LINE
  8
20
 10
22.0000
 20
10.7000
 30
0.0000
 11
19.3000
 21
10.7000
 31
0.0000
  0
LINE
  8
20
 10
22.0000
 20
13.0000
 30
0.0000
 11
22.0000
 21
10.7000
 31
0.0000
  0
LINE
  8
20
 10
29.2000
 20
9.9000
 30
0.0000
 11
32.0000
 21
9.9000
 31
0.0000
  0
LINE
  8
20
 10
32.0000
 20
9.9000
 30
0.0000
 11
34.7000
 21
9.9000
 31
0.0000
  0
LINE
  8
20
 10
32.0000
 20
7.6000
 30
0.0000
 11
32.0000
 21
9.9000
 31
0.0000
  0
LINE
  8
20
 10
44.8000
 20
10.7000
 30
0.0000
 11
42.0000
 21
10.7000
 31
0.0000
  0
LINE
  8
20
 10
42.0000
 20
10.7000
 30
0.0000
 11
39.3000
 21
10.7000
 31
0.0000
  0
LINE
  8
20
 10
42.0000
 20
13.0000
 30
0.0000
 11
42.0000
 21
10.7000
 31
0.0000
  0
LINE
  8
20
 10
49.2000
 20
9.9000
 30
0.0000
 11
52.0000
 21
9.9000
 31
0.0000
  0
LINE
  8
20
 10
52.0000
 20
9.9000
 30
0.0000
 11
54.7000
 21
9.9000
 31
0.0000
  0
LINE
  8
20
 10
52.0000
 20
7.6000
 30
0.0000
 11
52.0000
 21
9.9000
 31
0.0000
  0
LINE
  8
20
 10
64.8000
 20
10.7000
 30
0.0000
 11
62.0000
 21
10.7000
 31
0.0000
  0
LINE
  8
20
 10
62.0000
 20
10.7000
 30
0.0000
 11
59.3000
 21
10.7000
 31
0.0000
  0
LINE
  8
20
 10
62.0000
 20
13.0000
 30
0.0000
 11
62.0000
 21
10.7000
 31
0.0000
  0
LINE
  8
20
 10
69.2000
 20
9.9000
 30
0.0000
 11
72.0000
 21
9.9000
 31
0.0000
  0
LINE
  8
20
 10
72.0000
 20
9.9000
 30
0.0000
 11
74.7000
 21
9.9000
 31
0.0000
  0
LINE
  8
20
 10
72.0000
 20
7.6000
 30
0.0000
 11
72.0000
 21
9.9000
 31
0.0000
  0
LINE
  8
20
 10
84.8000
 20
10.7000
 30
0.0000
 11
82.0000
 21
10.7000
 31
0.0000
  0
LINE
  8
20
 10
82.0000
 20
10.7000
 30
0.0000
 11
79.3000
 21
10.7000
 31
0.0000
  0
LINE
  8
20
 10
82.0000
 20
13.0000
 30
0.0000
 11
82.0000
 21
10.7000
 31
0.0000
  0
LINE
  8
20
 10
89.2000
 20
9.9000
 30
0.0000
 11
92.0000
 21
9.9000
 31
0.0000
  0
LINE
  8
20
 10
92.0000
 20
9.9000
 30
0.0000
 11
94.7000
 21
9.9000
 31
0.0000
  0
LINE
  8
20
 10
92.0000
 20
7.6000
 30
0.0000
 11
92.0000
 21
9.9000
 31
0.0000
  0
LINE
  8
20
 10
104.8000
 20
10.7000
 30
0.0000
 11
102.0000
 21
10.7000
 31
0.0000
  0
LINE
  8
20
 10
102.0000
 20
10.7000
 30
0.0000
 11
99.3000
 21
10.7000
 31
0.0000
  0
LINE
  8
20
 10
102.0000
 20
13.0000
 30
0.0000
 11
102.0000
 21
10.7000
 31
0.0000
  0
LINE
  8
20
 10
109.2000
 20
9.9000
 30
0.0000
 11
112.0000
 21
9.9000
 31
0.0000
  0
LINE
  8
20
 10
112.0000
 20
9.9000
 30
0.0000
 11
114.7000
 21
9.9000
 31
0.0000
  0
LINE
  8
20
 10
112.0000
 20
7.6000
 30
0.0000
 11
112.0000
 21
9.9000
 31
0.0000
  0
LINE
  8
20
 10
124.8000
 20
10.7000
 30
0.0000
 11
122.0000
 21
10.7000
 31
0.0000
  0
LINE
  8
20
 10
122.0000
 20
10.7000
 30
0.0000
 11
119.3000
 21
10.7000
 31
0.0000
  0
LINE
  8
20
 10
122.0000
 20
13.0000
 30
0.0000
 11
122.0000
 21
10.7000
 31
0.0000
  0
LINE
  8
20
 10
129.2000
 20
9.9000
 30
0.0000
 11
132.0000
 21
9.9000
 31
0.0000
  0
LINE
  8
20
 10
132.0000
 20
9.9000
 30
0.0000
 11
134.7000
 21
9.9000
 31
0.0000
  0
LINE
  8
20
 10
132.0000
 20
7.6000
 30
0.0000
 11
132.0000
 21
9.9000
 31
0.0000
  0
LINE
  8
20
 10
144.8000
 20
10.7000
 30
0.0000
 11
142.0000
 21
10.7000
 31
0.0000
  0
LINE
  8
20
 10
142.0000
 20
10.7000
 30
0.0000
 11
139.3000
 21
10.7000
 31
0.0000
  0
LINE
  8
20
 10
142.0000
 20
13.0000
 30
0.0000
 11
142.0000
 21
10.7000
 31
0.0000
  0
LINE
  8
20
 10
149.2000
 20
9.9000
 30
0.0000
 11
152.0000
 21
9.9000
 31
0.0000
  0
LINE
  8
20
 10
152.0000
 20
9.9000
 30
0.0000
 11
154.7000
 21
9.9000
 31
0.0000
  0
LINE
  8
20
 10
152.0000
 20
7.6000
 30
0.0000
 11
152.0000
 21
9.9000
 31
0.0000
  0
LINE
  8
20
 10
164.8000
 20
10.7000
 30
0.0000
 11
162.0000
 21
10.7000
 31
0.0000
  0
LINE
  8
20
 10
162.0000
 20
10.7000
 30
0.0000
 11
159.3000
 21
10.7000
 31
0.0000
  0
LINE
  8
20
 10
162.0000
 20
13.0000
 30
0.0000
 11
162.0000
 21
10.7000
 31
0.0000
  0
LINE
  8
20
 10
9.2000
 20
29.9000
 30
0.0000
 11
12.0000
 21
29.9000
 31
0.0000
  0
LINE
  8
20
 10
12.0000
 20
29.9000
 30
0.0000
 11
14.7000
 21
29.9000
 31
0.0000
  0
LINE
  8
20
 10
12.0000
 20
27.6000
 30
0.0000
 11
12.0000
 21
29.9000
 31
0.0000
  0
LINE
  8
20
 10
24.8000
 20
30.7000
 30
0.0000
 11
22.0000
 21
30.7000
 31
0.0000
  0
LINE
  8
20
 10
22.0000
 20
30.7000
 30
0.0000
 11
19.3000
 21
30.7000
 31
0.0000
  0
LINE
  8
20
 10
22.0000
 20
33.0000
 30
0.0000
 11
22.0000
 21
30.7000
 31
0.0000
  0
LINE
  8
20
 10
29.2000
 20
29.9000
 30
0.0000
 11
32.0000
 21
29.9000
 31
0.0000
  0
LINE
  8
20
 10
32.0000
 20
29.9000
 30
0.0000
 11
34.7000
 21
29.9000
 31
0.0000
  0
LINE
  8
20
 10
32.0000
 20
27.6000
 30
0.0000
 11
32.0000
 21
29.9000
 31
0.0000
  0
LINE
  8
20
 10
44.8000
 20
30.7000
 30
0.0000
 11
42.0000
 21
30.7000
 31
0.0000
  0
LINE
  8
20
 10
42.0000
 20
30.7000
 30
0.0000
 11
39.3000
 21
30.7000
 31
0.0000
  0
LINE
  8
20
 10
42.0000
 20
33.0000
 30
0.0000
 11
42.0000
 21
30.7000
 31
0.0000
  0
LINE
  8
20
 10
49.2000
 20
29.9000
 30
0.0000
 11
52.0000
 21
29.9000
 31
0.0000
  0
LINE
  8
20
 10
52.0000
 20
29.9000
 30
0.0000
 11
54.7000
 21
29.9000
 31
0.0000
  0
LINE
  8
20
 10
52.0000
 20
27.6000
 30
0.0000
 11
52.0000
 21
29.9000
 31
0.0000
  0
LINE
  8
20
 10
64.8000
 20
30.7000
 30
0.0000
 11
62.0000
 21
30.7000
 31
0.0000
  0
LINE
  8
20
 10
62.0000
 20
30.7000
 30
0.0000
 11
59.3000
 21
30.7000
 31
0.0000
  0
LINE
  8
20
 10
62.0000
 20
33.0000
 30
0.0000
 11
62.0000
 21
30.7000
 31
0.0000
  0
LINE
  8
20
 10
69.2000
 20
29.9000
 30
0.0000
 11
72.0000
 21
29.9000
 31
0.0000
  0
LINE
  8
20
 10
72.0000
 20
29.9000
 30
0.0000
 11
74.7000
 21
29.9000
 31
0.0000
  0
LINE
  8
20
 10
72.0000
 20
27.6000
 30
0.0000
 11
72.0000
 21
29.9000
 31
0.0000
  0
LINE
  8
20
 10
84.8000
 20
30.7000
 30
0.0000
 11
82.0000
 21
30.7000
 31
0.0000
  0
LINE
  8
20
 10
82.0000
 20
30.7000
 30
0.0000
 11
79.3000
 21
30.7000
 31
0.0000
  0
LINE
  8
20
 10
82.0000
 20
33.0000
 30
0.0000
 11
82.0000
 21
30.7000
 31
0.0000
  0
LINE
  8
20
 10
89.2000
 20
29.9000
 30
0.0000
 11
92.0000
 21
29.9000
 31
0.0000
  0
LINE
  8
20
 10
92.0000
 20
29.9000
 30
0.0000
 11
94.7000
 21
29.9000
 31
0.0000
  0
LINE
  8
20
 10
92.0000
 20
27.6000
 30
0.0000
 11
92.0000
 21
29.9000
 31
0.0000
  0
LINE
  8
20
 10
104.8000
 20
30.7000
 30
0.0000
 11
102.0000
 21
30.7000
 31
0.0000
  0
LINE
  8
20
 10
102.0000
 20
30.7000
 30
0.0000
 11
99.3000
 21
30.7000
 31
0.0000
  0
LINE
  8
20
 10
102.0000
 20
33.0000
 30
0.0000
 11
102.0000
 21
30.7000
 31
0.0000
  0
LINE
  8
20
 10
109.2000
 20
29.9000
 30
0.0000
 11
112.0000
 21
29.9000
 31
0.0000
  0
LINE
  8
20
 10
112.0000
 20
29.9000
 30
0.0000
 11
114.7000
 21
29.9000
 31
0.0000
  0
LINE
  8
20
 10
112.0000
 20
27.6000
 30
0.0000
 11
112.0000
 21
29.9000
 31
0.0000
  0
LINE
  8
20
 10
124.8000
 20
30.7000
 30
0.0000
 11
122.0000
 21
30.7000
 31
0.0000
  0
LINE
  8
20
 10
122.0000
 20
30.7000
 30
0.0000
 11
119.3000
 21
30.7000
 31
0.0000
  0
LINE
  8
20
 10
122.0000
 20
33.0000
 30
0.0000
 11
122.0000
 21
30.7000
 31
0.0000
  0
LINE
  8
20
 10
129.2000
 20
29.9000
 30
0.0000
 11
132.0000
 21
29.9000
 31
0.0000
  0
LINE
  8
20
 10
132.0000
 20
29.9000
 30
0.0000
 11
134.7000
 21
29.9000
 31
0.0000
  0
LINE
  8
20
 10
132.0000
 20
27.6000
 30
0.0000
 11
132.0000
 21
29.9000
 31
0.0000
  0
LINE
  8
20
 10
144.8000
 20
30.7000
 30
0.0000
 11
142.0000
 21
30.7000
 31
0.0000
  0
LINE
  8
20
 10
142.0000
 20
30.7000
 30
0.0000
 11
139.3000
 21
30.7000
 31
0.0000
  0
LINE
  8
20
 10
142.0000
 20
33.0000
 30
0.0000
 11
142.0000
 21
30.7000
 31
0.0000
  0
LINE
  8
20
 10
149.2000
 20
29.9000
 30
0.0000
 11
152.0000
 21
29.9000
 31
0.0000
  0
LINE
  8
20
 10
152.0000
 20
29.9000
 30
0.0000
 11
154.7000
 21
29.9000
 31
0.0000
  0
LINE
  8
20
 10
152.0000
 20
27.6000
 30
0.0000
 11
152.0000
 21
29.9000
 31
0.0000
  0
LINE
  8
20
 10
164.8000
 20
30.7000
 30
0.0000
 11
162.0000
 21
30.7000
 31
0.0000
  0
LINE
  8
20
 10
162.0000
 20
30.7000
 30
0.0000
 11
159.3000
 21
30.7000
 31
0.0000
  0
LINE
  8
20
 10
162.0000
 20
33.0000
 30
0.0000
 11
162.0000
 21
30.7000
 31
0.0000
  0
LINE
  8
20
 10
9.2000
 20
49.9000
 30
0.0000
 11
12.0000
 21
49.9000
 31
0.0000
  0
LINE
  8
20
 10
12.0000
 20
49.9000
 30
0.0000
 11
14.7000
 21
49.9000
 31
0.0000
  0
LINE
  8
20
 10
12.0000
 20
47.6000
 30
0.0000
 11
12.0000
 21
49.9000
 31
0.0000
  0
LINE
  8
20
 10
24.8000
 20
50.7000
 30
0.0000
 11
22.0000
 21
50.7000
 31
0.0000
  0
LINE
  8
20
 10
22.0000
 20
50.7000
 30
0.0000
 11
19.3000
 21
50.7000
 31
0.0000
  0
LINE
  8
20
 10
22.0000
 20
53.0000
 30
0.0000
 11
22.0000
 21
50.7000
 31
0.0000
  0
LINE
  8
20
 10
29.2000
 20
49.9000
 30
0.0000
 11
32.0000
 21
49.9000
 31
0.0000
  0
LINE
  8
20
 10
32.0000
 20
49.9000
 30
0.0000
 11
34.7000
 21
49.9000
 31
0.0000
  0
LINE
  8
20
 10
32.0000
 20
47.6000
 30
0.0000
 11
32.0000
 21
49.9000
 31
0.0000
  0
LINE
  8
20
 10
44.8000
 20
50.7000
 30
0.0000
 11
42.0000
 21
50.7000
 31
0.0000
  0
LINE
  8
20
 10
42.0000
 20
50.7000
 30
0.0000
 11
39.3000
 21
50.7000
 31
0.0000
  0
LINE
  8
20
 10
42.0000
 20
53.0000
 30
0.0000
 11
42.0000
 21
50.7000
 31
0.0000
  0
LINE
  8
20
 10
49.2000
 20
49.9000
 30
0.0000
 11
52.0000
 21
49.9000
 31
0.0000
  0
LINE
  8
20
 10
52.0000
 20
49.9000
 30
0.0000
 11
54.7000
 21
49.9000
 31
0.0000
  0
LINE
  8
20
 10
52.0000
 20
47.6000
 30
0.0000
 11
52.0000
 21
49.9000
 31
0.0000
  0
LINE
  8
20
 10
64.8000
 20
50.7000
 30
0.0000
 11
62.0000
 21
50.7000
 31
0.0000
  0
LINE
  8
20
 10
62.0000
 20
50.7000
 30
0.0000
 11
59.3000
 21
50.7000
 31
0.0000
  0
LINE
  8
20
 10
62.0000
 20
53.0000
 30
0.0000
 11
62.0000
 21
50.7000
 31
0.0000
  0
LINE
  8
20
 10
69.2000
 20
49.9000
 30
0.0000
 11
72.0000
 21
49.9000
 31
0.0000
  0
LINE
  8
20
 10
72.0000
 20
49.9000
 30
0.0000
 11
74.7000
 21
49.9000
 31
0.0000
  0
LINE
  8
20
 10
72.0000
 20
47.6000
 30
0.0000
 11
72.0000
 21
49.9000
 31
0.0000
  0
LINE
  8
20
 10
84.8000
 20
50.7000
 30
0.0000
 11
82.0000
 21
50.7000
 31
0.0000
  0
LINE
  8
20
 10
82.0000
 20
50.7000
 30
0.0000
 11
79.3000
 21
50.7000
 31
0.0000
  0
LINE
  8
20
 10
82.0000
 20
53.0000
 30
0.0000
 11
82.0000
 21
50.7000
 31
0.0000
  0
LINE
  8
20
 10
89.2000
 20
49.9000
 30
0.0000
 11
92.0000
 21
49.9000
 31
0.0000
  0
LINE
  8
20
 10
92.0000
 20
49.9000
 30
0.0000
 11
94.7000
 21
49.9000
 31
0.0000
  0
LINE
  8
20
 10
92.0000
 20
47.6000
 30
0.0000
 11
92.0000
 21
49.9000
 31
0.0000
  0
LINE
  8
20
 10
104.8000
 20
50.7000
 30
0.0000
 11
102.0000
 21
50.7000
 31
0.0000
  0
LINE
  8
20
 10
102.0000
 20
50.7000
 30
0.0000
 11
99.3000
 21
50.7000
 31
0.0000
  0
LINE
  8
20
 10
102.0000
 20
53.0000
 30
0.0000
 11
102.0000
 21
50.7000
 31
0.0000
  0
LINE
  8
20
 10
109.2000
 20
49.9000
 30
0.0000
 11
112.0000
 21
49.9000
 31
0.0000
  0
LINE
  8
20
 10
112.0000
 20
49.9000
 30
0.0000
 11
114.7000
 21
49.9000
 31
0.0000
  0
LINE
  8
20
 10
112.0000
 20
47.6000
 30
0.0000
 11
112.0000
 21
49.9000
 31
0.0000
  0
LINE
  8
20
 10
124.8000
 20
50.7000
 30
0.0000
 11
122.0000
 21
50.7000
 31
0.0000
  0
LINE
  8
20
 10
122.0000
 20
50.7000
 30
0.0000
 11
119.3000
 21
50.7000
 31
0.0000
  0
LINE
  8
20
 10
122.0000
 20
53.0000
 30
0.0000
 11
122.0000
 21
50.7000
 31
0.0000
  0
LINE
  8
20
 10
129.2000
 20
49.9000
 30
0.0000
 11
132.0000
 21
49.9000
 31
0.0000
  0
LINE
  8
20
 10
132.0000
 20
49.9000
 30
0.0000
 11
134.7000
 21
49.9000
 31
0.0000
  0
LINE
  8
20
 10
132.0000
 20
47.6000
 30
0.0000
 11
132.0000
 21
49.9000
 31
0.0000
  0
LINE
  8
20
 10
144.8000
 20
50.7000
 30
0.0000
 11
142.0000
 21
50.7000
 31
0.0000
  0
LINE
  8
20
 10
142.0000
 20
50.7000
 30
0.0000
 11
139.3000
 21
50.7000
 31
0.0000
  0
LINE
  8
20
 10
142.0000
 20
53.0000
 30
0.0000
 11
142.0000
 21
50.7000
 31
0.0000
  0
LINE
  8
20
 10
149.2000
 20
49.9000
 30
0.0000
 11
152.0000
 21
49.9000
 31
0.0000
  0
LINE
  8
20
 10
152.0000
 20
49.9000
 30
0.0000
 11
154.7000
 21
49.9000
 31
0.0000
  0
LINE
  8
20
 10
152.0000
 20
47.6000
 30
0.0000
 11
152.0000
 21
49.9000
 31
0.0000
  0
LINE
  8
20
 10
164.8000
 20
50.7000
 30
0.0000
 11
162.0000
 21
50.7000
 31
0.0000
  0
LINE
  8
20
 10
162.0000
 20
50.7000
 30
0.0000
 11
159.3000
 21
50.7000
 31
0.0000
  0
LINE
  8
20
 10
162.0000
 20
53.0000
 30
0.0000
 11
162.0000
 21
50.7000
 31
0.0000
  0
LINE
  8
20
 10
9.2000
 20
69.9000
 30
0.0000
 11
12.0000
 21
69.9000
 31
0.0000
  0
LINE
  8
20
 10
12.0000
 20
69.9000
 30
0.0000
 11
14.7000
 21
69.9000
 31
0.0000
  0
LINE
  8
20
 10
12.0000
 20
67.6000
 30
0.0000
 11
12.0000
 21
69.9000
 31
0.0000
  0
LINE
  8
20
 10
24.8000
 20
70.7000
 30
0.0000
 11
22.0000
 21
70.7000
 31
0.0000
  0
LINE
  8
20
 10
22.0000
 20
70.7000
 30
0.0000
 11
19.3000
 21
70.7000
 31
0.0000
  0
LINE
  8
20
 10
22.0000
 20
73.0000
 30
0.0000
 11
22.0000
 21
70.7000
 31
0.0000
  0
LINE
  8
20
 10
29.2000
 20
69.9000
 30
0.0000
 11
32.0000
 21
69.9000
 31
0.0000
  0
LINE
  8
20
 10
32.0000
 20
69.9000
 30
0.0000
 11
34.7000
 21
69.9000
 31
0.0000
  0
LINE
  8
20
 10
32.0000
 20
67.6000
 30
0.0000
 11
32.0000
 21
69.9000
 31
0.0000
  0
LINE
  8
20
 10
44.8000
 20
70.7000
 30
0.0000
 11
42.0000
 21
70.7000
 31
0.0000
  0
LINE
  8
20
 10
42.0000
 20
70.7000
 30
0.0000
 11
39.3000
 21
70.7000
 31
0.0000
  0
LINE
  8
20
 10
42.0000
 20
73.0000
 30
0.0000
 11
42.0000
 21
70.7000
 31
0.0000
  0
LINE
  8
20
 10
49.2000
 20
69.9000
 30
0.0000
 11
52.0000
 21
69.9000
 31
0.0000
  0
LINE
  8
20
 10
52.0000
 20
69.9000
 30
0.0000
 11
54.7000
 21
69.9000
 31
0.0000
  0
LINE
  8
20
 10
52.0000
 20
67.6000
 30
0.0000
 11
52.0000
 21
69.9000
 31
0.0000
  0
LINE
  8
20
 10
64.8000
 20
70.7000
 30
0.0000
 11
62.0000
 21
70.7000
 31
0.0000
  0
LINE
  8
20
 10
62.0000
 20
70.7000
 30
0.0000
 11
59.3000
 21
70.7000
 31
0.0000
  0
LINE
  8
20
 10
62.0000
 20
73.0000
 30
0.0000
 11
62.0000
 21
70.7000
 31
0.0000
  0
LINE
  8
20
 10
69.2000
 20
69.9000
 30
0.0000
 11
72.0000
 21
69.9000
 31
0.0000
  0
LINE
  8
20
 10
72.0000
 20
69.9000
 30
0.0000
 11
74.7000
 21
69.9000
 31
0.0000
  0
LINE
  8
20
 10
72.0000
 20
67.6000
 30
0.0000
 11
72.0000
 21
69.9000
 31
0.0000
  0
LINE
  8
20
 10
84.8000
 20
70.7000
 30
0.0000
 11
82.0000
 21
70.7000
 31
0.0000
  0
LINE
  8
20
 10
82.0000
 20
70.7000
 30
0.0000
 11
79.3000
 21
70.7000
 31
0.0000
  0
LINE
  8
20
 10
82.0000
 20
73.0000
 30
0.0000
 11
82.0000
 21
70.7000
 31
0.0000
  0
LINE
  8
20
 10
89.2000
 20
69.9000
 30
0.0000
 11
92.0000
 21
69.9000
 31
0.0000
  0
LINE
  8
20
 10
92.0000
 20
69.9000
 30
0.0000
 11
94.7000
 21
69.9000
 31
0.0000
  0
LINE
  8
20
 10
92.0000
 20
67.6000
 30
0.0000
 11
92.0000
 21
69.9000
 31
0.0000
  0
LINE
  8
20
 10
104.8000
 20
70.7000
 30
0.0000
 11
102.0000
 21
70.7000
 31
0.0000
  0
LINE
  8
20
 10
102.0000
 20
70.7000
 30
0.0000
 11
99.3000
 21
70.7000
 31
0.0000
  0
LINE
  8
20
 10
102.0000
 20
73.0000
 30
0.0000
 11
102.0000
 21
70.7000
 31
0.0000
  0
LINE
  8
20
 10
109.2000
 20
69.9000
 30
0.0000
 11
112.0000
 21
69.9000
 31
0.0000
  0
LINE
  8
20
 10
112.0000
 20
69.9000
 30
0.0000
 11
114.7000
 21
69.9000
 31
0.0000
  0
LINE
  8
20
 10
112.0000
 20
67.6000
 30
0.0000
 11
112.0000
 21
69.9000
 31
0.0000
  0
LINE
  8
20
 10
124.8000
 20
70.7000
 30
0.0000
 11
122.0000
 21
70.7000
 31
0.0000
  0
LINE
  8
20
 10
122.0000
 20
70.7000
 30
0.0000
 11
119.3000
 21
70.7000
 31
0.0000
  0
LINE
  8
20
 10
122.0000
 20
73.0000
 30
0.0000
 11
122.0000
 21
70.7000
 31
0.0000
  0
LINE
  8
20
 10
129.2000
 20
69.9000
 30
0.0000
 11
132.0000
 21
69.9000
 31
0.0000
  0
LINE
  8
20
 10
132.0000
 20
69.9000
 30
0.0000
 11
134.7000
 21
69.9000
 31
0.0000
  0
LINE
  8
20
 10
132.0000
 20
67.6000
 30
0.0000
 11
132.0000
 21
69.9000
 31
0.0000
  0
LINE
  8
20
 10
144.8000
 20
70.7000
 30
0.0000
 11
142.0000
 21
70.7000
 31
0.0000
  0
LINE
  8
20
 10
142.0000
 20
70.7000
 30
0.0000
 11
139.3000
 21
70.7000
 31
0.0000
  0
LINE
  8
20
 10
142.0000
 20
73.0000
 30
0.0000
 11
142.0000
 21
70.7000
 31
0.0000
  0
LINE
  8
20
 10
149.2000
 20
69.9000
 30
0.0000
 11
152.0000
 21
69.9000
 31
0.0000
  0
LINE
  8
20
 10
152.0000
 20
69.9000
 30
0.0000
 11
154.7000
 21
69.9000
 31
0.0000
  0
LINE
  8
20
 10
152.0000
 20
67.6000
 30
0.0000
 11
152.0000
 21
69.9000
 31
0.0000
  0
LINE
  8
20
 10
164.8000
 20
70.7000
 30
0.0000
 11
162.0000
 21
70.7000
 31
0.0000
  0
LINE
  8
20
 10
162.0000
 20
70.7000
 30
0.0000
 11
159.3000
 21
70.7000
 31
0.0000
  0
LINE
  8
20
 10
162.0000
 20
73.0000
 30
0.0000
 11
162.0000
 21
70.7000
 31
0.0000
  0
LINE
  8
20
 10
0.0000
 20
0.0000
 30
0.0000
 11
0.0000
 21
80.0000
 31
0.0000
  0
LINE
  8
20
 10
0.0000
 20
80.0000
 30
0.0000
 11
190.0000
 21
80.0000
 31
0.0000
  0
LINE
  8
20
 10
190.0000
 20
80.0000
 30
0.0000
 11
190.0000
 21
0.0000
 31
0.0000
  0
LINE
  8
20
 10
190.0000
 20
0.0000
 30
0.0000
 11
0.0000
 21
0.0000
 31
0.0000
  0
ENDSEC
  0
EOF
