  0
SECTION
  2
HEADER
  9
$ACADVER
  1
AC1009
  9
$FILLMODE
 70
0
  9
$EXTMIN
 10
-0.0005
 20
-0.0055
 30
0.0000
  9
$EXTMAX
 10
286.8018
 20
300.2018
 30
0.0000
  0
ENDSEC
  0
SECTION
  2
TABLES
  0
TABLE
  2
LTYPE
 70
1
  0
LTYPE
  2
CONTINUOUS
 70
64
  3
Solid line
 72
65
 73
0
 40
0
  0
ENDTAB
  0
TABLE
  2
LAYER
 70
255
  0
LAYER
  2
1
 70
64
 62
14
  6
CONTINUOUS
  0
LAYER
  2
16
 70
64
 62
174
  6
CONTINUOUS
  0
LAYER
  2
17
 70
64
 62
94
  6
CONTINUOUS
  0
LAYER
  2
18
 70
64
 62
94
  6
CONTINUOUS
  0
LAYER
  2
19
 70
64
 62
54
  6
CONTINUOUS
  0
LAYER
  2
20
 70
64
 62
178
  6
CONTINUOUS
  0
LAYER
  2
21
 70
64
 62
250
  6
CONTINUOUS
  0
LAYER
  2
22
 70
64
 62
250
  6
CONTINUOUS
  0
LAYER
  2
23
 70
64
 62
178
  6
CONTINUOUS
  0
LAYER
  2
24
 70
64
 62
178
  6
CONTINUOUS
  0
LAYER
  2
25
 70
64
 62
250
  6
CONTINUOUS
  0
LAYER
  2
26
 70
64
 62
250
  6
CONTINUOUS
  0
LAYER
  2
27
 70
64
 62
250
  6
CONTINUOUS
  0
LAYER
  2
28
 70
64
 62
250
  6
CONTINUOUS
  0
LAYER
  2
39
 70
64
 62
14
  6
CONTINUOUS
  0
LAYER
  2
40
 70
64
 62
174
  6
CONTINUOUS
  0
LAYER
  2
41
 70
64
 62
14
  6
CONTINUOUS
  0
LAYER
  2
42
 70
64
 62
174
  6
CONTINUOUS
  0
LAYER
  2
43
 70
64
 62
94
  6
CONTINUOUS
  0
LAYER
  2
48
 70
64
 62
250
  6
CONTINUOUS
  0
LAYER
  2
49
 70
64
 62
250
  6
CONTINUOUS
  0
LAYER
  2
51
 70
64
 62
250
  6
CONTINUOUS
  0
LAYER
  2
52
 70
64
 62
250
  6
CONTINUOUS
  0
ENDTAB
  0
ENDSEC
  0
SECTION
  2
BLOCKS
  0
BLOCK
  8
0
  2
RECT
 70
64
 10
0.0000
 20
0.0000
 30
0.0000
  3
RECT
  0
SOLID
  8
0
 10
-0.5000
 20
-0.5000
 30
0.0000
 11
0.5000
 21
-0.5000
 31
0.0000
 12
-0.5000
 22
0.5000
 32
0.0000
 13
0.5000
 23
0.5000
 33
0.0000
  0
ENDBLK
  8
0
  0
BLOCK
  8
0
  2
PIE
 70
64
 10
0.0000
 20
0.0000
 30
0.0000
  3
PIE
  0
CIRCLE
  8
0
 10
0.0000
 20
0.0000
 30
0.0000
 40
0.5000
  0
ENDBLK
  8
0
  0
BLOCK
  8
0
  2
OCTAGONP
 70
64
 10
0.0000
 20
0.0000
 30
0.0000
  3
OCTAGONP
  0
POLYLINE
  8
0
 66
1
 10
0.0000
 20
0.0000
 30
0.0000
 40
0.0000
 41
0.0000
 70
1
  0
VERTEX
  8
0
 10
-0.5000
 20
-0.2071
 30
0.0000
  0
VERTEX
  8
0
 10
-0.5000
 20
0.2071
 30
0.0000
  0
VERTEX
  8
0
 10
-0.2071
 20
0.5000
 30
0.0000
  0
VERTEX
  8
0
 10
0.2071
 20
0.5000
 30
0.0000
  0
VERTEX
  8
0
 10
0.5000
 20
0.2071
 30
0.0000
  0
VERTEX
  8
0
 10
0.5000
 20
-0.2071
 30
0.0000
  0
VERTEX
  8
0
 10
0.2071
 20
-0.5000
 30
0.0000
  0
VERTEX
  8
0
 10
-0.2071
 20
-0.5000
 30
0.0000
  0
SEQEND
  8
0
  0
ENDBLK
  8
0
  0
BLOCK
  8
0
  2
SQUAREP
 70
64
 10
0.0000
 20
0.0000
 30
0.0000
  3
SQUAREP
  0
SOLID
  8
0
 10
-0.5000
 20
-0.5000
 30
0.0000
 11
0.5000
 21
-0.5000
 31
0.0000
 12
-0.5000
 22
0.5000
 32
0.0000
 13
0.5000
 23
0.5000
 33
0.0000
  0
ENDBLK
  8
0
  0
BLOCK
  8
0
  2
ROUNDP
 70
64
 10
0.0000
 20
0.0000
 30
0.0000
  3
ROUNDP
  0
CIRCLE
  8
0
 10
0.0000
 20
0.0000
 30
0.0000
 40
0.5000
  0
ENDBLK
  8
0
  0
BLOCK
  8
0
  2
ANNULUSP
 70
64
 10
0.0000
 20
0.0000
 30
0.0000
  3
ANNULUSP
  0
CIRCLE
  8
0
 10
0.0000
 20
0.0000
 30
0.0000
 40
0.5000
  0
ENDBLK
  8
0
  0
BLOCK
  8
0
  2
THERMALP
 70
64
 10
0.0000
 20
0.0000
 30
0.0000
  3
THERMALP
  0
LINE
  8
0
 10
-0.2379
 20
0.4500
 30
0.0000
 11
0.2379
 21
0.4500
 31
0.0000
  0
LINE
  8
0
 10
0.4500
 20
0.2379
 30
0.0000
 11
0.4500
 21
-0.2379
 31
0.0000
  0
LINE
  8
0
 10
0.2379
 20
-0.4500
 30
0.0000
 11
-0.2379
 21
-0.4500
 31
0.0000
  0
LINE
  8
0
 10
-0.4500
 20
-0.2379
 30
0.0000
 11
-0.4500
 21
0.2379
 31
0.0000
  0
ENDBLK
  8
0
  0
BLOCK
  8
0
  2
OCTAGONV
 70
64
 10
0.0000
 20
0.0000
 30
0.0000
  3
OCTAGONV
  0
POLYLINE
  8
0
 66
1
 10
0.0000
 20
0.0000
 30
0.0000
 40
0.0000
 41
0.0000
 70
1
  0
VERTEX
  8
0
 10
-0.5000
 20
-0.2071
 30
0.0000
  0
VERTEX
  8
0
 10
-0.5000
 20
0.2071
 30
0.0000
  0
VERTEX
  8
0
 10
-0.2071
 20
0.5000
 30
0.0000
  0
VERTEX
  8
0
 10
0.2071
 20
0.5000
 30
0.0000
  0
VERTEX
  8
0
 10
0.5000
 20
0.2071
 30
0.0000
  0
VERTEX
  8
0
 10
0.5000
 20
-0.2071
 30
0.0000
  0
VERTEX
  8
0
 10
0.2071
 20
-0.5000
 30
0.0000
  0
VERTEX
  8
0
 10
-0.2071
 20
-0.5000
 30
0.0000
  0
SEQEND
  8
0
  0
ENDBLK
  8
0
  0
BLOCK
  8
0
  2
SQUAREV
 70
64
 10
0.0000
 20
0.0000
 30
0.0000
  3
SQUAREV
  0
SOLID
  8
0
 10
-0.5000
 20
-0.5000
 30
0.0000
 11
0.5000
 21
-0.5000
 31
0.0000
 12
-0.5000
 22
0.5000
 32
0.0000
 13
0.5000
 23
0.5000
 33
0.0000
  0
ENDBLK
  8
0
  0
BLOCK
  8
0
  2
ROUNDV
 70
64
 10
0.0000
 20
0.0000
 30
0.0000
  3
ROUNDV
  0
CIRCLE
  8
0
 10
0.0000
 20
0.0000
 30
0.0000
 40
0.5000
  0
ENDBLK
  8
0
  0
BLOCK
  8
0
  2
ANNULUSV
 70
64
 10
0.0000
 20
0.0000
 30
0.0000
  3
ANNULUSV
  0
CIRCLE
  8
0
 10
0.0000
 20
0.0000
 30
0.0000
 40
0.5000
  0
ENDBLK
  8
0
  0
BLOCK
  8
0
  2
THERMALV
 70
64
 10
0.0000
 20
0.0000
 30
0.0000
  3
THERMALV
  0
LINE
  8
0
 10
-0.2379
 20
0.4500
 30
0.0000
 11
0.2379
 21
0.4500
 31
0.0000
  0
LINE
  8
0
 10
0.4500
 20
0.2379
 30
0.0000
 11
0.4500
 21
-0.2379
 31
0.0000
  0
LINE
  8
0
 10
0.2379
 20
-0.4500
 30
0.0000
 11
-0.2379
 21
-0.4500
 31
0.0000
  0
LINE
  8
0
 10
-0.4500
 20
-0.2379
 30
0.0000
 11
-0.4500
 21
0.2379
 31
0.0000
  0
ENDBLK
  8
0
  0
ENDSEC
  0
SECTION
  2
ENTITIES
  0
LINE
  8
20
 10
1.1000
 20
0.0000
 30
0.0000
 11
30.0000
 21
0.0000
 31
0.0000
  0
LINE
  8
20
 10
30.0000
 20
0.0000
 30
0.0000
 11
30.0000
 21
2.5000
 31
0.0000
  0
LINE
  8
20
 10
30.0000
 20
2.5000
 30
0.0000
 11
40.0000
 21
2.5000
 31
0.0000
  0
LINE
  8
20
 10
40.0000
 20
2.5000
 30
0.0000
 11
40.0000
 21
0.0000
 31
0.0000
  0
LINE
  8
20
 10
50.0000
 20
0.0000
 30
0.0000
 11
50.0000
 21
2.5000
 31
0.0000
  0
LINE
  8
20
 10
50.0000
 20
2.5000
 30
0.0000
 11
60.0000
 21
2.5000
 31
0.0000
  0
LINE
  8
20
 10
60.0000
 20
2.5000
 30
0.0000
 11
60.0000
 21
0.0000
 31
0.0000
  0
LINE
  8
20
 10
70.0000
 20
0.0000
 30
0.0000
 11
70.0000
 21
2.5000
 31
0.0000
  0
LINE
  8
20
 10
70.0000
 20
2.5000
 30
0.0000
 11
80.0000
 21
2.5000
 31
0.0000
  0
LINE
  8
20
 10
80.0000
 20
2.5000
 30
0.0000
 11
80.0000
 21
0.0000
 31
0.0000
  0
LINE
  8
20
 10
90.0000
 20
0.0000
 30
0.0000
 11
90.0000
 21
2.5000
 31
0.0000
  0
LINE
  8
20
 10
90.0000
 20
2.5000
 30
0.0000
 11
100.0000
 21
2.5000
 31
0.0000
  0
LINE
  8
20
 10
100.0000
 20
2.5000
 30
0.0000
 11
100.0000
 21
0.0000
 31
0.0000
  0
LINE
  8
20
 10
110.0000
 20
0.0000
 30
0.0000
 11
110.0000
 21
2.5000
 31
0.0000
  0
LINE
  8
20
 10
110.0000
 20
2.5000
 30
0.0000
 11
120.0000
 21
2.5000
 31
0.0000
  0
LINE
  8
20
 10
120.0000
 20
2.5000
 30
0.0000
 11
120.0000
 21
0.0000
 31
0.0000
  0
LINE
  8
20
 10
130.0000
 20
0.0000
 30
0.0000
 11
130.0000
 21
2.5000
 31
0.0000
  0
LINE
  8
20
 10
130.0000
 20
2.5000
 30
0.0000
 11
140.0000
 21
2.5000
 31
0.0000
  0
LINE
  8
20
 10
140.0000
 20
2.5000
 30
0.0000
 11
140.0000
 21
0.0000
 31
0.0000
  0
LINE
  8
20
 10
150.0000
 20
0.0000
 30
0.0000
 11
150.0000
 21
2.5000
 31
0.0000
  0
LINE
  8
20
 10
150.0000
 20
2.5000
 30
0.0000
 11
160.0000
 21
2.5000
 31
0.0000
  0
LINE
  8
20
 10
160.0000
 20
2.5000
 30
0.0000
 11
160.0000
 21
0.0000
 31
0.0000
  0
LINE
  8
20
 10
170.0000
 20
0.0000
 30
0.0000
 11
170.0000
 21
2.5000
 31
0.0000
  0
LINE
  8
20
 10
170.0000
 20
2.5000
 30
0.0000
 11
180.0000
 21
2.5000
 31
0.0000
  0
LINE
  8
20
 10
180.0000
 20
2.5000
 30
0.0000
 11
180.0000
 21
0.0000
 31
0.0000
  0
LINE
  8
20
 10
191.0000
 20
0.0000
 30
0.0000
 11
180.0000
 21
0.0000
 31
0.0000
  0
LINE
  8
20
 10
170.0000
 20
0.0000
 30
0.0000
 11
160.0000
 21
0.0000
 31
0.0000
  0
LINE
  8
20
 10
150.0000
 20
0.0000
 30
0.0000
 11
140.0000
 21
0.0000
 31
0.0000
  0
LINE
  8
20
 10
130.0000
 20
0.0000
 30
0.0000
 11
120.0000
 21
0.0000
 31
0.0000
  0
LINE
  8
20
 10
110.0000
 20
0.0000
 30
0.0000
 11
100.0000
 21
0.0000
 31
0.0000
  0
LINE
  8
20
 10
90.0000
 20
0.0000
 30
0.0000
 11
80.0000
 21
0.0000
 31
0.0000
  0
LINE
  8
20
 10
70.0000
 20
0.0000
 30
0.0000
 11
60.0000
 21
0.0000
 31
0.0000
  0
LINE
  8
20
 10
50.0000
 20
0.0000
 30
0.0000
 11
40.0000
 21
0.0000
 31
0.0000
  0
ARC
  8
20
 10
191.0500
 20
0.9500
 30
0.0000
 40
0.9513
 50
266.9872
 51
356.9872
  0
ARC
  8
20
 10
191.0500
 20
14.8500
 30
0.0000
 40
0.9513
 50
356.9872
 51
93.0128
  0
LINE
  8
20
 10
1.1000
 20
15.8000
 30
0.0000
 11
30.0000
 21
15.8000
 31
0.0000
  0
LINE
  8
20
 10
30.0000
 20
15.8000
 30
0.0000
 11
30.0000
 21
13.3000
 31
0.0000
  0
LINE
  8
20
 10
30.0000
 20
13.3000
 30
0.0000
 11
40.0000
 21
13.3000
 31
0.0000
  0
LINE
  8
20
 10
40.0000
 20
13.3000
 30
0.0000
 11
40.0000
 21
15.8000
 31
0.0000
  0
LINE
  8
20
 10
50.0000
 20
15.8000
 30
0.0000
 11
50.0000
 21
13.3000
 31
0.0000
  0
LINE
  8
20
 10
50.0000
 20
13.3000
 30
0.0000
 11
60.0000
 21
13.3000
 31
0.0000
  0
LINE
  8
20
 10
60.0000
 20
13.3000
 30
0.0000
 11
60.0000
 21
15.8000
 31
0.0000
  0
LINE
  8
20
 10
70.0000
 20
15.8000
 30
0.0000
 11
70.0000
 21
13.3000
 31
0.0000
  0
LINE
  8
20
 10
70.0000
 20
13.3000
 30
0.0000
 11
80.0000
 21
13.3000
 31
0.0000
  0
LINE
  8
20
 10
80.0000
 20
13.3000
 30
0.0000
 11
80.0000
 21
15.8000
 31
0.0000
  0
LINE
  8
20
 10
90.0000
 20
15.8000
 30
0.0000
 11
90.0000
 21
13.3000
 31
0.0000
  0
LINE
  8
20
 10
90.0000
 20
13.3000
 30
0.0000
 11
100.0000
 21
13.3000
 31
0.0000
  0
LINE
  8
20
 10
100.0000
 20
13.3000
 30
0.0000
 11
100.0000
 21
15.8000
 31
0.0000
  0
LINE
  8
20
 10
110.0000
 20
15.8000
 30
0.0000
 11
110.0000
 21
13.3000
 31
0.0000
  0
LINE
  8
20
 10
110.0000
 20
13.3000
 30
0.0000
 11
120.0000
 21
13.3000
 31
0.0000
  0
LINE
  8
20
 10
120.0000
 20
13.3000
 30
0.0000
 11
120.0000
 21
15.8000
 31
0.0000
  0
LINE
  8
20
 10
130.0000
 20
15.8000
 30
0.0000
 11
130.0000
 21
13.3000
 31
0.0000
  0
LINE
  8
20
 10
130.0000
 20
13.3000
 30
0.0000
 11
140.0000
 21
13.3000
 31
0.0000
  0
LINE
  8
20
 10
140.0000
 20
13.3000
 30
0.0000
 11
140.0000
 21
15.8000
 31
0.0000
  0
LINE
  8
20
 10
150.0000
 20
15.8000
 30
0.0000
 11
150.0000
 21
13.3000
 31
0.0000
  0
LINE
  8
20
 10
150.0000
 20
13.3000
 30
0.0000
 11
160.0000
 21
13.3000
 31
0.0000
  0
LINE
  8
20
 10
160.0000
 20
13.3000
 30
0.0000
 11
160.0000
 21
15.8000
 31
0.0000
  0
LINE
  8
20
 10
170.0000
 20
15.8000
 30
0.0000
 11
170.0000
 21
13.3000
 31
0.0000
  0
LINE
  8
20
 10
170.0000
 20
13.3000
 30
0.0000
 11
180.0000
 21
13.3000
 31
0.0000
  0
LINE
  8
20
 10
180.0000
 20
13.3000
 30
0.0000
 11
180.0000
 21
15.8000
 31
0.0000
  0
LINE
  8
20
 10
191.0000
 20
15.8000
 30
0.0000
 11
180.0000
 21
15.8000
 31
0.0000
  0
LINE
  8
20
 10
170.0000
 20
15.8000
 30
0.0000
 11
160.0000
 21
15.8000
 31
0.0000
  0
LINE
  8
20
 10
150.0000
 20
15.8000
 30
0.0000
 11
140.0000
 21
15.8000
 31
0.0000
  0
LINE
  8
20
 10
130.0000
 20
15.8000
 30
0.0000
 11
120.0000
 21
15.8000
 31
0.0000
  0
LINE
  8
20
 10
110.0000
 20
15.8000
 30
0.0000
 11
100.0000
 21
15.8000
 31
0.0000
  0
LINE
  8
20
 10
90.0000
 20
15.8000
 30
0.0000
 11
80.0000
 21
15.8000
 31
0.0000
  0
LINE
  8
20
 10
70.0000
 20
15.8000
 30
0.0000
 11
60.0000
 21
15.8000
 31
0.0000
  0
LINE
  8
20
 10
50.0000
 20
15.8000
 30
0.0000
 11
40.0000
 21
15.8000
 31
0.0000
  0
ARC
  8
20
 10
1.0000
 20
0.9950
 30
0.0000
 40
1.0000
 50
179.7135
 51
275.7392
  0
ARC
  8
20
 10
1.1500
 20
14.6400
 30
0.0000
 40
1.1611
 50
92.4681
 51
172.0794
  0
LINE
  8
20
 10
0.0000
 20
14.8000
 30
0.0000
 11
0.0000
 21
1.0000
 31
0.0000
  0
LINE
  8
20
 10
192.0000
 20
14.8000
 30
0.0000
 11
192.0000
 21
0.9000
 31
0.0000
  0
LINE
  8
20
 10
1.1000
 20
15.8000
 30
0.0000
 11
30.0000
 21
15.8000
 31
0.0000
  0
LINE
  8
20
 10
30.0000
 20
15.8000
 30
0.0000
 11
30.0000
 21
18.3000
 31
0.0000
  0
LINE
  8
20
 10
30.0000
 20
18.3000
 30
0.0000
 11
40.0000
 21
18.3000
 31
0.0000
  0
LINE
  8
20
 10
40.0000
 20
18.3000
 30
0.0000
 11
40.0000
 21
15.8000
 31
0.0000
  0
LINE
  8
20
 10
50.0000
 20
15.8000
 30
0.0000
 11
50.0000
 21
18.3000
 31
0.0000
  0
LINE
  8
20
 10
50.0000
 20
18.3000
 30
0.0000
 11
60.0000
 21
18.3000
 31
0.0000
  0
LINE
  8
20
 10
60.0000
 20
18.3000
 30
0.0000
 11
60.0000
 21
15.8000
 31
0.0000
  0
LINE
  8
20
 10
70.0000
 20
15.8000
 30
0.0000
 11
70.0000
 21
18.3000
 31
0.0000
  0
LINE
  8
20
 10
70.0000
 20
18.3000
 30
0.0000
 11
80.0000
 21
18.3000
 31
0.0000
  0
LINE
  8
20
 10
80.0000
 20
18.3000
 30
0.0000
 11
80.0000
 21
15.8000
 31
0.0000
  0
LINE
  8
20
 10
90.0000
 20
15.8000
 30
0.0000
 11
90.0000
 21
18.3000
 31
0.0000
  0
LINE
  8
20
 10
90.0000
 20
18.3000
 30
0.0000
 11
100.0000
 21
18.3000
 31
0.0000
  0
LINE
  8
20
 10
100.0000
 20
18.3000
 30
0.0000
 11
100.0000
 21
15.8000
 31
0.0000
  0
LINE
  8
20
 10
110.0000
 20
15.8000
 30
0.0000
 11
110.0000
 21
18.3000
 31
0.0000
  0
LINE
  8
20
 10
110.0000
 20
18.3000
 30
0.0000
 11
120.0000
 21
18.3000
 31
0.0000
  0
LINE
  8
20
 10
120.0000
 20
18.3000
 30
0.0000
 11
120.0000
 21
15.8000
 31
0.0000
  0
LINE
  8
20
 10
130.0000
 20
15.8000
 30
0.0000
 11
130.0000
 21
18.3000
 31
0.0000
  0
LINE
  8
20
 10
130.0000
 20
18.3000
 30
0.0000
 11
140.0000
 21
18.3000
 31
0.0000
  0
LINE
  8
20
 10
140.0000
 20
18.3000
 30
0.0000
 11
140.0000
 21
15.8000
 31
0.0000
  0
LINE
  8
20
 10
150.0000
 20
15.8000
 30
0.0000
 11
150.0000
 21
18.3000
 31
0.0000
  0
LINE
  8
20
 10
150.0000
 20
18.3000
 30
0.0000
 11
160.0000
 21
18.3000
 31
0.0000
  0
LINE
  8
20
 10
160.0000
 20
18.3000
 30
0.0000
 11
160.0000
 21
15.8000
 31
0.0000
  0
LINE
  8
20
 10
170.0000
 20
15.8000
 30
0.0000
 11
170.0000
 21
18.3000
 31
0.0000
  0
LINE
  8
20
 10
170.0000
 20
18.3000
 30
0.0000
 11
180.0000
 21
18.3000
 31
0.0000
  0
LINE
  8
20
 10
180.0000
 20
18.3000
 30
0.0000
 11
180.0000
 21
15.8000
 31
0.0000
  0
LINE
  8
20
 10
191.0000
 20
15.8000
 30
0.0000
 11
180.0000
 21
15.8000
 31
0.0000
  0
LINE
  8
20
 10
170.0000
 20
15.8000
 30
0.0000
 11
160.0000
 21
15.8000
 31
0.0000
  0
LINE
  8
20
 10
150.0000
 20
15.8000
 30
0.0000
 11
140.0000
 21
15.8000
 31
0.0000
  0
LINE
  8
20
 10
130.0000
 20
15.8000
 30
0.0000
 11
120.0000
 21
15.8000
 31
0.0000
  0
LINE
  8
20
 10
110.0000
 20
15.8000
 30
0.0000
 11
100.0000
 21
15.8000
 31
0.0000
  0
LINE
  8
20
 10
90.0000
 20
15.8000
 30
0.0000
 11
80.0000
 21
15.8000
 31
0.0000
  0
LINE
  8
20
 10
70.0000
 20
15.8000
 30
0.0000
 11
60.0000
 21
15.8000
 31
0.0000
  0
LINE
  8
20
 10
50.0000
 20
15.8000
 30
0.0000
 11
40.0000
 21
15.8000
 31
0.0000
  0
ARC
  8
20
 10
191.0500
 20
16.7500
 30
0.0000
 40
0.9513
 50
266.9872
 51
356.9872
  0
ARC
  8
20
 10
191.0500
 20
30.6500
 30
0.0000
 40
0.9513
 50
356.9872
 51
93.0128
  0
LINE
  8
20
 10
1.1000
 20
31.6000
 30
0.0000
 11
30.0000
 21
31.6000
 31
0.0000
  0
LINE
  8
20
 10
30.0000
 20
31.6000
 30
0.0000
 11
30.0000
 21
29.1000
 31
0.0000
  0
LINE
  8
20
 10
30.0000
 20
29.1000
 30
0.0000
 11
40.0000
 21
29.1000
 31
0.0000
  0
LINE
  8
20
 10
40.0000
 20
29.1000
 30
0.0000
 11
40.0000
 21
31.6000
 31
0.0000
  0
LINE
  8
20
 10
50.0000
 20
31.6000
 30
0.0000
 11
50.0000
 21
29.1000
 31
0.0000
  0
LINE
  8
20
 10
50.0000
 20
29.1000
 30
0.0000
 11
60.0000
 21
29.1000
 31
0.0000
  0
LINE
  8
20
 10
60.0000
 20
29.1000
 30
0.0000
 11
60.0000
 21
31.6000
 31
0.0000
  0
LINE
  8
20
 10
70.0000
 20
31.6000
 30
0.0000
 11
70.0000
 21
29.1000
 31
0.0000
  0
LINE
  8
20
 10
70.0000
 20
29.1000
 30
0.0000
 11
80.0000
 21
29.1000
 31
0.0000
  0
LINE
  8
20
 10
80.0000
 20
29.1000
 30
0.0000
 11
80.0000
 21
31.6000
 31
0.0000
  0
LINE
  8
20
 10
90.0000
 20
31.6000
 30
0.0000
 11
90.0000
 21
29.1000
 31
0.0000
  0
LINE
  8
20
 10
90.0000
 20
29.1000
 30
0.0000
 11
100.0000
 21
29.1000
 31
0.0000
  0
LINE
  8
20
 10
100.0000
 20
29.1000
 30
0.0000
 11
100.0000
 21
31.6000
 31
0.0000
  0
LINE
  8
20
 10
110.0000
 20
31.6000
 30
0.0000
 11
110.0000
 21
29.1000
 31
0.0000
  0
LINE
  8
20
 10
110.0000
 20
29.1000
 30
0.0000
 11
120.0000
 21
29.1000
 31
0.0000
  0
LINE
  8
20
 10
120.0000
 20
29.1000
 30
0.0000
 11
120.0000
 21
31.6000
 31
0.0000
  0
LINE
  8
20
 10
130.0000
 20
31.6000
 30
0.0000
 11
130.0000
 21
29.1000
 31
0.0000
  0
LINE
  8
20
 10
130.0000
 20
29.1000
 30
0.0000
 11
140.0000
 21
29.1000
 31
0.0000
  0
LINE
  8
20
 10
140.0000
 20
29.1000
 30
0.0000
 11
140.0000
 21
31.6000
 31
0.0000
  0
LINE
  8
20
 10
150.0000
 20
31.6000
 30
0.0000
 11
150.0000
 21
29.1000
 31
0.0000
  0
LINE
  8
20
 10
150.0000
 20
29.1000
 30
0.0000
 11
160.0000
 21
29.1000
 31
0.0000
  0
LINE
  8
20
 10
160.0000
 20
29.1000
 30
0.0000
 11
160.0000
 21
31.6000
 31
0.0000
  0
LINE
  8
20
 10
170.0000
 20
31.6000
 30
0.0000
 11
170.0000
 21
29.1000
 31
0.0000
  0
LINE
  8
20
 10
170.0000
 20
29.1000
 30
0.0000
 11
180.0000
 21
29.1000
 31
0.0000
  0
LINE
  8
20
 10
180.0000
 20
29.1000
 30
0.0000
 11
180.0000
 21
31.6000
 31
0.0000
  0
LINE
  8
20
 10
191.0000
 20
31.6000
 30
0.0000
 11
180.0000
 21
31.6000
 31
0.0000
  0
LINE
  8
20
 10
170.0000
 20
31.6000
 30
0.0000
 11
160.0000
 21
31.6000
 31
0.0000
  0
LINE
  8
20
 10
150.0000
 20
31.6000
 30
0.0000
 11
140.0000
 21
31.6000
 31
0.0000
  0
LINE
  8
20
 10
130.0000
 20
31.6000
 30
0.0000
 11
120.0000
 21
31.6000
 31
0.0000
  0
LINE
  8
20
 10
110.0000
 20
31.6000
 30
0.0000
 11
100.0000
 21
31.6000
 31
0.0000
  0
LINE
  8
20
 10
90.0000
 20
31.6000
 30
0.0000
 11
80.0000
 21
31.6000
 31
0.0000
  0
LINE
  8
20
 10
70.0000
 20
31.6000
 30
0.0000
 11
60.0000
 21
31.6000
 31
0.0000
  0
LINE
  8
20
 10
50.0000
 20
31.6000
 30
0.0000
 11
40.0000
 21
31.6000
 31
0.0000
  0
ARC
  8
20
 10
1.0000
 20
16.7950
 30
0.0000
 40
1.0000
 50
179.7135
 51
275.7392
  0
ARC
  8
20
 10
1.1500
 20
30.4400
 30
0.0000
 40
1.1611
 50
92.4681
 51
172.0794
  0
LINE
  8
20
 10
0.0000
 20
30.6000
 30
0.0000
 11
0.0000
 21
16.8000
 31
0.0000
  0
LINE
  8
20
 10
192.0000
 20
30.6000
 30
0.0000
 11
192.0000
 21
16.7000
 31
0.0000
  0
LINE
  8
20
 10
1.1000
 20
31.6000
 30
0.0000
 11
30.0000
 21
31.6000
 31
0.0000
  0
LINE
  8
20
 10
30.0000
 20
31.6000
 30
0.0000
 11
30.0000
 21
34.1000
 31
0.0000
  0
LINE
  8
20
 10
30.0000
 20
34.1000
 30
0.0000
 11
40.0000
 21
34.1000
 31
0.0000
  0
LINE
  8
20
 10
40.0000
 20
34.1000
 30
0.0000
 11
40.0000
 21
31.6000
 31
0.0000
  0
LINE
  8
20
 10
50.0000
 20
31.6000
 30
0.0000
 11
50.0000
 21
34.1000
 31
0.0000
  0
LINE
  8
20
 10
50.0000
 20
34.1000
 30
0.0000
 11
60.0000
 21
34.1000
 31
0.0000
  0
LINE
  8
20
 10
60.0000
 20
34.1000
 30
0.0000
 11
60.0000
 21
31.6000
 31
0.0000
  0
LINE
  8
20
 10
70.0000
 20
31.6000
 30
0.0000
 11
70.0000
 21
34.1000
 31
0.0000
  0
LINE
  8
20
 10
70.0000
 20
34.1000
 30
0.0000
 11
80.0000
 21
34.1000
 31
0.0000
  0
LINE
  8
20
 10
80.0000
 20
34.1000
 30
0.0000
 11
80.0000
 21
31.6000
 31
0.0000
  0
LINE
  8
20
 10
90.0000
 20
31.6000
 30
0.0000
 11
90.0000
 21
34.1000
 31
0.0000
  0
LINE
  8
20
 10
90.0000
 20
34.1000
 30
0.0000
 11
100.0000
 21
34.1000
 31
0.0000
  0
LINE
  8
20
 10
100.0000
 20
34.1000
 30
0.0000
 11
100.0000
 21
31.6000
 31
0.0000
  0
LINE
  8
20
 10
110.0000
 20
31.6000
 30
0.0000
 11
110.0000
 21
34.1000
 31
0.0000
  0
LINE
  8
20
 10
110.0000
 20
34.1000
 30
0.0000
 11
120.0000
 21
34.1000
 31
0.0000
  0
LINE
  8
20
 10
120.0000
 20
34.1000
 30
0.0000
 11
120.0000
 21
31.6000
 31
0.0000
  0
LINE
  8
20
 10
130.0000
 20
31.6000
 30
0.0000
 11
130.0000
 21
34.1000
 31
0.0000
  0
LINE
  8
20
 10
130.0000
 20
34.1000
 30
0.0000
 11
140.0000
 21
34.1000
 31
0.0000
  0
LINE
  8
20
 10
140.0000
 20
34.1000
 30
0.0000
 11
140.0000
 21
31.6000
 31
0.0000
  0
LINE
  8
20
 10
150.0000
 20
31.6000
 30
0.0000
 11
150.0000
 21
34.1000
 31
0.0000
  0
LINE
  8
20
 10
150.0000
 20
34.1000
 30
0.0000
 11
160.0000
 21
34.1000
 31
0.0000
  0
LINE
  8
20
 10
160.0000
 20
34.1000
 30
0.0000
 11
160.0000
 21
31.6000
 31
0.0000
  0
LINE
  8
20
 10
170.0000
 20
31.6000
 30
0.0000
 11
170.0000
 21
34.1000
 31
0.0000
  0
LINE
  8
20
 10
170.0000
 20
34.1000
 30
0.0000
 11
180.0000
 21
34.1000
 31
0.0000
  0
LINE
  8
20
 10
180.0000
 20
34.1000
 30
0.0000
 11
180.0000
 21
31.6000
 31
0.0000
  0
LINE
  8
20
 10
191.0000
 20
31.6000
 30
0.0000
 11
180.0000
 21
31.6000
 31
0.0000
  0
LINE
  8
20
 10
170.0000
 20
31.6000
 30
0.0000
 11
160.0000
 21
31.6000
 31
0.0000
  0
LINE
  8
20
 10
150.0000
 20
31.6000
 30
0.0000
 11
140.0000
 21
31.6000
 31
0.0000
  0
LINE
  8
20
 10
130.0000
 20
31.6000
 30
0.0000
 11
120.0000
 21
31.6000
 31
0.0000
  0
LINE
  8
20
 10
110.0000
 20
31.6000
 30
0.0000
 11
100.0000
 21
31.6000
 31
0.0000
  0
LINE
  8
20
 10
90.0000
 20
31.6000
 30
0.0000
 11
80.0000
 21
31.6000
 31
0.0000
  0
LINE
  8
20
 10
70.0000
 20
31.6000
 30
0.0000
 11
60.0000
 21
31.6000
 31
0.0000
  0
LINE
  8
20
 10
50.0000
 20
31.6000
 30
0.0000
 11
40.0000
 21
31.6000
 31
0.0000
  0
ARC
  8
20
 10
191.0500
 20
32.5500
 30
0.0000
 40
0.9513
 50
266.9872
 51
356.9872
  0
ARC
  8
20
 10
191.0500
 20
46.4500
 30
0.0000
 40
0.9513
 50
356.9872
 51
93.0128
  0
LINE
  8
20
 10
1.1000
 20
47.4000
 30
0.0000
 11
30.0000
 21
47.4000
 31
0.0000
  0
LINE
  8
20
 10
30.0000
 20
47.4000
 30
0.0000
 11
30.0000
 21
44.9000
 31
0.0000
  0
LINE
  8
20
 10
30.0000
 20
44.9000
 30
0.0000
 11
40.0000
 21
44.9000
 31
0.0000
  0
LINE
  8
20
 10
40.0000
 20
44.9000
 30
0.0000
 11
40.0000
 21
47.4000
 31
0.0000
  0
LINE
  8
20
 10
50.0000
 20
47.4000
 30
0.0000
 11
50.0000
 21
44.9000
 31
0.0000
  0
LINE
  8
20
 10
50.0000
 20
44.9000
 30
0.0000
 11
60.0000
 21
44.9000
 31
0.0000
  0
LINE
  8
20
 10
60.0000
 20
44.9000
 30
0.0000
 11
60.0000
 21
47.4000
 31
0.0000
  0
LINE
  8
20
 10
70.0000
 20
47.4000
 30
0.0000
 11
70.0000
 21
44.9000
 31
0.0000
  0
LINE
  8
20
 10
70.0000
 20
44.9000
 30
0.0000
 11
80.0000
 21
44.9000
 31
0.0000
  0
LINE
  8
20
 10
80.0000
 20
44.9000
 30
0.0000
 11
80.0000
 21
47.4000
 31
0.0000
  0
LINE
  8
20
 10
90.0000
 20
47.4000
 30
0.0000
 11
90.0000
 21
44.9000
 31
0.0000
  0
LINE
  8
20
 10
90.0000
 20
44.9000
 30
0.0000
 11
100.0000
 21
44.9000
 31
0.0000
  0
LINE
  8
20
 10
100.0000
 20
44.9000
 30
0.0000
 11
100.0000
 21
47.4000
 31
0.0000
  0
LINE
  8
20
 10
110.0000
 20
47.4000
 30
0.0000
 11
110.0000
 21
44.9000
 31
0.0000
  0
LINE
  8
20
 10
110.0000
 20
44.9000
 30
0.0000
 11
120.0000
 21
44.9000
 31
0.0000
  0
LINE
  8
20
 10
120.0000
 20
44.9000
 30
0.0000
 11
120.0000
 21
47.4000
 31
0.0000
  0
LINE
  8
20
 10
130.0000
 20
47.4000
 30
0.0000
 11
130.0000
 21
44.9000
 31
0.0000
  0
LINE
  8
20
 10
130.0000
 20
44.9000
 30
0.0000
 11
140.0000
 21
44.9000
 31
0.0000
  0
LINE
  8
20
 10
140.0000
 20
44.9000
 30
0.0000
 11
140.0000
 21
47.4000
 31
0.0000
  0
LINE
  8
20
 10
150.0000
 20
47.4000
 30
0.0000
 11
150.0000
 21
44.9000
 31
0.0000
  0
LINE
  8
20
 10
150.0000
 20
44.9000
 30
0.0000
 11
160.0000
 21
44.9000
 31
0.0000
  0
LINE
  8
20
 10
160.0000
 20
44.9000
 30
0.0000
 11
160.0000
 21
47.4000
 31
0.0000
  0
LINE
  8
20
 10
170.0000
 20
47.4000
 30
0.0000
 11
170.0000
 21
44.9000
 31
0.0000
  0
LINE
  8
20
 10
170.0000
 20
44.9000
 30
0.0000
 11
180.0000
 21
44.9000
 31
0.0000
  0
LINE
  8
20
 10
180.0000
 20
44.9000
 30
0.0000
 11
180.0000
 21
47.4000
 31
0.0000
  0
LINE
  8
20
 10
191.0000
 20
47.4000
 30
0.0000
 11
180.0000
 21
47.4000
 31
0.0000
  0
LINE
  8
20
 10
170.0000
 20
47.4000
 30
0.0000
 11
160.0000
 21
47.4000
 31
0.0000
  0
LINE
  8
20
 10
150.0000
 20
47.4000
 30
0.0000
 11
140.0000
 21
47.4000
 31
0.0000
  0
LINE
  8
20
 10
130.0000
 20
47.4000
 30
0.0000
 11
120.0000
 21
47.4000
 31
0.0000
  0
LINE
  8
20
 10
110.0000
 20
47.4000
 30
0.0000
 11
100.0000
 21
47.4000
 31
0.0000
  0
LINE
  8
20
 10
90.0000
 20
47.4000
 30
0.0000
 11
80.0000
 21
47.4000
 31
0.0000
  0
LINE
  8
20
 10
70.0000
 20
47.4000
 30
0.0000
 11
60.0000
 21
47.4000
 31
0.0000
  0
LINE
  8
20
 10
50.0000
 20
47.4000
 30
0.0000
 11
40.0000
 21
47.4000
 31
0.0000
  0
ARC
  8
20
 10
1.0000
 20
32.5950
 30
0.0000
 40
1.0000
 50
179.7135
 51
275.7392
  0
ARC
  8
20
 10
1.1500
 20
46.2400
 30
0.0000
 40
1.1611
 50
92.4681
 51
172.0794
  0
LINE
  8
20
 10
0.0000
 20
46.4000
 30
0.0000
 11
0.0000
 21
32.6000
 31
0.0000
  0
LINE
  8
20
 10
192.0000
 20
46.4000
 30
0.0000
 11
192.0000
 21
32.5000
 31
0.0000
  0
LINE
  8
20
 10
1.1000
 20
47.4000
 30
0.0000
 11
30.0000
 21
47.4000
 31
0.0000
  0
LINE
  8
20
 10
30.0000
 20
47.4000
 30
0.0000
 11
30.0000
 21
49.9000
 31
0.0000
  0
LINE
  8
20
 10
30.0000
 20
49.9000
 30
0.0000
 11
40.0000
 21
49.9000
 31
0.0000
  0
LINE
  8
20
 10
40.0000
 20
49.9000
 30
0.0000
 11
40.0000
 21
47.4000
 31
0.0000
  0
LINE
  8
20
 10
50.0000
 20
47.4000
 30
0.0000
 11
50.0000
 21
49.9000
 31
0.0000
  0
LINE
  8
20
 10
50.0000
 20
49.9000
 30
0.0000
 11
60.0000
 21
49.9000
 31
0.0000
  0
LINE
  8
20
 10
60.0000
 20
49.9000
 30
0.0000
 11
60.0000
 21
47.4000
 31
0.0000
  0
LINE
  8
20
 10
70.0000
 20
47.4000
 30
0.0000
 11
70.0000
 21
49.9000
 31
0.0000
  0
LINE
  8
20
 10
70.0000
 20
49.9000
 30
0.0000
 11
80.0000
 21
49.9000
 31
0.0000
  0
LINE
  8
20
 10
80.0000
 20
49.9000
 30
0.0000
 11
80.0000
 21
47.4000
 31
0.0000
  0
LINE
  8
20
 10
90.0000
 20
47.4000
 30
0.0000
 11
90.0000
 21
49.9000
 31
0.0000
  0
LINE
  8
20
 10
90.0000
 20
49.9000
 30
0.0000
 11
100.0000
 21
49.9000
 31
0.0000
  0
LINE
  8
20
 10
100.0000
 20
49.9000
 30
0.0000
 11
100.0000
 21
47.4000
 31
0.0000
  0
LINE
  8
20
 10
110.0000
 20
47.4000
 30
0.0000
 11
110.0000
 21
49.9000
 31
0.0000
  0
LINE
  8
20
 10
110.0000
 20
49.9000
 30
0.0000
 11
120.0000
 21
49.9000
 31
0.0000
  0
LINE
  8
20
 10
120.0000
 20
49.9000
 30
0.0000
 11
120.0000
 21
47.4000
 31
0.0000
  0
LINE
  8
20
 10
130.0000
 20
47.4000
 30
0.0000
 11
130.0000
 21
49.9000
 31
0.0000
  0
LINE
  8
20
 10
130.0000
 20
49.9000
 30
0.0000
 11
140.0000
 21
49.9000
 31
0.0000
  0
LINE
  8
20
 10
140.0000
 20
49.9000
 30
0.0000
 11
140.0000
 21
47.4000
 31
0.0000
  0
LINE
  8
20
 10
150.0000
 20
47.4000
 30
0.0000
 11
150.0000
 21
49.9000
 31
0.0000
  0
LINE
  8
20
 10
150.0000
 20
49.9000
 30
0.0000
 11
160.0000
 21
49.9000
 31
0.0000
  0
LINE
  8
20
 10
160.0000
 20
49.9000
 30
0.0000
 11
160.0000
 21
47.4000
 31
0.0000
  0
LINE
  8
20
 10
170.0000
 20
47.4000
 30
0.0000
 11
170.0000
 21
49.9000
 31
0.0000
  0
LINE
  8
20
 10
170.0000
 20
49.9000
 30
0.0000
 11
180.0000
 21
49.9000
 31
0.0000
  0
LINE
  8
20
 10
180.0000
 20
49.9000
 30
0.0000
 11
180.0000
 21
47.4000
 31
0.0000
  0
LINE
  8
20
 10
191.0000
 20
47.4000
 30
0.0000
 11
180.0000
 21
47.4000
 31
0.0000
  0
LINE
  8
20
 10
170.0000
 20
47.4000
 30
0.0000
 11
160.0000
 21
47.4000
 31
0.0000
  0
LINE
  8
20
 10
150.0000
 20
47.4000
 30
0.0000
 11
140.0000
 21
47.4000
 31
0.0000
  0
LINE
  8
20
 10
130.0000
 20
47.4000
 30
0.0000
 11
120.0000
 21
47.4000
 31
0.0000
  0
LINE
  8
20
 10
110.0000
 20
47.4000
 30
0.0000
 11
100.0000
 21
47.4000
 31
0.0000
  0
LINE
  8
20
 10
90.0000
 20
47.4000
 30
0.0000
 11
80.0000
 21
47.4000
 31
0.0000
  0
LINE
  8
20
 10
70.0000
 20
47.4000
 30
0.0000
 11
60.0000
 21
47.4000
 31
0.0000
  0
LINE
  8
20
 10
50.0000
 20
47.4000
 30
0.0000
 11
40.0000
 21
47.4000
 31
0.0000
  0
ARC
  8
20
 10
191.0500
 20
48.3500
 30
0.0000
 40
0.9513
 50
266.9872
 51
356.9872
  0
ARC
  8
20
 10
191.0500
 20
62.2500
 30
0.0000
 40
0.9513
 50
356.9872
 51
93.0128
  0
LINE
  8
20
 10
1.1000
 20
63.2000
 30
0.0000
 11
30.0000
 21
63.2000
 31
0.0000
  0
LINE
  8
20
 10
30.0000
 20
63.2000
 30
0.0000
 11
30.0000
 21
60.7000
 31
0.0000
  0
LINE
  8
20
 10
30.0000
 20
60.7000
 30
0.0000
 11
40.0000
 21
60.7000
 31
0.0000
  0
LINE
  8
20
 10
40.0000
 20
60.7000
 30
0.0000
 11
40.0000
 21
63.2000
 31
0.0000
  0
LINE
  8
20
 10
50.0000
 20
63.2000
 30
0.0000
 11
50.0000
 21
60.7000
 31
0.0000
  0
LINE
  8
20
 10
50.0000
 20
60.7000
 30
0.0000
 11
60.0000
 21
60.7000
 31
0.0000
  0
LINE
  8
20
 10
60.0000
 20
60.7000
 30
0.0000
 11
60.0000
 21
63.2000
 31
0.0000
  0
LINE
  8
20
 10
70.0000
 20
63.2000
 30
0.0000
 11
70.0000
 21
60.7000
 31
0.0000
  0
LINE
  8
20
 10
70.0000
 20
60.7000
 30
0.0000
 11
80.0000
 21
60.7000
 31
0.0000
  0
LINE
  8
20
 10
80.0000
 20
60.7000
 30
0.0000
 11
80.0000
 21
63.2000
 31
0.0000
  0
LINE
  8
20
 10
90.0000
 20
63.2000
 30
0.0000
 11
90.0000
 21
60.7000
 31
0.0000
  0
LINE
  8
20
 10
90.0000
 20
60.7000
 30
0.0000
 11
100.0000
 21
60.7000
 31
0.0000
  0
LINE
  8
20
 10
100.0000
 20
60.7000
 30
0.0000
 11
100.0000
 21
63.2000
 31
0.0000
  0
LINE
  8
20
 10
110.0000
 20
63.2000
 30
0.0000
 11
110.0000
 21
60.7000
 31
0.0000
  0
LINE
  8
20
 10
110.0000
 20
60.7000
 30
0.0000
 11
120.0000
 21
60.7000
 31
0.0000
  0
LINE
  8
20
 10
120.0000
 20
60.7000
 30
0.0000
 11
120.0000
 21
63.2000
 31
0.0000
  0
LINE
  8
20
 10
130.0000
 20
63.2000
 30
0.0000
 11
130.0000
 21
60.7000
 31
0.0000
  0
LINE
  8
20
 10
130.0000
 20
60.7000
 30
0.0000
 11
140.0000
 21
60.7000
 31
0.0000
  0
LINE
  8
20
 10
140.0000
 20
60.7000
 30
0.0000
 11
140.0000
 21
63.2000
 31
0.0000
  0
LINE
  8
20
 10
150.0000
 20
63.2000
 30
0.0000
 11
150.0000
 21
60.7000
 31
0.0000
  0
LINE
  8
20
 10
150.0000
 20
60.7000
 30
0.0000
 11
160.0000
 21
60.7000
 31
0.0000
  0
LINE
  8
20
 10
160.0000
 20
60.7000
 30
0.0000
 11
160.0000
 21
63.2000
 31
0.0000
  0
LINE
  8
20
 10
170.0000
 20
63.2000
 30
0.0000
 11
170.0000
 21
60.7000
 31
0.0000
  0
LINE
  8
20
 10
170.0000
 20
60.7000
 30
0.0000
 11
180.0000
 21
60.7000
 31
0.0000
  0
LINE
  8
20
 10
180.0000
 20
60.7000
 30
0.0000
 11
180.0000
 21
63.2000
 31
0.0000
  0
LINE
  8
20
 10
191.0000
 20
63.2000
 30
0.0000
 11
180.0000
 21
63.2000
 31
0.0000
  0
LINE
  8
20
 10
170.0000
 20
63.2000
 30
0.0000
 11
160.0000
 21
63.2000
 31
0.0000
  0
LINE
  8
20
 10
150.0000
 20
63.2000
 30
0.0000
 11
140.0000
 21
63.2000
 31
0.0000
  0
LINE
  8
20
 10
130.0000
 20
63.2000
 30
0.0000
 11
120.0000
 21
63.2000
 31
0.0000
  0
LINE
  8
20
 10
110.0000
 20
63.2000
 30
0.0000
 11
100.0000
 21
63.2000
 31
0.0000
  0
LINE
  8
20
 10
90.0000
 20
63.2000
 30
0.0000
 11
80.0000
 21
63.2000
 31
0.0000
  0
LINE
  8
20
 10
70.0000
 20
63.2000
 30
0.0000
 11
60.0000
 21
63.2000
 31
0.0000
  0
LINE
  8
20
 10
50.0000
 20
63.2000
 30
0.0000
 11
40.0000
 21
63.2000
 31
0.0000
  0
ARC
  8
20
 10
1.0000
 20
48.3950
 30
0.0000
 40
1.0000
 50
179.7135
 51
275.7392
  0
ARC
  8
20
 10
1.1500
 20
62.0400
 30
0.0000
 40
1.1611
 50
92.4681
 51
172.0794
  0
LINE
  8
20
 10
0.0000
 20
62.2000
 30
0.0000
 11
0.0000
 21
48.4000
 31
0.0000
  0
LINE
  8
20
 10
192.0000
 20
62.2000
 30
0.0000
 11
192.0000
 21
48.3000
 31
0.0000
  0
LINE
  8
20
 10
1.1000
 20
63.2000
 30
0.0000
 11
30.0000
 21
63.2000
 31
0.0000
  0
LINE
  8
20
 10
30.0000
 20
63.2000
 30
0.0000
 11
30.0000
 21
65.7000
 31
0.0000
  0
LINE
  8
20
 10
30.0000
 20
65.7000
 30
0.0000
 11
40.0000
 21
65.7000
 31
0.0000
  0
LINE
  8
20
 10
40.0000
 20
65.7000
 30
0.0000
 11
40.0000
 21
63.2000
 31
0.0000
  0
LINE
  8
20
 10
50.0000
 20
63.2000
 30
0.0000
 11
50.0000
 21
65.7000
 31
0.0000
  0
LINE
  8
20
 10
50.0000
 20
65.7000
 30
0.0000
 11
60.0000
 21
65.7000
 31
0.0000
  0
LINE
  8
20
 10
60.0000
 20
65.7000
 30
0.0000
 11
60.0000
 21
63.2000
 31
0.0000
  0
LINE
  8
20
 10
70.0000
 20
63.2000
 30
0.0000
 11
70.0000
 21
65.7000
 31
0.0000
  0
LINE
  8
20
 10
70.0000
 20
65.7000
 30
0.0000
 11
80.0000
 21
65.7000
 31
0.0000
  0
LINE
  8
20
 10
80.0000
 20
65.7000
 30
0.0000
 11
80.0000
 21
63.2000
 31
0.0000
  0
LINE
  8
20
 10
90.0000
 20
63.2000
 30
0.0000
 11
90.0000
 21
65.7000
 31
0.0000
  0
LINE
  8
20
 10
90.0000
 20
65.7000
 30
0.0000
 11
100.0000
 21
65.7000
 31
0.0000
  0
LINE
  8
20
 10
100.0000
 20
65.7000
 30
0.0000
 11
100.0000
 21
63.2000
 31
0.0000
  0
LINE
  8
20
 10
110.0000
 20
63.2000
 30
0.0000
 11
110.0000
 21
65.7000
 31
0.0000
  0
LINE
  8
20
 10
110.0000
 20
65.7000
 30
0.0000
 11
120.0000
 21
65.7000
 31
0.0000
  0
LINE
  8
20
 10
120.0000
 20
65.7000
 30
0.0000
 11
120.0000
 21
63.2000
 31
0.0000
  0
LINE
  8
20
 10
130.0000
 20
63.2000
 30
0.0000
 11
130.0000
 21
65.7000
 31
0.0000
  0
LINE
  8
20
 10
130.0000
 20
65.7000
 30
0.0000
 11
140.0000
 21
65.7000
 31
0.0000
  0
LINE
  8
20
 10
140.0000
 20
65.7000
 30
0.0000
 11
140.0000
 21
63.2000
 31
0.0000
  0
LINE
  8
20
 10
150.0000
 20
63.2000
 30
0.0000
 11
150.0000
 21
65.7000
 31
0.0000
  0
LINE
  8
20
 10
150.0000
 20
65.7000
 30
0.0000
 11
160.0000
 21
65.7000
 31
0.0000
  0
LINE
  8
20
 10
160.0000
 20
65.7000
 30
0.0000
 11
160.0000
 21
63.2000
 31
0.0000
  0
LINE
  8
20
 10
170.0000
 20
63.2000
 30
0.0000
 11
170.0000
 21
65.7000
 31
0.0000
  0
LINE
  8
20
 10
170.0000
 20
65.7000
 30
0.0000
 11
180.0000
 21
65.7000
 31
0.0000
  0
LINE
  8
20
 10
180.0000
 20
65.7000
 30
0.0000
 11
180.0000
 21
63.2000
 31
0.0000
  0
LINE
  8
20
 10
191.0000
 20
63.2000
 30
0.0000
 11
180.0000
 21
63.2000
 31
0.0000
  0
LINE
  8
20
 10
170.0000
 20
63.2000
 30
0.0000
 11
160.0000
 21
63.2000
 31
0.0000
  0
LINE
  8
20
 10
150.0000
 20
63.2000
 30
0.0000
 11
140.0000
 21
63.2000
 31
0.0000
  0
LINE
  8
20
 10
130.0000
 20
63.2000
 30
0.0000
 11
120.0000
 21
63.2000
 31
0.0000
  0
LINE
  8
20
 10
110.0000
 20
63.2000
 30
0.0000
 11
100.0000
 21
63.2000
 31
0.0000
  0
LINE
  8
20
 10
90.0000
 20
63.2000
 30
0.0000
 11
80.0000
 21
63.2000
 31
0.0000
  0
LINE
  8
20
 10
70.0000
 20
63.2000
 30
0.0000
 11
60.0000
 21
63.2000
 31
0.0000
  0
LINE
  8
20
 10
50.0000
 20
63.2000
 30
0.0000
 11
40.0000
 21
63.2000
 31
0.0000
  0
ARC
  8
20
 10
191.0500
 20
64.1500
 30
0.0000
 40
0.9513
 50
266.9872
 51
356.9872
  0
ARC
  8
20
 10
191.0500
 20
78.0500
 30
0.0000
 40
0.9513
 50
356.9872
 51
93.0128
  0
LINE
  8
20
 10
1.1000
 20
79.0000
 30
0.0000
 11
30.0000
 21
79.0000
 31
0.0000
  0
LINE
  8
20
 10
30.0000
 20
79.0000
 30
0.0000
 11
30.0000
 21
76.5000
 31
0.0000
  0
LINE
  8
20
 10
30.0000
 20
76.5000
 30
0.0000
 11
40.0000
 21
76.5000
 31
0.0000
  0
LINE
  8
20
 10
40.0000
 20
76.5000
 30
0.0000
 11
40.0000
 21
79.0000
 31
0.0000
  0
LINE
  8
20
 10
50.0000
 20
79.0000
 30
0.0000
 11
50.0000
 21
76.5000
 31
0.0000
  0
LINE
  8
20
 10
50.0000
 20
76.5000
 30
0.0000
 11
60.0000
 21
76.5000
 31
0.0000
  0
LINE
  8
20
 10
60.0000
 20
76.5000
 30
0.0000
 11
60.0000
 21
79.0000
 31
0.0000
  0
LINE
  8
20
 10
70.0000
 20
79.0000
 30
0.0000
 11
70.0000
 21
76.5000
 31
0.0000
  0
LINE
  8
20
 10
70.0000
 20
76.5000
 30
0.0000
 11
80.0000
 21
76.5000
 31
0.0000
  0
LINE
  8
20
 10
80.0000
 20
76.5000
 30
0.0000
 11
80.0000
 21
79.0000
 31
0.0000
  0
LINE
  8
20
 10
90.0000
 20
79.0000
 30
0.0000
 11
90.0000
 21
76.5000
 31
0.0000
  0
LINE
  8
20
 10
90.0000
 20
76.5000
 30
0.0000
 11
100.0000
 21
76.5000
 31
0.0000
  0
LINE
  8
20
 10
100.0000
 20
76.5000
 30
0.0000
 11
100.0000
 21
79.0000
 31
0.0000
  0
LINE
  8
20
 10
110.0000
 20
79.0000
 30
0.0000
 11
110.0000
 21
76.5000
 31
0.0000
  0
LINE
  8
20
 10
110.0000
 20
76.5000
 30
0.0000
 11
120.0000
 21
76.5000
 31
0.0000
  0
LINE
  8
20
 10
120.0000
 20
76.5000
 30
0.0000
 11
120.0000
 21
79.0000
 31
0.0000
  0
LINE
  8
20
 10
130.0000
 20
79.0000
 30
0.0000
 11
130.0000
 21
76.5000
 31
0.0000
  0
LINE
  8
20
 10
130.0000
 20
76.5000
 30
0.0000
 11
140.0000
 21
76.5000
 31
0.0000
  0
LINE
  8
20
 10
140.0000
 20
76.5000
 30
0.0000
 11
140.0000
 21
79.0000
 31
0.0000
  0
LINE
  8
20
 10
150.0000
 20
79.0000
 30
0.0000
 11
150.0000
 21
76.5000
 31
0.0000
  0
LINE
  8
20
 10
150.0000
 20
76.5000
 30
0.0000
 11
160.0000
 21
76.5000
 31
0.0000
  0
LINE
  8
20
 10
160.0000
 20
76.5000
 30
0.0000
 11
160.0000
 21
79.0000
 31
0.0000
  0
LINE
  8
20
 10
170.0000
 20
79.0000
 30
0.0000
 11
170.0000
 21
76.5000
 31
0.0000
  0
LINE
  8
20
 10
170.0000
 20
76.5000
 30
0.0000
 11
180.0000
 21
76.5000
 31
0.0000
  0
LINE
  8
20
 10
180.0000
 20
76.5000
 30
0.0000
 11
180.0000
 21
79.0000
 31
0.0000
  0
LINE
  8
20
 10
191.0000
 20
79.0000
 30
0.0000
 11
180.0000
 21
79.0000
 31
0.0000
  0
LINE
  8
20
 10
170.0000
 20
79.0000
 30
0.0000
 11
160.0000
 21
79.0000
 31
0.0000
  0
LINE
  8
20
 10
150.0000
 20
79.0000
 30
0.0000
 11
140.0000
 21
79.0000
 31
0.0000
  0
LINE
  8
20
 10
130.0000
 20
79.0000
 30
0.0000
 11
120.0000
 21
79.0000
 31
0.0000
  0
LINE
  8
20
 10
110.0000
 20
79.0000
 30
0.0000
 11
100.0000
 21
79.0000
 31
0.0000
  0
LINE
  8
20
 10
90.0000
 20
79.0000
 30
0.0000
 11
80.0000
 21
79.0000
 31
0.0000
  0
LINE
  8
20
 10
70.0000
 20
79.0000
 30
0.0000
 11
60.0000
 21
79.0000
 31
0.0000
  0
LINE
  8
20
 10
50.0000
 20
79.0000
 30
0.0000
 11
40.0000
 21
79.0000
 31
0.0000
  0
ARC
  8
20
 10
1.0000
 20
64.1950
 30
0.0000
 40
1.0000
 50
179.7135
 51
275.7392
  0
ARC
  8
20
 10
1.1500
 20
77.8400
 30
0.0000
 40
1.1611
 50
92.4681
 51
172.0794
  0
LINE
  8
20
 10
0.0000
 20
78.0000
 30
0.0000
 11
0.0000
 21
64.2000
 31
0.0000
  0
LINE
  8
20
 10
192.0000
 20
78.0000
 30
0.0000
 11
192.0000
 21
64.1000
 31
0.0000
  0
LINE
  8
20
 10
1.1000
 20
79.0000
 30
0.0000
 11
30.0000
 21
79.0000
 31
0.0000
  0
LINE
  8
20
 10
30.0000
 20
79.0000
 30
0.0000
 11
30.0000
 21
81.5000
 31
0.0000
  0
LINE
  8
20
 10
30.0000
 20
81.5000
 30
0.0000
 11
40.0000
 21
81.5000
 31
0.0000
  0
LINE
  8
20
 10
40.0000
 20
81.5000
 30
0.0000
 11
40.0000
 21
79.0000
 31
0.0000
  0
LINE
  8
20
 10
50.0000
 20
79.0000
 30
0.0000
 11
50.0000
 21
81.5000
 31
0.0000
  0
LINE
  8
20
 10
50.0000
 20
81.5000
 30
0.0000
 11
60.0000
 21
81.5000
 31
0.0000
  0
LINE
  8
20
 10
60.0000
 20
81.5000
 30
0.0000
 11
60.0000
 21
79.0000
 31
0.0000
  0
LINE
  8
20
 10
70.0000
 20
79.0000
 30
0.0000
 11
70.0000
 21
81.5000
 31
0.0000
  0
LINE
  8
20
 10
70.0000
 20
81.5000
 30
0.0000
 11
80.0000
 21
81.5000
 31
0.0000
  0
LINE
  8
20
 10
80.0000
 20
81.5000
 30
0.0000
 11
80.0000
 21
79.0000
 31
0.0000
  0
LINE
  8
20
 10
90.0000
 20
79.0000
 30
0.0000
 11
90.0000
 21
81.5000
 31
0.0000
  0
LINE
  8
20
 10
90.0000
 20
81.5000
 30
0.0000
 11
100.0000
 21
81.5000
 31
0.0000
  0
LINE
  8
20
 10
100.0000
 20
81.5000
 30
0.0000
 11
100.0000
 21
79.0000
 31
0.0000
  0
LINE
  8
20
 10
110.0000
 20
79.0000
 30
0.0000
 11
110.0000
 21
81.5000
 31
0.0000
  0
LINE
  8
20
 10
110.0000
 20
81.5000
 30
0.0000
 11
120.0000
 21
81.5000
 31
0.0000
  0
LINE
  8
20
 10
120.0000
 20
81.5000
 30
0.0000
 11
120.0000
 21
79.0000
 31
0.0000
  0
LINE
  8
20
 10
130.0000
 20
79.0000
 30
0.0000
 11
130.0000
 21
81.5000
 31
0.0000
  0
LINE
  8
20
 10
130.0000
 20
81.5000
 30
0.0000
 11
140.0000
 21
81.5000
 31
0.0000
  0
LINE
  8
20
 10
140.0000
 20
81.5000
 30
0.0000
 11
140.0000
 21
79.0000
 31
0.0000
  0
LINE
  8
20
 10
150.0000
 20
79.0000
 30
0.0000
 11
150.0000
 21
81.5000
 31
0.0000
  0
LINE
  8
20
 10
150.0000
 20
81.5000
 30
0.0000
 11
160.0000
 21
81.5000
 31
0.0000
  0
LINE
  8
20
 10
160.0000
 20
81.5000
 30
0.0000
 11
160.0000
 21
79.0000
 31
0.0000
  0
LINE
  8
20
 10
170.0000
 20
79.0000
 30
0.0000
 11
170.0000
 21
81.5000
 31
0.0000
  0
LINE
  8
20
 10
170.0000
 20
81.5000
 30
0.0000
 11
180.0000
 21
81.5000
 31
0.0000
  0
LINE
  8
20
 10
180.0000
 20
81.5000
 30
0.0000
 11
180.0000
 21
79.0000
 31
0.0000
  0
LINE
  8
20
 10
191.0000
 20
79.0000
 30
0.0000
 11
180.0000
 21
79.0000
 31
0.0000
  0
LINE
  8
20
 10
170.0000
 20
79.0000
 30
0.0000
 11
160.0000
 21
79.0000
 31
0.0000
  0
LINE
  8
20
 10
150.0000
 20
79.0000
 30
0.0000
 11
140.0000
 21
79.0000
 31
0.0000
  0
LINE
  8
20
 10
130.0000
 20
79.0000
 30
0.0000
 11
120.0000
 21
79.0000
 31
0.0000
  0
LINE
  8
20
 10
110.0000
 20
79.0000
 30
0.0000
 11
100.0000
 21
79.0000
 31
0.0000
  0
LINE
  8
20
 10
90.0000
 20
79.0000
 30
0.0000
 11
80.0000
 21
79.0000
 31
0.0000
  0
LINE
  8
20
 10
70.0000
 20
79.0000
 30
0.0000
 11
60.0000
 21
79.0000
 31
0.0000
  0
LINE
  8
20
 10
50.0000
 20
79.0000
 30
0.0000
 11
40.0000
 21
79.0000
 31
0.0000
  0
ARC
  8
20
 10
191.0500
 20
79.9500
 30
0.0000
 40
0.9513
 50
266.9872
 51
356.9872
  0
ARC
  8
20
 10
191.0500
 20
93.8500
 30
0.0000
 40
0.9513
 50
356.9872
 51
93.0128
  0
LINE
  8
20
 10
1.1000
 20
94.8000
 30
0.0000
 11
30.0000
 21
94.8000
 31
0.0000
  0
LINE
  8
20
 10
30.0000
 20
94.8000
 30
0.0000
 11
30.0000
 21
92.3000
 31
0.0000
  0
LINE
  8
20
 10
30.0000
 20
92.3000
 30
0.0000
 11
40.0000
 21
92.3000
 31
0.0000
  0
LINE
  8
20
 10
40.0000
 20
92.3000
 30
0.0000
 11
40.0000
 21
94.8000
 31
0.0000
  0
LINE
  8
20
 10
50.0000
 20
94.8000
 30
0.0000
 11
50.0000
 21
92.3000
 31
0.0000
  0
LINE
  8
20
 10
50.0000
 20
92.3000
 30
0.0000
 11
60.0000
 21
92.3000
 31
0.0000
  0
LINE
  8
20
 10
60.0000
 20
92.3000
 30
0.0000
 11
60.0000
 21
94.8000
 31
0.0000
  0
LINE
  8
20
 10
70.0000
 20
94.8000
 30
0.0000
 11
70.0000
 21
92.3000
 31
0.0000
  0
LINE
  8
20
 10
70.0000
 20
92.3000
 30
0.0000
 11
80.0000
 21
92.3000
 31
0.0000
  0
LINE
  8
20
 10
80.0000
 20
92.3000
 30
0.0000
 11
80.0000
 21
94.8000
 31
0.0000
  0
LINE
  8
20
 10
90.0000
 20
94.8000
 30
0.0000
 11
90.0000
 21
92.3000
 31
0.0000
  0
LINE
  8
20
 10
90.0000
 20
92.3000
 30
0.0000
 11
100.0000
 21
92.3000
 31
0.0000
  0
LINE
  8
20
 10
100.0000
 20
92.3000
 30
0.0000
 11
100.0000
 21
94.8000
 31
0.0000
  0
LINE
  8
20
 10
110.0000
 20
94.8000
 30
0.0000
 11
110.0000
 21
92.3000
 31
0.0000
  0
LINE
  8
20
 10
110.0000
 20
92.3000
 30
0.0000
 11
120.0000
 21
92.3000
 31
0.0000
  0
LINE
  8
20
 10
120.0000
 20
92.3000
 30
0.0000
 11
120.0000
 21
94.8000
 31
0.0000
  0
LINE
  8
20
 10
130.0000
 20
94.8000
 30
0.0000
 11
130.0000
 21
92.3000
 31
0.0000
  0
LINE
  8
20
 10
130.0000
 20
92.3000
 30
0.0000
 11
140.0000
 21
92.3000
 31
0.0000
  0
LINE
  8
20
 10
140.0000
 20
92.3000
 30
0.0000
 11
140.0000
 21
94.8000
 31
0.0000
  0
LINE
  8
20
 10
150.0000
 20
94.8000
 30
0.0000
 11
150.0000
 21
92.3000
 31
0.0000
  0
LINE
  8
20
 10
150.0000
 20
92.3000
 30
0.0000
 11
160.0000
 21
92.3000
 31
0.0000
  0
LINE
  8
20
 10
160.0000
 20
92.3000
 30
0.0000
 11
160.0000
 21
94.8000
 31
0.0000
  0
LINE
  8
20
 10
170.0000
 20
94.8000
 30
0.0000
 11
170.0000
 21
92.3000
 31
0.0000
  0
LINE
  8
20
 10
170.0000
 20
92.3000
 30
0.0000
 11
180.0000
 21
92.3000
 31
0.0000
  0
LINE
  8
20
 10
180.0000
 20
92.3000
 30
0.0000
 11
180.0000
 21
94.8000
 31
0.0000
  0
LINE
  8
20
 10
191.0000
 20
94.8000
 30
0.0000
 11
180.0000
 21
94.8000
 31
0.0000
  0
LINE
  8
20
 10
170.0000
 20
94.8000
 30
0.0000
 11
160.0000
 21
94.8000
 31
0.0000
  0
LINE
  8
20
 10
150.0000
 20
94.8000
 30
0.0000
 11
140.0000
 21
94.8000
 31
0.0000
  0
LINE
  8
20
 10
130.0000
 20
94.8000
 30
0.0000
 11
120.0000
 21
94.8000
 31
0.0000
  0
LINE
  8
20
 10
110.0000
 20
94.8000
 30
0.0000
 11
100.0000
 21
94.8000
 31
0.0000
  0
LINE
  8
20
 10
90.0000
 20
94.8000
 30
0.0000
 11
80.0000
 21
94.8000
 31
0.0000
  0
LINE
  8
20
 10
70.0000
 20
94.8000
 30
0.0000
 11
60.0000
 21
94.8000
 31
0.0000
  0
LINE
  8
20
 10
50.0000
 20
94.8000
 30
0.0000
 11
40.0000
 21
94.8000
 31
0.0000
  0
ARC
  8
20
 10
1.0000
 20
79.9950
 30
0.0000
 40
1.0000
 50
179.7135
 51
275.7392
  0
ARC
  8
20
 10
1.1500
 20
93.6400
 30
0.0000
 40
1.1611
 50
92.4681
 51
172.0794
  0
LINE
  8
20
 10
0.0000
 20
93.8000
 30
0.0000
 11
0.0000
 21
80.0000
 31
0.0000
  0
LINE
  8
20
 10
192.0000
 20
93.8000
 30
0.0000
 11
192.0000
 21
79.9000
 31
0.0000
  0
LINE
  8
20
 10
1.1000
 20
94.8000
 30
0.0000
 11
30.0000
 21
94.8000
 31
0.0000
  0
LINE
  8
20
 10
30.0000
 20
94.8000
 30
0.0000
 11
30.0000
 21
97.3000
 31
0.0000
  0
LINE
  8
20
 10
30.0000
 20
97.3000
 30
0.0000
 11
40.0000
 21
97.3000
 31
0.0000
  0
LINE
  8
20
 10
40.0000
 20
97.3000
 30
0.0000
 11
40.0000
 21
94.8000
 31
0.0000
  0
LINE
  8
20
 10
50.0000
 20
94.8000
 30
0.0000
 11
50.0000
 21
97.3000
 31
0.0000
  0
LINE
  8
20
 10
50.0000
 20
97.3000
 30
0.0000
 11
60.0000
 21
97.3000
 31
0.0000
  0
LINE
  8
20
 10
60.0000
 20
97.3000
 30
0.0000
 11
60.0000
 21
94.8000
 31
0.0000
  0
LINE
  8
20
 10
70.0000
 20
94.8000
 30
0.0000
 11
70.0000
 21
97.3000
 31
0.0000
  0
LINE
  8
20
 10
70.0000
 20
97.3000
 30
0.0000
 11
80.0000
 21
97.3000
 31
0.0000
  0
LINE
  8
20
 10
80.0000
 20
97.3000
 30
0.0000
 11
80.0000
 21
94.8000
 31
0.0000
  0
LINE
  8
20
 10
90.0000
 20
94.8000
 30
0.0000
 11
90.0000
 21
97.3000
 31
0.0000
  0
LINE
  8
20
 10
90.0000
 20
97.3000
 30
0.0000
 11
100.0000
 21
97.3000
 31
0.0000
  0
LINE
  8
20
 10
100.0000
 20
97.3000
 30
0.0000
 11
100.0000
 21
94.8000
 31
0.0000
  0
LINE
  8
20
 10
110.0000
 20
94.8000
 30
0.0000
 11
110.0000
 21
97.3000
 31
0.0000
  0
LINE
  8
20
 10
110.0000
 20
97.3000
 30
0.0000
 11
120.0000
 21
97.3000
 31
0.0000
  0
LINE
  8
20
 10
120.0000
 20
97.3000
 30
0.0000
 11
120.0000
 21
94.8000
 31
0.0000
  0
LINE
  8
20
 10
130.0000
 20
94.8000
 30
0.0000
 11
130.0000
 21
97.3000
 31
0.0000
  0
LINE
  8
20
 10
130.0000
 20
97.3000
 30
0.0000
 11
140.0000
 21
97.3000
 31
0.0000
  0
LINE
  8
20
 10
140.0000
 20
97.3000
 30
0.0000
 11
140.0000
 21
94.8000
 31
0.0000
  0
LINE
  8
20
 10
150.0000
 20
94.8000
 30
0.0000
 11
150.0000
 21
97.3000
 31
0.0000
  0
LINE
  8
20
 10
150.0000
 20
97.3000
 30
0.0000
 11
160.0000
 21
97.3000
 31
0.0000
  0
LINE
  8
20
 10
160.0000
 20
97.3000
 30
0.0000
 11
160.0000
 21
94.8000
 31
0.0000
  0
LINE
  8
20
 10
170.0000
 20
94.8000
 30
0.0000
 11
170.0000
 21
97.3000
 31
0.0000
  0
LINE
  8
20
 10
170.0000
 20
97.3000
 30
0.0000
 11
180.0000
 21
97.3000
 31
0.0000
  0
LINE
  8
20
 10
180.0000
 20
97.3000
 30
0.0000
 11
180.0000
 21
94.8000
 31
0.0000
  0
LINE
  8
20
 10
191.0000
 20
94.8000
 30
0.0000
 11
180.0000
 21
94.8000
 31
0.0000
  0
LINE
  8
20
 10
170.0000
 20
94.8000
 30
0.0000
 11
160.0000
 21
94.8000
 31
0.0000
  0
LINE
  8
20
 10
150.0000
 20
94.8000
 30
0.0000
 11
140.0000
 21
94.8000
 31
0.0000
  0
LINE
  8
20
 10
130.0000
 20
94.8000
 30
0.0000
 11
120.0000
 21
94.8000
 31
0.0000
  0
LINE
  8
20
 10
110.0000
 20
94.8000
 30
0.0000
 11
100.0000
 21
94.8000
 31
0.0000
  0
LINE
  8
20
 10
90.0000
 20
94.8000
 30
0.0000
 11
80.0000
 21
94.8000
 31
0.0000
  0
LINE
  8
20
 10
70.0000
 20
94.8000
 30
0.0000
 11
60.0000
 21
94.8000
 31
0.0000
  0
LINE
  8
20
 10
50.0000
 20
94.8000
 30
0.0000
 11
40.0000
 21
94.8000
 31
0.0000
  0
ARC
  8
20
 10
191.0500
 20
95.7500
 30
0.0000
 40
0.9513
 50
266.9872
 51
356.9872
  0
ARC
  8
20
 10
191.0500
 20
109.6500
 30
0.0000
 40
0.9513
 50
356.9872
 51
93.0128
  0
LINE
  8
20
 10
1.1000
 20
110.6000
 30
0.0000
 11
30.0000
 21
110.6000
 31
0.0000
  0
LINE
  8
20
 10
30.0000
 20
110.6000
 30
0.0000
 11
30.0000
 21
108.1000
 31
0.0000
  0
LINE
  8
20
 10
30.0000
 20
108.1000
 30
0.0000
 11
40.0000
 21
108.1000
 31
0.0000
  0
LINE
  8
20
 10
40.0000
 20
108.1000
 30
0.0000
 11
40.0000
 21
110.6000
 31
0.0000
  0
LINE
  8
20
 10
50.0000
 20
110.6000
 30
0.0000
 11
50.0000
 21
108.1000
 31
0.0000
  0
LINE
  8
20
 10
50.0000
 20
108.1000
 30
0.0000
 11
60.0000
 21
108.1000
 31
0.0000
  0
LINE
  8
20
 10
60.0000
 20
108.1000
 30
0.0000
 11
60.0000
 21
110.6000
 31
0.0000
  0
LINE
  8
20
 10
70.0000
 20
110.6000
 30
0.0000
 11
70.0000
 21
108.1000
 31
0.0000
  0
LINE
  8
20
 10
70.0000
 20
108.1000
 30
0.0000
 11
80.0000
 21
108.1000
 31
0.0000
  0
LINE
  8
20
 10
80.0000
 20
108.1000
 30
0.0000
 11
80.0000
 21
110.6000
 31
0.0000
  0
LINE
  8
20
 10
90.0000
 20
110.6000
 30
0.0000
 11
90.0000
 21
108.1000
 31
0.0000
  0
LINE
  8
20
 10
90.0000
 20
108.1000
 30
0.0000
 11
100.0000
 21
108.1000
 31
0.0000
  0
LINE
  8
20
 10
100.0000
 20
108.1000
 30
0.0000
 11
100.0000
 21
110.6000
 31
0.0000
  0
LINE
  8
20
 10
110.0000
 20
110.6000
 30
0.0000
 11
110.0000
 21
108.1000
 31
0.0000
  0
LINE
  8
20
 10
110.0000
 20
108.1000
 30
0.0000
 11
120.0000
 21
108.1000
 31
0.0000
  0
LINE
  8
20
 10
120.0000
 20
108.1000
 30
0.0000
 11
120.0000
 21
110.6000
 31
0.0000
  0
LINE
  8
20
 10
130.0000
 20
110.6000
 30
0.0000
 11
130.0000
 21
108.1000
 31
0.0000
  0
LINE
  8
20
 10
130.0000
 20
108.1000
 30
0.0000
 11
140.0000
 21
108.1000
 31
0.0000
  0
LINE
  8
20
 10
140.0000
 20
108.1000
 30
0.0000
 11
140.0000
 21
110.6000
 31
0.0000
  0
LINE
  8
20
 10
150.0000
 20
110.6000
 30
0.0000
 11
150.0000
 21
108.1000
 31
0.0000
  0
LINE
  8
20
 10
150.0000
 20
108.1000
 30
0.0000
 11
160.0000
 21
108.1000
 31
0.0000
  0
LINE
  8
20
 10
160.0000
 20
108.1000
 30
0.0000
 11
160.0000
 21
110.6000
 31
0.0000
  0
LINE
  8
20
 10
170.0000
 20
110.6000
 30
0.0000
 11
170.0000
 21
108.1000
 31
0.0000
  0
LINE
  8
20
 10
170.0000
 20
108.1000
 30
0.0000
 11
180.0000
 21
108.1000
 31
0.0000
  0
LINE
  8
20
 10
180.0000
 20
108.1000
 30
0.0000
 11
180.0000
 21
110.6000
 31
0.0000
  0
LINE
  8
20
 10
191.0000
 20
110.6000
 30
0.0000
 11
180.0000
 21
110.6000
 31
0.0000
  0
LINE
  8
20
 10
170.0000
 20
110.6000
 30
0.0000
 11
160.0000
 21
110.6000
 31
0.0000
  0
LINE
  8
20
 10
150.0000
 20
110.6000
 30
0.0000
 11
140.0000
 21
110.6000
 31
0.0000
  0
LINE
  8
20
 10
130.0000
 20
110.6000
 30
0.0000
 11
120.0000
 21
110.6000
 31
0.0000
  0
LINE
  8
20
 10
110.0000
 20
110.6000
 30
0.0000
 11
100.0000
 21
110.6000
 31
0.0000
  0
LINE
  8
20
 10
90.0000
 20
110.6000
 30
0.0000
 11
80.0000
 21
110.6000
 31
0.0000
  0
LINE
  8
20
 10
70.0000
 20
110.6000
 30
0.0000
 11
60.0000
 21
110.6000
 31
0.0000
  0
LINE
  8
20
 10
50.0000
 20
110.6000
 30
0.0000
 11
40.0000
 21
110.6000
 31
0.0000
  0
ARC
  8
20
 10
1.0000
 20
95.7950
 30
0.0000
 40
1.0000
 50
179.7135
 51
275.7392
  0
ARC
  8
20
 10
1.1500
 20
109.4400
 30
0.0000
 40
1.1611
 50
92.4681
 51
172.0794
  0
LINE
  8
20
 10
0.0000
 20
109.6000
 30
0.0000
 11
0.0000
 21
95.8000
 31
0.0000
  0
LINE
  8
20
 10
192.0000
 20
109.6000
 30
0.0000
 11
192.0000
 21
95.7000
 31
0.0000
  0
LINE
  8
20
 10
1.1000
 20
110.6000
 30
0.0000
 11
30.0000
 21
110.6000
 31
0.0000
  0
LINE
  8
20
 10
30.0000
 20
110.6000
 30
0.0000
 11
30.0000
 21
113.1000
 31
0.0000
  0
LINE
  8
20
 10
30.0000
 20
113.1000
 30
0.0000
 11
40.0000
 21
113.1000
 31
0.0000
  0
LINE
  8
20
 10
40.0000
 20
113.1000
 30
0.0000
 11
40.0000
 21
110.6000
 31
0.0000
  0
LINE
  8
20
 10
50.0000
 20
110.6000
 30
0.0000
 11
50.0000
 21
113.1000
 31
0.0000
  0
LINE
  8
20
 10
50.0000
 20
113.1000
 30
0.0000
 11
60.0000
 21
113.1000
 31
0.0000
  0
LINE
  8
20
 10
60.0000
 20
113.1000
 30
0.0000
 11
60.0000
 21
110.6000
 31
0.0000
  0
LINE
  8
20
 10
70.0000
 20
110.6000
 30
0.0000
 11
70.0000
 21
113.1000
 31
0.0000
  0
LINE
  8
20
 10
70.0000
 20
113.1000
 30
0.0000
 11
80.0000
 21
113.1000
 31
0.0000
  0
LINE
  8
20
 10
80.0000
 20
113.1000
 30
0.0000
 11
80.0000
 21
110.6000
 31
0.0000
  0
LINE
  8
20
 10
90.0000
 20
110.6000
 30
0.0000
 11
90.0000
 21
113.1000
 31
0.0000
  0
LINE
  8
20
 10
90.0000
 20
113.1000
 30
0.0000
 11
100.0000
 21
113.1000
 31
0.0000
  0
LINE
  8
20
 10
100.0000
 20
113.1000
 30
0.0000
 11
100.0000
 21
110.6000
 31
0.0000
  0
LINE
  8
20
 10
110.0000
 20
110.6000
 30
0.0000
 11
110.0000
 21
113.1000
 31
0.0000
  0
LINE
  8
20
 10
110.0000
 20
113.1000
 30
0.0000
 11
120.0000
 21
113.1000
 31
0.0000
  0
LINE
  8
20
 10
120.0000
 20
113.1000
 30
0.0000
 11
120.0000
 21
110.6000
 31
0.0000
  0
LINE
  8
20
 10
130.0000
 20
110.6000
 30
0.0000
 11
130.0000
 21
113.1000
 31
0.0000
  0
LINE
  8
20
 10
130.0000
 20
113.1000
 30
0.0000
 11
140.0000
 21
113.1000
 31
0.0000
  0
LINE
  8
20
 10
140.0000
 20
113.1000
 30
0.0000
 11
140.0000
 21
110.6000
 31
0.0000
  0
LINE
  8
20
 10
150.0000
 20
110.6000
 30
0.0000
 11
150.0000
 21
113.1000
 31
0.0000
  0
LINE
  8
20
 10
150.0000
 20
113.1000
 30
0.0000
 11
160.0000
 21
113.1000
 31
0.0000
  0
LINE
  8
20
 10
160.0000
 20
113.1000
 30
0.0000
 11
160.0000
 21
110.6000
 31
0.0000
  0
LINE
  8
20
 10
170.0000
 20
110.6000
 30
0.0000
 11
170.0000
 21
113.1000
 31
0.0000
  0
LINE
  8
20
 10
170.0000
 20
113.1000
 30
0.0000
 11
180.0000
 21
113.1000
 31
0.0000
  0
LINE
  8
20
 10
180.0000
 20
113.1000
 30
0.0000
 11
180.0000
 21
110.6000
 31
0.0000
  0
LINE
  8
20
 10
191.0000
 20
110.6000
 30
0.0000
 11
180.0000
 21
110.6000
 31
0.0000
  0
LINE
  8
20
 10
170.0000
 20
110.6000
 30
0.0000
 11
160.0000
 21
110.6000
 31
0.0000
  0
LINE
  8
20
 10
150.0000
 20
110.6000
 30
0.0000
 11
140.0000
 21
110.6000
 31
0.0000
  0
LINE
  8
20
 10
130.0000
 20
110.6000
 30
0.0000
 11
120.0000
 21
110.6000
 31
0.0000
  0
LINE
  8
20
 10
110.0000
 20
110.6000
 30
0.0000
 11
100.0000
 21
110.6000
 31
0.0000
  0
LINE
  8
20
 10
90.0000
 20
110.6000
 30
0.0000
 11
80.0000
 21
110.6000
 31
0.0000
  0
LINE
  8
20
 10
70.0000
 20
110.6000
 30
0.0000
 11
60.0000
 21
110.6000
 31
0.0000
  0
LINE
  8
20
 10
50.0000
 20
110.6000
 30
0.0000
 11
40.0000
 21
110.6000
 31
0.0000
  0
ARC
  8
20
 10
191.0500
 20
111.5500
 30
0.0000
 40
0.9513
 50
266.9872
 51
356.9872
  0
ARC
  8
20
 10
191.0500
 20
125.4500
 30
0.0000
 40
0.9513
 50
356.9872
 51
93.0128
  0
LINE
  8
20
 10
1.1000
 20
126.4000
 30
0.0000
 11
30.0000
 21
126.4000
 31
0.0000
  0
LINE
  8
20
 10
30.0000
 20
126.4000
 30
0.0000
 11
30.0000
 21
123.9000
 31
0.0000
  0
LINE
  8
20
 10
30.0000
 20
123.9000
 30
0.0000
 11
40.0000
 21
123.9000
 31
0.0000
  0
LINE
  8
20
 10
40.0000
 20
123.9000
 30
0.0000
 11
40.0000
 21
126.4000
 31
0.0000
  0
LINE
  8
20
 10
50.0000
 20
126.4000
 30
0.0000
 11
50.0000
 21
123.9000
 31
0.0000
  0
LINE
  8
20
 10
50.0000
 20
123.9000
 30
0.0000
 11
60.0000
 21
123.9000
 31
0.0000
  0
LINE
  8
20
 10
60.0000
 20
123.9000
 30
0.0000
 11
60.0000
 21
126.4000
 31
0.0000
  0
LINE
  8
20
 10
70.0000
 20
126.4000
 30
0.0000
 11
70.0000
 21
123.9000
 31
0.0000
  0
LINE
  8
20
 10
70.0000
 20
123.9000
 30
0.0000
 11
80.0000
 21
123.9000
 31
0.0000
  0
LINE
  8
20
 10
80.0000
 20
123.9000
 30
0.0000
 11
80.0000
 21
126.4000
 31
0.0000
  0
LINE
  8
20
 10
90.0000
 20
126.4000
 30
0.0000
 11
90.0000
 21
123.9000
 31
0.0000
  0
LINE
  8
20
 10
90.0000
 20
123.9000
 30
0.0000
 11
100.0000
 21
123.9000
 31
0.0000
  0
LINE
  8
20
 10
100.0000
 20
123.9000
 30
0.0000
 11
100.0000
 21
126.4000
 31
0.0000
  0
LINE
  8
20
 10
110.0000
 20
126.4000
 30
0.0000
 11
110.0000
 21
123.9000
 31
0.0000
  0
LINE
  8
20
 10
110.0000
 20
123.9000
 30
0.0000
 11
120.0000
 21
123.9000
 31
0.0000
  0
LINE
  8
20
 10
120.0000
 20
123.9000
 30
0.0000
 11
120.0000
 21
126.4000
 31
0.0000
  0
LINE
  8
20
 10
130.0000
 20
126.4000
 30
0.0000
 11
130.0000
 21
123.9000
 31
0.0000
  0
LINE
  8
20
 10
130.0000
 20
123.9000
 30
0.0000
 11
140.0000
 21
123.9000
 31
0.0000
  0
LINE
  8
20
 10
140.0000
 20
123.9000
 30
0.0000
 11
140.0000
 21
126.4000
 31
0.0000
  0
LINE
  8
20
 10
150.0000
 20
126.4000
 30
0.0000
 11
150.0000
 21
123.9000
 31
0.0000
  0
LINE
  8
20
 10
150.0000
 20
123.9000
 30
0.0000
 11
160.0000
 21
123.9000
 31
0.0000
  0
LINE
  8
20
 10
160.0000
 20
123.9000
 30
0.0000
 11
160.0000
 21
126.4000
 31
0.0000
  0
LINE
  8
20
 10
170.0000
 20
126.4000
 30
0.0000
 11
170.0000
 21
123.9000
 31
0.0000
  0
LINE
  8
20
 10
170.0000
 20
123.9000
 30
0.0000
 11
180.0000
 21
123.9000
 31
0.0000
  0
LINE
  8
20
 10
180.0000
 20
123.9000
 30
0.0000
 11
180.0000
 21
126.4000
 31
0.0000
  0
LINE
  8
20
 10
191.0000
 20
126.4000
 30
0.0000
 11
180.0000
 21
126.4000
 31
0.0000
  0
LINE
  8
20
 10
170.0000
 20
126.4000
 30
0.0000
 11
160.0000
 21
126.4000
 31
0.0000
  0
LINE
  8
20
 10
150.0000
 20
126.4000
 30
0.0000
 11
140.0000
 21
126.4000
 31
0.0000
  0
LINE
  8
20
 10
130.0000
 20
126.4000
 30
0.0000
 11
120.0000
 21
126.4000
 31
0.0000
  0
LINE
  8
20
 10
110.0000
 20
126.4000
 30
0.0000
 11
100.0000
 21
126.4000
 31
0.0000
  0
LINE
  8
20
 10
90.0000
 20
126.4000
 30
0.0000
 11
80.0000
 21
126.4000
 31
0.0000
  0
LINE
  8
20
 10
70.0000
 20
126.4000
 30
0.0000
 11
60.0000
 21
126.4000
 31
0.0000
  0
LINE
  8
20
 10
50.0000
 20
126.4000
 30
0.0000
 11
40.0000
 21
126.4000
 31
0.0000
  0
ARC
  8
20
 10
1.0000
 20
111.5950
 30
0.0000
 40
1.0000
 50
179.7135
 51
275.7392
  0
ARC
  8
20
 10
1.1500
 20
125.2400
 30
0.0000
 40
1.1611
 50
92.4681
 51
172.0794
  0
LINE
  8
20
 10
0.0000
 20
125.4000
 30
0.0000
 11
0.0000
 21
111.6000
 31
0.0000
  0
LINE
  8
20
 10
192.0000
 20
125.4000
 30
0.0000
 11
192.0000
 21
111.5000
 31
0.0000
  0
LINE
  8
20
 10
1.1000
 20
126.4000
 30
0.0000
 11
30.0000
 21
126.4000
 31
0.0000
  0
LINE
  8
20
 10
30.0000
 20
126.4000
 30
0.0000
 11
30.0000
 21
128.9000
 31
0.0000
  0
LINE
  8
20
 10
30.0000
 20
128.9000
 30
0.0000
 11
40.0000
 21
128.9000
 31
0.0000
  0
LINE
  8
20
 10
40.0000
 20
128.9000
 30
0.0000
 11
40.0000
 21
126.4000
 31
0.0000
  0
LINE
  8
20
 10
50.0000
 20
126.4000
 30
0.0000
 11
50.0000
 21
128.9000
 31
0.0000
  0
LINE
  8
20
 10
50.0000
 20
128.9000
 30
0.0000
 11
60.0000
 21
128.9000
 31
0.0000
  0
LINE
  8
20
 10
60.0000
 20
128.9000
 30
0.0000
 11
60.0000
 21
126.4000
 31
0.0000
  0
LINE
  8
20
 10
70.0000
 20
126.4000
 30
0.0000
 11
70.0000
 21
128.9000
 31
0.0000
  0
LINE
  8
20
 10
70.0000
 20
128.9000
 30
0.0000
 11
80.0000
 21
128.9000
 31
0.0000
  0
LINE
  8
20
 10
80.0000
 20
128.9000
 30
0.0000
 11
80.0000
 21
126.4000
 31
0.0000
  0
LINE
  8
20
 10
90.0000
 20
126.4000
 30
0.0000
 11
90.0000
 21
128.9000
 31
0.0000
  0
LINE
  8
20
 10
90.0000
 20
128.9000
 30
0.0000
 11
100.0000
 21
128.9000
 31
0.0000
  0
LINE
  8
20
 10
100.0000
 20
128.9000
 30
0.0000
 11
100.0000
 21
126.4000
 31
0.0000
  0
LINE
  8
20
 10
110.0000
 20
126.4000
 30
0.0000
 11
110.0000
 21
128.9000
 31
0.0000
  0
LINE
  8
20
 10
110.0000
 20
128.9000
 30
0.0000
 11
120.0000
 21
128.9000
 31
0.0000
  0
LINE
  8
20
 10
120.0000
 20
128.9000
 30
0.0000
 11
120.0000
 21
126.4000
 31
0.0000
  0
LINE
  8
20
 10
130.0000
 20
126.4000
 30
0.0000
 11
130.0000
 21
128.9000
 31
0.0000
  0
LINE
  8
20
 10
130.0000
 20
128.9000
 30
0.0000
 11
140.0000
 21
128.9000
 31
0.0000
  0
LINE
  8
20
 10
140.0000
 20
128.9000
 30
0.0000
 11
140.0000
 21
126.4000
 31
0.0000
  0
LINE
  8
20
 10
150.0000
 20
126.4000
 30
0.0000
 11
150.0000
 21
128.9000
 31
0.0000
  0
LINE
  8
20
 10
150.0000
 20
128.9000
 30
0.0000
 11
160.0000
 21
128.9000
 31
0.0000
  0
LINE
  8
20
 10
160.0000
 20
128.9000
 30
0.0000
 11
160.0000
 21
126.4000
 31
0.0000
  0
LINE
  8
20
 10
170.0000
 20
126.4000
 30
0.0000
 11
170.0000
 21
128.9000
 31
0.0000
  0
LINE
  8
20
 10
170.0000
 20
128.9000
 30
0.0000
 11
180.0000
 21
128.9000
 31
0.0000
  0
LINE
  8
20
 10
180.0000
 20
128.9000
 30
0.0000
 11
180.0000
 21
126.4000
 31
0.0000
  0
LINE
  8
20
 10
191.0000
 20
126.4000
 30
0.0000
 11
180.0000
 21
126.4000
 31
0.0000
  0
LINE
  8
20
 10
170.0000
 20
126.4000
 30
0.0000
 11
160.0000
 21
126.4000
 31
0.0000
  0
LINE
  8
20
 10
150.0000
 20
126.4000
 30
0.0000
 11
140.0000
 21
126.4000
 31
0.0000
  0
LINE
  8
20
 10
130.0000
 20
126.4000
 30
0.0000
 11
120.0000
 21
126.4000
 31
0.0000
  0
LINE
  8
20
 10
110.0000
 20
126.4000
 30
0.0000
 11
100.0000
 21
126.4000
 31
0.0000
  0
LINE
  8
20
 10
90.0000
 20
126.4000
 30
0.0000
 11
80.0000
 21
126.4000
 31
0.0000
  0
LINE
  8
20
 10
70.0000
 20
126.4000
 30
0.0000
 11
60.0000
 21
126.4000
 31
0.0000
  0
LINE
  8
20
 10
50.0000
 20
126.4000
 30
0.0000
 11
40.0000
 21
126.4000
 31
0.0000
  0
ARC
  8
20
 10
191.0500
 20
127.3500
 30
0.0000
 40
0.9513
 50
266.9872
 51
356.9872
  0
ARC
  8
20
 10
191.0500
 20
141.2500
 30
0.0000
 40
0.9513
 50
356.9872
 51
93.0128
  0
LINE
  8
20
 10
1.1000
 20
142.2000
 30
0.0000
 11
30.0000
 21
142.2000
 31
0.0000
  0
LINE
  8
20
 10
30.0000
 20
142.2000
 30
0.0000
 11
30.0000
 21
139.7000
 31
0.0000
  0
LINE
  8
20
 10
30.0000
 20
139.7000
 30
0.0000
 11
40.0000
 21
139.7000
 31
0.0000
  0
LINE
  8
20
 10
40.0000
 20
139.7000
 30
0.0000
 11
40.0000
 21
142.2000
 31
0.0000
  0
LINE
  8
20
 10
50.0000
 20
142.2000
 30
0.0000
 11
50.0000
 21
139.7000
 31
0.0000
  0
LINE
  8
20
 10
50.0000
 20
139.7000
 30
0.0000
 11
60.0000
 21
139.7000
 31
0.0000
  0
LINE
  8
20
 10
60.0000
 20
139.7000
 30
0.0000
 11
60.0000
 21
142.2000
 31
0.0000
  0
LINE
  8
20
 10
70.0000
 20
142.2000
 30
0.0000
 11
70.0000
 21
139.7000
 31
0.0000
  0
LINE
  8
20
 10
70.0000
 20
139.7000
 30
0.0000
 11
80.0000
 21
139.7000
 31
0.0000
  0
LINE
  8
20
 10
80.0000
 20
139.7000
 30
0.0000
 11
80.0000
 21
142.2000
 31
0.0000
  0
LINE
  8
20
 10
90.0000
 20
142.2000
 30
0.0000
 11
90.0000
 21
139.7000
 31
0.0000
  0
LINE
  8
20
 10
90.0000
 20
139.7000
 30
0.0000
 11
100.0000
 21
139.7000
 31
0.0000
  0
LINE
  8
20
 10
100.0000
 20
139.7000
 30
0.0000
 11
100.0000
 21
142.2000
 31
0.0000
  0
LINE
  8
20
 10
110.0000
 20
142.2000
 30
0.0000
 11
110.0000
 21
139.7000
 31
0.0000
  0
LINE
  8
20
 10
110.0000
 20
139.7000
 30
0.0000
 11
120.0000
 21
139.7000
 31
0.0000
  0
LINE
  8
20
 10
120.0000
 20
139.7000
 30
0.0000
 11
120.0000
 21
142.2000
 31
0.0000
  0
LINE
  8
20
 10
130.0000
 20
142.2000
 30
0.0000
 11
130.0000
 21
139.7000
 31
0.0000
  0
LINE
  8
20
 10
130.0000
 20
139.7000
 30
0.0000
 11
140.0000
 21
139.7000
 31
0.0000
  0
LINE
  8
20
 10
140.0000
 20
139.7000
 30
0.0000
 11
140.0000
 21
142.2000
 31
0.0000
  0
LINE
  8
20
 10
150.0000
 20
142.2000
 30
0.0000
 11
150.0000
 21
139.7000
 31
0.0000
  0
LINE
  8
20
 10
150.0000
 20
139.7000
 30
0.0000
 11
160.0000
 21
139.7000
 31
0.0000
  0
LINE
  8
20
 10
160.0000
 20
139.7000
 30
0.0000
 11
160.0000
 21
142.2000
 31
0.0000
  0
LINE
  8
20
 10
170.0000
 20
142.2000
 30
0.0000
 11
170.0000
 21
139.7000
 31
0.0000
  0
LINE
  8
20
 10
170.0000
 20
139.7000
 30
0.0000
 11
180.0000
 21
139.7000
 31
0.0000
  0
LINE
  8
20
 10
180.0000
 20
139.7000
 30
0.0000
 11
180.0000
 21
142.2000
 31
0.0000
  0
LINE
  8
20
 10
191.0000
 20
142.2000
 30
0.0000
 11
180.0000
 21
142.2000
 31
0.0000
  0
LINE
  8
20
 10
170.0000
 20
142.2000
 30
0.0000
 11
160.0000
 21
142.2000
 31
0.0000
  0
LINE
  8
20
 10
150.0000
 20
142.2000
 30
0.0000
 11
140.0000
 21
142.2000
 31
0.0000
  0
LINE
  8
20
 10
130.0000
 20
142.2000
 30
0.0000
 11
120.0000
 21
142.2000
 31
0.0000
  0
LINE
  8
20
 10
110.0000
 20
142.2000
 30
0.0000
 11
100.0000
 21
142.2000
 31
0.0000
  0
LINE
  8
20
 10
90.0000
 20
142.2000
 30
0.0000
 11
80.0000
 21
142.2000
 31
0.0000
  0
LINE
  8
20
 10
70.0000
 20
142.2000
 30
0.0000
 11
60.0000
 21
142.2000
 31
0.0000
  0
LINE
  8
20
 10
50.0000
 20
142.2000
 30
0.0000
 11
40.0000
 21
142.2000
 31
0.0000
  0
ARC
  8
20
 10
1.0000
 20
127.3950
 30
0.0000
 40
1.0000
 50
179.7135
 51
275.7392
  0
ARC
  8
20
 10
1.1500
 20
141.0400
 30
0.0000
 40
1.1611
 50
92.4681
 51
172.0794
  0
LINE
  8
20
 10
0.0000
 20
141.2000
 30
0.0000
 11
0.0000
 21
127.4000
 31
0.0000
  0
LINE
  8
20
 10
192.0000
 20
141.2000
 30
0.0000
 11
192.0000
 21
127.3000
 31
0.0000
  0
LINE
  8
20
 10
1.1000
 20
142.2000
 30
0.0000
 11
30.0000
 21
142.2000
 31
0.0000
  0
LINE
  8
20
 10
30.0000
 20
142.2000
 30
0.0000
 11
30.0000
 21
144.7000
 31
0.0000
  0
LINE
  8
20
 10
30.0000
 20
144.7000
 30
0.0000
 11
40.0000
 21
144.7000
 31
0.0000
  0
LINE
  8
20
 10
40.0000
 20
144.7000
 30
0.0000
 11
40.0000
 21
142.2000
 31
0.0000
  0
LINE
  8
20
 10
50.0000
 20
142.2000
 30
0.0000
 11
50.0000
 21
144.7000
 31
0.0000
  0
LINE
  8
20
 10
50.0000
 20
144.7000
 30
0.0000
 11
60.0000
 21
144.7000
 31
0.0000
  0
LINE
  8
20
 10
60.0000
 20
144.7000
 30
0.0000
 11
60.0000
 21
142.2000
 31
0.0000
  0
LINE
  8
20
 10
70.0000
 20
142.2000
 30
0.0000
 11
70.0000
 21
144.7000
 31
0.0000
  0
LINE
  8
20
 10
70.0000
 20
144.7000
 30
0.0000
 11
80.0000
 21
144.7000
 31
0.0000
  0
LINE
  8
20
 10
80.0000
 20
144.7000
 30
0.0000
 11
80.0000
 21
142.2000
 31
0.0000
  0
LINE
  8
20
 10
90.0000
 20
142.2000
 30
0.0000
 11
90.0000
 21
144.7000
 31
0.0000
  0
LINE
  8
20
 10
90.0000
 20
144.7000
 30
0.0000
 11
100.0000
 21
144.7000
 31
0.0000
  0
LINE
  8
20
 10
100.0000
 20
144.7000
 30
0.0000
 11
100.0000
 21
142.2000
 31
0.0000
  0
LINE
  8
20
 10
110.0000
 20
142.2000
 30
0.0000
 11
110.0000
 21
144.7000
 31
0.0000
  0
LINE
  8
20
 10
110.0000
 20
144.7000
 30
0.0000
 11
120.0000
 21
144.7000
 31
0.0000
  0
LINE
  8
20
 10
120.0000
 20
144.7000
 30
0.0000
 11
120.0000
 21
142.2000
 31
0.0000
  0
LINE
  8
20
 10
130.0000
 20
142.2000
 30
0.0000
 11
130.0000
 21
144.7000
 31
0.0000
  0
LINE
  8
20
 10
130.0000
 20
144.7000
 30
0.0000
 11
140.0000
 21
144.7000
 31
0.0000
  0
LINE
  8
20
 10
140.0000
 20
144.7000
 30
0.0000
 11
140.0000
 21
142.2000
 31
0.0000
  0
LINE
  8
20
 10
150.0000
 20
142.2000
 30
0.0000
 11
150.0000
 21
144.7000
 31
0.0000
  0
LINE
  8
20
 10
150.0000
 20
144.7000
 30
0.0000
 11
160.0000
 21
144.7000
 31
0.0000
  0
LINE
  8
20
 10
160.0000
 20
144.7000
 30
0.0000
 11
160.0000
 21
142.2000
 31
0.0000
  0
LINE
  8
20
 10
170.0000
 20
142.2000
 30
0.0000
 11
170.0000
 21
144.7000
 31
0.0000
  0
LINE
  8
20
 10
170.0000
 20
144.7000
 30
0.0000
 11
180.0000
 21
144.7000
 31
0.0000
  0
LINE
  8
20
 10
180.0000
 20
144.7000
 30
0.0000
 11
180.0000
 21
142.2000
 31
0.0000
  0
LINE
  8
20
 10
191.0000
 20
142.2000
 30
0.0000
 11
180.0000
 21
142.2000
 31
0.0000
  0
LINE
  8
20
 10
170.0000
 20
142.2000
 30
0.0000
 11
160.0000
 21
142.2000
 31
0.0000
  0
LINE
  8
20
 10
150.0000
 20
142.2000
 30
0.0000
 11
140.0000
 21
142.2000
 31
0.0000
  0
LINE
  8
20
 10
130.0000
 20
142.2000
 30
0.0000
 11
120.0000
 21
142.2000
 31
0.0000
  0
LINE
  8
20
 10
110.0000
 20
142.2000
 30
0.0000
 11
100.0000
 21
142.2000
 31
0.0000
  0
LINE
  8
20
 10
90.0000
 20
142.2000
 30
0.0000
 11
80.0000
 21
142.2000
 31
0.0000
  0
LINE
  8
20
 10
70.0000
 20
142.2000
 30
0.0000
 11
60.0000
 21
142.2000
 31
0.0000
  0
LINE
  8
20
 10
50.0000
 20
142.2000
 30
0.0000
 11
40.0000
 21
142.2000
 31
0.0000
  0
ARC
  8
20
 10
191.0500
 20
143.1500
 30
0.0000
 40
0.9513
 50
266.9872
 51
356.9872
  0
ARC
  8
20
 10
191.0500
 20
157.0500
 30
0.0000
 40
0.9513
 50
356.9872
 51
93.0128
  0
LINE
  8
20
 10
1.1000
 20
158.0000
 30
0.0000
 11
30.0000
 21
158.0000
 31
0.0000
  0
LINE
  8
20
 10
30.0000
 20
158.0000
 30
0.0000
 11
30.0000
 21
155.5000
 31
0.0000
  0
LINE
  8
20
 10
30.0000
 20
155.5000
 30
0.0000
 11
40.0000
 21
155.5000
 31
0.0000
  0
LINE
  8
20
 10
40.0000
 20
155.5000
 30
0.0000
 11
40.0000
 21
158.0000
 31
0.0000
  0
LINE
  8
20
 10
50.0000
 20
158.0000
 30
0.0000
 11
50.0000
 21
155.5000
 31
0.0000
  0
LINE
  8
20
 10
50.0000
 20
155.5000
 30
0.0000
 11
60.0000
 21
155.5000
 31
0.0000
  0
LINE
  8
20
 10
60.0000
 20
155.5000
 30
0.0000
 11
60.0000
 21
158.0000
 31
0.0000
  0
LINE
  8
20
 10
70.0000
 20
158.0000
 30
0.0000
 11
70.0000
 21
155.5000
 31
0.0000
  0
LINE
  8
20
 10
70.0000
 20
155.5000
 30
0.0000
 11
80.0000
 21
155.5000
 31
0.0000
  0
LINE
  8
20
 10
80.0000
 20
155.5000
 30
0.0000
 11
80.0000
 21
158.0000
 31
0.0000
  0
LINE
  8
20
 10
90.0000
 20
158.0000
 30
0.0000
 11
90.0000
 21
155.5000
 31
0.0000
  0
LINE
  8
20
 10
90.0000
 20
155.5000
 30
0.0000
 11
100.0000
 21
155.5000
 31
0.0000
  0
LINE
  8
20
 10
100.0000
 20
155.5000
 30
0.0000
 11
100.0000
 21
158.0000
 31
0.0000
  0
LINE
  8
20
 10
110.0000
 20
158.0000
 30
0.0000
 11
110.0000
 21
155.5000
 31
0.0000
  0
LINE
  8
20
 10
110.0000
 20
155.5000
 30
0.0000
 11
120.0000
 21
155.5000
 31
0.0000
  0
LINE
  8
20
 10
120.0000
 20
155.5000
 30
0.0000
 11
120.0000
 21
158.0000
 31
0.0000
  0
LINE
  8
20
 10
130.0000
 20
158.0000
 30
0.0000
 11
130.0000
 21
155.5000
 31
0.0000
  0
LINE
  8
20
 10
130.0000
 20
155.5000
 30
0.0000
 11
140.0000
 21
155.5000
 31
0.0000
  0
LINE
  8
20
 10
140.0000
 20
155.5000
 30
0.0000
 11
140.0000
 21
158.0000
 31
0.0000
  0
LINE
  8
20
 10
150.0000
 20
158.0000
 30
0.0000
 11
150.0000
 21
155.5000
 31
0.0000
  0
LINE
  8
20
 10
150.0000
 20
155.5000
 30
0.0000
 11
160.0000
 21
155.5000
 31
0.0000
  0
LINE
  8
20
 10
160.0000
 20
155.5000
 30
0.0000
 11
160.0000
 21
158.0000
 31
0.0000
  0
LINE
  8
20
 10
170.0000
 20
158.0000
 30
0.0000
 11
170.0000
 21
155.5000
 31
0.0000
  0
LINE
  8
20
 10
170.0000
 20
155.5000
 30
0.0000
 11
180.0000
 21
155.5000
 31
0.0000
  0
LINE
  8
20
 10
180.0000
 20
155.5000
 30
0.0000
 11
180.0000
 21
158.0000
 31
0.0000
  0
LINE
  8
20
 10
191.0000
 20
158.0000
 30
0.0000
 11
180.0000
 21
158.0000
 31
0.0000
  0
LINE
  8
20
 10
170.0000
 20
158.0000
 30
0.0000
 11
160.0000
 21
158.0000
 31
0.0000
  0
LINE
  8
20
 10
150.0000
 20
158.0000
 30
0.0000
 11
140.0000
 21
158.0000
 31
0.0000
  0
LINE
  8
20
 10
130.0000
 20
158.0000
 30
0.0000
 11
120.0000
 21
158.0000
 31
0.0000
  0
LINE
  8
20
 10
110.0000
 20
158.0000
 30
0.0000
 11
100.0000
 21
158.0000
 31
0.0000
  0
LINE
  8
20
 10
90.0000
 20
158.0000
 30
0.0000
 11
80.0000
 21
158.0000
 31
0.0000
  0
LINE
  8
20
 10
70.0000
 20
158.0000
 30
0.0000
 11
60.0000
 21
158.0000
 31
0.0000
  0
LINE
  8
20
 10
50.0000
 20
158.0000
 30
0.0000
 11
40.0000
 21
158.0000
 31
0.0000
  0
ARC
  8
20
 10
1.0000
 20
143.1950
 30
0.0000
 40
1.0000
 50
179.7135
 51
275.7392
  0
ARC
  8
20
 10
1.1500
 20
156.8400
 30
0.0000
 40
1.1611
 50
92.4681
 51
172.0794
  0
LINE
  8
20
 10
0.0000
 20
157.0000
 30
0.0000
 11
0.0000
 21
143.2000
 31
0.0000
  0
LINE
  8
20
 10
192.0000
 20
157.0000
 30
0.0000
 11
192.0000
 21
143.1000
 31
0.0000
  0
LINE
  8
20
 10
1.1000
 20
158.0000
 30
0.0000
 11
30.0000
 21
158.0000
 31
0.0000
  0
LINE
  8
20
 10
30.0000
 20
158.0000
 30
0.0000
 11
30.0000
 21
160.5000
 31
0.0000
  0
LINE
  8
20
 10
30.0000
 20
160.5000
 30
0.0000
 11
40.0000
 21
160.5000
 31
0.0000
  0
LINE
  8
20
 10
40.0000
 20
160.5000
 30
0.0000
 11
40.0000
 21
158.0000
 31
0.0000
  0
LINE
  8
20
 10
50.0000
 20
158.0000
 30
0.0000
 11
50.0000
 21
160.5000
 31
0.0000
  0
LINE
  8
20
 10
50.0000
 20
160.5000
 30
0.0000
 11
60.0000
 21
160.5000
 31
0.0000
  0
LINE
  8
20
 10
60.0000
 20
160.5000
 30
0.0000
 11
60.0000
 21
158.0000
 31
0.0000
  0
LINE
  8
20
 10
70.0000
 20
158.0000
 30
0.0000
 11
70.0000
 21
160.5000
 31
0.0000
  0
LINE
  8
20
 10
70.0000
 20
160.5000
 30
0.0000
 11
80.0000
 21
160.5000
 31
0.0000
  0
LINE
  8
20
 10
80.0000
 20
160.5000
 30
0.0000
 11
80.0000
 21
158.0000
 31
0.0000
  0
LINE
  8
20
 10
90.0000
 20
158.0000
 30
0.0000
 11
90.0000
 21
160.5000
 31
0.0000
  0
LINE
  8
20
 10
90.0000
 20
160.5000
 30
0.0000
 11
100.0000
 21
160.5000
 31
0.0000
  0
LINE
  8
20
 10
100.0000
 20
160.5000
 30
0.0000
 11
100.0000
 21
158.0000
 31
0.0000
  0
LINE
  8
20
 10
110.0000
 20
158.0000
 30
0.0000
 11
110.0000
 21
160.5000
 31
0.0000
  0
LINE
  8
20
 10
110.0000
 20
160.5000
 30
0.0000
 11
120.0000
 21
160.5000
 31
0.0000
  0
LINE
  8
20
 10
120.0000
 20
160.5000
 30
0.0000
 11
120.0000
 21
158.0000
 31
0.0000
  0
LINE
  8
20
 10
130.0000
 20
158.0000
 30
0.0000
 11
130.0000
 21
160.5000
 31
0.0000
  0
LINE
  8
20
 10
130.0000
 20
160.5000
 30
0.0000
 11
140.0000
 21
160.5000
 31
0.0000
  0
LINE
  8
20
 10
140.0000
 20
160.5000
 30
0.0000
 11
140.0000
 21
158.0000
 31
0.0000
  0
LINE
  8
20
 10
150.0000
 20
158.0000
 30
0.0000
 11
150.0000
 21
160.5000
 31
0.0000
  0
LINE
  8
20
 10
150.0000
 20
160.5000
 30
0.0000
 11
160.0000
 21
160.5000
 31
0.0000
  0
LINE
  8
20
 10
160.0000
 20
160.5000
 30
0.0000
 11
160.0000
 21
158.0000
 31
0.0000
  0
LINE
  8
20
 10
170.0000
 20
158.0000
 30
0.0000
 11
170.0000
 21
160.5000
 31
0.0000
  0
LINE
  8
20
 10
170.0000
 20
160.5000
 30
0.0000
 11
180.0000
 21
160.5000
 31
0.0000
  0
LINE
  8
20
 10
180.0000
 20
160.5000
 30
0.0000
 11
180.0000
 21
158.0000
 31
0.0000
  0
LINE
  8
20
 10
191.0000
 20
158.0000
 30
0.0000
 11
180.0000
 21
158.0000
 31
0.0000
  0
LINE
  8
20
 10
170.0000
 20
158.0000
 30
0.0000
 11
160.0000
 21
158.0000
 31
0.0000
  0
LINE
  8
20
 10
150.0000
 20
158.0000
 30
0.0000
 11
140.0000
 21
158.0000
 31
0.0000
  0
LINE
  8
20
 10
130.0000
 20
158.0000
 30
0.0000
 11
120.0000
 21
158.0000
 31
0.0000
  0
LINE
  8
20
 10
110.0000
 20
158.0000
 30
0.0000
 11
100.0000
 21
158.0000
 31
0.0000
  0
LINE
  8
20
 10
90.0000
 20
158.0000
 30
0.0000
 11
80.0000
 21
158.0000
 31
0.0000
  0
LINE
  8
20
 10
70.0000
 20
158.0000
 30
0.0000
 11
60.0000
 21
158.0000
 31
0.0000
  0
LINE
  8
20
 10
50.0000
 20
158.0000
 30
0.0000
 11
40.0000
 21
158.0000
 31
0.0000
  0
ARC
  8
20
 10
191.0500
 20
158.9500
 30
0.0000
 40
0.9513
 50
266.9872
 51
356.9872
  0
ARC
  8
20
 10
191.0500
 20
172.8500
 30
0.0000
 40
0.9513
 50
356.9872
 51
93.0128
  0
LINE
  8
20
 10
1.1000
 20
173.8000
 30
0.0000
 11
30.0000
 21
173.8000
 31
0.0000
  0
LINE
  8
20
 10
30.0000
 20
173.8000
 30
0.0000
 11
30.0000
 21
171.3000
 31
0.0000
  0
LINE
  8
20
 10
30.0000
 20
171.3000
 30
0.0000
 11
40.0000
 21
171.3000
 31
0.0000
  0
LINE
  8
20
 10
40.0000
 20
171.3000
 30
0.0000
 11
40.0000
 21
173.8000
 31
0.0000
  0
LINE
  8
20
 10
50.0000
 20
173.8000
 30
0.0000
 11
50.0000
 21
171.3000
 31
0.0000
  0
LINE
  8
20
 10
50.0000
 20
171.3000
 30
0.0000
 11
60.0000
 21
171.3000
 31
0.0000
  0
LINE
  8
20
 10
60.0000
 20
171.3000
 30
0.0000
 11
60.0000
 21
173.8000
 31
0.0000
  0
LINE
  8
20
 10
70.0000
 20
173.8000
 30
0.0000
 11
70.0000
 21
171.3000
 31
0.0000
  0
LINE
  8
20
 10
70.0000
 20
171.3000
 30
0.0000
 11
80.0000
 21
171.3000
 31
0.0000
  0
LINE
  8
20
 10
80.0000
 20
171.3000
 30
0.0000
 11
80.0000
 21
173.8000
 31
0.0000
  0
LINE
  8
20
 10
90.0000
 20
173.8000
 30
0.0000
 11
90.0000
 21
171.3000
 31
0.0000
  0
LINE
  8
20
 10
90.0000
 20
171.3000
 30
0.0000
 11
100.0000
 21
171.3000
 31
0.0000
  0
LINE
  8
20
 10
100.0000
 20
171.3000
 30
0.0000
 11
100.0000
 21
173.8000
 31
0.0000
  0
LINE
  8
20
 10
110.0000
 20
173.8000
 30
0.0000
 11
110.0000
 21
171.3000
 31
0.0000
  0
LINE
  8
20
 10
110.0000
 20
171.3000
 30
0.0000
 11
120.0000
 21
171.3000
 31
0.0000
  0
LINE
  8
20
 10
120.0000
 20
171.3000
 30
0.0000
 11
120.0000
 21
173.8000
 31
0.0000
  0
LINE
  8
20
 10
130.0000
 20
173.8000
 30
0.0000
 11
130.0000
 21
171.3000
 31
0.0000
  0
LINE
  8
20
 10
130.0000
 20
171.3000
 30
0.0000
 11
140.0000
 21
171.3000
 31
0.0000
  0
LINE
  8
20
 10
140.0000
 20
171.3000
 30
0.0000
 11
140.0000
 21
173.8000
 31
0.0000
  0
LINE
  8
20
 10
150.0000
 20
173.8000
 30
0.0000
 11
150.0000
 21
171.3000
 31
0.0000
  0
LINE
  8
20
 10
150.0000
 20
171.3000
 30
0.0000
 11
160.0000
 21
171.3000
 31
0.0000
  0
LINE
  8
20
 10
160.0000
 20
171.3000
 30
0.0000
 11
160.0000
 21
173.8000
 31
0.0000
  0
LINE
  8
20
 10
170.0000
 20
173.8000
 30
0.0000
 11
170.0000
 21
171.3000
 31
0.0000
  0
LINE
  8
20
 10
170.0000
 20
171.3000
 30
0.0000
 11
180.0000
 21
171.3000
 31
0.0000
  0
LINE
  8
20
 10
180.0000
 20
171.3000
 30
0.0000
 11
180.0000
 21
173.8000
 31
0.0000
  0
LINE
  8
20
 10
191.0000
 20
173.8000
 30
0.0000
 11
180.0000
 21
173.8000
 31
0.0000
  0
LINE
  8
20
 10
170.0000
 20
173.8000
 30
0.0000
 11
160.0000
 21
173.8000
 31
0.0000
  0
LINE
  8
20
 10
150.0000
 20
173.8000
 30
0.0000
 11
140.0000
 21
173.8000
 31
0.0000
  0
LINE
  8
20
 10
130.0000
 20
173.8000
 30
0.0000
 11
120.0000
 21
173.8000
 31
0.0000
  0
LINE
  8
20
 10
110.0000
 20
173.8000
 30
0.0000
 11
100.0000
 21
173.8000
 31
0.0000
  0
LINE
  8
20
 10
90.0000
 20
173.8000
 30
0.0000
 11
80.0000
 21
173.8000
 31
0.0000
  0
LINE
  8
20
 10
70.0000
 20
173.8000
 30
0.0000
 11
60.0000
 21
173.8000
 31
0.0000
  0
LINE
  8
20
 10
50.0000
 20
173.8000
 30
0.0000
 11
40.0000
 21
173.8000
 31
0.0000
  0
ARC
  8
20
 10
1.0000
 20
158.9950
 30
0.0000
 40
1.0000
 50
179.7135
 51
275.7392
  0
ARC
  8
20
 10
1.1500
 20
172.6400
 30
0.0000
 40
1.1611
 50
92.4681
 51
172.0794
  0
LINE
  8
20
 10
0.0000
 20
172.8000
 30
0.0000
 11
0.0000
 21
159.0000
 31
0.0000
  0
LINE
  8
20
 10
192.0000
 20
172.8000
 30
0.0000
 11
192.0000
 21
158.9000
 31
0.0000
  0
LINE
  8
20
 10
1.1000
 20
173.8000
 30
0.0000
 11
30.0000
 21
173.8000
 31
0.0000
  0
LINE
  8
20
 10
30.0000
 20
173.8000
 30
0.0000
 11
30.0000
 21
176.3000
 31
0.0000
  0
LINE
  8
20
 10
30.0000
 20
176.3000
 30
0.0000
 11
40.0000
 21
176.3000
 31
0.0000
  0
LINE
  8
20
 10
40.0000
 20
176.3000
 30
0.0000
 11
40.0000
 21
173.8000
 31
0.0000
  0
LINE
  8
20
 10
50.0000
 20
173.8000
 30
0.0000
 11
50.0000
 21
176.3000
 31
0.0000
  0
LINE
  8
20
 10
50.0000
 20
176.3000
 30
0.0000
 11
60.0000
 21
176.3000
 31
0.0000
  0
LINE
  8
20
 10
60.0000
 20
176.3000
 30
0.0000
 11
60.0000
 21
173.8000
 31
0.0000
  0
LINE
  8
20
 10
70.0000
 20
173.8000
 30
0.0000
 11
70.0000
 21
176.3000
 31
0.0000
  0
LINE
  8
20
 10
70.0000
 20
176.3000
 30
0.0000
 11
80.0000
 21
176.3000
 31
0.0000
  0
LINE
  8
20
 10
80.0000
 20
176.3000
 30
0.0000
 11
80.0000
 21
173.8000
 31
0.0000
  0
LINE
  8
20
 10
90.0000
 20
173.8000
 30
0.0000
 11
90.0000
 21
176.3000
 31
0.0000
  0
LINE
  8
20
 10
90.0000
 20
176.3000
 30
0.0000
 11
100.0000
 21
176.3000
 31
0.0000
  0
LINE
  8
20
 10
100.0000
 20
176.3000
 30
0.0000
 11
100.0000
 21
173.8000
 31
0.0000
  0
LINE
  8
20
 10
110.0000
 20
173.8000
 30
0.0000
 11
110.0000
 21
176.3000
 31
0.0000
  0
LINE
  8
20
 10
110.0000
 20
176.3000
 30
0.0000
 11
120.0000
 21
176.3000
 31
0.0000
  0
LINE
  8
20
 10
120.0000
 20
176.3000
 30
0.0000
 11
120.0000
 21
173.8000
 31
0.0000
  0
LINE
  8
20
 10
130.0000
 20
173.8000
 30
0.0000
 11
130.0000
 21
176.3000
 31
0.0000
  0
LINE
  8
20
 10
130.0000
 20
176.3000
 30
0.0000
 11
140.0000
 21
176.3000
 31
0.0000
  0
LINE
  8
20
 10
140.0000
 20
176.3000
 30
0.0000
 11
140.0000
 21
173.8000
 31
0.0000
  0
LINE
  8
20
 10
150.0000
 20
173.8000
 30
0.0000
 11
150.0000
 21
176.3000
 31
0.0000
  0
LINE
  8
20
 10
150.0000
 20
176.3000
 30
0.0000
 11
160.0000
 21
176.3000
 31
0.0000
  0
LINE
  8
20
 10
160.0000
 20
176.3000
 30
0.0000
 11
160.0000
 21
173.8000
 31
0.0000
  0
LINE
  8
20
 10
170.0000
 20
173.8000
 30
0.0000
 11
170.0000
 21
176.3000
 31
0.0000
  0
LINE
  8
20
 10
170.0000
 20
176.3000
 30
0.0000
 11
180.0000
 21
176.3000
 31
0.0000
  0
LINE
  8
20
 10
180.0000
 20
176.3000
 30
0.0000
 11
180.0000
 21
173.8000
 31
0.0000
  0
LINE
  8
20
 10
191.0000
 20
173.8000
 30
0.0000
 11
180.0000
 21
173.8000
 31
0.0000
  0
LINE
  8
20
 10
170.0000
 20
173.8000
 30
0.0000
 11
160.0000
 21
173.8000
 31
0.0000
  0
LINE
  8
20
 10
150.0000
 20
173.8000
 30
0.0000
 11
140.0000
 21
173.8000
 31
0.0000
  0
LINE
  8
20
 10
130.0000
 20
173.8000
 30
0.0000
 11
120.0000
 21
173.8000
 31
0.0000
  0
LINE
  8
20
 10
110.0000
 20
173.8000
 30
0.0000
 11
100.0000
 21
173.8000
 31
0.0000
  0
LINE
  8
20
 10
90.0000
 20
173.8000
 30
0.0000
 11
80.0000
 21
173.8000
 31
0.0000
  0
LINE
  8
20
 10
70.0000
 20
173.8000
 30
0.0000
 11
60.0000
 21
173.8000
 31
0.0000
  0
LINE
  8
20
 10
50.0000
 20
173.8000
 30
0.0000
 11
40.0000
 21
173.8000
 31
0.0000
  0
ARC
  8
20
 10
191.0500
 20
174.7500
 30
0.0000
 40
0.9513
 50
266.9872
 51
356.9872
  0
ARC
  8
20
 10
191.0500
 20
188.6500
 30
0.0000
 40
0.9513
 50
356.9872
 51
93.0128
  0
LINE
  8
20
 10
1.1000
 20
189.6000
 30
0.0000
 11
30.0000
 21
189.6000
 31
0.0000
  0
LINE
  8
20
 10
30.0000
 20
189.6000
 30
0.0000
 11
30.0000
 21
187.1000
 31
0.0000
  0
LINE
  8
20
 10
30.0000
 20
187.1000
 30
0.0000
 11
40.0000
 21
187.1000
 31
0.0000
  0
LINE
  8
20
 10
40.0000
 20
187.1000
 30
0.0000
 11
40.0000
 21
189.6000
 31
0.0000
  0
LINE
  8
20
 10
50.0000
 20
189.6000
 30
0.0000
 11
50.0000
 21
187.1000
 31
0.0000
  0
LINE
  8
20
 10
50.0000
 20
187.1000
 30
0.0000
 11
60.0000
 21
187.1000
 31
0.0000
  0
LINE
  8
20
 10
60.0000
 20
187.1000
 30
0.0000
 11
60.0000
 21
189.6000
 31
0.0000
  0
LINE
  8
20
 10
70.0000
 20
189.6000
 30
0.0000
 11
70.0000
 21
187.1000
 31
0.0000
  0
LINE
  8
20
 10
70.0000
 20
187.1000
 30
0.0000
 11
80.0000
 21
187.1000
 31
0.0000
  0
LINE
  8
20
 10
80.0000
 20
187.1000
 30
0.0000
 11
80.0000
 21
189.6000
 31
0.0000
  0
LINE
  8
20
 10
90.0000
 20
189.6000
 30
0.0000
 11
90.0000
 21
187.1000
 31
0.0000
  0
LINE
  8
20
 10
90.0000
 20
187.1000
 30
0.0000
 11
100.0000
 21
187.1000
 31
0.0000
  0
LINE
  8
20
 10
100.0000
 20
187.1000
 30
0.0000
 11
100.0000
 21
189.6000
 31
0.0000
  0
LINE
  8
20
 10
110.0000
 20
189.6000
 30
0.0000
 11
110.0000
 21
187.1000
 31
0.0000
  0
LINE
  8
20
 10
110.0000
 20
187.1000
 30
0.0000
 11
120.0000
 21
187.1000
 31
0.0000
  0
LINE
  8
20
 10
120.0000
 20
187.1000
 30
0.0000
 11
120.0000
 21
189.6000
 31
0.0000
  0
LINE
  8
20
 10
130.0000
 20
189.6000
 30
0.0000
 11
130.0000
 21
187.1000
 31
0.0000
  0
LINE
  8
20
 10
130.0000
 20
187.1000
 30
0.0000
 11
140.0000
 21
187.1000
 31
0.0000
  0
LINE
  8
20
 10
140.0000
 20
187.1000
 30
0.0000
 11
140.0000
 21
189.6000
 31
0.0000
  0
LINE
  8
20
 10
150.0000
 20
189.6000
 30
0.0000
 11
150.0000
 21
187.1000
 31
0.0000
  0
LINE
  8
20
 10
150.0000
 20
187.1000
 30
0.0000
 11
160.0000
 21
187.1000
 31
0.0000
  0
LINE
  8
20
 10
160.0000
 20
187.1000
 30
0.0000
 11
160.0000
 21
189.6000
 31
0.0000
  0
LINE
  8
20
 10
170.0000
 20
189.6000
 30
0.0000
 11
170.0000
 21
187.1000
 31
0.0000
  0
LINE
  8
20
 10
170.0000
 20
187.1000
 30
0.0000
 11
180.0000
 21
187.1000
 31
0.0000
  0
LINE
  8
20
 10
180.0000
 20
187.1000
 30
0.0000
 11
180.0000
 21
189.6000
 31
0.0000
  0
LINE
  8
20
 10
191.0000
 20
189.6000
 30
0.0000
 11
180.0000
 21
189.6000
 31
0.0000
  0
LINE
  8
20
 10
170.0000
 20
189.6000
 30
0.0000
 11
160.0000
 21
189.6000
 31
0.0000
  0
LINE
  8
20
 10
150.0000
 20
189.6000
 30
0.0000
 11
140.0000
 21
189.6000
 31
0.0000
  0
LINE
  8
20
 10
130.0000
 20
189.6000
 30
0.0000
 11
120.0000
 21
189.6000
 31
0.0000
  0
LINE
  8
20
 10
110.0000
 20
189.6000
 30
0.0000
 11
100.0000
 21
189.6000
 31
0.0000
  0
LINE
  8
20
 10
90.0000
 20
189.6000
 30
0.0000
 11
80.0000
 21
189.6000
 31
0.0000
  0
LINE
  8
20
 10
70.0000
 20
189.6000
 30
0.0000
 11
60.0000
 21
189.6000
 31
0.0000
  0
LINE
  8
20
 10
50.0000
 20
189.6000
 30
0.0000
 11
40.0000
 21
189.6000
 31
0.0000
  0
ARC
  8
20
 10
1.0000
 20
174.7950
 30
0.0000
 40
1.0000
 50
179.7135
 51
275.7392
  0
ARC
  8
20
 10
1.1500
 20
188.4400
 30
0.0000
 40
1.1611
 50
92.4681
 51
172.0794
  0
LINE
  8
20
 10
0.0000
 20
188.6000
 30
0.0000
 11
0.0000
 21
174.8000
 31
0.0000
  0
LINE
  8
20
 10
192.0000
 20
188.6000
 30
0.0000
 11
192.0000
 21
174.7000
 31
0.0000
  0
LINE
  8
20
 10
1.1000
 20
189.6000
 30
0.0000
 11
30.0000
 21
189.6000
 31
0.0000
  0
LINE
  8
20
 10
30.0000
 20
189.6000
 30
0.0000
 11
30.0000
 21
192.1000
 31
0.0000
  0
LINE
  8
20
 10
30.0000
 20
192.1000
 30
0.0000
 11
40.0000
 21
192.1000
 31
0.0000
  0
LINE
  8
20
 10
40.0000
 20
192.1000
 30
0.0000
 11
40.0000
 21
189.6000
 31
0.0000
  0
LINE
  8
20
 10
50.0000
 20
189.6000
 30
0.0000
 11
50.0000
 21
192.1000
 31
0.0000
  0
LINE
  8
20
 10
50.0000
 20
192.1000
 30
0.0000
 11
60.0000
 21
192.1000
 31
0.0000
  0
LINE
  8
20
 10
60.0000
 20
192.1000
 30
0.0000
 11
60.0000
 21
189.6000
 31
0.0000
  0
LINE
  8
20
 10
70.0000
 20
189.6000
 30
0.0000
 11
70.0000
 21
192.1000
 31
0.0000
  0
LINE
  8
20
 10
70.0000
 20
192.1000
 30
0.0000
 11
80.0000
 21
192.1000
 31
0.0000
  0
LINE
  8
20
 10
80.0000
 20
192.1000
 30
0.0000
 11
80.0000
 21
189.6000
 31
0.0000
  0
LINE
  8
20
 10
90.0000
 20
189.6000
 30
0.0000
 11
90.0000
 21
192.1000
 31
0.0000
  0
LINE
  8
20
 10
90.0000
 20
192.1000
 30
0.0000
 11
100.0000
 21
192.1000
 31
0.0000
  0
LINE
  8
20
 10
100.0000
 20
192.1000
 30
0.0000
 11
100.0000
 21
189.6000
 31
0.0000
  0
LINE
  8
20
 10
110.0000
 20
189.6000
 30
0.0000
 11
110.0000
 21
192.1000
 31
0.0000
  0
LINE
  8
20
 10
110.0000
 20
192.1000
 30
0.0000
 11
120.0000
 21
192.1000
 31
0.0000
  0
LINE
  8
20
 10
120.0000
 20
192.1000
 30
0.0000
 11
120.0000
 21
189.6000
 31
0.0000
  0
LINE
  8
20
 10
130.0000
 20
189.6000
 30
0.0000
 11
130.0000
 21
192.1000
 31
0.0000
  0
LINE
  8
20
 10
130.0000
 20
192.1000
 30
0.0000
 11
140.0000
 21
192.1000
 31
0.0000
  0
LINE
  8
20
 10
140.0000
 20
192.1000
 30
0.0000
 11
140.0000
 21
189.6000
 31
0.0000
  0
LINE
  8
20
 10
150.0000
 20
189.6000
 30
0.0000
 11
150.0000
 21
192.1000
 31
0.0000
  0
LINE
  8
20
 10
150.0000
 20
192.1000
 30
0.0000
 11
160.0000
 21
192.1000
 31
0.0000
  0
LINE
  8
20
 10
160.0000
 20
192.1000
 30
0.0000
 11
160.0000
 21
189.6000
 31
0.0000
  0
LINE
  8
20
 10
170.0000
 20
189.6000
 30
0.0000
 11
170.0000
 21
192.1000
 31
0.0000
  0
LINE
  8
20
 10
170.0000
 20
192.1000
 30
0.0000
 11
180.0000
 21
192.1000
 31
0.0000
  0
LINE
  8
20
 10
180.0000
 20
192.1000
 30
0.0000
 11
180.0000
 21
189.6000
 31
0.0000
  0
LINE
  8
20
 10
191.0000
 20
189.6000
 30
0.0000
 11
180.0000
 21
189.6000
 31
0.0000
  0
LINE
  8
20
 10
170.0000
 20
189.6000
 30
0.0000
 11
160.0000
 21
189.6000
 31
0.0000
  0
LINE
  8
20
 10
150.0000
 20
189.6000
 30
0.0000
 11
140.0000
 21
189.6000
 31
0.0000
  0
LINE
  8
20
 10
130.0000
 20
189.6000
 30
0.0000
 11
120.0000
 21
189.6000
 31
0.0000
  0
LINE
  8
20
 10
110.0000
 20
189.6000
 30
0.0000
 11
100.0000
 21
189.6000
 31
0.0000
  0
LINE
  8
20
 10
90.0000
 20
189.6000
 30
0.0000
 11
80.0000
 21
189.6000
 31
0.0000
  0
LINE
  8
20
 10
70.0000
 20
189.6000
 30
0.0000
 11
60.0000
 21
189.6000
 31
0.0000
  0
LINE
  8
20
 10
50.0000
 20
189.6000
 30
0.0000
 11
40.0000
 21
189.6000
 31
0.0000
  0
ARC
  8
20
 10
191.0500
 20
190.5500
 30
0.0000
 40
0.9513
 50
266.9872
 51
356.9872
  0
ARC
  8
20
 10
191.0500
 20
204.4500
 30
0.0000
 40
0.9513
 50
356.9872
 51
93.0128
  0
LINE
  8
20
 10
1.1000
 20
205.4000
 30
0.0000
 11
30.0000
 21
205.4000
 31
0.0000
  0
LINE
  8
20
 10
30.0000
 20
205.4000
 30
0.0000
 11
30.0000
 21
202.9000
 31
0.0000
  0
LINE
  8
20
 10
30.0000
 20
202.9000
 30
0.0000
 11
40.0000
 21
202.9000
 31
0.0000
  0
LINE
  8
20
 10
40.0000
 20
202.9000
 30
0.0000
 11
40.0000
 21
205.4000
 31
0.0000
  0
LINE
  8
20
 10
50.0000
 20
205.4000
 30
0.0000
 11
50.0000
 21
202.9000
 31
0.0000
  0
LINE
  8
20
 10
50.0000
 20
202.9000
 30
0.0000
 11
60.0000
 21
202.9000
 31
0.0000
  0
LINE
  8
20
 10
60.0000
 20
202.9000
 30
0.0000
 11
60.0000
 21
205.4000
 31
0.0000
  0
LINE
  8
20
 10
70.0000
 20
205.4000
 30
0.0000
 11
70.0000
 21
202.9000
 31
0.0000
  0
LINE
  8
20
 10
70.0000
 20
202.9000
 30
0.0000
 11
80.0000
 21
202.9000
 31
0.0000
  0
LINE
  8
20
 10
80.0000
 20
202.9000
 30
0.0000
 11
80.0000
 21
205.4000
 31
0.0000
  0
LINE
  8
20
 10
90.0000
 20
205.4000
 30
0.0000
 11
90.0000
 21
202.9000
 31
0.0000
  0
LINE
  8
20
 10
90.0000
 20
202.9000
 30
0.0000
 11
100.0000
 21
202.9000
 31
0.0000
  0
LINE
  8
20
 10
100.0000
 20
202.9000
 30
0.0000
 11
100.0000
 21
205.4000
 31
0.0000
  0
LINE
  8
20
 10
110.0000
 20
205.4000
 30
0.0000
 11
110.0000
 21
202.9000
 31
0.0000
  0
LINE
  8
20
 10
110.0000
 20
202.9000
 30
0.0000
 11
120.0000
 21
202.9000
 31
0.0000
  0
LINE
  8
20
 10
120.0000
 20
202.9000
 30
0.0000
 11
120.0000
 21
205.4000
 31
0.0000
  0
LINE
  8
20
 10
130.0000
 20
205.4000
 30
0.0000
 11
130.0000
 21
202.9000
 31
0.0000
  0
LINE
  8
20
 10
130.0000
 20
202.9000
 30
0.0000
 11
140.0000
 21
202.9000
 31
0.0000
  0
LINE
  8
20
 10
140.0000
 20
202.9000
 30
0.0000
 11
140.0000
 21
205.4000
 31
0.0000
  0
LINE
  8
20
 10
150.0000
 20
205.4000
 30
0.0000
 11
150.0000
 21
202.9000
 31
0.0000
  0
LINE
  8
20
 10
150.0000
 20
202.9000
 30
0.0000
 11
160.0000
 21
202.9000
 31
0.0000
  0
LINE
  8
20
 10
160.0000
 20
202.9000
 30
0.0000
 11
160.0000
 21
205.4000
 31
0.0000
  0
LINE
  8
20
 10
170.0000
 20
205.4000
 30
0.0000
 11
170.0000
 21
202.9000
 31
0.0000
  0
LINE
  8
20
 10
170.0000
 20
202.9000
 30
0.0000
 11
180.0000
 21
202.9000
 31
0.0000
  0
LINE
  8
20
 10
180.0000
 20
202.9000
 30
0.0000
 11
180.0000
 21
205.4000
 31
0.0000
  0
LINE
  8
20
 10
191.0000
 20
205.4000
 30
0.0000
 11
180.0000
 21
205.4000
 31
0.0000
  0
LINE
  8
20
 10
170.0000
 20
205.4000
 30
0.0000
 11
160.0000
 21
205.4000
 31
0.0000
  0
LINE
  8
20
 10
150.0000
 20
205.4000
 30
0.0000
 11
140.0000
 21
205.4000
 31
0.0000
  0
LINE
  8
20
 10
130.0000
 20
205.4000
 30
0.0000
 11
120.0000
 21
205.4000
 31
0.0000
  0
LINE
  8
20
 10
110.0000
 20
205.4000
 30
0.0000
 11
100.0000
 21
205.4000
 31
0.0000
  0
LINE
  8
20
 10
90.0000
 20
205.4000
 30
0.0000
 11
80.0000
 21
205.4000
 31
0.0000
  0
LINE
  8
20
 10
70.0000
 20
205.4000
 30
0.0000
 11
60.0000
 21
205.4000
 31
0.0000
  0
LINE
  8
20
 10
50.0000
 20
205.4000
 30
0.0000
 11
40.0000
 21
205.4000
 31
0.0000
  0
ARC
  8
20
 10
1.0000
 20
190.5950
 30
0.0000
 40
1.0000
 50
179.7135
 51
275.7392
  0
ARC
  8
20
 10
1.1500
 20
204.2400
 30
0.0000
 40
1.1611
 50
92.4681
 51
172.0794
  0
LINE
  8
20
 10
0.0000
 20
204.4000
 30
0.0000
 11
0.0000
 21
190.6000
 31
0.0000
  0
LINE
  8
20
 10
192.0000
 20
204.4000
 30
0.0000
 11
192.0000
 21
190.5000
 31
0.0000
  0
LINE
  8
20
 10
1.1000
 20
205.4000
 30
0.0000
 11
30.0000
 21
205.4000
 31
0.0000
  0
LINE
  8
20
 10
30.0000
 20
205.4000
 30
0.0000
 11
30.0000
 21
207.9000
 31
0.0000
  0
LINE
  8
20
 10
30.0000
 20
207.9000
 30
0.0000
 11
40.0000
 21
207.9000
 31
0.0000
  0
LINE
  8
20
 10
40.0000
 20
207.9000
 30
0.0000
 11
40.0000
 21
205.4000
 31
0.0000
  0
LINE
  8
20
 10
50.0000
 20
205.4000
 30
0.0000
 11
50.0000
 21
207.9000
 31
0.0000
  0
LINE
  8
20
 10
50.0000
 20
207.9000
 30
0.0000
 11
60.0000
 21
207.9000
 31
0.0000
  0
LINE
  8
20
 10
60.0000
 20
207.9000
 30
0.0000
 11
60.0000
 21
205.4000
 31
0.0000
  0
LINE
  8
20
 10
70.0000
 20
205.4000
 30
0.0000
 11
70.0000
 21
207.9000
 31
0.0000
  0
LINE
  8
20
 10
70.0000
 20
207.9000
 30
0.0000
 11
80.0000
 21
207.9000
 31
0.0000
  0
LINE
  8
20
 10
80.0000
 20
207.9000
 30
0.0000
 11
80.0000
 21
205.4000
 31
0.0000
  0
LINE
  8
20
 10
90.0000
 20
205.4000
 30
0.0000
 11
90.0000
 21
207.9000
 31
0.0000
  0
LINE
  8
20
 10
90.0000
 20
207.9000
 30
0.0000
 11
100.0000
 21
207.9000
 31
0.0000
  0
LINE
  8
20
 10
100.0000
 20
207.9000
 30
0.0000
 11
100.0000
 21
205.4000
 31
0.0000
  0
LINE
  8
20
 10
110.0000
 20
205.4000
 30
0.0000
 11
110.0000
 21
207.9000
 31
0.0000
  0
LINE
  8
20
 10
110.0000
 20
207.9000
 30
0.0000
 11
120.0000
 21
207.9000
 31
0.0000
  0
LINE
  8
20
 10
120.0000
 20
207.9000
 30
0.0000
 11
120.0000
 21
205.4000
 31
0.0000
  0
LINE
  8
20
 10
130.0000
 20
205.4000
 30
0.0000
 11
130.0000
 21
207.9000
 31
0.0000
  0
LINE
  8
20
 10
130.0000
 20
207.9000
 30
0.0000
 11
140.0000
 21
207.9000
 31
0.0000
  0
LINE
  8
20
 10
140.0000
 20
207.9000
 30
0.0000
 11
140.0000
 21
205.4000
 31
0.0000
  0
LINE
  8
20
 10
150.0000
 20
205.4000
 30
0.0000
 11
150.0000
 21
207.9000
 31
0.0000
  0
LINE
  8
20
 10
150.0000
 20
207.9000
 30
0.0000
 11
160.0000
 21
207.9000
 31
0.0000
  0
LINE
  8
20
 10
160.0000
 20
207.9000
 30
0.0000
 11
160.0000
 21
205.4000
 31
0.0000
  0
LINE
  8
20
 10
170.0000
 20
205.4000
 30
0.0000
 11
170.0000
 21
207.9000
 31
0.0000
  0
LINE
  8
20
 10
170.0000
 20
207.9000
 30
0.0000
 11
180.0000
 21
207.9000
 31
0.0000
  0
LINE
  8
20
 10
180.0000
 20
207.9000
 30
0.0000
 11
180.0000
 21
205.4000
 31
0.0000
  0
LINE
  8
20
 10
191.0000
 20
205.4000
 30
0.0000
 11
180.0000
 21
205.4000
 31
0.0000
  0
LINE
  8
20
 10
170.0000
 20
205.4000
 30
0.0000
 11
160.0000
 21
205.4000
 31
0.0000
  0
LINE
  8
20
 10
150.0000
 20
205.4000
 30
0.0000
 11
140.0000
 21
205.4000
 31
0.0000
  0
LINE
  8
20
 10
130.0000
 20
205.4000
 30
0.0000
 11
120.0000
 21
205.4000
 31
0.0000
  0
LINE
  8
20
 10
110.0000
 20
205.4000
 30
0.0000
 11
100.0000
 21
205.4000
 31
0.0000
  0
LINE
  8
20
 10
90.0000
 20
205.4000
 30
0.0000
 11
80.0000
 21
205.4000
 31
0.0000
  0
LINE
  8
20
 10
70.0000
 20
205.4000
 30
0.0000
 11
60.0000
 21
205.4000
 31
0.0000
  0
LINE
  8
20
 10
50.0000
 20
205.4000
 30
0.0000
 11
40.0000
 21
205.4000
 31
0.0000
  0
ARC
  8
20
 10
191.0500
 20
206.3500
 30
0.0000
 40
0.9513
 50
266.9872
 51
356.9872
  0
ARC
  8
20
 10
191.0500
 20
220.2500
 30
0.0000
 40
0.9513
 50
356.9872
 51
93.0128
  0
LINE
  8
20
 10
1.1000
 20
221.2000
 30
0.0000
 11
30.0000
 21
221.2000
 31
0.0000
  0
LINE
  8
20
 10
30.0000
 20
221.2000
 30
0.0000
 11
30.0000
 21
218.7000
 31
0.0000
  0
LINE
  8
20
 10
30.0000
 20
218.7000
 30
0.0000
 11
40.0000
 21
218.7000
 31
0.0000
  0
LINE
  8
20
 10
40.0000
 20
218.7000
 30
0.0000
 11
40.0000
 21
221.2000
 31
0.0000
  0
LINE
  8
20
 10
50.0000
 20
221.2000
 30
0.0000
 11
50.0000
 21
218.7000
 31
0.0000
  0
LINE
  8
20
 10
50.0000
 20
218.7000
 30
0.0000
 11
60.0000
 21
218.7000
 31
0.0000
  0
LINE
  8
20
 10
60.0000
 20
218.7000
 30
0.0000
 11
60.0000
 21
221.2000
 31
0.0000
  0
LINE
  8
20
 10
70.0000
 20
221.2000
 30
0.0000
 11
70.0000
 21
218.7000
 31
0.0000
  0
LINE
  8
20
 10
70.0000
 20
218.7000
 30
0.0000
 11
80.0000
 21
218.7000
 31
0.0000
  0
LINE
  8
20
 10
80.0000
 20
218.7000
 30
0.0000
 11
80.0000
 21
221.2000
 31
0.0000
  0
LINE
  8
20
 10
90.0000
 20
221.2000
 30
0.0000
 11
90.0000
 21
218.7000
 31
0.0000
  0
LINE
  8
20
 10
90.0000
 20
218.7000
 30
0.0000
 11
100.0000
 21
218.7000
 31
0.0000
  0
LINE
  8
20
 10
100.0000
 20
218.7000
 30
0.0000
 11
100.0000
 21
221.2000
 31
0.0000
  0
LINE
  8
20
 10
110.0000
 20
221.2000
 30
0.0000
 11
110.0000
 21
218.7000
 31
0.0000
  0
LINE
  8
20
 10
110.0000
 20
218.7000
 30
0.0000
 11
120.0000
 21
218.7000
 31
0.0000
  0
LINE
  8
20
 10
120.0000
 20
218.7000
 30
0.0000
 11
120.0000
 21
221.2000
 31
0.0000
  0
LINE
  8
20
 10
130.0000
 20
221.2000
 30
0.0000
 11
130.0000
 21
218.7000
 31
0.0000
  0
LINE
  8
20
 10
130.0000
 20
218.7000
 30
0.0000
 11
140.0000
 21
218.7000
 31
0.0000
  0
LINE
  8
20
 10
140.0000
 20
218.7000
 30
0.0000
 11
140.0000
 21
221.2000
 31
0.0000
  0
LINE
  8
20
 10
150.0000
 20
221.2000
 30
0.0000
 11
150.0000
 21
218.7000
 31
0.0000
  0
LINE
  8
20
 10
150.0000
 20
218.7000
 30
0.0000
 11
160.0000
 21
218.7000
 31
0.0000
  0
LINE
  8
20
 10
160.0000
 20
218.7000
 30
0.0000
 11
160.0000
 21
221.2000
 31
0.0000
  0
LINE
  8
20
 10
170.0000
 20
221.2000
 30
0.0000
 11
170.0000
 21
218.7000
 31
0.0000
  0
LINE
  8
20
 10
170.0000
 20
218.7000
 30
0.0000
 11
180.0000
 21
218.7000
 31
0.0000
  0
LINE
  8
20
 10
180.0000
 20
218.7000
 30
0.0000
 11
180.0000
 21
221.2000
 31
0.0000
  0
LINE
  8
20
 10
191.0000
 20
221.2000
 30
0.0000
 11
180.0000
 21
221.2000
 31
0.0000
  0
LINE
  8
20
 10
170.0000
 20
221.2000
 30
0.0000
 11
160.0000
 21
221.2000
 31
0.0000
  0
LINE
  8
20
 10
150.0000
 20
221.2000
 30
0.0000
 11
140.0000
 21
221.2000
 31
0.0000
  0
LINE
  8
20
 10
130.0000
 20
221.2000
 30
0.0000
 11
120.0000
 21
221.2000
 31
0.0000
  0
LINE
  8
20
 10
110.0000
 20
221.2000
 30
0.0000
 11
100.0000
 21
221.2000
 31
0.0000
  0
LINE
  8
20
 10
90.0000
 20
221.2000
 30
0.0000
 11
80.0000
 21
221.2000
 31
0.0000
  0
LINE
  8
20
 10
70.0000
 20
221.2000
 30
0.0000
 11
60.0000
 21
221.2000
 31
0.0000
  0
LINE
  8
20
 10
50.0000
 20
221.2000
 30
0.0000
 11
40.0000
 21
221.2000
 31
0.0000
  0
ARC
  8
20
 10
1.0000
 20
206.3950
 30
0.0000
 40
1.0000
 50
179.7135
 51
275.7392
  0
ARC
  8
20
 10
1.1500
 20
220.0400
 30
0.0000
 40
1.1611
 50
92.4681
 51
172.0794
  0
LINE
  8
20
 10
0.0000
 20
220.2000
 30
0.0000
 11
0.0000
 21
206.4000
 31
0.0000
  0
LINE
  8
20
 10
192.0000
 20
220.2000
 30
0.0000
 11
192.0000
 21
206.3000
 31
0.0000
  0
LINE
  8
20
 10
1.1000
 20
221.2000
 30
0.0000
 11
30.0000
 21
221.2000
 31
0.0000
  0
LINE
  8
20
 10
30.0000
 20
221.2000
 30
0.0000
 11
30.0000
 21
223.7000
 31
0.0000
  0
LINE
  8
20
 10
30.0000
 20
223.7000
 30
0.0000
 11
40.0000
 21
223.7000
 31
0.0000
  0
LINE
  8
20
 10
40.0000
 20
223.7000
 30
0.0000
 11
40.0000
 21
221.2000
 31
0.0000
  0
LINE
  8
20
 10
50.0000
 20
221.2000
 30
0.0000
 11
50.0000
 21
223.7000
 31
0.0000
  0
LINE
  8
20
 10
50.0000
 20
223.7000
 30
0.0000
 11
60.0000
 21
223.7000
 31
0.0000
  0
LINE
  8
20
 10
60.0000
 20
223.7000
 30
0.0000
 11
60.0000
 21
221.2000
 31
0.0000
  0
LINE
  8
20
 10
70.0000
 20
221.2000
 30
0.0000
 11
70.0000
 21
223.7000
 31
0.0000
  0
LINE
  8
20
 10
70.0000
 20
223.7000
 30
0.0000
 11
80.0000
 21
223.7000
 31
0.0000
  0
LINE
  8
20
 10
80.0000
 20
223.7000
 30
0.0000
 11
80.0000
 21
221.2000
 31
0.0000
  0
LINE
  8
20
 10
90.0000
 20
221.2000
 30
0.0000
 11
90.0000
 21
223.7000
 31
0.0000
  0
LINE
  8
20
 10
90.0000
 20
223.7000
 30
0.0000
 11
100.0000
 21
223.7000
 31
0.0000
  0
LINE
  8
20
 10
100.0000
 20
223.7000
 30
0.0000
 11
100.0000
 21
221.2000
 31
0.0000
  0
LINE
  8
20
 10
110.0000
 20
221.2000
 30
0.0000
 11
110.0000
 21
223.7000
 31
0.0000
  0
LINE
  8
20
 10
110.0000
 20
223.7000
 30
0.0000
 11
120.0000
 21
223.7000
 31
0.0000
  0
LINE
  8
20
 10
120.0000
 20
223.7000
 30
0.0000
 11
120.0000
 21
221.2000
 31
0.0000
  0
LINE
  8
20
 10
130.0000
 20
221.2000
 30
0.0000
 11
130.0000
 21
223.7000
 31
0.0000
  0
LINE
  8
20
 10
130.0000
 20
223.7000
 30
0.0000
 11
140.0000
 21
223.7000
 31
0.0000
  0
LINE
  8
20
 10
140.0000
 20
223.7000
 30
0.0000
 11
140.0000
 21
221.2000
 31
0.0000
  0
LINE
  8
20
 10
150.0000
 20
221.2000
 30
0.0000
 11
150.0000
 21
223.7000
 31
0.0000
  0
LINE
  8
20
 10
150.0000
 20
223.7000
 30
0.0000
 11
160.0000
 21
223.7000
 31
0.0000
  0
LINE
  8
20
 10
160.0000
 20
223.7000
 30
0.0000
 11
160.0000
 21
221.2000
 31
0.0000
  0
LINE
  8
20
 10
170.0000
 20
221.2000
 30
0.0000
 11
170.0000
 21
223.7000
 31
0.0000
  0
LINE
  8
20
 10
170.0000
 20
223.7000
 30
0.0000
 11
180.0000
 21
223.7000
 31
0.0000
  0
LINE
  8
20
 10
180.0000
 20
223.7000
 30
0.0000
 11
180.0000
 21
221.2000
 31
0.0000
  0
LINE
  8
20
 10
191.0000
 20
221.2000
 30
0.0000
 11
180.0000
 21
221.2000
 31
0.0000
  0
LINE
  8
20
 10
170.0000
 20
221.2000
 30
0.0000
 11
160.0000
 21
221.2000
 31
0.0000
  0
LINE
  8
20
 10
150.0000
 20
221.2000
 30
0.0000
 11
140.0000
 21
221.2000
 31
0.0000
  0
LINE
  8
20
 10
130.0000
 20
221.2000
 30
0.0000
 11
120.0000
 21
221.2000
 31
0.0000
  0
LINE
  8
20
 10
110.0000
 20
221.2000
 30
0.0000
 11
100.0000
 21
221.2000
 31
0.0000
  0
LINE
  8
20
 10
90.0000
 20
221.2000
 30
0.0000
 11
80.0000
 21
221.2000
 31
0.0000
  0
LINE
  8
20
 10
70.0000
 20
221.2000
 30
0.0000
 11
60.0000
 21
221.2000
 31
0.0000
  0
LINE
  8
20
 10
50.0000
 20
221.2000
 30
0.0000
 11
40.0000
 21
221.2000
 31
0.0000
  0
ARC
  8
20
 10
191.0500
 20
222.1500
 30
0.0000
 40
0.9513
 50
266.9872
 51
356.9872
  0
ARC
  8
20
 10
191.0500
 20
236.0500
 30
0.0000
 40
0.9513
 50
356.9872
 51
93.0128
  0
LINE
  8
20
 10
1.1000
 20
237.0000
 30
0.0000
 11
30.0000
 21
237.0000
 31
0.0000
  0
LINE
  8
20
 10
30.0000
 20
237.0000
 30
0.0000
 11
30.0000
 21
234.5000
 31
0.0000
  0
LINE
  8
20
 10
30.0000
 20
234.5000
 30
0.0000
 11
40.0000
 21
234.5000
 31
0.0000
  0
LINE
  8
20
 10
40.0000
 20
234.5000
 30
0.0000
 11
40.0000
 21
237.0000
 31
0.0000
  0
LINE
  8
20
 10
50.0000
 20
237.0000
 30
0.0000
 11
50.0000
 21
234.5000
 31
0.0000
  0
LINE
  8
20
 10
50.0000
 20
234.5000
 30
0.0000
 11
60.0000
 21
234.5000
 31
0.0000
  0
LINE
  8
20
 10
60.0000
 20
234.5000
 30
0.0000
 11
60.0000
 21
237.0000
 31
0.0000
  0
LINE
  8
20
 10
70.0000
 20
237.0000
 30
0.0000
 11
70.0000
 21
234.5000
 31
0.0000
  0
LINE
  8
20
 10
70.0000
 20
234.5000
 30
0.0000
 11
80.0000
 21
234.5000
 31
0.0000
  0
LINE
  8
20
 10
80.0000
 20
234.5000
 30
0.0000
 11
80.0000
 21
237.0000
 31
0.0000
  0
LINE
  8
20
 10
90.0000
 20
237.0000
 30
0.0000
 11
90.0000
 21
234.5000
 31
0.0000
  0
LINE
  8
20
 10
90.0000
 20
234.5000
 30
0.0000
 11
100.0000
 21
234.5000
 31
0.0000
  0
LINE
  8
20
 10
100.0000
 20
234.5000
 30
0.0000
 11
100.0000
 21
237.0000
 31
0.0000
  0
LINE
  8
20
 10
110.0000
 20
237.0000
 30
0.0000
 11
110.0000
 21
234.5000
 31
0.0000
  0
LINE
  8
20
 10
110.0000
 20
234.5000
 30
0.0000
 11
120.0000
 21
234.5000
 31
0.0000
  0
LINE
  8
20
 10
120.0000
 20
234.5000
 30
0.0000
 11
120.0000
 21
237.0000
 31
0.0000
  0
LINE
  8
20
 10
130.0000
 20
237.0000
 30
0.0000
 11
130.0000
 21
234.5000
 31
0.0000
  0
LINE
  8
20
 10
130.0000
 20
234.5000
 30
0.0000
 11
140.0000
 21
234.5000
 31
0.0000
  0
LINE
  8
20
 10
140.0000
 20
234.5000
 30
0.0000
 11
140.0000
 21
237.0000
 31
0.0000
  0
LINE
  8
20
 10
150.0000
 20
237.0000
 30
0.0000
 11
150.0000
 21
234.5000
 31
0.0000
  0
LINE
  8
20
 10
150.0000
 20
234.5000
 30
0.0000
 11
160.0000
 21
234.5000
 31
0.0000
  0
LINE
  8
20
 10
160.0000
 20
234.5000
 30
0.0000
 11
160.0000
 21
237.0000
 31
0.0000
  0
LINE
  8
20
 10
170.0000
 20
237.0000
 30
0.0000
 11
170.0000
 21
234.5000
 31
0.0000
  0
LINE
  8
20
 10
170.0000
 20
234.5000
 30
0.0000
 11
180.0000
 21
234.5000
 31
0.0000
  0
LINE
  8
20
 10
180.0000
 20
234.5000
 30
0.0000
 11
180.0000
 21
237.0000
 31
0.0000
  0
LINE
  8
20
 10
191.0000
 20
237.0000
 30
0.0000
 11
180.0000
 21
237.0000
 31
0.0000
  0
LINE
  8
20
 10
170.0000
 20
237.0000
 30
0.0000
 11
160.0000
 21
237.0000
 31
0.0000
  0
LINE
  8
20
 10
150.0000
 20
237.0000
 30
0.0000
 11
140.0000
 21
237.0000
 31
0.0000
  0
LINE
  8
20
 10
130.0000
 20
237.0000
 30
0.0000
 11
120.0000
 21
237.0000
 31
0.0000
  0
LINE
  8
20
 10
110.0000
 20
237.0000
 30
0.0000
 11
100.0000
 21
237.0000
 31
0.0000
  0
LINE
  8
20
 10
90.0000
 20
237.0000
 30
0.0000
 11
80.0000
 21
237.0000
 31
0.0000
  0
LINE
  8
20
 10
70.0000
 20
237.0000
 30
0.0000
 11
60.0000
 21
237.0000
 31
0.0000
  0
LINE
  8
20
 10
50.0000
 20
237.0000
 30
0.0000
 11
40.0000
 21
237.0000
 31
0.0000
  0
ARC
  8
20
 10
1.0000
 20
222.1950
 30
0.0000
 40
1.0000
 50
179.7135
 51
275.7392
  0
ARC
  8
20
 10
1.1500
 20
235.8400
 30
0.0000
 40
1.1611
 50
92.4681
 51
172.0794
  0
LINE
  8
20
 10
0.0000
 20
236.0000
 30
0.0000
 11
0.0000
 21
222.2000
 31
0.0000
  0
LINE
  8
20
 10
192.0000
 20
236.0000
 30
0.0000
 11
192.0000
 21
222.1000
 31
0.0000
  0
LINE
  8
20
 10
1.1000
 20
237.0000
 30
0.0000
 11
30.0000
 21
237.0000
 31
0.0000
  0
LINE
  8
20
 10
30.0000
 20
237.0000
 30
0.0000
 11
30.0000
 21
239.5000
 31
0.0000
  0
LINE
  8
20
 10
30.0000
 20
239.5000
 30
0.0000
 11
40.0000
 21
239.5000
 31
0.0000
  0
LINE
  8
20
 10
40.0000
 20
239.5000
 30
0.0000
 11
40.0000
 21
237.0000
 31
0.0000
  0
LINE
  8
20
 10
50.0000
 20
237.0000
 30
0.0000
 11
50.0000
 21
239.5000
 31
0.0000
  0
LINE
  8
20
 10
50.0000
 20
239.5000
 30
0.0000
 11
60.0000
 21
239.5000
 31
0.0000
  0
LINE
  8
20
 10
60.0000
 20
239.5000
 30
0.0000
 11
60.0000
 21
237.0000
 31
0.0000
  0
LINE
  8
20
 10
70.0000
 20
237.0000
 30
0.0000
 11
70.0000
 21
239.5000
 31
0.0000
  0
LINE
  8
20
 10
70.0000
 20
239.5000
 30
0.0000
 11
80.0000
 21
239.5000
 31
0.0000
  0
LINE
  8
20
 10
80.0000
 20
239.5000
 30
0.0000
 11
80.0000
 21
237.0000
 31
0.0000
  0
LINE
  8
20
 10
90.0000
 20
237.0000
 30
0.0000
 11
90.0000
 21
239.5000
 31
0.0000
  0
LINE
  8
20
 10
90.0000
 20
239.5000
 30
0.0000
 11
100.0000
 21
239.5000
 31
0.0000
  0
LINE
  8
20
 10
100.0000
 20
239.5000
 30
0.0000
 11
100.0000
 21
237.0000
 31
0.0000
  0
LINE
  8
20
 10
110.0000
 20
237.0000
 30
0.0000
 11
110.0000
 21
239.5000
 31
0.0000
  0
LINE
  8
20
 10
110.0000
 20
239.5000
 30
0.0000
 11
120.0000
 21
239.5000
 31
0.0000
  0
LINE
  8
20
 10
120.0000
 20
239.5000
 30
0.0000
 11
120.0000
 21
237.0000
 31
0.0000
  0
LINE
  8
20
 10
130.0000
 20
237.0000
 30
0.0000
 11
130.0000
 21
239.5000
 31
0.0000
  0
LINE
  8
20
 10
130.0000
 20
239.5000
 30
0.0000
 11
140.0000
 21
239.5000
 31
0.0000
  0
LINE
  8
20
 10
140.0000
 20
239.5000
 30
0.0000
 11
140.0000
 21
237.0000
 31
0.0000
  0
LINE
  8
20
 10
150.0000
 20
237.0000
 30
0.0000
 11
150.0000
 21
239.5000
 31
0.0000
  0
LINE
  8
20
 10
150.0000
 20
239.5000
 30
0.0000
 11
160.0000
 21
239.5000
 31
0.0000
  0
LINE
  8
20
 10
160.0000
 20
239.5000
 30
0.0000
 11
160.0000
 21
237.0000
 31
0.0000
  0
LINE
  8
20
 10
170.0000
 20
237.0000
 30
0.0000
 11
170.0000
 21
239.5000
 31
0.0000
  0
LINE
  8
20
 10
170.0000
 20
239.5000
 30
0.0000
 11
180.0000
 21
239.5000
 31
0.0000
  0
LINE
  8
20
 10
180.0000
 20
239.5000
 30
0.0000
 11
180.0000
 21
237.0000
 31
0.0000
  0
LINE
  8
20
 10
191.0000
 20
237.0000
 30
0.0000
 11
180.0000
 21
237.0000
 31
0.0000
  0
LINE
  8
20
 10
170.0000
 20
237.0000
 30
0.0000
 11
160.0000
 21
237.0000
 31
0.0000
  0
LINE
  8
20
 10
150.0000
 20
237.0000
 30
0.0000
 11
140.0000
 21
237.0000
 31
0.0000
  0
LINE
  8
20
 10
130.0000
 20
237.0000
 30
0.0000
 11
120.0000
 21
237.0000
 31
0.0000
  0
LINE
  8
20
 10
110.0000
 20
237.0000
 30
0.0000
 11
100.0000
 21
237.0000
 31
0.0000
  0
LINE
  8
20
 10
90.0000
 20
237.0000
 30
0.0000
 11
80.0000
 21
237.0000
 31
0.0000
  0
LINE
  8
20
 10
70.0000
 20
237.0000
 30
0.0000
 11
60.0000
 21
237.0000
 31
0.0000
  0
LINE
  8
20
 10
50.0000
 20
237.0000
 30
0.0000
 11
40.0000
 21
237.0000
 31
0.0000
  0
ARC
  8
20
 10
191.0500
 20
237.9500
 30
0.0000
 40
0.9513
 50
266.9872
 51
356.9872
  0
ARC
  8
20
 10
191.0500
 20
251.8500
 30
0.0000
 40
0.9513
 50
356.9872
 51
93.0128
  0
LINE
  8
20
 10
1.1000
 20
252.8000
 30
0.0000
 11
30.0000
 21
252.8000
 31
0.0000
  0
LINE
  8
20
 10
30.0000
 20
252.8000
 30
0.0000
 11
30.0000
 21
250.3000
 31
0.0000
  0
LINE
  8
20
 10
30.0000
 20
250.3000
 30
0.0000
 11
40.0000
 21
250.3000
 31
0.0000
  0
LINE
  8
20
 10
40.0000
 20
250.3000
 30
0.0000
 11
40.0000
 21
252.8000
 31
0.0000
  0
LINE
  8
20
 10
50.0000
 20
252.8000
 30
0.0000
 11
50.0000
 21
250.3000
 31
0.0000
  0
LINE
  8
20
 10
50.0000
 20
250.3000
 30
0.0000
 11
60.0000
 21
250.3000
 31
0.0000
  0
LINE
  8
20
 10
60.0000
 20
250.3000
 30
0.0000
 11
60.0000
 21
252.8000
 31
0.0000
  0
LINE
  8
20
 10
70.0000
 20
252.8000
 30
0.0000
 11
70.0000
 21
250.3000
 31
0.0000
  0
LINE
  8
20
 10
70.0000
 20
250.3000
 30
0.0000
 11
80.0000
 21
250.3000
 31
0.0000
  0
LINE
  8
20
 10
80.0000
 20
250.3000
 30
0.0000
 11
80.0000
 21
252.8000
 31
0.0000
  0
LINE
  8
20
 10
90.0000
 20
252.8000
 30
0.0000
 11
90.0000
 21
250.3000
 31
0.0000
  0
LINE
  8
20
 10
90.0000
 20
250.3000
 30
0.0000
 11
100.0000
 21
250.3000
 31
0.0000
  0
LINE
  8
20
 10
100.0000
 20
250.3000
 30
0.0000
 11
100.0000
 21
252.8000
 31
0.0000
  0
LINE
  8
20
 10
110.0000
 20
252.8000
 30
0.0000
 11
110.0000
 21
250.3000
 31
0.0000
  0
LINE
  8
20
 10
110.0000
 20
250.3000
 30
0.0000
 11
120.0000
 21
250.3000
 31
0.0000
  0
LINE
  8
20
 10
120.0000
 20
250.3000
 30
0.0000
 11
120.0000
 21
252.8000
 31
0.0000
  0
LINE
  8
20
 10
130.0000
 20
252.8000
 30
0.0000
 11
130.0000
 21
250.3000
 31
0.0000
  0
LINE
  8
20
 10
130.0000
 20
250.3000
 30
0.0000
 11
140.0000
 21
250.3000
 31
0.0000
  0
LINE
  8
20
 10
140.0000
 20
250.3000
 30
0.0000
 11
140.0000
 21
252.8000
 31
0.0000
  0
LINE
  8
20
 10
150.0000
 20
252.8000
 30
0.0000
 11
150.0000
 21
250.3000
 31
0.0000
  0
LINE
  8
20
 10
150.0000
 20
250.3000
 30
0.0000
 11
160.0000
 21
250.3000
 31
0.0000
  0
LINE
  8
20
 10
160.0000
 20
250.3000
 30
0.0000
 11
160.0000
 21
252.8000
 31
0.0000
  0
LINE
  8
20
 10
170.0000
 20
252.8000
 30
0.0000
 11
170.0000
 21
250.3000
 31
0.0000
  0
LINE
  8
20
 10
170.0000
 20
250.3000
 30
0.0000
 11
180.0000
 21
250.3000
 31
0.0000
  0
LINE
  8
20
 10
180.0000
 20
250.3000
 30
0.0000
 11
180.0000
 21
252.8000
 31
0.0000
  0
LINE
  8
20
 10
191.0000
 20
252.8000
 30
0.0000
 11
180.0000
 21
252.8000
 31
0.0000
  0
LINE
  8
20
 10
170.0000
 20
252.8000
 30
0.0000
 11
160.0000
 21
252.8000
 31
0.0000
  0
LINE
  8
20
 10
150.0000
 20
252.8000
 30
0.0000
 11
140.0000
 21
252.8000
 31
0.0000
  0
LINE
  8
20
 10
130.0000
 20
252.8000
 30
0.0000
 11
120.0000
 21
252.8000
 31
0.0000
  0
LINE
  8
20
 10
110.0000
 20
252.8000
 30
0.0000
 11
100.0000
 21
252.8000
 31
0.0000
  0
LINE
  8
20
 10
90.0000
 20
252.8000
 30
0.0000
 11
80.0000
 21
252.8000
 31
0.0000
  0
LINE
  8
20
 10
70.0000
 20
252.8000
 30
0.0000
 11
60.0000
 21
252.8000
 31
0.0000
  0
LINE
  8
20
 10
50.0000
 20
252.8000
 30
0.0000
 11
40.0000
 21
252.8000
 31
0.0000
  0
ARC
  8
20
 10
1.0000
 20
237.9950
 30
0.0000
 40
1.0000
 50
179.7135
 51
275.7392
  0
ARC
  8
20
 10
1.1500
 20
251.6400
 30
0.0000
 40
1.1611
 50
92.4681
 51
172.0794
  0
LINE
  8
20
 10
0.0000
 20
251.8000
 30
0.0000
 11
0.0000
 21
238.0000
 31
0.0000
  0
LINE
  8
20
 10
192.0000
 20
251.8000
 30
0.0000
 11
192.0000
 21
237.9000
 31
0.0000
  0
LINE
  8
20
 10
1.1000
 20
252.8000
 30
0.0000
 11
30.0000
 21
252.8000
 31
0.0000
  0
LINE
  8
20
 10
30.0000
 20
252.8000
 30
0.0000
 11
30.0000
 21
255.3000
 31
0.0000
  0
LINE
  8
20
 10
30.0000
 20
255.3000
 30
0.0000
 11
40.0000
 21
255.3000
 31
0.0000
  0
LINE
  8
20
 10
40.0000
 20
255.3000
 30
0.0000
 11
40.0000
 21
252.8000
 31
0.0000
  0
LINE
  8
20
 10
50.0000
 20
252.8000
 30
0.0000
 11
50.0000
 21
255.3000
 31
0.0000
  0
LINE
  8
20
 10
50.0000
 20
255.3000
 30
0.0000
 11
60.0000
 21
255.3000
 31
0.0000
  0
LINE
  8
20
 10
60.0000
 20
255.3000
 30
0.0000
 11
60.0000
 21
252.8000
 31
0.0000
  0
LINE
  8
20
 10
70.0000
 20
252.8000
 30
0.0000
 11
70.0000
 21
255.3000
 31
0.0000
  0
LINE
  8
20
 10
70.0000
 20
255.3000
 30
0.0000
 11
80.0000
 21
255.3000
 31
0.0000
  0
LINE
  8
20
 10
80.0000
 20
255.3000
 30
0.0000
 11
80.0000
 21
252.8000
 31
0.0000
  0
LINE
  8
20
 10
90.0000
 20
252.8000
 30
0.0000
 11
90.0000
 21
255.3000
 31
0.0000
  0
LINE
  8
20
 10
90.0000
 20
255.3000
 30
0.0000
 11
100.0000
 21
255.3000
 31
0.0000
  0
LINE
  8
20
 10
100.0000
 20
255.3000
 30
0.0000
 11
100.0000
 21
252.8000
 31
0.0000
  0
LINE
  8
20
 10
110.0000
 20
252.8000
 30
0.0000
 11
110.0000
 21
255.3000
 31
0.0000
  0
LINE
  8
20
 10
110.0000
 20
255.3000
 30
0.0000
 11
120.0000
 21
255.3000
 31
0.0000
  0
LINE
  8
20
 10
120.0000
 20
255.3000
 30
0.0000
 11
120.0000
 21
252.8000
 31
0.0000
  0
LINE
  8
20
 10
130.0000
 20
252.8000
 30
0.0000
 11
130.0000
 21
255.3000
 31
0.0000
  0
LINE
  8
20
 10
130.0000
 20
255.3000
 30
0.0000
 11
140.0000
 21
255.3000
 31
0.0000
  0
LINE
  8
20
 10
140.0000
 20
255.3000
 30
0.0000
 11
140.0000
 21
252.8000
 31
0.0000
  0
LINE
  8
20
 10
150.0000
 20
252.8000
 30
0.0000
 11
150.0000
 21
255.3000
 31
0.0000
  0
LINE
  8
20
 10
150.0000
 20
255.3000
 30
0.0000
 11
160.0000
 21
255.3000
 31
0.0000
  0
LINE
  8
20
 10
160.0000
 20
255.3000
 30
0.0000
 11
160.0000
 21
252.8000
 31
0.0000
  0
LINE
  8
20
 10
170.0000
 20
252.8000
 30
0.0000
 11
170.0000
 21
255.3000
 31
0.0000
  0
LINE
  8
20
 10
170.0000
 20
255.3000
 30
0.0000
 11
180.0000
 21
255.3000
 31
0.0000
  0
LINE
  8
20
 10
180.0000
 20
255.3000
 30
0.0000
 11
180.0000
 21
252.8000
 31
0.0000
  0
LINE
  8
20
 10
191.0000
 20
252.8000
 30
0.0000
 11
180.0000
 21
252.8000
 31
0.0000
  0
LINE
  8
20
 10
170.0000
 20
252.8000
 30
0.0000
 11
160.0000
 21
252.8000
 31
0.0000
  0
LINE
  8
20
 10
150.0000
 20
252.8000
 30
0.0000
 11
140.0000
 21
252.8000
 31
0.0000
  0
LINE
  8
20
 10
130.0000
 20
252.8000
 30
0.0000
 11
120.0000
 21
252.8000
 31
0.0000
  0
LINE
  8
20
 10
110.0000
 20
252.8000
 30
0.0000
 11
100.0000
 21
252.8000
 31
0.0000
  0
LINE
  8
20
 10
90.0000
 20
252.8000
 30
0.0000
 11
80.0000
 21
252.8000
 31
0.0000
  0
LINE
  8
20
 10
70.0000
 20
252.8000
 30
0.0000
 11
60.0000
 21
252.8000
 31
0.0000
  0
LINE
  8
20
 10
50.0000
 20
252.8000
 30
0.0000
 11
40.0000
 21
252.8000
 31
0.0000
  0
ARC
  8
20
 10
191.0500
 20
253.7500
 30
0.0000
 40
0.9513
 50
266.9872
 51
356.9872
  0
ARC
  8
20
 10
191.0500
 20
267.6500
 30
0.0000
 40
0.9513
 50
356.9872
 51
93.0128
  0
LINE
  8
20
 10
1.1000
 20
268.6000
 30
0.0000
 11
30.0000
 21
268.6000
 31
0.0000
  0
LINE
  8
20
 10
30.0000
 20
268.6000
 30
0.0000
 11
30.0000
 21
266.1000
 31
0.0000
  0
LINE
  8
20
 10
30.0000
 20
266.1000
 30
0.0000
 11
40.0000
 21
266.1000
 31
0.0000
  0
LINE
  8
20
 10
40.0000
 20
266.1000
 30
0.0000
 11
40.0000
 21
268.6000
 31
0.0000
  0
LINE
  8
20
 10
50.0000
 20
268.6000
 30
0.0000
 11
50.0000
 21
266.1000
 31
0.0000
  0
LINE
  8
20
 10
50.0000
 20
266.1000
 30
0.0000
 11
60.0000
 21
266.1000
 31
0.0000
  0
LINE
  8
20
 10
60.0000
 20
266.1000
 30
0.0000
 11
60.0000
 21
268.6000
 31
0.0000
  0
LINE
  8
20
 10
70.0000
 20
268.6000
 30
0.0000
 11
70.0000
 21
266.1000
 31
0.0000
  0
LINE
  8
20
 10
70.0000
 20
266.1000
 30
0.0000
 11
80.0000
 21
266.1000
 31
0.0000
  0
LINE
  8
20
 10
80.0000
 20
266.1000
 30
0.0000
 11
80.0000
 21
268.6000
 31
0.0000
  0
LINE
  8
20
 10
90.0000
 20
268.6000
 30
0.0000
 11
90.0000
 21
266.1000
 31
0.0000
  0
LINE
  8
20
 10
90.0000
 20
266.1000
 30
0.0000
 11
100.0000
 21
266.1000
 31
0.0000
  0
LINE
  8
20
 10
100.0000
 20
266.1000
 30
0.0000
 11
100.0000
 21
268.6000
 31
0.0000
  0
LINE
  8
20
 10
110.0000
 20
268.6000
 30
0.0000
 11
110.0000
 21
266.1000
 31
0.0000
  0
LINE
  8
20
 10
110.0000
 20
266.1000
 30
0.0000
 11
120.0000
 21
266.1000
 31
0.0000
  0
LINE
  8
20
 10
120.0000
 20
266.1000
 30
0.0000
 11
120.0000
 21
268.6000
 31
0.0000
  0
LINE
  8
20
 10
130.0000
 20
268.6000
 30
0.0000
 11
130.0000
 21
266.1000
 31
0.0000
  0
LINE
  8
20
 10
130.0000
 20
266.1000
 30
0.0000
 11
140.0000
 21
266.1000
 31
0.0000
  0
LINE
  8
20
 10
140.0000
 20
266.1000
 30
0.0000
 11
140.0000
 21
268.6000
 31
0.0000
  0
LINE
  8
20
 10
150.0000
 20
268.6000
 30
0.0000
 11
150.0000
 21
266.1000
 31
0.0000
  0
LINE
  8
20
 10
150.0000
 20
266.1000
 30
0.0000
 11
160.0000
 21
266.1000
 31
0.0000
  0
LINE
  8
20
 10
160.0000
 20
266.1000
 30
0.0000
 11
160.0000
 21
268.6000
 31
0.0000
  0
LINE
  8
20
 10
170.0000
 20
268.6000
 30
0.0000
 11
170.0000
 21
266.1000
 31
0.0000
  0
LINE
  8
20
 10
170.0000
 20
266.1000
 30
0.0000
 11
180.0000
 21
266.1000
 31
0.0000
  0
LINE
  8
20
 10
180.0000
 20
266.1000
 30
0.0000
 11
180.0000
 21
268.6000
 31
0.0000
  0
LINE
  8
20
 10
191.0000
 20
268.6000
 30
0.0000
 11
180.0000
 21
268.6000
 31
0.0000
  0
LINE
  8
20
 10
170.0000
 20
268.6000
 30
0.0000
 11
160.0000
 21
268.6000
 31
0.0000
  0
LINE
  8
20
 10
150.0000
 20
268.6000
 30
0.0000
 11
140.0000
 21
268.6000
 31
0.0000
  0
LINE
  8
20
 10
130.0000
 20
268.6000
 30
0.0000
 11
120.0000
 21
268.6000
 31
0.0000
  0
LINE
  8
20
 10
110.0000
 20
268.6000
 30
0.0000
 11
100.0000
 21
268.6000
 31
0.0000
  0
LINE
  8
20
 10
90.0000
 20
268.6000
 30
0.0000
 11
80.0000
 21
268.6000
 31
0.0000
  0
LINE
  8
20
 10
70.0000
 20
268.6000
 30
0.0000
 11
60.0000
 21
268.6000
 31
0.0000
  0
LINE
  8
20
 10
50.0000
 20
268.6000
 30
0.0000
 11
40.0000
 21
268.6000
 31
0.0000
  0
ARC
  8
20
 10
1.0000
 20
253.7950
 30
0.0000
 40
1.0000
 50
179.7135
 51
275.7392
  0
ARC
  8
20
 10
1.1500
 20
267.4400
 30
0.0000
 40
1.1611
 50
92.4681
 51
172.0794
  0
LINE
  8
20
 10
0.0000
 20
267.6000
 30
0.0000
 11
0.0000
 21
253.8000
 31
0.0000
  0
LINE
  8
20
 10
192.0000
 20
267.6000
 30
0.0000
 11
192.0000
 21
253.7000
 31
0.0000
  0
LINE
  8
20
 10
1.1000
 20
268.6000
 30
0.0000
 11
30.0000
 21
268.6000
 31
0.0000
  0
LINE
  8
20
 10
30.0000
 20
268.6000
 30
0.0000
 11
30.0000
 21
271.1000
 31
0.0000
  0
LINE
  8
20
 10
30.0000
 20
271.1000
 30
0.0000
 11
40.0000
 21
271.1000
 31
0.0000
  0
LINE
  8
20
 10
40.0000
 20
271.1000
 30
0.0000
 11
40.0000
 21
268.6000
 31
0.0000
  0
LINE
  8
20
 10
50.0000
 20
268.6000
 30
0.0000
 11
50.0000
 21
271.1000
 31
0.0000
  0
LINE
  8
20
 10
50.0000
 20
271.1000
 30
0.0000
 11
60.0000
 21
271.1000
 31
0.0000
  0
LINE
  8
20
 10
60.0000
 20
271.1000
 30
0.0000
 11
60.0000
 21
268.6000
 31
0.0000
  0
LINE
  8
20
 10
70.0000
 20
268.6000
 30
0.0000
 11
70.0000
 21
271.1000
 31
0.0000
  0
LINE
  8
20
 10
70.0000
 20
271.1000
 30
0.0000
 11
80.0000
 21
271.1000
 31
0.0000
  0
LINE
  8
20
 10
80.0000
 20
271.1000
 30
0.0000
 11
80.0000
 21
268.6000
 31
0.0000
  0
LINE
  8
20
 10
90.0000
 20
268.6000
 30
0.0000
 11
90.0000
 21
271.1000
 31
0.0000
  0
LINE
  8
20
 10
90.0000
 20
271.1000
 30
0.0000
 11
100.0000
 21
271.1000
 31
0.0000
  0
LINE
  8
20
 10
100.0000
 20
271.1000
 30
0.0000
 11
100.0000
 21
268.6000
 31
0.0000
  0
LINE
  8
20
 10
110.0000
 20
268.6000
 30
0.0000
 11
110.0000
 21
271.1000
 31
0.0000
  0
LINE
  8
20
 10
110.0000
 20
271.1000
 30
0.0000
 11
120.0000
 21
271.1000
 31
0.0000
  0
LINE
  8
20
 10
120.0000
 20
271.1000
 30
0.0000
 11
120.0000
 21
268.6000
 31
0.0000
  0
LINE
  8
20
 10
130.0000
 20
268.6000
 30
0.0000
 11
130.0000
 21
271.1000
 31
0.0000
  0
LINE
  8
20
 10
130.0000
 20
271.1000
 30
0.0000
 11
140.0000
 21
271.1000
 31
0.0000
  0
LINE
  8
20
 10
140.0000
 20
271.1000
 30
0.0000
 11
140.0000
 21
268.6000
 31
0.0000
  0
LINE
  8
20
 10
150.0000
 20
268.6000
 30
0.0000
 11
150.0000
 21
271.1000
 31
0.0000
  0
LINE
  8
20
 10
150.0000
 20
271.1000
 30
0.0000
 11
160.0000
 21
271.1000
 31
0.0000
  0
LINE
  8
20
 10
160.0000
 20
271.1000
 30
0.0000
 11
160.0000
 21
268.6000
 31
0.0000
  0
LINE
  8
20
 10
170.0000
 20
268.6000
 30
0.0000
 11
170.0000
 21
271.1000
 31
0.0000
  0
LINE
  8
20
 10
170.0000
 20
271.1000
 30
0.0000
 11
180.0000
 21
271.1000
 31
0.0000
  0
LINE
  8
20
 10
180.0000
 20
271.1000
 30
0.0000
 11
180.0000
 21
268.6000
 31
0.0000
  0
LINE
  8
20
 10
191.0000
 20
268.6000
 30
0.0000
 11
180.0000
 21
268.6000
 31
0.0000
  0
LINE
  8
20
 10
170.0000
 20
268.6000
 30
0.0000
 11
160.0000
 21
268.6000
 31
0.0000
  0
LINE
  8
20
 10
150.0000
 20
268.6000
 30
0.0000
 11
140.0000
 21
268.6000
 31
0.0000
  0
LINE
  8
20
 10
130.0000
 20
268.6000
 30
0.0000
 11
120.0000
 21
268.6000
 31
0.0000
  0
LINE
  8
20
 10
110.0000
 20
268.6000
 30
0.0000
 11
100.0000
 21
268.6000
 31
0.0000
  0
LINE
  8
20
 10
90.0000
 20
268.6000
 30
0.0000
 11
80.0000
 21
268.6000
 31
0.0000
  0
LINE
  8
20
 10
70.0000
 20
268.6000
 30
0.0000
 11
60.0000
 21
268.6000
 31
0.0000
  0
LINE
  8
20
 10
50.0000
 20
268.6000
 30
0.0000
 11
40.0000
 21
268.6000
 31
0.0000
  0
ARC
  8
20
 10
191.0500
 20
269.5500
 30
0.0000
 40
0.9513
 50
266.9872
 51
356.9872
  0
ARC
  8
20
 10
191.0500
 20
283.4500
 30
0.0000
 40
0.9513
 50
356.9872
 51
93.0128
  0
LINE
  8
20
 10
1.1000
 20
284.4000
 30
0.0000
 11
30.0000
 21
284.4000
 31
0.0000
  0
LINE
  8
20
 10
30.0000
 20
284.4000
 30
0.0000
 11
30.0000
 21
281.9000
 31
0.0000
  0
LINE
  8
20
 10
30.0000
 20
281.9000
 30
0.0000
 11
40.0000
 21
281.9000
 31
0.0000
  0
LINE
  8
20
 10
40.0000
 20
281.9000
 30
0.0000
 11
40.0000
 21
284.4000
 31
0.0000
  0
LINE
  8
20
 10
50.0000
 20
284.4000
 30
0.0000
 11
50.0000
 21
281.9000
 31
0.0000
  0
LINE
  8
20
 10
50.0000
 20
281.9000
 30
0.0000
 11
60.0000
 21
281.9000
 31
0.0000
  0
LINE
  8
20
 10
60.0000
 20
281.9000
 30
0.0000
 11
60.0000
 21
284.4000
 31
0.0000
  0
LINE
  8
20
 10
70.0000
 20
284.4000
 30
0.0000
 11
70.0000
 21
281.9000
 31
0.0000
  0
LINE
  8
20
 10
70.0000
 20
281.9000
 30
0.0000
 11
80.0000
 21
281.9000
 31
0.0000
  0
LINE
  8
20
 10
80.0000
 20
281.9000
 30
0.0000
 11
80.0000
 21
284.4000
 31
0.0000
  0
LINE
  8
20
 10
90.0000
 20
284.4000
 30
0.0000
 11
90.0000
 21
281.9000
 31
0.0000
  0
LINE
  8
20
 10
90.0000
 20
281.9000
 30
0.0000
 11
100.0000
 21
281.9000
 31
0.0000
  0
LINE
  8
20
 10
100.0000
 20
281.9000
 30
0.0000
 11
100.0000
 21
284.4000
 31
0.0000
  0
LINE
  8
20
 10
110.0000
 20
284.4000
 30
0.0000
 11
110.0000
 21
281.9000
 31
0.0000
  0
LINE
  8
20
 10
110.0000
 20
281.9000
 30
0.0000
 11
120.0000
 21
281.9000
 31
0.0000
  0
LINE
  8
20
 10
120.0000
 20
281.9000
 30
0.0000
 11
120.0000
 21
284.4000
 31
0.0000
  0
LINE
  8
20
 10
130.0000
 20
284.4000
 30
0.0000
 11
130.0000
 21
281.9000
 31
0.0000
  0
LINE
  8
20
 10
130.0000
 20
281.9000
 30
0.0000
 11
140.0000
 21
281.9000
 31
0.0000
  0
LINE
  8
20
 10
140.0000
 20
281.9000
 30
0.0000
 11
140.0000
 21
284.4000
 31
0.0000
  0
LINE
  8
20
 10
150.0000
 20
284.4000
 30
0.0000
 11
150.0000
 21
281.9000
 31
0.0000
  0
LINE
  8
20
 10
150.0000
 20
281.9000
 30
0.0000
 11
160.0000
 21
281.9000
 31
0.0000
  0
LINE
  8
20
 10
160.0000
 20
281.9000
 30
0.0000
 11
160.0000
 21
284.4000
 31
0.0000
  0
LINE
  8
20
 10
170.0000
 20
284.4000
 30
0.0000
 11
170.0000
 21
281.9000
 31
0.0000
  0
LINE
  8
20
 10
170.0000
 20
281.9000
 30
0.0000
 11
180.0000
 21
281.9000
 31
0.0000
  0
LINE
  8
20
 10
180.0000
 20
281.9000
 30
0.0000
 11
180.0000
 21
284.4000
 31
0.0000
  0
LINE
  8
20
 10
191.0000
 20
284.4000
 30
0.0000
 11
180.0000
 21
284.4000
 31
0.0000
  0
LINE
  8
20
 10
170.0000
 20
284.4000
 30
0.0000
 11
160.0000
 21
284.4000
 31
0.0000
  0
LINE
  8
20
 10
150.0000
 20
284.4000
 30
0.0000
 11
140.0000
 21
284.4000
 31
0.0000
  0
LINE
  8
20
 10
130.0000
 20
284.4000
 30
0.0000
 11
120.0000
 21
284.4000
 31
0.0000
  0
LINE
  8
20
 10
110.0000
 20
284.4000
 30
0.0000
 11
100.0000
 21
284.4000
 31
0.0000
  0
LINE
  8
20
 10
90.0000
 20
284.4000
 30
0.0000
 11
80.0000
 21
284.4000
 31
0.0000
  0
LINE
  8
20
 10
70.0000
 20
284.4000
 30
0.0000
 11
60.0000
 21
284.4000
 31
0.0000
  0
LINE
  8
20
 10
50.0000
 20
284.4000
 30
0.0000
 11
40.0000
 21
284.4000
 31
0.0000
  0
ARC
  8
20
 10
1.0000
 20
269.5950
 30
0.0000
 40
1.0000
 50
179.7135
 51
275.7392
  0
ARC
  8
20
 10
1.1500
 20
283.2400
 30
0.0000
 40
1.1611
 50
92.4681
 51
172.0794
  0
LINE
  8
20
 10
0.0000
 20
283.4000
 30
0.0000
 11
0.0000
 21
269.6000
 31
0.0000
  0
LINE
  8
20
 10
192.0000
 20
283.4000
 30
0.0000
 11
192.0000
 21
269.5000
 31
0.0000
  0
LINE
  8
20
 10
1.1000
 20
284.4000
 30
0.0000
 11
30.0000
 21
284.4000
 31
0.0000
  0
LINE
  8
20
 10
30.0000
 20
284.4000
 30
0.0000
 11
30.0000
 21
286.9000
 31
0.0000
  0
LINE
  8
20
 10
30.0000
 20
286.9000
 30
0.0000
 11
40.0000
 21
286.9000
 31
0.0000
  0
LINE
  8
20
 10
40.0000
 20
286.9000
 30
0.0000
 11
40.0000
 21
284.4000
 31
0.0000
  0
LINE
  8
20
 10
50.0000
 20
284.4000
 30
0.0000
 11
50.0000
 21
286.9000
 31
0.0000
  0
LINE
  8
20
 10
50.0000
 20
286.9000
 30
0.0000
 11
60.0000
 21
286.9000
 31
0.0000
  0
LINE
  8
20
 10
60.0000
 20
286.9000
 30
0.0000
 11
60.0000
 21
284.4000
 31
0.0000
  0
LINE
  8
20
 10
70.0000
 20
284.4000
 30
0.0000
 11
70.0000
 21
286.9000
 31
0.0000
  0
LINE
  8
20
 10
70.0000
 20
286.9000
 30
0.0000
 11
80.0000
 21
286.9000
 31
0.0000
  0
LINE
  8
20
 10
80.0000
 20
286.9000
 30
0.0000
 11
80.0000
 21
284.4000
 31
0.0000
  0
LINE
  8
20
 10
90.0000
 20
284.4000
 30
0.0000
 11
90.0000
 21
286.9000
 31
0.0000
  0
LINE
  8
20
 10
90.0000
 20
286.9000
 30
0.0000
 11
100.0000
 21
286.9000
 31
0.0000
  0
LINE
  8
20
 10
100.0000
 20
286.9000
 30
0.0000
 11
100.0000
 21
284.4000
 31
0.0000
  0
LINE
  8
20
 10
110.0000
 20
284.4000
 30
0.0000
 11
110.0000
 21
286.9000
 31
0.0000
  0
LINE
  8
20
 10
110.0000
 20
286.9000
 30
0.0000
 11
120.0000
 21
286.9000
 31
0.0000
  0
LINE
  8
20
 10
120.0000
 20
286.9000
 30
0.0000
 11
120.0000
 21
284.4000
 31
0.0000
  0
LINE
  8
20
 10
130.0000
 20
284.4000
 30
0.0000
 11
130.0000
 21
286.9000
 31
0.0000
  0
LINE
  8
20
 10
130.0000
 20
286.9000
 30
0.0000
 11
140.0000
 21
286.9000
 31
0.0000
  0
LINE
  8
20
 10
140.0000
 20
286.9000
 30
0.0000
 11
140.0000
 21
284.4000
 31
0.0000
  0
LINE
  8
20
 10
150.0000
 20
284.4000
 30
0.0000
 11
150.0000
 21
286.9000
 31
0.0000
  0
LINE
  8
20
 10
150.0000
 20
286.9000
 30
0.0000
 11
160.0000
 21
286.9000
 31
0.0000
  0
LINE
  8
20
 10
160.0000
 20
286.9000
 30
0.0000
 11
160.0000
 21
284.4000
 31
0.0000
  0
LINE
  8
20
 10
170.0000
 20
284.4000
 30
0.0000
 11
170.0000
 21
286.9000
 31
0.0000
  0
LINE
  8
20
 10
170.0000
 20
286.9000
 30
0.0000
 11
180.0000
 21
286.9000
 31
0.0000
  0
LINE
  8
20
 10
180.0000
 20
286.9000
 30
0.0000
 11
180.0000
 21
284.4000
 31
0.0000
  0
LINE
  8
20
 10
191.0000
 20
284.4000
 30
0.0000
 11
180.0000
 21
284.4000
 31
0.0000
  0
LINE
  8
20
 10
170.0000
 20
284.4000
 30
0.0000
 11
160.0000
 21
284.4000
 31
0.0000
  0
LINE
  8
20
 10
150.0000
 20
284.4000
 30
0.0000
 11
140.0000
 21
284.4000
 31
0.0000
  0
LINE
  8
20
 10
130.0000
 20
284.4000
 30
0.0000
 11
120.0000
 21
284.4000
 31
0.0000
  0
LINE
  8
20
 10
110.0000
 20
284.4000
 30
0.0000
 11
100.0000
 21
284.4000
 31
0.0000
  0
LINE
  8
20
 10
90.0000
 20
284.4000
 30
0.0000
 11
80.0000
 21
284.4000
 31
0.0000
  0
LINE
  8
20
 10
70.0000
 20
284.4000
 30
0.0000
 11
60.0000
 21
284.4000
 31
0.0000
  0
LINE
  8
20
 10
50.0000
 20
284.4000
 30
0.0000
 11
40.0000
 21
284.4000
 31
0.0000
  0
ARC
  8
20
 10
191.0500
 20
285.3500
 30
0.0000
 40
0.9513
 50
266.9872
 51
356.9872
  0
ARC
  8
20
 10
191.0500
 20
299.2500
 30
0.0000
 40
0.9513
 50
356.9872
 51
93.0128
  0
LINE
  8
20
 10
1.1000
 20
300.2000
 30
0.0000
 11
30.0000
 21
300.2000
 31
0.0000
  0
LINE
  8
20
 10
30.0000
 20
300.2000
 30
0.0000
 11
30.0000
 21
297.7000
 31
0.0000
  0
LINE
  8
20
 10
30.0000
 20
297.7000
 30
0.0000
 11
40.0000
 21
297.7000
 31
0.0000
  0
LINE
  8
20
 10
40.0000
 20
297.7000
 30
0.0000
 11
40.0000
 21
300.2000
 31
0.0000
  0
LINE
  8
20
 10
50.0000
 20
300.2000
 30
0.0000
 11
50.0000
 21
297.7000
 31
0.0000
  0
LINE
  8
20
 10
50.0000
 20
297.7000
 30
0.0000
 11
60.0000
 21
297.7000
 31
0.0000
  0
LINE
  8
20
 10
60.0000
 20
297.7000
 30
0.0000
 11
60.0000
 21
300.2000
 31
0.0000
  0
LINE
  8
20
 10
70.0000
 20
300.2000
 30
0.0000
 11
70.0000
 21
297.7000
 31
0.0000
  0
LINE
  8
20
 10
70.0000
 20
297.7000
 30
0.0000
 11
80.0000
 21
297.7000
 31
0.0000
  0
LINE
  8
20
 10
80.0000
 20
297.7000
 30
0.0000
 11
80.0000
 21
300.2000
 31
0.0000
  0
LINE
  8
20
 10
90.0000
 20
300.2000
 30
0.0000
 11
90.0000
 21
297.7000
 31
0.0000
  0
LINE
  8
20
 10
90.0000
 20
297.7000
 30
0.0000
 11
100.0000
 21
297.7000
 31
0.0000
  0
LINE
  8
20
 10
100.0000
 20
297.7000
 30
0.0000
 11
100.0000
 21
300.2000
 31
0.0000
  0
LINE
  8
20
 10
110.0000
 20
300.2000
 30
0.0000
 11
110.0000
 21
297.7000
 31
0.0000
  0
LINE
  8
20
 10
110.0000
 20
297.7000
 30
0.0000
 11
120.0000
 21
297.7000
 31
0.0000
  0
LINE
  8
20
 10
120.0000
 20
297.7000
 30
0.0000
 11
120.0000
 21
300.2000
 31
0.0000
  0
LINE
  8
20
 10
130.0000
 20
300.2000
 30
0.0000
 11
130.0000
 21
297.7000
 31
0.0000
  0
LINE
  8
20
 10
130.0000
 20
297.7000
 30
0.0000
 11
140.0000
 21
297.7000
 31
0.0000
  0
LINE
  8
20
 10
140.0000
 20
297.7000
 30
0.0000
 11
140.0000
 21
300.2000
 31
0.0000
  0
LINE
  8
20
 10
150.0000
 20
300.2000
 30
0.0000
 11
150.0000
 21
297.7000
 31
0.0000
  0
LINE
  8
20
 10
150.0000
 20
297.7000
 30
0.0000
 11
160.0000
 21
297.7000
 31
0.0000
  0
LINE
  8
20
 10
160.0000
 20
297.7000
 30
0.0000
 11
160.0000
 21
300.2000
 31
0.0000
  0
LINE
  8
20
 10
170.0000
 20
300.2000
 30
0.0000
 11
170.0000
 21
297.7000
 31
0.0000
  0
LINE
  8
20
 10
170.0000
 20
297.7000
 30
0.0000
 11
180.0000
 21
297.7000
 31
0.0000
  0
LINE
  8
20
 10
180.0000
 20
297.7000
 30
0.0000
 11
180.0000
 21
300.2000
 31
0.0000
  0
LINE
  8
20
 10
191.0000
 20
300.2000
 30
0.0000
 11
180.0000
 21
300.2000
 31
0.0000
  0
LINE
  8
20
 10
170.0000
 20
300.2000
 30
0.0000
 11
160.0000
 21
300.2000
 31
0.0000
  0
LINE
  8
20
 10
150.0000
 20
300.2000
 30
0.0000
 11
140.0000
 21
300.2000
 31
0.0000
  0
LINE
  8
20
 10
130.0000
 20
300.2000
 30
0.0000
 11
120.0000
 21
300.2000
 31
0.0000
  0
LINE
  8
20
 10
110.0000
 20
300.2000
 30
0.0000
 11
100.0000
 21
300.2000
 31
0.0000
  0
LINE
  8
20
 10
90.0000
 20
300.2000
 30
0.0000
 11
80.0000
 21
300.2000
 31
0.0000
  0
LINE
  8
20
 10
70.0000
 20
300.2000
 30
0.0000
 11
60.0000
 21
300.2000
 31
0.0000
  0
LINE
  8
20
 10
50.0000
 20
300.2000
 30
0.0000
 11
40.0000
 21
300.2000
 31
0.0000
  0
ARC
  8
20
 10
1.0000
 20
285.3950
 30
0.0000
 40
1.0000
 50
179.7135
 51
275.7392
  0
ARC
  8
20
 10
1.1500
 20
299.0400
 30
0.0000
 40
1.1611
 50
92.4681
 51
172.0794
  0
LINE
  8
20
 10
0.0000
 20
299.2000
 30
0.0000
 11
0.0000
 21
285.4000
 31
0.0000
  0
LINE
  8
20
 10
192.0000
 20
299.2000
 30
0.0000
 11
192.0000
 21
285.3000
 31
0.0000
  0
LINE
  8
20
 10
1.1000
 20
300.2000
 30
0.0000
 11
30.0000
 21
300.2000
 31
0.0000
  0
LINE
  8
20
 10
191.0000
 20
300.2000
 30
0.0000
 11
180.0000
 21
300.2000
 31
0.0000
  0
LINE
  8
20
 10
170.0000
 20
300.2000
 30
0.0000
 11
160.0000
 21
300.2000
 31
0.0000
  0
LINE
  8
20
 10
150.0000
 20
300.2000
 30
0.0000
 11
140.0000
 21
300.2000
 31
0.0000
  0
LINE
  8
20
 10
130.0000
 20
300.2000
 30
0.0000
 11
120.0000
 21
300.2000
 31
0.0000
  0
LINE
  8
20
 10
110.0000
 20
300.2000
 30
0.0000
 11
100.0000
 21
300.2000
 31
0.0000
  0
LINE
  8
20
 10
90.0000
 20
300.2000
 30
0.0000
 11
80.0000
 21
300.2000
 31
0.0000
  0
LINE
  8
20
 10
70.0000
 20
300.2000
 30
0.0000
 11
60.0000
 21
300.2000
 31
0.0000
  0
LINE
  8
20
 10
50.0000
 20
300.2000
 30
0.0000
 11
40.0000
 21
300.2000
 31
0.0000
  0
LINE
  8
20
 10
192.0000
 20
299.1000
 30
0.0000
 11
192.0000
 21
270.2000
 31
0.0000
  0
LINE
  8
20
 10
192.0000
 20
270.2000
 30
0.0000
 11
194.5000
 21
270.2000
 31
0.0000
  0
LINE
  8
20
 10
194.5000
 20
270.2000
 30
0.0000
 11
194.5000
 21
260.2000
 31
0.0000
  0
LINE
  8
20
 10
194.5000
 20
260.2000
 30
0.0000
 11
192.0000
 21
260.2000
 31
0.0000
  0
LINE
  8
20
 10
192.0000
 20
250.2000
 30
0.0000
 11
194.5000
 21
250.2000
 31
0.0000
  0
LINE
  8
20
 10
194.5000
 20
250.2000
 30
0.0000
 11
194.5000
 21
240.2000
 31
0.0000
  0
LINE
  8
20
 10
194.5000
 20
240.2000
 30
0.0000
 11
192.0000
 21
240.2000
 31
0.0000
  0
LINE
  8
20
 10
192.0000
 20
230.2000
 30
0.0000
 11
194.5000
 21
230.2000
 31
0.0000
  0
LINE
  8
20
 10
194.5000
 20
230.2000
 30
0.0000
 11
194.5000
 21
220.2000
 31
0.0000
  0
LINE
  8
20
 10
194.5000
 20
220.2000
 30
0.0000
 11
192.0000
 21
220.2000
 31
0.0000
  0
LINE
  8
20
 10
192.0000
 20
210.2000
 30
0.0000
 11
194.5000
 21
210.2000
 31
0.0000
  0
LINE
  8
20
 10
194.5000
 20
210.2000
 30
0.0000
 11
194.5000
 21
200.2000
 31
0.0000
  0
LINE
  8
20
 10
194.5000
 20
200.2000
 30
0.0000
 11
192.0000
 21
200.2000
 31
0.0000
  0
LINE
  8
20
 10
192.0000
 20
190.2000
 30
0.0000
 11
194.5000
 21
190.2000
 31
0.0000
  0
LINE
  8
20
 10
194.5000
 20
190.2000
 30
0.0000
 11
194.5000
 21
180.2000
 31
0.0000
  0
LINE
  8
20
 10
194.5000
 20
180.2000
 30
0.0000
 11
192.0000
 21
180.2000
 31
0.0000
  0
LINE
  8
20
 10
192.0000
 20
170.2000
 30
0.0000
 11
194.5000
 21
170.2000
 31
0.0000
  0
LINE
  8
20
 10
194.5000
 20
170.2000
 30
0.0000
 11
194.5000
 21
160.2000
 31
0.0000
  0
LINE
  8
20
 10
194.5000
 20
160.2000
 30
0.0000
 11
192.0000
 21
160.2000
 31
0.0000
  0
LINE
  8
20
 10
192.0000
 20
150.2000
 30
0.0000
 11
194.5000
 21
150.2000
 31
0.0000
  0
LINE
  8
20
 10
194.5000
 20
150.2000
 30
0.0000
 11
194.5000
 21
140.2000
 31
0.0000
  0
LINE
  8
20
 10
194.5000
 20
140.2000
 30
0.0000
 11
192.0000
 21
140.2000
 31
0.0000
  0
LINE
  8
20
 10
192.0000
 20
130.2000
 30
0.0000
 11
194.5000
 21
130.2000
 31
0.0000
  0
LINE
  8
20
 10
194.5000
 20
130.2000
 30
0.0000
 11
194.5000
 21
120.2000
 31
0.0000
  0
LINE
  8
20
 10
194.5000
 20
120.2000
 30
0.0000
 11
192.0000
 21
120.2000
 31
0.0000
  0
LINE
  8
20
 10
192.0000
 20
109.2000
 30
0.0000
 11
192.0000
 21
120.2000
 31
0.0000
  0
LINE
  8
20
 10
192.0000
 20
130.2000
 30
0.0000
 11
192.0000
 21
140.2000
 31
0.0000
  0
LINE
  8
20
 10
192.0000
 20
150.2000
 30
0.0000
 11
192.0000
 21
160.2000
 31
0.0000
  0
LINE
  8
20
 10
192.0000
 20
170.2000
 30
0.0000
 11
192.0000
 21
180.2000
 31
0.0000
  0
LINE
  8
20
 10
192.0000
 20
190.2000
 30
0.0000
 11
192.0000
 21
200.2000
 31
0.0000
  0
LINE
  8
20
 10
192.0000
 20
210.2000
 30
0.0000
 11
192.0000
 21
220.2000
 31
0.0000
  0
LINE
  8
20
 10
192.0000
 20
230.2000
 30
0.0000
 11
192.0000
 21
240.2000
 31
0.0000
  0
LINE
  8
20
 10
192.0000
 20
250.2000
 30
0.0000
 11
192.0000
 21
260.2000
 31
0.0000
  0
ARC
  8
20
 10
192.9500
 20
109.1500
 30
0.0000
 40
0.9513
 50
176.9872
 51
266.9872
  0
ARC
  8
20
 10
206.8500
 20
109.1500
 30
0.0000
 40
0.9513
 50
266.9872
 51
3.0128
  0
LINE
  8
20
 10
207.8000
 20
299.1000
 30
0.0000
 11
207.8000
 21
270.2000
 31
0.0000
  0
LINE
  8
20
 10
207.8000
 20
270.2000
 30
0.0000
 11
205.3000
 21
270.2000
 31
0.0000
  0
LINE
  8
20
 10
205.3000
 20
270.2000
 30
0.0000
 11
205.3000
 21
260.2000
 31
0.0000
  0
LINE
  8
20
 10
205.3000
 20
260.2000
 30
0.0000
 11
207.8000
 21
260.2000
 31
0.0000
  0
LINE
  8
20
 10
207.8000
 20
250.2000
 30
0.0000
 11
205.3000
 21
250.2000
 31
0.0000
  0
LINE
  8
20
 10
205.3000
 20
250.2000
 30
0.0000
 11
205.3000
 21
240.2000
 31
0.0000
  0
LINE
  8
20
 10
205.3000
 20
240.2000
 30
0.0000
 11
207.8000
 21
240.2000
 31
0.0000
  0
LINE
  8
20
 10
207.8000
 20
230.2000
 30
0.0000
 11
205.3000
 21
230.2000
 31
0.0000
  0
LINE
  8
20
 10
205.3000
 20
230.2000
 30
0.0000
 11
205.3000
 21
220.2000
 31
0.0000
  0
LINE
  8
20
 10
205.3000
 20
220.2000
 30
0.0000
 11
207.8000
 21
220.2000
 31
0.0000
  0
LINE
  8
20
 10
207.8000
 20
210.2000
 30
0.0000
 11
205.3000
 21
210.2000
 31
0.0000
  0
LINE
  8
20
 10
205.3000
 20
210.2000
 30
0.0000
 11
205.3000
 21
200.2000
 31
0.0000
  0
LINE
  8
20
 10
205.3000
 20
200.2000
 30
0.0000
 11
207.8000
 21
200.2000
 31
0.0000
  0
LINE
  8
20
 10
207.8000
 20
190.2000
 30
0.0000
 11
205.3000
 21
190.2000
 31
0.0000
  0
LINE
  8
20
 10
205.3000
 20
190.2000
 30
0.0000
 11
205.3000
 21
180.2000
 31
0.0000
  0
LINE
  8
20
 10
205.3000
 20
180.2000
 30
0.0000
 11
207.8000
 21
180.2000
 31
0.0000
  0
LINE
  8
20
 10
207.8000
 20
170.2000
 30
0.0000
 11
205.3000
 21
170.2000
 31
0.0000
  0
LINE
  8
20
 10
205.3000
 20
170.2000
 30
0.0000
 11
205.3000
 21
160.2000
 31
0.0000
  0
LINE
  8
20
 10
205.3000
 20
160.2000
 30
0.0000
 11
207.8000
 21
160.2000
 31
0.0000
  0
LINE
  8
20
 10
207.8000
 20
150.2000
 30
0.0000
 11
205.3000
 21
150.2000
 31
0.0000
  0
LINE
  8
20
 10
205.3000
 20
150.2000
 30
0.0000
 11
205.3000
 21
140.2000
 31
0.0000
  0
LINE
  8
20
 10
205.3000
 20
140.2000
 30
0.0000
 11
207.8000
 21
140.2000
 31
0.0000
  0
LINE
  8
20
 10
207.8000
 20
130.2000
 30
0.0000
 11
205.3000
 21
130.2000
 31
0.0000
  0
LINE
  8
20
 10
205.3000
 20
130.2000
 30
0.0000
 11
205.3000
 21
120.2000
 31
0.0000
  0
LINE
  8
20
 10
205.3000
 20
120.2000
 30
0.0000
 11
207.8000
 21
120.2000
 31
0.0000
  0
LINE
  8
20
 10
207.8000
 20
109.2000
 30
0.0000
 11
207.8000
 21
120.2000
 31
0.0000
  0
LINE
  8
20
 10
207.8000
 20
130.2000
 30
0.0000
 11
207.8000
 21
140.2000
 31
0.0000
  0
LINE
  8
20
 10
207.8000
 20
150.2000
 30
0.0000
 11
207.8000
 21
160.2000
 31
0.0000
  0
LINE
  8
20
 10
207.8000
 20
170.2000
 30
0.0000
 11
207.8000
 21
180.2000
 31
0.0000
  0
LINE
  8
20
 10
207.8000
 20
190.2000
 30
0.0000
 11
207.8000
 21
200.2000
 31
0.0000
  0
LINE
  8
20
 10
207.8000
 20
210.2000
 30
0.0000
 11
207.8000
 21
220.2000
 31
0.0000
  0
LINE
  8
20
 10
207.8000
 20
230.2000
 30
0.0000
 11
207.8000
 21
240.2000
 31
0.0000
  0
LINE
  8
20
 10
207.8000
 20
250.2000
 30
0.0000
 11
207.8000
 21
260.2000
 31
0.0000
  0
ARC
  8
20
 10
192.9950
 20
299.2000
 30
0.0000
 40
1.0000
 50
89.7135
 51
185.7392
  0
ARC
  8
20
 10
206.6400
 20
299.0500
 30
0.0000
 40
1.1611
 50
2.4681
 51
82.0794
  0
LINE
  8
20
 10
206.8000
 20
300.2000
 30
0.0000
 11
193.0000
 21
300.2000
 31
0.0000
  0
LINE
  8
20
 10
206.8000
 20
108.2000
 30
0.0000
 11
192.9000
 21
108.2000
 31
0.0000
  0
LINE
  8
20
 10
207.8000
 20
299.1000
 30
0.0000
 11
207.8000
 21
270.2000
 31
0.0000
  0
LINE
  8
20
 10
207.8000
 20
270.2000
 30
0.0000
 11
210.3000
 21
270.2000
 31
0.0000
  0
LINE
  8
20
 10
210.3000
 20
270.2000
 30
0.0000
 11
210.3000
 21
260.2000
 31
0.0000
  0
LINE
  8
20
 10
210.3000
 20
260.2000
 30
0.0000
 11
207.8000
 21
260.2000
 31
0.0000
  0
LINE
  8
20
 10
207.8000
 20
250.2000
 30
0.0000
 11
210.3000
 21
250.2000
 31
0.0000
  0
LINE
  8
20
 10
210.3000
 20
250.2000
 30
0.0000
 11
210.3000
 21
240.2000
 31
0.0000
  0
LINE
  8
20
 10
210.3000
 20
240.2000
 30
0.0000
 11
207.8000
 21
240.2000
 31
0.0000
  0
LINE
  8
20
 10
207.8000
 20
230.2000
 30
0.0000
 11
210.3000
 21
230.2000
 31
0.0000
  0
LINE
  8
20
 10
210.3000
 20
230.2000
 30
0.0000
 11
210.3000
 21
220.2000
 31
0.0000
  0
LINE
  8
20
 10
210.3000
 20
220.2000
 30
0.0000
 11
207.8000
 21
220.2000
 31
0.0000
  0
LINE
  8
20
 10
207.8000
 20
210.2000
 30
0.0000
 11
210.3000
 21
210.2000
 31
0.0000
  0
LINE
  8
20
 10
210.3000
 20
210.2000
 30
0.0000
 11
210.3000
 21
200.2000
 31
0.0000
  0
LINE
  8
20
 10
210.3000
 20
200.2000
 30
0.0000
 11
207.8000
 21
200.2000
 31
0.0000
  0
LINE
  8
20
 10
207.8000
 20
190.2000
 30
0.0000
 11
210.3000
 21
190.2000
 31
0.0000
  0
LINE
  8
20
 10
210.3000
 20
190.2000
 30
0.0000
 11
210.3000
 21
180.2000
 31
0.0000
  0
LINE
  8
20
 10
210.3000
 20
180.2000
 30
0.0000
 11
207.8000
 21
180.2000
 31
0.0000
  0
LINE
  8
20
 10
207.8000
 20
170.2000
 30
0.0000
 11
210.3000
 21
170.2000
 31
0.0000
  0
LINE
  8
20
 10
210.3000
 20
170.2000
 30
0.0000
 11
210.3000
 21
160.2000
 31
0.0000
  0
LINE
  8
20
 10
210.3000
 20
160.2000
 30
0.0000
 11
207.8000
 21
160.2000
 31
0.0000
  0
LINE
  8
20
 10
207.8000
 20
150.2000
 30
0.0000
 11
210.3000
 21
150.2000
 31
0.0000
  0
LINE
  8
20
 10
210.3000
 20
150.2000
 30
0.0000
 11
210.3000
 21
140.2000
 31
0.0000
  0
LINE
  8
20
 10
210.3000
 20
140.2000
 30
0.0000
 11
207.8000
 21
140.2000
 31
0.0000
  0
LINE
  8
20
 10
207.8000
 20
130.2000
 30
0.0000
 11
210.3000
 21
130.2000
 31
0.0000
  0
LINE
  8
20
 10
210.3000
 20
130.2000
 30
0.0000
 11
210.3000
 21
120.2000
 31
0.0000
  0
LINE
  8
20
 10
210.3000
 20
120.2000
 30
0.0000
 11
207.8000
 21
120.2000
 31
0.0000
  0
LINE
  8
20
 10
207.8000
 20
109.2000
 30
0.0000
 11
207.8000
 21
120.2000
 31
0.0000
  0
LINE
  8
20
 10
207.8000
 20
130.2000
 30
0.0000
 11
207.8000
 21
140.2000
 31
0.0000
  0
LINE
  8
20
 10
207.8000
 20
150.2000
 30
0.0000
 11
207.8000
 21
160.2000
 31
0.0000
  0
LINE
  8
20
 10
207.8000
 20
170.2000
 30
0.0000
 11
207.8000
 21
180.2000
 31
0.0000
  0
LINE
  8
20
 10
207.8000
 20
190.2000
 30
0.0000
 11
207.8000
 21
200.2000
 31
0.0000
  0
LINE
  8
20
 10
207.8000
 20
210.2000
 30
0.0000
 11
207.8000
 21
220.2000
 31
0.0000
  0
LINE
  8
20
 10
207.8000
 20
230.2000
 30
0.0000
 11
207.8000
 21
240.2000
 31
0.0000
  0
LINE
  8
20
 10
207.8000
 20
250.2000
 30
0.0000
 11
207.8000
 21
260.2000
 31
0.0000
  0
ARC
  8
20
 10
208.7500
 20
109.1500
 30
0.0000
 40
0.9513
 50
176.9872
 51
266.9872
  0
ARC
  8
20
 10
222.6500
 20
109.1500
 30
0.0000
 40
0.9513
 50
266.9872
 51
3.0128
  0
LINE
  8
20
 10
223.6000
 20
299.1000
 30
0.0000
 11
223.6000
 21
270.2000
 31
0.0000
  0
LINE
  8
20
 10
223.6000
 20
270.2000
 30
0.0000
 11
221.1000
 21
270.2000
 31
0.0000
  0
LINE
  8
20
 10
221.1000
 20
270.2000
 30
0.0000
 11
221.1000
 21
260.2000
 31
0.0000
  0
LINE
  8
20
 10
221.1000
 20
260.2000
 30
0.0000
 11
223.6000
 21
260.2000
 31
0.0000
  0
LINE
  8
20
 10
223.6000
 20
250.2000
 30
0.0000
 11
221.1000
 21
250.2000
 31
0.0000
  0
LINE
  8
20
 10
221.1000
 20
250.2000
 30
0.0000
 11
221.1000
 21
240.2000
 31
0.0000
  0
LINE
  8
20
 10
221.1000
 20
240.2000
 30
0.0000
 11
223.6000
 21
240.2000
 31
0.0000
  0
LINE
  8
20
 10
223.6000
 20
230.2000
 30
0.0000
 11
221.1000
 21
230.2000
 31
0.0000
  0
LINE
  8
20
 10
221.1000
 20
230.2000
 30
0.0000
 11
221.1000
 21
220.2000
 31
0.0000
  0
LINE
  8
20
 10
221.1000
 20
220.2000
 30
0.0000
 11
223.6000
 21
220.2000
 31
0.0000
  0
LINE
  8
20
 10
223.6000
 20
210.2000
 30
0.0000
 11
221.1000
 21
210.2000
 31
0.0000
  0
LINE
  8
20
 10
221.1000
 20
210.2000
 30
0.0000
 11
221.1000
 21
200.2000
 31
0.0000
  0
LINE
  8
20
 10
221.1000
 20
200.2000
 30
0.0000
 11
223.6000
 21
200.2000
 31
0.0000
  0
LINE
  8
20
 10
223.6000
 20
190.2000
 30
0.0000
 11
221.1000
 21
190.2000
 31
0.0000
  0
LINE
  8
20
 10
221.1000
 20
190.2000
 30
0.0000
 11
221.1000
 21
180.2000
 31
0.0000
  0
LINE
  8
20
 10
221.1000
 20
180.2000
 30
0.0000
 11
223.6000
 21
180.2000
 31
0.0000
  0
LINE
  8
20
 10
223.6000
 20
170.2000
 30
0.0000
 11
221.1000
 21
170.2000
 31
0.0000
  0
LINE
  8
20
 10
221.1000
 20
170.2000
 30
0.0000
 11
221.1000
 21
160.2000
 31
0.0000
  0
LINE
  8
20
 10
221.1000
 20
160.2000
 30
0.0000
 11
223.6000
 21
160.2000
 31
0.0000
  0
LINE
  8
20
 10
223.6000
 20
150.2000
 30
0.0000
 11
221.1000
 21
150.2000
 31
0.0000
  0
LINE
  8
20
 10
221.1000
 20
150.2000
 30
0.0000
 11
221.1000
 21
140.2000
 31
0.0000
  0
LINE
  8
20
 10
221.1000
 20
140.2000
 30
0.0000
 11
223.6000
 21
140.2000
 31
0.0000
  0
LINE
  8
20
 10
223.6000
 20
130.2000
 30
0.0000
 11
221.1000
 21
130.2000
 31
0.0000
  0
LINE
  8
20
 10
221.1000
 20
130.2000
 30
0.0000
 11
221.1000
 21
120.2000
 31
0.0000
  0
LINE
  8
20
 10
221.1000
 20
120.2000
 30
0.0000
 11
223.6000
 21
120.2000
 31
0.0000
  0
LINE
  8
20
 10
223.6000
 20
109.2000
 30
0.0000
 11
223.6000
 21
120.2000
 31
0.0000
  0
LINE
  8
20
 10
223.6000
 20
130.2000
 30
0.0000
 11
223.6000
 21
140.2000
 31
0.0000
  0
LINE
  8
20
 10
223.6000
 20
150.2000
 30
0.0000
 11
223.6000
 21
160.2000
 31
0.0000
  0
LINE
  8
20
 10
223.6000
 20
170.2000
 30
0.0000
 11
223.6000
 21
180.2000
 31
0.0000
  0
LINE
  8
20
 10
223.6000
 20
190.2000
 30
0.0000
 11
223.6000
 21
200.2000
 31
0.0000
  0
LINE
  8
20
 10
223.6000
 20
210.2000
 30
0.0000
 11
223.6000
 21
220.2000
 31
0.0000
  0
LINE
  8
20
 10
223.6000
 20
230.2000
 30
0.0000
 11
223.6000
 21
240.2000
 31
0.0000
  0
LINE
  8
20
 10
223.6000
 20
250.2000
 30
0.0000
 11
223.6000
 21
260.2000
 31
0.0000
  0
ARC
  8
20
 10
208.7950
 20
299.2000
 30
0.0000
 40
1.0000
 50
89.7135
 51
185.7392
  0
ARC
  8
20
 10
222.4400
 20
299.0500
 30
0.0000
 40
1.1611
 50
2.4681
 51
82.0794
  0
LINE
  8
20
 10
222.6000
 20
300.2000
 30
0.0000
 11
208.8000
 21
300.2000
 31
0.0000
  0
LINE
  8
20
 10
222.6000
 20
108.2000
 30
0.0000
 11
208.7000
 21
108.2000
 31
0.0000
  0
LINE
  8
20
 10
223.6000
 20
299.1000
 30
0.0000
 11
223.6000
 21
270.2000
 31
0.0000
  0
LINE
  8
20
 10
223.6000
 20
270.2000
 30
0.0000
 11
226.1000
 21
270.2000
 31
0.0000
  0
LINE
  8
20
 10
226.1000
 20
270.2000
 30
0.0000
 11
226.1000
 21
260.2000
 31
0.0000
  0
LINE
  8
20
 10
226.1000
 20
260.2000
 30
0.0000
 11
223.6000
 21
260.2000
 31
0.0000
  0
LINE
  8
20
 10
223.6000
 20
250.2000
 30
0.0000
 11
226.1000
 21
250.2000
 31
0.0000
  0
LINE
  8
20
 10
226.1000
 20
250.2000
 30
0.0000
 11
226.1000
 21
240.2000
 31
0.0000
  0
LINE
  8
20
 10
226.1000
 20
240.2000
 30
0.0000
 11
223.6000
 21
240.2000
 31
0.0000
  0
LINE
  8
20
 10
223.6000
 20
230.2000
 30
0.0000
 11
226.1000
 21
230.2000
 31
0.0000
  0
LINE
  8
20
 10
226.1000
 20
230.2000
 30
0.0000
 11
226.1000
 21
220.2000
 31
0.0000
  0
LINE
  8
20
 10
226.1000
 20
220.2000
 30
0.0000
 11
223.6000
 21
220.2000
 31
0.0000
  0
LINE
  8
20
 10
223.6000
 20
210.2000
 30
0.0000
 11
226.1000
 21
210.2000
 31
0.0000
  0
LINE
  8
20
 10
226.1000
 20
210.2000
 30
0.0000
 11
226.1000
 21
200.2000
 31
0.0000
  0
LINE
  8
20
 10
226.1000
 20
200.2000
 30
0.0000
 11
223.6000
 21
200.2000
 31
0.0000
  0
LINE
  8
20
 10
223.6000
 20
190.2000
 30
0.0000
 11
226.1000
 21
190.2000
 31
0.0000
  0
LINE
  8
20
 10
226.1000
 20
190.2000
 30
0.0000
 11
226.1000
 21
180.2000
 31
0.0000
  0
LINE
  8
20
 10
226.1000
 20
180.2000
 30
0.0000
 11
223.6000
 21
180.2000
 31
0.0000
  0
LINE
  8
20
 10
223.6000
 20
170.2000
 30
0.0000
 11
226.1000
 21
170.2000
 31
0.0000
  0
LINE
  8
20
 10
226.1000
 20
170.2000
 30
0.0000
 11
226.1000
 21
160.2000
 31
0.0000
  0
LINE
  8
20
 10
226.1000
 20
160.2000
 30
0.0000
 11
223.6000
 21
160.2000
 31
0.0000
  0
LINE
  8
20
 10
223.6000
 20
150.2000
 30
0.0000
 11
226.1000
 21
150.2000
 31
0.0000
  0
LINE
  8
20
 10
226.1000
 20
150.2000
 30
0.0000
 11
226.1000
 21
140.2000
 31
0.0000
  0
LINE
  8
20
 10
226.1000
 20
140.2000
 30
0.0000
 11
223.6000
 21
140.2000
 31
0.0000
  0
LINE
  8
20
 10
223.6000
 20
130.2000
 30
0.0000
 11
226.1000
 21
130.2000
 31
0.0000
  0
LINE
  8
20
 10
226.1000
 20
130.2000
 30
0.0000
 11
226.1000
 21
120.2000
 31
0.0000
  0
LINE
  8
20
 10
226.1000
 20
120.2000
 30
0.0000
 11
223.6000
 21
120.2000
 31
0.0000
  0
LINE
  8
20
 10
223.6000
 20
109.2000
 30
0.0000
 11
223.6000
 21
120.2000
 31
0.0000
  0
LINE
  8
20
 10
223.6000
 20
130.2000
 30
0.0000
 11
223.6000
 21
140.2000
 31
0.0000
  0
LINE
  8
20
 10
223.6000
 20
150.2000
 30
0.0000
 11
223.6000
 21
160.2000
 31
0.0000
  0
LINE
  8
20
 10
223.6000
 20
170.2000
 30
0.0000
 11
223.6000
 21
180.2000
 31
0.0000
  0
LINE
  8
20
 10
223.6000
 20
190.2000
 30
0.0000
 11
223.6000
 21
200.2000
 31
0.0000
  0
LINE
  8
20
 10
223.6000
 20
210.2000
 30
0.0000
 11
223.6000
 21
220.2000
 31
0.0000
  0
LINE
  8
20
 10
223.6000
 20
230.2000
 30
0.0000
 11
223.6000
 21
240.2000
 31
0.0000
  0
LINE
  8
20
 10
223.6000
 20
250.2000
 30
0.0000
 11
223.6000
 21
260.2000
 31
0.0000
  0
ARC
  8
20
 10
224.5500
 20
109.1500
 30
0.0000
 40
0.9513
 50
176.9872
 51
266.9872
  0
ARC
  8
20
 10
238.4500
 20
109.1500
 30
0.0000
 40
0.9513
 50
266.9872
 51
3.0128
  0
LINE
  8
20
 10
239.4000
 20
299.1000
 30
0.0000
 11
239.4000
 21
270.2000
 31
0.0000
  0
LINE
  8
20
 10
239.4000
 20
270.2000
 30
0.0000
 11
236.9000
 21
270.2000
 31
0.0000
  0
LINE
  8
20
 10
236.9000
 20
270.2000
 30
0.0000
 11
236.9000
 21
260.2000
 31
0.0000
  0
LINE
  8
20
 10
236.9000
 20
260.2000
 30
0.0000
 11
239.4000
 21
260.2000
 31
0.0000
  0
LINE
  8
20
 10
239.4000
 20
250.2000
 30
0.0000
 11
236.9000
 21
250.2000
 31
0.0000
  0
LINE
  8
20
 10
236.9000
 20
250.2000
 30
0.0000
 11
236.9000
 21
240.2000
 31
0.0000
  0
LINE
  8
20
 10
236.9000
 20
240.2000
 30
0.0000
 11
239.4000
 21
240.2000
 31
0.0000
  0
LINE
  8
20
 10
239.4000
 20
230.2000
 30
0.0000
 11
236.9000
 21
230.2000
 31
0.0000
  0
LINE
  8
20
 10
236.9000
 20
230.2000
 30
0.0000
 11
236.9000
 21
220.2000
 31
0.0000
  0
LINE
  8
20
 10
236.9000
 20
220.2000
 30
0.0000
 11
239.4000
 21
220.2000
 31
0.0000
  0
LINE
  8
20
 10
239.4000
 20
210.2000
 30
0.0000
 11
236.9000
 21
210.2000
 31
0.0000
  0
LINE
  8
20
 10
236.9000
 20
210.2000
 30
0.0000
 11
236.9000
 21
200.2000
 31
0.0000
  0
LINE
  8
20
 10
236.9000
 20
200.2000
 30
0.0000
 11
239.4000
 21
200.2000
 31
0.0000
  0
LINE
  8
20
 10
239.4000
 20
190.2000
 30
0.0000
 11
236.9000
 21
190.2000
 31
0.0000
  0
LINE
  8
20
 10
236.9000
 20
190.2000
 30
0.0000
 11
236.9000
 21
180.2000
 31
0.0000
  0
LINE
  8
20
 10
236.9000
 20
180.2000
 30
0.0000
 11
239.4000
 21
180.2000
 31
0.0000
  0
LINE
  8
20
 10
239.4000
 20
170.2000
 30
0.0000
 11
236.9000
 21
170.2000
 31
0.0000
  0
LINE
  8
20
 10
236.9000
 20
170.2000
 30
0.0000
 11
236.9000
 21
160.2000
 31
0.0000
  0
LINE
  8
20
 10
236.9000
 20
160.2000
 30
0.0000
 11
239.4000
 21
160.2000
 31
0.0000
  0
LINE
  8
20
 10
239.4000
 20
150.2000
 30
0.0000
 11
236.9000
 21
150.2000
 31
0.0000
  0
LINE
  8
20
 10
236.9000
 20
150.2000
 30
0.0000
 11
236.9000
 21
140.2000
 31
0.0000
  0
LINE
  8
20
 10
236.9000
 20
140.2000
 30
0.0000
 11
239.4000
 21
140.2000
 31
0.0000
  0
LINE
  8
20
 10
239.4000
 20
130.2000
 30
0.0000
 11
236.9000
 21
130.2000
 31
0.0000
  0
LINE
  8
20
 10
236.9000
 20
130.2000
 30
0.0000
 11
236.9000
 21
120.2000
 31
0.0000
  0
LINE
  8
20
 10
236.9000
 20
120.2000
 30
0.0000
 11
239.4000
 21
120.2000
 31
0.0000
  0
LINE
  8
20
 10
239.4000
 20
109.2000
 30
0.0000
 11
239.4000
 21
120.2000
 31
0.0000
  0
LINE
  8
20
 10
239.4000
 20
130.2000
 30
0.0000
 11
239.4000
 21
140.2000
 31
0.0000
  0
LINE
  8
20
 10
239.4000
 20
150.2000
 30
0.0000
 11
239.4000
 21
160.2000
 31
0.0000
  0
LINE
  8
20
 10
239.4000
 20
170.2000
 30
0.0000
 11
239.4000
 21
180.2000
 31
0.0000
  0
LINE
  8
20
 10
239.4000
 20
190.2000
 30
0.0000
 11
239.4000
 21
200.2000
 31
0.0000
  0
LINE
  8
20
 10
239.4000
 20
210.2000
 30
0.0000
 11
239.4000
 21
220.2000
 31
0.0000
  0
LINE
  8
20
 10
239.4000
 20
230.2000
 30
0.0000
 11
239.4000
 21
240.2000
 31
0.0000
  0
LINE
  8
20
 10
239.4000
 20
250.2000
 30
0.0000
 11
239.4000
 21
260.2000
 31
0.0000
  0
ARC
  8
20
 10
224.5950
 20
299.2000
 30
0.0000
 40
1.0000
 50
89.7135
 51
185.7392
  0
ARC
  8
20
 10
238.2400
 20
299.0500
 30
0.0000
 40
1.1611
 50
2.4681
 51
82.0794
  0
LINE
  8
20
 10
238.4000
 20
300.2000
 30
0.0000
 11
224.6000
 21
300.2000
 31
0.0000
  0
LINE
  8
20
 10
238.4000
 20
108.2000
 30
0.0000
 11
224.5000
 21
108.2000
 31
0.0000
  0
LINE
  8
20
 10
239.4000
 20
299.1000
 30
0.0000
 11
239.4000
 21
270.2000
 31
0.0000
  0
LINE
  8
20
 10
239.4000
 20
270.2000
 30
0.0000
 11
241.9000
 21
270.2000
 31
0.0000
  0
LINE
  8
20
 10
241.9000
 20
270.2000
 30
0.0000
 11
241.9000
 21
260.2000
 31
0.0000
  0
LINE
  8
20
 10
241.9000
 20
260.2000
 30
0.0000
 11
239.4000
 21
260.2000
 31
0.0000
  0
LINE
  8
20
 10
239.4000
 20
250.2000
 30
0.0000
 11
241.9000
 21
250.2000
 31
0.0000
  0
LINE
  8
20
 10
241.9000
 20
250.2000
 30
0.0000
 11
241.9000
 21
240.2000
 31
0.0000
  0
LINE
  8
20
 10
241.9000
 20
240.2000
 30
0.0000
 11
239.4000
 21
240.2000
 31
0.0000
  0
LINE
  8
20
 10
239.4000
 20
230.2000
 30
0.0000
 11
241.9000
 21
230.2000
 31
0.0000
  0
LINE
  8
20
 10
241.9000
 20
230.2000
 30
0.0000
 11
241.9000
 21
220.2000
 31
0.0000
  0
LINE
  8
20
 10
241.9000
 20
220.2000
 30
0.0000
 11
239.4000
 21
220.2000
 31
0.0000
  0
LINE
  8
20
 10
239.4000
 20
210.2000
 30
0.0000
 11
241.9000
 21
210.2000
 31
0.0000
  0
LINE
  8
20
 10
241.9000
 20
210.2000
 30
0.0000
 11
241.9000
 21
200.2000
 31
0.0000
  0
LINE
  8
20
 10
241.9000
 20
200.2000
 30
0.0000
 11
239.4000
 21
200.2000
 31
0.0000
  0
LINE
  8
20
 10
239.4000
 20
190.2000
 30
0.0000
 11
241.9000
 21
190.2000
 31
0.0000
  0
LINE
  8
20
 10
241.9000
 20
190.2000
 30
0.0000
 11
241.9000
 21
180.2000
 31
0.0000
  0
LINE
  8
20
 10
241.9000
 20
180.2000
 30
0.0000
 11
239.4000
 21
180.2000
 31
0.0000
  0
LINE
  8
20
 10
239.4000
 20
170.2000
 30
0.0000
 11
241.9000
 21
170.2000
 31
0.0000
  0
LINE
  8
20
 10
241.9000
 20
170.2000
 30
0.0000
 11
241.9000
 21
160.2000
 31
0.0000
  0
LINE
  8
20
 10
241.9000
 20
160.2000
 30
0.0000
 11
239.4000
 21
160.2000
 31
0.0000
  0
LINE
  8
20
 10
239.4000
 20
150.2000
 30
0.0000
 11
241.9000
 21
150.2000
 31
0.0000
  0
LINE
  8
20
 10
241.9000
 20
150.2000
 30
0.0000
 11
241.9000
 21
140.2000
 31
0.0000
  0
LINE
  8
20
 10
241.9000
 20
140.2000
 30
0.0000
 11
239.4000
 21
140.2000
 31
0.0000
  0
LINE
  8
20
 10
239.4000
 20
130.2000
 30
0.0000
 11
241.9000
 21
130.2000
 31
0.0000
  0
LINE
  8
20
 10
241.9000
 20
130.2000
 30
0.0000
 11
241.9000
 21
120.2000
 31
0.0000
  0
LINE
  8
20
 10
241.9000
 20
120.2000
 30
0.0000
 11
239.4000
 21
120.2000
 31
0.0000
  0
LINE
  8
20
 10
239.4000
 20
109.2000
 30
0.0000
 11
239.4000
 21
120.2000
 31
0.0000
  0
LINE
  8
20
 10
239.4000
 20
130.2000
 30
0.0000
 11
239.4000
 21
140.2000
 31
0.0000
  0
LINE
  8
20
 10
239.4000
 20
150.2000
 30
0.0000
 11
239.4000
 21
160.2000
 31
0.0000
  0
LINE
  8
20
 10
239.4000
 20
170.2000
 30
0.0000
 11
239.4000
 21
180.2000
 31
0.0000
  0
LINE
  8
20
 10
239.4000
 20
190.2000
 30
0.0000
 11
239.4000
 21
200.2000
 31
0.0000
  0
LINE
  8
20
 10
239.4000
 20
210.2000
 30
0.0000
 11
239.4000
 21
220.2000
 31
0.0000
  0
LINE
  8
20
 10
239.4000
 20
230.2000
 30
0.0000
 11
239.4000
 21
240.2000
 31
0.0000
  0
LINE
  8
20
 10
239.4000
 20
250.2000
 30
0.0000
 11
239.4000
 21
260.2000
 31
0.0000
  0
ARC
  8
20
 10
240.3500
 20
109.1500
 30
0.0000
 40
0.9513
 50
176.9872
 51
266.9872
  0
ARC
  8
20
 10
254.2500
 20
109.1500
 30
0.0000
 40
0.9513
 50
266.9872
 51
3.0128
  0
LINE
  8
20
 10
255.2000
 20
299.1000
 30
0.0000
 11
255.2000
 21
270.2000
 31
0.0000
  0
LINE
  8
20
 10
255.2000
 20
270.2000
 30
0.0000
 11
252.7000
 21
270.2000
 31
0.0000
  0
LINE
  8
20
 10
252.7000
 20
270.2000
 30
0.0000
 11
252.7000
 21
260.2000
 31
0.0000
  0
LINE
  8
20
 10
252.7000
 20
260.2000
 30
0.0000
 11
255.2000
 21
260.2000
 31
0.0000
  0
LINE
  8
20
 10
255.2000
 20
250.2000
 30
0.0000
 11
252.7000
 21
250.2000
 31
0.0000
  0
LINE
  8
20
 10
252.7000
 20
250.2000
 30
0.0000
 11
252.7000
 21
240.2000
 31
0.0000
  0
LINE
  8
20
 10
252.7000
 20
240.2000
 30
0.0000
 11
255.2000
 21
240.2000
 31
0.0000
  0
LINE
  8
20
 10
255.2000
 20
230.2000
 30
0.0000
 11
252.7000
 21
230.2000
 31
0.0000
  0
LINE
  8
20
 10
252.7000
 20
230.2000
 30
0.0000
 11
252.7000
 21
220.2000
 31
0.0000
  0
LINE
  8
20
 10
252.7000
 20
220.2000
 30
0.0000
 11
255.2000
 21
220.2000
 31
0.0000
  0
LINE
  8
20
 10
255.2000
 20
210.2000
 30
0.0000
 11
252.7000
 21
210.2000
 31
0.0000
  0
LINE
  8
20
 10
252.7000
 20
210.2000
 30
0.0000
 11
252.7000
 21
200.2000
 31
0.0000
  0
LINE
  8
20
 10
252.7000
 20
200.2000
 30
0.0000
 11
255.2000
 21
200.2000
 31
0.0000
  0
LINE
  8
20
 10
255.2000
 20
190.2000
 30
0.0000
 11
252.7000
 21
190.2000
 31
0.0000
  0
LINE
  8
20
 10
252.7000
 20
190.2000
 30
0.0000
 11
252.7000
 21
180.2000
 31
0.0000
  0
LINE
  8
20
 10
252.7000
 20
180.2000
 30
0.0000
 11
255.2000
 21
180.2000
 31
0.0000
  0
LINE
  8
20
 10
255.2000
 20
170.2000
 30
0.0000
 11
252.7000
 21
170.2000
 31
0.0000
  0
LINE
  8
20
 10
252.7000
 20
170.2000
 30
0.0000
 11
252.7000
 21
160.2000
 31
0.0000
  0
LINE
  8
20
 10
252.7000
 20
160.2000
 30
0.0000
 11
255.2000
 21
160.2000
 31
0.0000
  0
LINE
  8
20
 10
255.2000
 20
150.2000
 30
0.0000
 11
252.7000
 21
150.2000
 31
0.0000
  0
LINE
  8
20
 10
252.7000
 20
150.2000
 30
0.0000
 11
252.7000
 21
140.2000
 31
0.0000
  0
LINE
  8
20
 10
252.7000
 20
140.2000
 30
0.0000
 11
255.2000
 21
140.2000
 31
0.0000
  0
LINE
  8
20
 10
255.2000
 20
130.2000
 30
0.0000
 11
252.7000
 21
130.2000
 31
0.0000
  0
LINE
  8
20
 10
252.7000
 20
130.2000
 30
0.0000
 11
252.7000
 21
120.2000
 31
0.0000
  0
LINE
  8
20
 10
252.7000
 20
120.2000
 30
0.0000
 11
255.2000
 21
120.2000
 31
0.0000
  0
LINE
  8
20
 10
255.2000
 20
109.2000
 30
0.0000
 11
255.2000
 21
120.2000
 31
0.0000
  0
LINE
  8
20
 10
255.2000
 20
130.2000
 30
0.0000
 11
255.2000
 21
140.2000
 31
0.0000
  0
LINE
  8
20
 10
255.2000
 20
150.2000
 30
0.0000
 11
255.2000
 21
160.2000
 31
0.0000
  0
LINE
  8
20
 10
255.2000
 20
170.2000
 30
0.0000
 11
255.2000
 21
180.2000
 31
0.0000
  0
LINE
  8
20
 10
255.2000
 20
190.2000
 30
0.0000
 11
255.2000
 21
200.2000
 31
0.0000
  0
LINE
  8
20
 10
255.2000
 20
210.2000
 30
0.0000
 11
255.2000
 21
220.2000
 31
0.0000
  0
LINE
  8
20
 10
255.2000
 20
230.2000
 30
0.0000
 11
255.2000
 21
240.2000
 31
0.0000
  0
LINE
  8
20
 10
255.2000
 20
250.2000
 30
0.0000
 11
255.2000
 21
260.2000
 31
0.0000
  0
ARC
  8
20
 10
240.3950
 20
299.2000
 30
0.0000
 40
1.0000
 50
89.7135
 51
185.7392
  0
ARC
  8
20
 10
254.0400
 20
299.0500
 30
0.0000
 40
1.1611
 50
2.4681
 51
82.0794
  0
LINE
  8
20
 10
254.2000
 20
300.2000
 30
0.0000
 11
240.4000
 21
300.2000
 31
0.0000
  0
LINE
  8
20
 10
254.2000
 20
108.2000
 30
0.0000
 11
240.3000
 21
108.2000
 31
0.0000
  0
LINE
  8
20
 10
255.2000
 20
299.1000
 30
0.0000
 11
255.2000
 21
270.2000
 31
0.0000
  0
LINE
  8
20
 10
255.2000
 20
270.2000
 30
0.0000
 11
257.7000
 21
270.2000
 31
0.0000
  0
LINE
  8
20
 10
257.7000
 20
270.2000
 30
0.0000
 11
257.7000
 21
260.2000
 31
0.0000
  0
LINE
  8
20
 10
257.7000
 20
260.2000
 30
0.0000
 11
255.2000
 21
260.2000
 31
0.0000
  0
LINE
  8
20
 10
255.2000
 20
250.2000
 30
0.0000
 11
257.7000
 21
250.2000
 31
0.0000
  0
LINE
  8
20
 10
257.7000
 20
250.2000
 30
0.0000
 11
257.7000
 21
240.2000
 31
0.0000
  0
LINE
  8
20
 10
257.7000
 20
240.2000
 30
0.0000
 11
255.2000
 21
240.2000
 31
0.0000
  0
LINE
  8
20
 10
255.2000
 20
230.2000
 30
0.0000
 11
257.7000
 21
230.2000
 31
0.0000
  0
LINE
  8
20
 10
257.7000
 20
230.2000
 30
0.0000
 11
257.7000
 21
220.2000
 31
0.0000
  0
LINE
  8
20
 10
257.7000
 20
220.2000
 30
0.0000
 11
255.2000
 21
220.2000
 31
0.0000
  0
LINE
  8
20
 10
255.2000
 20
210.2000
 30
0.0000
 11
257.7000
 21
210.2000
 31
0.0000
  0
LINE
  8
20
 10
257.7000
 20
210.2000
 30
0.0000
 11
257.7000
 21
200.2000
 31
0.0000
  0
LINE
  8
20
 10
257.7000
 20
200.2000
 30
0.0000
 11
255.2000
 21
200.2000
 31
0.0000
  0
LINE
  8
20
 10
255.2000
 20
190.2000
 30
0.0000
 11
257.7000
 21
190.2000
 31
0.0000
  0
LINE
  8
20
 10
257.7000
 20
190.2000
 30
0.0000
 11
257.7000
 21
180.2000
 31
0.0000
  0
LINE
  8
20
 10
257.7000
 20
180.2000
 30
0.0000
 11
255.2000
 21
180.2000
 31
0.0000
  0
LINE
  8
20
 10
255.2000
 20
170.2000
 30
0.0000
 11
257.7000
 21
170.2000
 31
0.0000
  0
LINE
  8
20
 10
257.7000
 20
170.2000
 30
0.0000
 11
257.7000
 21
160.2000
 31
0.0000
  0
LINE
  8
20
 10
257.7000
 20
160.2000
 30
0.0000
 11
255.2000
 21
160.2000
 31
0.0000
  0
LINE
  8
20
 10
255.2000
 20
150.2000
 30
0.0000
 11
257.7000
 21
150.2000
 31
0.0000
  0
LINE
  8
20
 10
257.7000
 20
150.2000
 30
0.0000
 11
257.7000
 21
140.2000
 31
0.0000
  0
LINE
  8
20
 10
257.7000
 20
140.2000
 30
0.0000
 11
255.2000
 21
140.2000
 31
0.0000
  0
LINE
  8
20
 10
255.2000
 20
130.2000
 30
0.0000
 11
257.7000
 21
130.2000
 31
0.0000
  0
LINE
  8
20
 10
257.7000
 20
130.2000
 30
0.0000
 11
257.7000
 21
120.2000
 31
0.0000
  0
LINE
  8
20
 10
257.7000
 20
120.2000
 30
0.0000
 11
255.2000
 21
120.2000
 31
0.0000
  0
LINE
  8
20
 10
255.2000
 20
109.2000
 30
0.0000
 11
255.2000
 21
120.2000
 31
0.0000
  0
LINE
  8
20
 10
255.2000
 20
130.2000
 30
0.0000
 11
255.2000
 21
140.2000
 31
0.0000
  0
LINE
  8
20
 10
255.2000
 20
150.2000
 30
0.0000
 11
255.2000
 21
160.2000
 31
0.0000
  0
LINE
  8
20
 10
255.2000
 20
170.2000
 30
0.0000
 11
255.2000
 21
180.2000
 31
0.0000
  0
LINE
  8
20
 10
255.2000
 20
190.2000
 30
0.0000
 11
255.2000
 21
200.2000
 31
0.0000
  0
LINE
  8
20
 10
255.2000
 20
210.2000
 30
0.0000
 11
255.2000
 21
220.2000
 31
0.0000
  0
LINE
  8
20
 10
255.2000
 20
230.2000
 30
0.0000
 11
255.2000
 21
240.2000
 31
0.0000
  0
LINE
  8
20
 10
255.2000
 20
250.2000
 30
0.0000
 11
255.2000
 21
260.2000
 31
0.0000
  0
ARC
  8
20
 10
256.1500
 20
109.1500
 30
0.0000
 40
0.9513
 50
176.9872
 51
266.9872
  0
ARC
  8
20
 10
270.0500
 20
109.1500
 30
0.0000
 40
0.9513
 50
266.9872
 51
3.0128
  0
LINE
  8
20
 10
271.0000
 20
299.1000
 30
0.0000
 11
271.0000
 21
270.2000
 31
0.0000
  0
LINE
  8
20
 10
271.0000
 20
270.2000
 30
0.0000
 11
268.5000
 21
270.2000
 31
0.0000
  0
LINE
  8
20
 10
268.5000
 20
270.2000
 30
0.0000
 11
268.5000
 21
260.2000
 31
0.0000
  0
LINE
  8
20
 10
268.5000
 20
260.2000
 30
0.0000
 11
271.0000
 21
260.2000
 31
0.0000
  0
LINE
  8
20
 10
271.0000
 20
250.2000
 30
0.0000
 11
268.5000
 21
250.2000
 31
0.0000
  0
LINE
  8
20
 10
268.5000
 20
250.2000
 30
0.0000
 11
268.5000
 21
240.2000
 31
0.0000
  0
LINE
  8
20
 10
268.5000
 20
240.2000
 30
0.0000
 11
271.0000
 21
240.2000
 31
0.0000
  0
LINE
  8
20
 10
271.0000
 20
230.2000
 30
0.0000
 11
268.5000
 21
230.2000
 31
0.0000
  0
LINE
  8
20
 10
268.5000
 20
230.2000
 30
0.0000
 11
268.5000
 21
220.2000
 31
0.0000
  0
LINE
  8
20
 10
268.5000
 20
220.2000
 30
0.0000
 11
271.0000
 21
220.2000
 31
0.0000
  0
LINE
  8
20
 10
271.0000
 20
210.2000
 30
0.0000
 11
268.5000
 21
210.2000
 31
0.0000
  0
LINE
  8
20
 10
268.5000
 20
210.2000
 30
0.0000
 11
268.5000
 21
200.2000
 31
0.0000
  0
LINE
  8
20
 10
268.5000
 20
200.2000
 30
0.0000
 11
271.0000
 21
200.2000
 31
0.0000
  0
LINE
  8
20
 10
271.0000
 20
190.2000
 30
0.0000
 11
268.5000
 21
190.2000
 31
0.0000
  0
LINE
  8
20
 10
268.5000
 20
190.2000
 30
0.0000
 11
268.5000
 21
180.2000
 31
0.0000
  0
LINE
  8
20
 10
268.5000
 20
180.2000
 30
0.0000
 11
271.0000
 21
180.2000
 31
0.0000
  0
LINE
  8
20
 10
271.0000
 20
170.2000
 30
0.0000
 11
268.5000
 21
170.2000
 31
0.0000
  0
LINE
  8
20
 10
268.5000
 20
170.2000
 30
0.0000
 11
268.5000
 21
160.2000
 31
0.0000
  0
LINE
  8
20
 10
268.5000
 20
160.2000
 30
0.0000
 11
271.0000
 21
160.2000
 31
0.0000
  0
LINE
  8
20
 10
271.0000
 20
150.2000
 30
0.0000
 11
268.5000
 21
150.2000
 31
0.0000
  0
LINE
  8
20
 10
268.5000
 20
150.2000
 30
0.0000
 11
268.5000
 21
140.2000
 31
0.0000
  0
LINE
  8
20
 10
268.5000
 20
140.2000
 30
0.0000
 11
271.0000
 21
140.2000
 31
0.0000
  0
LINE
  8
20
 10
271.0000
 20
130.2000
 30
0.0000
 11
268.5000
 21
130.2000
 31
0.0000
  0
LINE
  8
20
 10
268.5000
 20
130.2000
 30
0.0000
 11
268.5000
 21
120.2000
 31
0.0000
  0
LINE
  8
20
 10
268.5000
 20
120.2000
 30
0.0000
 11
271.0000
 21
120.2000
 31
0.0000
  0
LINE
  8
20
 10
271.0000
 20
109.2000
 30
0.0000
 11
271.0000
 21
120.2000
 31
0.0000
  0
LINE
  8
20
 10
271.0000
 20
130.2000
 30
0.0000
 11
271.0000
 21
140.2000
 31
0.0000
  0
LINE
  8
20
 10
271.0000
 20
150.2000
 30
0.0000
 11
271.0000
 21
160.2000
 31
0.0000
  0
LINE
  8
20
 10
271.0000
 20
170.2000
 30
0.0000
 11
271.0000
 21
180.2000
 31
0.0000
  0
LINE
  8
20
 10
271.0000
 20
190.2000
 30
0.0000
 11
271.0000
 21
200.2000
 31
0.0000
  0
LINE
  8
20
 10
271.0000
 20
210.2000
 30
0.0000
 11
271.0000
 21
220.2000
 31
0.0000
  0
LINE
  8
20
 10
271.0000
 20
230.2000
 30
0.0000
 11
271.0000
 21
240.2000
 31
0.0000
  0
LINE
  8
20
 10
271.0000
 20
250.2000
 30
0.0000
 11
271.0000
 21
260.2000
 31
0.0000
  0
ARC
  8
20
 10
256.1950
 20
299.2000
 30
0.0000
 40
1.0000
 50
89.7135
 51
185.7392
  0
ARC
  8
20
 10
269.8400
 20
299.0500
 30
0.0000
 40
1.1611
 50
2.4681
 51
82.0794
  0
LINE
  8
20
 10
270.0000
 20
300.2000
 30
0.0000
 11
256.2000
 21
300.2000
 31
0.0000
  0
LINE
  8
20
 10
270.0000
 20
108.2000
 30
0.0000
 11
256.1000
 21
108.2000
 31
0.0000
  0
LINE
  8
20
 10
271.0000
 20
299.1000
 30
0.0000
 11
271.0000
 21
270.2000
 31
0.0000
  0
LINE
  8
20
 10
271.0000
 20
270.2000
 30
0.0000
 11
273.5000
 21
270.2000
 31
0.0000
  0
LINE
  8
20
 10
273.5000
 20
270.2000
 30
0.0000
 11
273.5000
 21
260.2000
 31
0.0000
  0
LINE
  8
20
 10
273.5000
 20
260.2000
 30
0.0000
 11
271.0000
 21
260.2000
 31
0.0000
  0
LINE
  8
20
 10
271.0000
 20
250.2000
 30
0.0000
 11
273.5000
 21
250.2000
 31
0.0000
  0
LINE
  8
20
 10
273.5000
 20
250.2000
 30
0.0000
 11
273.5000
 21
240.2000
 31
0.0000
  0
LINE
  8
20
 10
273.5000
 20
240.2000
 30
0.0000
 11
271.0000
 21
240.2000
 31
0.0000
  0
LINE
  8
20
 10
271.0000
 20
230.2000
 30
0.0000
 11
273.5000
 21
230.2000
 31
0.0000
  0
LINE
  8
20
 10
273.5000
 20
230.2000
 30
0.0000
 11
273.5000
 21
220.2000
 31
0.0000
  0
LINE
  8
20
 10
273.5000
 20
220.2000
 30
0.0000
 11
271.0000
 21
220.2000
 31
0.0000
  0
LINE
  8
20
 10
271.0000
 20
210.2000
 30
0.0000
 11
273.5000
 21
210.2000
 31
0.0000
  0
LINE
  8
20
 10
273.5000
 20
210.2000
 30
0.0000
 11
273.5000
 21
200.2000
 31
0.0000
  0
LINE
  8
20
 10
273.5000
 20
200.2000
 30
0.0000
 11
271.0000
 21
200.2000
 31
0.0000
  0
LINE
  8
20
 10
271.0000
 20
190.2000
 30
0.0000
 11
273.5000
 21
190.2000
 31
0.0000
  0
LINE
  8
20
 10
273.5000
 20
190.2000
 30
0.0000
 11
273.5000
 21
180.2000
 31
0.0000
  0
LINE
  8
20
 10
273.5000
 20
180.2000
 30
0.0000
 11
271.0000
 21
180.2000
 31
0.0000
  0
LINE
  8
20
 10
271.0000
 20
170.2000
 30
0.0000
 11
273.5000
 21
170.2000
 31
0.0000
  0
LINE
  8
20
 10
273.5000
 20
170.2000
 30
0.0000
 11
273.5000
 21
160.2000
 31
0.0000
  0
LINE
  8
20
 10
273.5000
 20
160.2000
 30
0.0000
 11
271.0000
 21
160.2000
 31
0.0000
  0
LINE
  8
20
 10
271.0000
 20
150.2000
 30
0.0000
 11
273.5000
 21
150.2000
 31
0.0000
  0
LINE
  8
20
 10
273.5000
 20
150.2000
 30
0.0000
 11
273.5000
 21
140.2000
 31
0.0000
  0
LINE
  8
20
 10
273.5000
 20
140.2000
 30
0.0000
 11
271.0000
 21
140.2000
 31
0.0000
  0
LINE
  8
20
 10
271.0000
 20
130.2000
 30
0.0000
 11
273.5000
 21
130.2000
 31
0.0000
  0
LINE
  8
20
 10
273.5000
 20
130.2000
 30
0.0000
 11
273.5000
 21
120.2000
 31
0.0000
  0
LINE
  8
20
 10
273.5000
 20
120.2000
 30
0.0000
 11
271.0000
 21
120.2000
 31
0.0000
  0
LINE
  8
20
 10
271.0000
 20
109.2000
 30
0.0000
 11
271.0000
 21
120.2000
 31
0.0000
  0
LINE
  8
20
 10
271.0000
 20
130.2000
 30
0.0000
 11
271.0000
 21
140.2000
 31
0.0000
  0
LINE
  8
20
 10
271.0000
 20
150.2000
 30
0.0000
 11
271.0000
 21
160.2000
 31
0.0000
  0
LINE
  8
20
 10
271.0000
 20
170.2000
 30
0.0000
 11
271.0000
 21
180.2000
 31
0.0000
  0
LINE
  8
20
 10
271.0000
 20
190.2000
 30
0.0000
 11
271.0000
 21
200.2000
 31
0.0000
  0
LINE
  8
20
 10
271.0000
 20
210.2000
 30
0.0000
 11
271.0000
 21
220.2000
 31
0.0000
  0
LINE
  8
20
 10
271.0000
 20
230.2000
 30
0.0000
 11
271.0000
 21
240.2000
 31
0.0000
  0
LINE
  8
20
 10
271.0000
 20
250.2000
 30
0.0000
 11
271.0000
 21
260.2000
 31
0.0000
  0
ARC
  8
20
 10
271.9500
 20
109.1500
 30
0.0000
 40
0.9513
 50
176.9872
 51
266.9872
  0
ARC
  8
20
 10
285.8500
 20
109.1500
 30
0.0000
 40
0.9513
 50
266.9872
 51
3.0128
  0
LINE
  8
20
 10
286.8000
 20
299.1000
 30
0.0000
 11
286.8000
 21
270.2000
 31
0.0000
  0
LINE
  8
20
 10
286.8000
 20
270.2000
 30
0.0000
 11
284.3000
 21
270.2000
 31
0.0000
  0
LINE
  8
20
 10
284.3000
 20
270.2000
 30
0.0000
 11
284.3000
 21
260.2000
 31
0.0000
  0
LINE
  8
20
 10
284.3000
 20
260.2000
 30
0.0000
 11
286.8000
 21
260.2000
 31
0.0000
  0
LINE
  8
20
 10
286.8000
 20
250.2000
 30
0.0000
 11
284.3000
 21
250.2000
 31
0.0000
  0
LINE
  8
20
 10
284.3000
 20
250.2000
 30
0.0000
 11
284.3000
 21
240.2000
 31
0.0000
  0
LINE
  8
20
 10
284.3000
 20
240.2000
 30
0.0000
 11
286.8000
 21
240.2000
 31
0.0000
  0
LINE
  8
20
 10
286.8000
 20
230.2000
 30
0.0000
 11
284.3000
 21
230.2000
 31
0.0000
  0
LINE
  8
20
 10
284.3000
 20
230.2000
 30
0.0000
 11
284.3000
 21
220.2000
 31
0.0000
  0
LINE
  8
20
 10
284.3000
 20
220.2000
 30
0.0000
 11
286.8000
 21
220.2000
 31
0.0000
  0
LINE
  8
20
 10
286.8000
 20
210.2000
 30
0.0000
 11
284.3000
 21
210.2000
 31
0.0000
  0
LINE
  8
20
 10
284.3000
 20
210.2000
 30
0.0000
 11
284.3000
 21
200.2000
 31
0.0000
  0
LINE
  8
20
 10
284.3000
 20
200.2000
 30
0.0000
 11
286.8000
 21
200.2000
 31
0.0000
  0
LINE
  8
20
 10
286.8000
 20
190.2000
 30
0.0000
 11
284.3000
 21
190.2000
 31
0.0000
  0
LINE
  8
20
 10
284.3000
 20
190.2000
 30
0.0000
 11
284.3000
 21
180.2000
 31
0.0000
  0
LINE
  8
20
 10
284.3000
 20
180.2000
 30
0.0000
 11
286.8000
 21
180.2000
 31
0.0000
  0
LINE
  8
20
 10
286.8000
 20
170.2000
 30
0.0000
 11
284.3000
 21
170.2000
 31
0.0000
  0
LINE
  8
20
 10
284.3000
 20
170.2000
 30
0.0000
 11
284.3000
 21
160.2000
 31
0.0000
  0
LINE
  8
20
 10
284.3000
 20
160.2000
 30
0.0000
 11
286.8000
 21
160.2000
 31
0.0000
  0
LINE
  8
20
 10
286.8000
 20
150.2000
 30
0.0000
 11
284.3000
 21
150.2000
 31
0.0000
  0
LINE
  8
20
 10
284.3000
 20
150.2000
 30
0.0000
 11
284.3000
 21
140.2000
 31
0.0000
  0
LINE
  8
20
 10
284.3000
 20
140.2000
 30
0.0000
 11
286.8000
 21
140.2000
 31
0.0000
  0
LINE
  8
20
 10
286.8000
 20
130.2000
 30
0.0000
 11
284.3000
 21
130.2000
 31
0.0000
  0
LINE
  8
20
 10
284.3000
 20
130.2000
 30
0.0000
 11
284.3000
 21
120.2000
 31
0.0000
  0
LINE
  8
20
 10
284.3000
 20
120.2000
 30
0.0000
 11
286.8000
 21
120.2000
 31
0.0000
  0
LINE
  8
20
 10
286.8000
 20
109.2000
 30
0.0000
 11
286.8000
 21
120.2000
 31
0.0000
  0
LINE
  8
20
 10
286.8000
 20
130.2000
 30
0.0000
 11
286.8000
 21
140.2000
 31
0.0000
  0
LINE
  8
20
 10
286.8000
 20
150.2000
 30
0.0000
 11
286.8000
 21
160.2000
 31
0.0000
  0
LINE
  8
20
 10
286.8000
 20
170.2000
 30
0.0000
 11
286.8000
 21
180.2000
 31
0.0000
  0
LINE
  8
20
 10
286.8000
 20
190.2000
 30
0.0000
 11
286.8000
 21
200.2000
 31
0.0000
  0
LINE
  8
20
 10
286.8000
 20
210.2000
 30
0.0000
 11
286.8000
 21
220.2000
 31
0.0000
  0
LINE
  8
20
 10
286.8000
 20
230.2000
 30
0.0000
 11
286.8000
 21
240.2000
 31
0.0000
  0
LINE
  8
20
 10
286.8000
 20
250.2000
 30
0.0000
 11
286.8000
 21
260.2000
 31
0.0000
  0
ARC
  8
20
 10
271.9950
 20
299.2000
 30
0.0000
 40
1.0000
 50
89.7135
 51
185.7392
  0
ARC
  8
20
 10
285.6400
 20
299.0500
 30
0.0000
 40
1.1611
 50
2.4681
 51
82.0794
  0
LINE
  8
20
 10
285.8000
 20
300.2000
 30
0.0000
 11
272.0000
 21
300.2000
 31
0.0000
  0
LINE
  8
20
 10
285.8000
 20
108.2000
 30
0.0000
 11
271.9000
 21
108.2000
 31
0.0000
  0
LINE
  8
20
 10
286.8000
 20
299.1000
 30
0.0000
 11
286.8000
 21
270.2000
 31
0.0000
  0
LINE
  8
20
 10
286.8000
 20
109.2000
 30
0.0000
 11
286.8000
 21
120.2000
 31
0.0000
  0
LINE
  8
20
 10
286.8000
 20
130.2000
 30
0.0000
 11
286.8000
 21
140.2000
 31
0.0000
  0
LINE
  8
20
 10
286.8000
 20
150.2000
 30
0.0000
 11
286.8000
 21
160.2000
 31
0.0000
  0
LINE
  8
20
 10
286.8000
 20
170.2000
 30
0.0000
 11
286.8000
 21
180.2000
 31
0.0000
  0
LINE
  8
20
 10
286.8000
 20
190.2000
 30
0.0000
 11
286.8000
 21
200.2000
 31
0.0000
  0
LINE
  8
20
 10
286.8000
 20
210.2000
 30
0.0000
 11
286.8000
 21
220.2000
 31
0.0000
  0
LINE
  8
20
 10
286.8000
 20
230.2000
 30
0.0000
 11
286.8000
 21
240.2000
 31
0.0000
  0
LINE
  8
20
 10
286.8000
 20
250.2000
 30
0.0000
 11
286.8000
 21
260.2000
 31
0.0000
  0
CIRCLE
  8
20
 10
8.0000
 20
9.8000
 30
0.0000
 40
1.0000
  0
CIRCLE
  8
20
 10
8.0000
 20
6.0000
 30
0.0000
 40
1.0000
  0
CIRCLE
  8
20
 10
8.0000
 20
25.6000
 30
0.0000
 40
1.0000
  0
CIRCLE
  8
20
 10
8.0000
 20
21.8000
 30
0.0000
 40
1.0000
  0
CIRCLE
  8
20
 10
8.0000
 20
41.4000
 30
0.0000
 40
1.0000
  0
CIRCLE
  8
20
 10
8.0000
 20
37.6000
 30
0.0000
 40
1.0000
  0
CIRCLE
  8
20
 10
8.0000
 20
57.2000
 30
0.0000
 40
1.0000
  0
CIRCLE
  8
20
 10
8.0000
 20
53.4000
 30
0.0000
 40
1.0000
  0
CIRCLE
  8
20
 10
8.0000
 20
73.0000
 30
0.0000
 40
1.0000
  0
CIRCLE
  8
20
 10
8.0000
 20
69.2000
 30
0.0000
 40
1.0000
  0
CIRCLE
  8
20
 10
8.0000
 20
88.8000
 30
0.0000
 40
1.0000
  0
CIRCLE
  8
20
 10
8.0000
 20
85.0000
 30
0.0000
 40
1.0000
  0
CIRCLE
  8
20
 10
8.0000
 20
104.6000
 30
0.0000
 40
1.0000
  0
CIRCLE
  8
20
 10
8.0000
 20
100.8000
 30
0.0000
 40
1.0000
  0
CIRCLE
  8
20
 10
8.0000
 20
120.4000
 30
0.0000
 40
1.0000
  0
CIRCLE
  8
20
 10
8.0000
 20
116.6000
 30
0.0000
 40
1.0000
  0
CIRCLE
  8
20
 10
8.0000
 20
136.2000
 30
0.0000
 40
1.0000
  0
CIRCLE
  8
20
 10
8.0000
 20
132.4000
 30
0.0000
 40
1.0000
  0
CIRCLE
  8
20
 10
8.0000
 20
152.0000
 30
0.0000
 40
1.0000
  0
CIRCLE
  8
20
 10
8.0000
 20
148.2000
 30
0.0000
 40
1.0000
  0
CIRCLE
  8
20
 10
8.0000
 20
167.8000
 30
0.0000
 40
1.0000
  0
CIRCLE
  8
20
 10
8.0000
 20
164.0000
 30
0.0000
 40
1.0000
  0
CIRCLE
  8
20
 10
8.0000
 20
183.6000
 30
0.0000
 40
1.0000
  0
CIRCLE
  8
20
 10
8.0000
 20
179.8000
 30
0.0000
 40
1.0000
  0
CIRCLE
  8
20
 10
8.0000
 20
199.4000
 30
0.0000
 40
1.0000
  0
CIRCLE
  8
20
 10
8.0000
 20
195.6000
 30
0.0000
 40
1.0000
  0
CIRCLE
  8
20
 10
8.0000
 20
215.2000
 30
0.0000
 40
1.0000
  0
CIRCLE
  8
20
 10
8.0000
 20
211.4000
 30
0.0000
 40
1.0000
  0
CIRCLE
  8
20
 10
8.0000
 20
231.0000
 30
0.0000
 40
1.0000
  0
CIRCLE
  8
20
 10
8.0000
 20
227.2000
 30
0.0000
 40
1.0000
  0
CIRCLE
  8
20
 10
8.0000
 20
246.8000
 30
0.0000
 40
1.0000
  0
CIRCLE
  8
20
 10
8.0000
 20
243.0000
 30
0.0000
 40
1.0000
  0
CIRCLE
  8
20
 10
8.0000
 20
262.6000
 30
0.0000
 40
1.0000
  0
CIRCLE
  8
20
 10
8.0000
 20
258.8000
 30
0.0000
 40
1.0000
  0
CIRCLE
  8
20
 10
8.0000
 20
278.4000
 30
0.0000
 40
1.0000
  0
CIRCLE
  8
20
 10
8.0000
 20
274.6000
 30
0.0000
 40
1.0000
  0
CIRCLE
  8
20
 10
8.0000
 20
294.2000
 30
0.0000
 40
1.0000
  0
CIRCLE
  8
20
 10
8.0000
 20
290.4000
 30
0.0000
 40
1.0000
  0
CIRCLE
  8
20
 10
201.8000
 20
292.2000
 30
0.0000
 40
1.0000
  0
CIRCLE
  8
20
 10
198.0000
 20
292.2000
 30
0.0000
 40
1.0000
  0
CIRCLE
  8
20
 10
217.6000
 20
292.2000
 30
0.0000
 40
1.0000
  0
CIRCLE
  8
20
 10
213.8000
 20
292.2000
 30
0.0000
 40
1.0000
  0
CIRCLE
  8
20
 10
233.4000
 20
292.2000
 30
0.0000
 40
1.0000
  0
CIRCLE
  8
20
 10
229.6000
 20
292.2000
 30
0.0000
 40
1.0000
  0
CIRCLE
  8
20
 10
249.2000
 20
292.2000
 30
0.0000
 40
1.0000
  0
CIRCLE
  8
20
 10
245.4000
 20
292.2000
 30
0.0000
 40
1.0000
  0
CIRCLE
  8
20
 10
265.0000
 20
292.2000
 30
0.0000
 40
1.0000
  0
CIRCLE
  8
20
 10
261.2000
 20
292.2000
 30
0.0000
 40
1.0000
  0
CIRCLE
  8
20
 10
280.8000
 20
292.2000
 30
0.0000
 40
1.0000
  0
CIRCLE
  8
20
 10
277.0000
 20
292.2000
 30
0.0000
 40
1.0000
  0
ENDSEC
  0
EOF
