G75*
%MOIN*%
%OFA0B0*%
%FSLAX25Y25*%
%IPPOS*%
%LPD*%
%AMOC8*
5,1,8,0,0,1.08239X$1,22.5*
%
%ADD10R,0.09449X0.11024*%
%ADD11R,0.22835X0.24409*%
%ADD12R,0.06299X0.11811*%
%ADD13R,0.03000X0.03000*%
%ADD14R,0.06890X0.04488*%
%ADD15R,0.04000X0.06000*%
%ADD16R,0.05906X0.02362*%
%ADD17R,0.05906X0.06299*%
%ADD18R,0.01181X0.04331*%
%ADD19R,0.06000X0.04000*%
%ADD20R,0.03543X0.02362*%
%ADD21R,0.04724X0.02165*%
D10*
X0814995Y0348244D03*
X0859877Y0348244D03*
X0859877Y0372260D03*
X0814995Y0372260D03*
D11*
X0902200Y0331591D03*
D12*
X0893224Y0359858D03*
X0911176Y0359858D03*
D13*
X0933302Y0347504D03*
X0933302Y0341504D03*
X0870704Y0345047D03*
X0870704Y0351047D03*
X1018885Y0358874D03*
X1024885Y0358874D03*
X1082318Y0313055D03*
X1082318Y0307055D03*
X0382365Y0344898D03*
X0376365Y0344898D03*
X0332956Y0351394D03*
X0326956Y0351394D03*
X0374987Y0368323D03*
X0380987Y0368323D03*
X0181972Y0320685D03*
X0175972Y0320685D03*
X0146145Y0320291D03*
X0140145Y0320291D03*
X0194476Y0232496D03*
X0200476Y0232496D03*
X0252546Y0231906D03*
X0258546Y0231906D03*
D14*
X0880153Y0342142D03*
X0880153Y0353953D03*
X0922672Y0350803D03*
X0922672Y0338992D03*
D15*
X0236889Y0217732D03*
X0243889Y0217732D03*
X0230109Y0220882D03*
X0223109Y0220882D03*
X0290039Y0222260D03*
X0297039Y0222260D03*
X0340826Y0229346D03*
X0347826Y0229346D03*
X0424291Y0230528D03*
X0431291Y0230528D03*
X0499881Y0226984D03*
X0506881Y0226984D03*
X0579015Y0225409D03*
X0586015Y0225409D03*
X0657755Y0225803D03*
X0664755Y0225803D03*
X0736495Y0225409D03*
X0743495Y0225409D03*
X0816810Y0225016D03*
X0823810Y0225016D03*
X0894763Y0224622D03*
X0901763Y0224622D03*
X0975472Y0225016D03*
X0982472Y0225016D03*
X1053424Y0225016D03*
X1060424Y0225016D03*
X0950976Y0326197D03*
X0943976Y0326197D03*
X1018779Y0336433D03*
X1025779Y0336433D03*
X1025582Y0347850D03*
X1018582Y0347850D03*
X1033149Y0348047D03*
X1040149Y0348047D03*
X0937787Y0361827D03*
X0930787Y0361827D03*
X0727944Y0372654D03*
X0720944Y0372654D03*
X0636212Y0369701D03*
X0629212Y0369701D03*
X0544873Y0370685D03*
X0537873Y0370685D03*
X0452157Y0372063D03*
X0445157Y0372063D03*
X0404125Y0363992D03*
X0397125Y0363992D03*
X0397125Y0353362D03*
X0404125Y0353362D03*
X0403928Y0343717D03*
X0396928Y0343717D03*
X0397322Y0333087D03*
X0404322Y0333087D03*
D16*
X1017751Y0327988D03*
X1017751Y0322988D03*
X1017751Y0317988D03*
X1017751Y0312988D03*
X1039405Y0312988D03*
X1039405Y0317988D03*
X1039405Y0322988D03*
X1039405Y0327988D03*
D17*
X1003381Y0329819D03*
X1003381Y0319819D03*
X0969129Y0319819D03*
X0969129Y0329819D03*
X0969129Y0346591D03*
X0969129Y0356591D03*
X1003381Y0356591D03*
X1003381Y0346591D03*
D18*
X0155940Y0314091D03*
X0153972Y0314091D03*
X0152003Y0314091D03*
X0150035Y0314091D03*
X0148066Y0314091D03*
X0146098Y0314091D03*
X0144129Y0314091D03*
X0142161Y0314091D03*
X0140192Y0314091D03*
X0138224Y0314091D03*
X0136255Y0314091D03*
X0134287Y0314091D03*
X0132318Y0314091D03*
X0130350Y0314091D03*
X0128381Y0314091D03*
X0126413Y0314091D03*
X0124444Y0314091D03*
X0122476Y0314091D03*
X0120507Y0314091D03*
X0118539Y0314091D03*
X0116570Y0314091D03*
X0114602Y0314091D03*
X0112633Y0314091D03*
X0110665Y0314091D03*
X0110665Y0238697D03*
X0112633Y0238697D03*
X0114602Y0238697D03*
X0116570Y0238697D03*
X0118539Y0238697D03*
X0120507Y0238697D03*
X0122476Y0238697D03*
X0124444Y0238697D03*
X0126413Y0238697D03*
X0128381Y0238697D03*
X0130350Y0238697D03*
X0132318Y0238697D03*
X0134287Y0238697D03*
X0136255Y0238697D03*
X0138224Y0238697D03*
X0140192Y0238697D03*
X0142161Y0238697D03*
X0144129Y0238697D03*
X0146098Y0238697D03*
X0148066Y0238697D03*
X0150035Y0238697D03*
X0152003Y0238697D03*
X0153972Y0238697D03*
X0155940Y0238697D03*
D19*
X0208893Y0239146D03*
X0208893Y0232146D03*
X0280153Y0225760D03*
X0280153Y0218760D03*
X1053972Y0305965D03*
X1053972Y0312965D03*
D20*
X0383893Y0330134D03*
X0383893Y0333874D03*
X0383893Y0337614D03*
X0374838Y0337614D03*
X0374838Y0333874D03*
X0374838Y0330134D03*
X0374641Y0353165D03*
X0374641Y0356906D03*
X0374641Y0360646D03*
X0383696Y0360646D03*
X0383696Y0356906D03*
X0383696Y0353165D03*
X0201609Y0247260D03*
X0201609Y0243520D03*
X0201609Y0239780D03*
X0192554Y0239780D03*
X0192554Y0243520D03*
X0192554Y0247260D03*
X0251609Y0225213D03*
X0251609Y0221472D03*
X0251609Y0217732D03*
X0260665Y0217732D03*
X0260665Y0221472D03*
X0260665Y0225213D03*
D21*
X1063617Y0305921D03*
X1063617Y0309661D03*
X1063617Y0313402D03*
X1073854Y0313402D03*
X1073854Y0305921D03*
M02*
