%
M48
M72
T01C0.01181
T02C0.02362
T03C0.02795
T04C0.04000
T05C0.04331
T06C0.04800
T07C0.06299
T08C0.07087
T09C0.08268
T10C0.11800
T11C0.12500
T12C0.25000
T13C0.25197
%
T01
X255940Y216945
X263027Y231118
X248460Y231709
X195507Y227181
X193342Y236236
X188224Y243717
X134877Y230921
X129365Y233874
X206728Y276787
X206728Y279937
X206728Y283087
X194523Y306709
X182121Y326000
X153381Y325213
X151806Y319110
X113617Y320291
X240783Y348638
X260468Y348835
X363420Y349622
X370507Y345488
X370507Y356118
X434090Y349622
X456334Y372850
X527003Y370291
X550625Y370882
X624838Y372063
X641176Y368520
X714405Y370882
X732909Y370291
X938617Y325606
X961058Y318913
X970310Y305134
X1047279Y305724
X1086452Y313402
X986452Y270291
X1075231Y231118
X368932Y333480
T02
X320704Y347457
X299050Y347457
X221098Y330134
X841570Y300606
X1002791Y311827
X1046294Y327969
X1046098Y348047
X1030546Y356906
X992161Y360252
T03
X975231Y373244
X967357Y373244
X959483Y373244
T04
X121846Y192102
X131846Y192102
X141846Y192102
X151846Y192102
X161846Y192102
X171846Y192102
X181846Y192102
X191846Y192102
X201846Y192102
X211846Y192102
X221846Y192102
X231846Y192102
X241846Y192102
X251846Y192102
X261846Y192102
X271846Y192102
X281846Y192102
X291846Y192102
X301846Y192102
X311846Y192102
X321846Y192102
X331846Y192102
X341846Y192102
X351846Y192102
X361846Y192102
X361846Y202102
X351846Y202102
X341846Y202102
X331846Y202102
X321846Y202102
X311846Y202102
X301846Y202102
X291846Y202102
X281846Y202102
X271846Y202102
X261846Y202102
X251846Y202102
X241846Y202102
X231846Y202102
X221846Y202102
X211846Y202102
X201846Y202102
X191846Y202102
X181846Y202102
X171846Y202102
X161846Y202102
X151846Y202102
X141846Y202102
X131846Y202102
X121846Y202102
X171846Y222102
X181846Y222102
X181846Y232102
X171846Y232102
X171846Y242102
X181846Y242102
X181846Y252102
X171846Y252102
X171846Y262102
X181846Y262102
X181846Y272102
X171846Y272102
X171846Y282102
X181846Y282102
X181846Y292102
X171846Y292102
X171846Y302102
X181846Y302102
X181846Y312102
X171846Y312102
X223078Y290843
X234078Y290843
X234078Y280843
X223078Y280843
X223078Y270843
X234078Y270843
X234078Y260843
X223078Y260843
X223078Y250843
X234078Y250843
X234078Y240843
X223078Y240843
X223078Y230843
X234078Y230843
X301818Y230843
X312818Y230843
X312818Y240843
X301818Y240843
X301818Y250843
X312818Y250843
X312818Y260843
X301818Y260843
X301818Y270843
X312818Y270843
X312818Y280843
X301818Y280843
X301818Y290843
X312818Y290843
X380558Y290843
X391558Y290843
X391558Y280843
X380558Y280843
X380558Y270843
X391558Y270843
X391558Y260843
X380558Y260843
X380558Y250843
X391558Y250843
X391558Y240843
X380558Y240843
X380558Y230843
X391558Y230843
X459298Y230843
X470298Y230843
X470298Y240843
X459298Y240843
X459298Y250843
X470298Y250843
X470298Y260843
X459298Y260843
X459298Y270843
X470298Y270843
X470298Y280843
X459298Y280843
X459298Y290843
X470298Y290843
X538039Y290843
X549039Y290843
X549039Y280843
X538039Y280843
X538039Y270843
X549039Y270843
X549039Y260843
X538039Y260843
X538039Y250843
X549039Y250843
X549039Y240843
X538039Y240843
X538039Y230843
X549039Y230843
X616779Y230843
X627779Y230843
X627779Y240843
X616779Y240843
X616779Y250843
X627779Y250843
X627779Y260843
X616779Y260843
X616779Y270843
X627779Y270843
X627779Y280843
X616779Y280843
X616779Y290843
X627779Y290843
X695519Y290843
X706519Y290843
X706519Y280843
X695519Y280843
X695519Y270843
X706519Y270843
X706519Y260843
X695519Y260843
X695519Y250843
X706519Y250843
X706519Y240843
X695519Y240843
X695519Y230843
X706519Y230843
X774259Y230843
X785259Y230843
X785259Y240843
X774259Y240843
X774259Y250843
X785259Y250843
X785259Y260843
X774259Y260843
X774259Y270843
X785259Y270843
X785259Y280843
X774259Y280843
X774259Y290843
X785259Y290843
X852999Y290843
X863999Y290843
X863999Y280843
X852999Y280843
X852999Y270843
X863999Y270843
X863999Y260843
X852999Y260843
X852999Y250843
X863999Y250843
X863999Y240843
X852999Y240843
X852999Y230843
X863999Y230843
X931739Y230843
X942739Y230843
X942739Y240843
X931739Y240843
X931739Y250843
X942739Y250843
X942739Y260843
X931739Y260843
X931739Y270843
X942739Y270843
X942739Y280843
X931739Y280843
X931739Y290843
X942739Y290843
X1010480Y290843
X1021480Y290843
X1021480Y280843
X1010480Y280843
X1010480Y270843
X1021480Y270843
X1021480Y260843
X1010480Y260843
X1010480Y250843
X1021480Y250843
X1021480Y240843
X1010480Y240843
X1010480Y230843
X1021480Y230843
X1089220Y230843
X1100220Y230843
X1100220Y240843
X1089220Y240843
X1089220Y250843
X1100220Y250843
X1100220Y260843
X1089220Y260843
X1089220Y270843
X1100220Y270843
X1100220Y280843
X1089220Y280843
X1089220Y290843
X1100220Y290843
X939711Y376591
X928311Y376591
X914680Y378052
X904680Y377052
X894680Y378052
X884680Y377052
X730813Y380921
X719413Y380921
X638884Y380724
X627484Y380724
X547349Y380331
X535949Y380331
X455026Y380528
X443626Y380528
X361846Y372102
X351846Y372102
X341846Y372102
X331846Y372102
X321846Y372102
X311846Y372102
X301846Y372102
X291846Y372102
X281846Y372102
X271846Y372102
X261846Y372102
X251846Y372102
X241846Y372102
X231846Y372102
X221846Y372102
X211846Y372102
X201846Y372102
X191846Y372102
X181846Y372102
X171846Y372102
X161846Y372102
X151846Y372102
X141846Y372102
X131846Y372102
X121846Y372102
X121846Y362102
X131846Y362102
X141846Y362102
X151846Y362102
X161846Y362102
X171846Y362102
X181846Y362102
X191846Y362102
X201846Y362102
X211846Y362102
X221846Y362102
X231846Y362102
X241846Y362102
X251846Y362102
X261846Y362102
X271846Y362102
X281846Y362102
X291846Y362102
X301846Y362102
X311846Y362102
X321846Y362102
X331846Y362102
X341846Y362102
X351846Y362102
X361846Y362102
X447082Y338275
X447082Y326875
T05
X980743Y366551
T06
X796098Y377772
X746098Y377772
X704365Y377969
X654365Y377969
X612830Y377772
X562830Y377772
X520310Y378165
X470310Y378165
X495310Y353165
X470310Y328165
X520310Y328165
X562830Y327772
X612830Y327772
X654365Y327969
X704365Y327969
X746098Y327772
X796098Y327772
X771098Y352772
X679365Y352969
X587830Y352772
T07
X837436Y348244
T08
X837436Y365961
T09
X1078381Y350409
T10
X421846Y367102
X101846Y367102
X101846Y197102
X421846Y197102
T11
X52594Y207102
X1152594Y207102
T12
X1152594Y252969
X52594Y252969
T13
X52594Y307102
X1152594Y307102
M30
