G75*
%MOIN*%
%OFA0B0*%
%FSLAX25Y25*%
%IPPOS*%
%LPD*%
%AMOC8*
5,1,8,0,0,1.08239X$1,22.5*
%
%ADD10C,0.07300*%
%ADD11OC8,0.07300*%
%ADD12R,0.08200X0.08200*%
%ADD13C,0.08200*%
%ADD14C,0.07099*%
%ADD15C,0.07887*%
%ADD16C,0.05595*%
%ADD17C,0.05131*%
%ADD18C,0.13068*%
%ADD19C,0.08000*%
%ADD20R,0.06800X0.06800*%
%ADD21C,0.06800*%
%ADD22C,0.16600*%
%ADD23C,0.26200*%
%ADD24C,0.29997*%
%ADD25C,0.40170*%
D10*
X0234078Y0230843D03*
X0234078Y0240843D03*
X0223078Y0240843D03*
X0223078Y0250843D03*
X0234078Y0250843D03*
X0234078Y0260843D03*
X0223078Y0260843D03*
X0223078Y0270843D03*
X0234078Y0270843D03*
X0234078Y0280843D03*
X0223078Y0280843D03*
X0223078Y0290843D03*
X0234078Y0290843D03*
X0301818Y0290843D03*
X0312818Y0290843D03*
X0312818Y0280843D03*
X0301818Y0280843D03*
X0301818Y0270843D03*
X0312818Y0270843D03*
X0312818Y0260843D03*
X0301818Y0260843D03*
X0301818Y0250843D03*
X0312818Y0250843D03*
X0312818Y0240843D03*
X0301818Y0240843D03*
X0312818Y0230843D03*
X0380558Y0240843D03*
X0391558Y0240843D03*
X0391558Y0250843D03*
X0380558Y0250843D03*
X0380558Y0260843D03*
X0391558Y0260843D03*
X0391558Y0270843D03*
X0380558Y0270843D03*
X0380558Y0280843D03*
X0391558Y0280843D03*
X0391558Y0290843D03*
X0380558Y0290843D03*
X0459298Y0290843D03*
X0470298Y0290843D03*
X0470298Y0280843D03*
X0459298Y0280843D03*
X0459298Y0270843D03*
X0470298Y0270843D03*
X0470298Y0260843D03*
X0459298Y0260843D03*
X0459298Y0250843D03*
X0470298Y0250843D03*
X0470298Y0240843D03*
X0459298Y0240843D03*
X0470298Y0230843D03*
X0538039Y0240843D03*
X0549039Y0240843D03*
X0549039Y0250843D03*
X0538039Y0250843D03*
X0538039Y0260843D03*
X0549039Y0260843D03*
X0549039Y0270843D03*
X0538039Y0270843D03*
X0538039Y0280843D03*
X0549039Y0280843D03*
X0549039Y0290843D03*
X0538039Y0290843D03*
X0616779Y0290843D03*
X0627779Y0290843D03*
X0627779Y0280843D03*
X0616779Y0280843D03*
X0616779Y0270843D03*
X0627779Y0270843D03*
X0627779Y0260843D03*
X0616779Y0260843D03*
X0616779Y0250843D03*
X0627779Y0250843D03*
X0627779Y0240843D03*
X0616779Y0240843D03*
X0627779Y0230843D03*
X0695519Y0240843D03*
X0706519Y0240843D03*
X0706519Y0250843D03*
X0695519Y0250843D03*
X0695519Y0260843D03*
X0706519Y0260843D03*
X0706519Y0270843D03*
X0695519Y0270843D03*
X0695519Y0280843D03*
X0706519Y0280843D03*
X0706519Y0290843D03*
X0695519Y0290843D03*
X0774259Y0290843D03*
X0785259Y0290843D03*
X0785259Y0280843D03*
X0774259Y0280843D03*
X0774259Y0270843D03*
X0785259Y0270843D03*
X0785259Y0260843D03*
X0774259Y0260843D03*
X0774259Y0250843D03*
X0785259Y0250843D03*
X0785259Y0240843D03*
X0774259Y0240843D03*
X0785259Y0230843D03*
X0852999Y0240843D03*
X0863999Y0240843D03*
X0863999Y0250843D03*
X0852999Y0250843D03*
X0852999Y0260843D03*
X0863999Y0260843D03*
X0863999Y0270843D03*
X0852999Y0270843D03*
X0852999Y0280843D03*
X0863999Y0280843D03*
X0863999Y0290843D03*
X0852999Y0290843D03*
X0931739Y0290843D03*
X0942739Y0290843D03*
X0942739Y0280843D03*
X0931739Y0280843D03*
X0931739Y0270843D03*
X0942739Y0270843D03*
X0942739Y0260843D03*
X0931739Y0260843D03*
X0931739Y0250843D03*
X0942739Y0250843D03*
X0942739Y0240843D03*
X0931739Y0240843D03*
X0942739Y0230843D03*
X1010480Y0240843D03*
X1021480Y0240843D03*
X1021480Y0250843D03*
X1010480Y0250843D03*
X1010480Y0260843D03*
X1021480Y0260843D03*
X1021480Y0270843D03*
X1010480Y0270843D03*
X1010480Y0280843D03*
X1021480Y0280843D03*
X1021480Y0290843D03*
X1010480Y0290843D03*
X1089220Y0290843D03*
X1100220Y0290843D03*
X1100220Y0280843D03*
X1089220Y0280843D03*
X1089220Y0270843D03*
X1100220Y0270843D03*
X1100220Y0260843D03*
X1089220Y0260843D03*
X1089220Y0250843D03*
X1100220Y0250843D03*
X1100220Y0240843D03*
X1089220Y0240843D03*
X1100220Y0230843D03*
X1021480Y0230843D03*
X0863999Y0230843D03*
X0706519Y0230843D03*
X0549039Y0230843D03*
X0391558Y0230843D03*
D11*
X0380558Y0230843D03*
X0301818Y0230843D03*
X0223078Y0230843D03*
X0459298Y0230843D03*
X0538039Y0230843D03*
X0616779Y0230843D03*
X0695519Y0230843D03*
X0774259Y0230843D03*
X0852999Y0230843D03*
X0931739Y0230843D03*
X1010480Y0230843D03*
X1089220Y0230843D03*
D12*
X0884680Y0377052D03*
D13*
X0894680Y0378052D03*
X0904680Y0377052D03*
X0914680Y0378052D03*
X0928311Y0376591D03*
X0939711Y0376591D03*
X0730813Y0380921D03*
X0719413Y0380921D03*
X0638884Y0380724D03*
X0627484Y0380724D03*
X0547349Y0380331D03*
X0535949Y0380331D03*
X0455026Y0380528D03*
X0443626Y0380528D03*
X0447082Y0338275D03*
X0447082Y0326875D03*
D14*
X0837436Y0348244D03*
D15*
X0837436Y0365961D03*
D16*
X0959483Y0373244D03*
X0967357Y0373244D03*
X0975231Y0373244D03*
D17*
X0980743Y0366551D03*
D18*
X1078381Y0350409D03*
D19*
X0796098Y0327772D03*
X0746098Y0327772D03*
X0704365Y0327969D03*
X0654365Y0327969D03*
X0612830Y0327772D03*
X0562830Y0327772D03*
X0520310Y0328165D03*
X0470310Y0328165D03*
X0495310Y0353165D03*
X0470310Y0378165D03*
X0520310Y0378165D03*
X0562830Y0377772D03*
X0612830Y0377772D03*
X0654365Y0377969D03*
X0704365Y0377969D03*
X0746098Y0377772D03*
X0796098Y0377772D03*
X0771098Y0352772D03*
X0679365Y0352969D03*
X0587830Y0352772D03*
D20*
X0181846Y0312102D03*
X0121846Y0372102D03*
X0121846Y0202102D03*
D21*
X0121846Y0192102D03*
X0131846Y0192102D03*
X0141846Y0192102D03*
X0151846Y0192102D03*
X0161846Y0192102D03*
X0171846Y0192102D03*
X0181846Y0192102D03*
X0191846Y0192102D03*
X0201846Y0192102D03*
X0211846Y0192102D03*
X0221846Y0192102D03*
X0231846Y0192102D03*
X0241846Y0192102D03*
X0251846Y0192102D03*
X0261846Y0192102D03*
X0271846Y0192102D03*
X0281846Y0192102D03*
X0291846Y0192102D03*
X0301846Y0192102D03*
X0311846Y0192102D03*
X0321846Y0192102D03*
X0331846Y0192102D03*
X0341846Y0192102D03*
X0351846Y0192102D03*
X0361846Y0192102D03*
X0361846Y0202102D03*
X0351846Y0202102D03*
X0341846Y0202102D03*
X0331846Y0202102D03*
X0321846Y0202102D03*
X0311846Y0202102D03*
X0301846Y0202102D03*
X0291846Y0202102D03*
X0281846Y0202102D03*
X0271846Y0202102D03*
X0261846Y0202102D03*
X0251846Y0202102D03*
X0241846Y0202102D03*
X0231846Y0202102D03*
X0221846Y0202102D03*
X0211846Y0202102D03*
X0201846Y0202102D03*
X0191846Y0202102D03*
X0181846Y0202102D03*
X0171846Y0202102D03*
X0161846Y0202102D03*
X0151846Y0202102D03*
X0141846Y0202102D03*
X0131846Y0202102D03*
X0171846Y0222102D03*
X0181846Y0222102D03*
X0181846Y0232102D03*
X0171846Y0232102D03*
X0171846Y0242102D03*
X0181846Y0242102D03*
X0181846Y0252102D03*
X0171846Y0252102D03*
X0171846Y0262102D03*
X0181846Y0262102D03*
X0181846Y0272102D03*
X0171846Y0272102D03*
X0171846Y0282102D03*
X0181846Y0282102D03*
X0181846Y0292102D03*
X0171846Y0292102D03*
X0171846Y0302102D03*
X0181846Y0302102D03*
X0171846Y0312102D03*
X0171846Y0362102D03*
X0181846Y0362102D03*
X0191846Y0362102D03*
X0201846Y0362102D03*
X0211846Y0362102D03*
X0221846Y0362102D03*
X0231846Y0362102D03*
X0241846Y0362102D03*
X0251846Y0362102D03*
X0261846Y0362102D03*
X0271846Y0362102D03*
X0281846Y0362102D03*
X0291846Y0362102D03*
X0301846Y0362102D03*
X0311846Y0362102D03*
X0321846Y0362102D03*
X0331846Y0362102D03*
X0341846Y0362102D03*
X0351846Y0362102D03*
X0361846Y0362102D03*
X0361846Y0372102D03*
X0351846Y0372102D03*
X0341846Y0372102D03*
X0331846Y0372102D03*
X0321846Y0372102D03*
X0311846Y0372102D03*
X0301846Y0372102D03*
X0291846Y0372102D03*
X0281846Y0372102D03*
X0271846Y0372102D03*
X0261846Y0372102D03*
X0251846Y0372102D03*
X0241846Y0372102D03*
X0231846Y0372102D03*
X0221846Y0372102D03*
X0211846Y0372102D03*
X0201846Y0372102D03*
X0191846Y0372102D03*
X0181846Y0372102D03*
X0171846Y0372102D03*
X0161846Y0372102D03*
X0151846Y0372102D03*
X0141846Y0372102D03*
X0131846Y0372102D03*
X0131846Y0362102D03*
X0141846Y0362102D03*
X0151846Y0362102D03*
X0161846Y0362102D03*
X0121846Y0362102D03*
D22*
X0101846Y0367102D03*
X0421846Y0367102D03*
X0421846Y0197102D03*
X0101846Y0197102D03*
D23*
X0052594Y0207102D03*
X1152594Y0207102D03*
D24*
X1152594Y0307102D03*
X0052594Y0307102D03*
D25*
X0052594Y0252969D03*
X1152594Y0252969D03*
M02*
