G75*
%MOIN*%
%OFA0B0*%
%FSLAX25Y25*%
%IPPOS*%
%LPD*%
%AMOC8*
5,1,8,0,0,1.08239X$1,22.5*
%
%ADD10C,0.00800*%
%ADD11C,0.00700*%
%ADD12C,0.00600*%
%ADD13C,0.00500*%
%ADD14R,0.00800X0.00400*%
%ADD15R,0.03200X0.00400*%
%ADD16R,0.03600X0.00400*%
%ADD17R,0.04000X0.00400*%
%ADD18R,0.04400X0.00400*%
%ADD19R,0.02800X0.00400*%
%ADD20R,0.08000X0.00400*%
%ADD21R,0.06000X0.00400*%
%ADD22R,0.08400X0.00400*%
%ADD23R,0.06800X0.00400*%
%ADD24R,0.07200X0.00400*%
%ADD25R,0.08800X0.00400*%
%ADD26R,0.07600X0.00400*%
%ADD27R,0.06400X0.00400*%
%ADD28R,0.12400X0.00400*%
%ADD29R,0.12000X0.00400*%
%ADD30R,0.05600X0.00400*%
%ADD31R,0.04800X0.00400*%
%ADD32R,0.02400X0.00400*%
%ADD33R,0.02000X0.00400*%
%ADD34R,0.01200X0.00400*%
%ADD35R,0.00400X0.00400*%
%ADD36R,0.11600X0.00400*%
%ADD37R,0.12800X0.00400*%
%ADD38R,0.01600X0.00400*%
%ADD39R,0.10800X0.00400*%
D10*
X0215192Y0220409D02*
X0215192Y0252181D01*
X0215192Y0269504D02*
X0215192Y0301276D01*
X0241964Y0301276D01*
X0241964Y0220409D01*
X0215192Y0220409D01*
X0293932Y0220409D02*
X0293932Y0252181D01*
X0293932Y0269504D02*
X0293932Y0301276D01*
X0320704Y0301276D01*
X0320704Y0220409D01*
X0293932Y0220409D01*
X0372672Y0220409D02*
X0372672Y0252181D01*
X0372672Y0269504D02*
X0372672Y0301276D01*
X0399444Y0301276D01*
X0399444Y0220409D01*
X0372672Y0220409D01*
X0451413Y0220409D02*
X0451413Y0252181D01*
X0451413Y0269504D02*
X0451413Y0301276D01*
X0478184Y0301276D01*
X0478184Y0220409D01*
X0451413Y0220409D01*
X0530153Y0220409D02*
X0530153Y0252181D01*
X0530153Y0269504D02*
X0530153Y0301276D01*
X0556924Y0301276D01*
X0556924Y0220409D01*
X0530153Y0220409D01*
X0608893Y0220409D02*
X0608893Y0252181D01*
X0608893Y0269504D02*
X0608893Y0301276D01*
X0635665Y0301276D01*
X0635665Y0220409D01*
X0608893Y0220409D01*
X0687633Y0220409D02*
X0687633Y0252181D01*
X0687633Y0269504D02*
X0687633Y0301276D01*
X0714405Y0301276D01*
X0714405Y0220409D01*
X0687633Y0220409D01*
X0766373Y0220409D02*
X0766373Y0252181D01*
X0766373Y0269504D02*
X0766373Y0301276D01*
X0793145Y0301276D01*
X0793145Y0220409D01*
X0766373Y0220409D01*
X0845113Y0220409D02*
X0845113Y0252181D01*
X0845113Y0269504D02*
X0845113Y0301276D01*
X0871885Y0301276D01*
X0871885Y0220409D01*
X0845113Y0220409D01*
X0923854Y0220409D02*
X0923854Y0252181D01*
X0923854Y0269504D02*
X0923854Y0301276D01*
X0950625Y0301276D01*
X0950625Y0220409D01*
X0923854Y0220409D01*
X1002594Y0220409D02*
X1002594Y0252181D01*
X1002594Y0269504D02*
X1002594Y0301276D01*
X1029365Y0301276D01*
X1029365Y0220409D01*
X1002594Y0220409D01*
X1081334Y0220409D02*
X1081334Y0252181D01*
X1081334Y0269504D02*
X1081334Y0301276D01*
X1108106Y0301276D01*
X1108106Y0220409D01*
X1081334Y0220409D01*
X1086176Y0303880D02*
X1092315Y0303880D01*
X1095384Y0303880D02*
X1101523Y0310019D01*
X1101523Y0311554D01*
X1099988Y0313088D01*
X1096919Y0313088D01*
X1095384Y0311554D01*
X1089246Y0313088D02*
X1089246Y0303880D01*
X1095384Y0303880D02*
X1101523Y0303880D01*
X1089246Y0313088D02*
X1086176Y0310019D01*
X1024357Y0304668D02*
X1018219Y0304668D01*
X1021288Y0304668D02*
X1021288Y0313876D01*
X1018219Y0310806D01*
X1012080Y0313876D02*
X1012080Y0304668D01*
X1009011Y0304668D02*
X1015150Y0304668D01*
X1009011Y0310806D02*
X1012080Y0313876D01*
X0942468Y0311947D02*
X0936329Y0305809D01*
X0937864Y0304274D01*
X0940933Y0304274D01*
X0942468Y0305809D01*
X0942468Y0311947D01*
X0940933Y0313482D01*
X0937864Y0313482D01*
X0936329Y0311947D01*
X0936329Y0305809D01*
X0933260Y0304274D02*
X0927121Y0304274D01*
X0930191Y0304274D02*
X0930191Y0313482D01*
X0927121Y0310413D01*
X0860819Y0309272D02*
X0856215Y0309272D01*
X0854680Y0310806D01*
X0854680Y0312341D01*
X0856215Y0313876D01*
X0859284Y0313876D01*
X0860819Y0312341D01*
X0860819Y0306202D01*
X0859284Y0304668D01*
X0856215Y0304668D01*
X0854680Y0306202D01*
X0783654Y0307383D02*
X0782119Y0305849D01*
X0779050Y0305849D01*
X0777515Y0307383D01*
X0777515Y0308918D01*
X0779050Y0310453D01*
X0782119Y0310453D01*
X0783654Y0308918D01*
X0783654Y0307383D01*
X0782119Y0310453D02*
X0783654Y0311987D01*
X0783654Y0313522D01*
X0782119Y0315057D01*
X0779050Y0315057D01*
X0777515Y0313522D01*
X0777515Y0311987D01*
X0779050Y0310453D01*
X0705791Y0312554D02*
X0699653Y0306415D01*
X0699653Y0304880D01*
X0699653Y0314088D02*
X0705791Y0314088D01*
X0705791Y0312554D01*
X0624598Y0314663D02*
X0621529Y0313128D01*
X0618460Y0310059D01*
X0623064Y0310059D01*
X0624598Y0308524D01*
X0624598Y0306990D01*
X0623064Y0305455D01*
X0619994Y0305455D01*
X0618460Y0306990D01*
X0618460Y0310059D01*
X0546252Y0309272D02*
X0546252Y0306202D01*
X0544717Y0304668D01*
X0541648Y0304668D01*
X0540113Y0306202D01*
X0540113Y0309272D02*
X0543183Y0310806D01*
X0544717Y0310806D01*
X0546252Y0309272D01*
X0546252Y0313876D02*
X0540113Y0313876D01*
X0540113Y0309272D01*
X0468693Y0310846D02*
X0462554Y0310846D01*
X0467158Y0315450D01*
X0467158Y0306243D01*
X0388378Y0307383D02*
X0386843Y0305849D01*
X0383774Y0305849D01*
X0382239Y0307383D01*
X0385309Y0310453D02*
X0386843Y0310453D01*
X0388378Y0308918D01*
X0388378Y0307383D01*
X0386843Y0310453D02*
X0388378Y0311987D01*
X0388378Y0313522D01*
X0386843Y0315057D01*
X0383774Y0315057D01*
X0382239Y0313522D01*
X0312000Y0313522D02*
X0310465Y0315057D01*
X0307396Y0315057D01*
X0305861Y0313522D01*
X0312000Y0313522D02*
X0312000Y0311987D01*
X0305861Y0305849D01*
X0312000Y0305849D01*
X0232866Y0306636D02*
X0226728Y0306636D01*
X0229797Y0306636D02*
X0229797Y0315844D01*
X0226728Y0312775D01*
D11*
X0159950Y0284096D02*
X0158315Y0285731D01*
X0156680Y0284096D01*
X0156680Y0280826D01*
X0154793Y0281644D02*
X0153976Y0280826D01*
X0152341Y0280826D01*
X0151524Y0281644D01*
X0154793Y0284913D01*
X0154793Y0281644D01*
X0156680Y0283278D02*
X0159950Y0283278D01*
X0159950Y0284096D02*
X0159950Y0280826D01*
X0154793Y0284913D02*
X0153976Y0285731D01*
X0152341Y0285731D01*
X0151524Y0284913D01*
X0151524Y0281644D01*
X0149637Y0283278D02*
X0146367Y0283278D01*
X0148819Y0285731D01*
X0148819Y0280826D01*
X0144480Y0281644D02*
X0143663Y0280826D01*
X0142028Y0280826D01*
X0141211Y0281644D01*
X0139324Y0281644D02*
X0138507Y0280826D01*
X0136872Y0280826D01*
X0136055Y0281644D01*
X0136055Y0282461D01*
X0136872Y0283278D01*
X0138507Y0283278D01*
X0139324Y0282461D01*
X0139324Y0281644D01*
X0138507Y0283278D02*
X0139324Y0284096D01*
X0139324Y0284913D01*
X0138507Y0285731D01*
X0136872Y0285731D01*
X0136055Y0284913D01*
X0136055Y0284096D01*
X0136872Y0283278D01*
X0134168Y0281644D02*
X0133350Y0280826D01*
X0131715Y0280826D01*
X0130898Y0281644D01*
X0134168Y0284913D01*
X0134168Y0281644D01*
X0134168Y0284913D02*
X0133350Y0285731D01*
X0131715Y0285731D01*
X0130898Y0284913D01*
X0130898Y0281644D01*
X0129011Y0281644D02*
X0128194Y0280826D01*
X0126559Y0280826D01*
X0125742Y0281644D01*
X0129011Y0284913D01*
X0129011Y0281644D01*
X0129011Y0284913D02*
X0128194Y0285731D01*
X0126559Y0285731D01*
X0125742Y0284913D01*
X0125742Y0281644D01*
X0123037Y0281644D02*
X0123037Y0285731D01*
X0122220Y0285731D02*
X0123855Y0285731D01*
X0123037Y0281644D02*
X0122220Y0280826D01*
X0121403Y0280826D01*
X0120585Y0281644D01*
X0118698Y0280009D02*
X0115429Y0280009D01*
X0113542Y0280826D02*
X0113542Y0284096D01*
X0111907Y0285731D01*
X0110273Y0284096D01*
X0110273Y0280826D01*
X0108386Y0281644D02*
X0107568Y0280826D01*
X0105934Y0280826D01*
X0105116Y0281644D01*
X0105116Y0284913D01*
X0105934Y0285731D01*
X0107568Y0285731D01*
X0108386Y0284913D01*
X0108386Y0283278D02*
X0106751Y0283278D01*
X0108386Y0283278D02*
X0108386Y0281644D01*
X0110273Y0283278D02*
X0113542Y0283278D01*
X0103229Y0283278D02*
X0102412Y0282461D01*
X0099960Y0282461D01*
X0099960Y0280826D02*
X0099960Y0285731D01*
X0102412Y0285731D01*
X0103229Y0284913D01*
X0103229Y0283278D01*
X0098073Y0285731D02*
X0094803Y0285731D01*
X0094803Y0280826D01*
X0092916Y0280009D02*
X0089647Y0280009D01*
X0086943Y0282461D02*
X0084491Y0282461D01*
X0084491Y0280826D02*
X0084491Y0285731D01*
X0086943Y0285731D01*
X0087760Y0284913D01*
X0087760Y0283278D01*
X0086943Y0282461D01*
X0082604Y0282461D02*
X0082604Y0281644D01*
X0081786Y0280826D01*
X0079334Y0280826D01*
X0079334Y0285731D01*
X0081786Y0285731D01*
X0082604Y0284913D01*
X0082604Y0284096D01*
X0081786Y0283278D01*
X0079334Y0283278D01*
X0081786Y0283278D02*
X0082604Y0282461D01*
X0077447Y0280009D02*
X0074178Y0280009D01*
X0072291Y0280826D02*
X0069021Y0280826D01*
X0072291Y0284096D01*
X0072291Y0284913D01*
X0071473Y0285731D01*
X0069839Y0285731D01*
X0069021Y0284913D01*
X0065500Y0285731D02*
X0063865Y0284096D01*
X0065500Y0285731D02*
X0065500Y0280826D01*
X0067134Y0280826D02*
X0063865Y0280826D01*
X0087100Y0274548D02*
X0087917Y0275365D01*
X0089552Y0275365D01*
X0090369Y0274548D01*
X0090369Y0273730D01*
X0087100Y0270461D01*
X0090369Y0270461D01*
X0092256Y0271278D02*
X0095525Y0274548D01*
X0095525Y0271278D01*
X0094708Y0270461D01*
X0093073Y0270461D01*
X0092256Y0271278D01*
X0092256Y0274548D01*
X0093073Y0275365D01*
X0094708Y0275365D01*
X0095525Y0274548D01*
X0097412Y0274548D02*
X0098230Y0275365D01*
X0099864Y0275365D01*
X0100682Y0274548D01*
X0100682Y0273730D01*
X0097412Y0270461D01*
X0100682Y0270461D01*
X0102569Y0271278D02*
X0105838Y0274548D01*
X0105838Y0271278D01*
X0105021Y0270461D01*
X0103386Y0270461D01*
X0102569Y0271278D01*
X0102569Y0274548D01*
X0103386Y0275365D01*
X0105021Y0275365D01*
X0105838Y0274548D01*
X0107725Y0274548D02*
X0107725Y0271278D01*
X0110995Y0274548D01*
X0110995Y0271278D01*
X0110177Y0270461D01*
X0108543Y0270461D01*
X0107725Y0271278D01*
X0107725Y0274548D02*
X0108543Y0275365D01*
X0110177Y0275365D01*
X0110995Y0274548D01*
X0112882Y0273730D02*
X0114516Y0275365D01*
X0114516Y0270461D01*
X0112882Y0270461D02*
X0116151Y0270461D01*
X0118038Y0270461D02*
X0121307Y0270461D01*
X0119673Y0270461D02*
X0119673Y0275365D01*
X0118038Y0273730D01*
X0123194Y0272913D02*
X0125646Y0272913D01*
X0126464Y0272096D01*
X0126464Y0271278D01*
X0125646Y0270461D01*
X0124012Y0270461D01*
X0123194Y0271278D01*
X0123194Y0272913D01*
X0124829Y0274548D01*
X0126464Y0275365D01*
X0141211Y0284913D02*
X0142028Y0285731D01*
X0143663Y0285731D01*
X0144480Y0284913D01*
X0144480Y0284096D01*
X0143663Y0283278D01*
X0144480Y0282461D01*
X0144480Y0281644D01*
X0143663Y0283278D02*
X0142846Y0283278D01*
X0096438Y0283278D02*
X0094803Y0283278D01*
D12*
X0470020Y0338111D02*
X0470020Y0342381D01*
X0472155Y0344516D01*
X0474290Y0342381D01*
X0474290Y0338111D01*
X0476465Y0339179D02*
X0477533Y0338111D01*
X0479668Y0338111D01*
X0480735Y0339179D01*
X0480735Y0344516D01*
X0482911Y0344516D02*
X0487181Y0338111D01*
X0482911Y0338111D02*
X0487181Y0344516D01*
X0495802Y0343449D02*
X0495802Y0339179D01*
X0496869Y0338111D01*
X0499004Y0338111D01*
X0500072Y0339179D01*
X0500072Y0343449D01*
X0499004Y0344516D01*
X0496869Y0344516D01*
X0495802Y0343449D01*
X0502247Y0344516D02*
X0502247Y0339179D01*
X0503315Y0338111D01*
X0505450Y0338111D01*
X0506517Y0339179D01*
X0506517Y0344516D01*
X0508693Y0344516D02*
X0512963Y0344516D01*
X0510828Y0344516D02*
X0510828Y0338111D01*
X0476465Y0339179D02*
X0476465Y0344516D01*
X0474290Y0341314D02*
X0470020Y0341314D01*
X0563917Y0341677D02*
X0563917Y0340610D01*
X0564985Y0339542D01*
X0567120Y0339542D01*
X0568188Y0338475D01*
X0568188Y0337407D01*
X0567120Y0336339D01*
X0564985Y0336339D01*
X0563917Y0337407D01*
X0563917Y0341677D02*
X0564985Y0342745D01*
X0567120Y0342745D01*
X0568188Y0341677D01*
X0570363Y0341677D02*
X0572498Y0339542D01*
X0572498Y0336339D01*
X0572498Y0339542D02*
X0574633Y0341677D01*
X0574633Y0342745D01*
X0576808Y0342745D02*
X0581079Y0336339D01*
X0581079Y0342745D01*
X0583254Y0341677D02*
X0584321Y0342745D01*
X0586457Y0342745D01*
X0587524Y0341677D01*
X0587524Y0337407D02*
X0586457Y0336339D01*
X0584321Y0336339D01*
X0583254Y0337407D01*
X0583254Y0341677D01*
X0576808Y0342745D02*
X0576808Y0336339D01*
X0570363Y0341677D02*
X0570363Y0342745D01*
X0596145Y0341677D02*
X0596145Y0337407D01*
X0597212Y0336339D01*
X0599348Y0336339D01*
X0600415Y0337407D01*
X0600415Y0341677D01*
X0599348Y0342745D01*
X0597212Y0342745D01*
X0596145Y0341677D01*
X0602590Y0342745D02*
X0602590Y0337407D01*
X0603658Y0336339D01*
X0605793Y0336339D01*
X0606861Y0337407D01*
X0606861Y0342745D01*
X0609036Y0342745D02*
X0613306Y0342745D01*
X0611171Y0342745D02*
X0611171Y0336339D01*
X0664508Y0337520D02*
X0668778Y0337520D01*
X0670953Y0337520D02*
X0675224Y0337520D01*
X0677399Y0337520D02*
X0680602Y0337520D01*
X0681669Y0338588D01*
X0681669Y0342858D01*
X0680602Y0343926D01*
X0677399Y0343926D01*
X0677399Y0337520D01*
X0673089Y0340723D02*
X0670953Y0340723D01*
X0670953Y0343926D02*
X0670953Y0337520D01*
X0664508Y0337520D02*
X0664508Y0343926D01*
X0670953Y0343926D02*
X0675224Y0343926D01*
X0683844Y0342858D02*
X0684912Y0343926D01*
X0687047Y0343926D01*
X0688115Y0342858D01*
X0688115Y0341791D01*
X0683844Y0337520D01*
X0688115Y0337520D01*
X0758799Y0337324D02*
X0763070Y0337324D01*
X0765245Y0337324D02*
X0769515Y0337324D01*
X0771690Y0337324D02*
X0774893Y0337324D01*
X0775961Y0338391D01*
X0775961Y0342662D01*
X0774893Y0343729D01*
X0771690Y0343729D01*
X0771690Y0337324D01*
X0767380Y0340526D02*
X0765245Y0340526D01*
X0765245Y0337324D02*
X0765245Y0343729D01*
X0769515Y0343729D01*
X0778136Y0341594D02*
X0780271Y0343729D01*
X0780271Y0337324D01*
X0778136Y0337324D02*
X0782406Y0337324D01*
X0758799Y0337324D02*
X0758799Y0343729D01*
X0819823Y0377564D02*
X0820890Y0376497D01*
X0823026Y0376497D01*
X0824093Y0377564D01*
X0824093Y0378632D01*
X0823026Y0379700D01*
X0819823Y0379700D01*
X0819823Y0377564D01*
X0819823Y0379700D02*
X0821958Y0381835D01*
X0824093Y0382902D01*
X0826268Y0379700D02*
X0830539Y0379700D01*
X0832714Y0380767D02*
X0833781Y0379700D01*
X0836984Y0379700D01*
X0836984Y0381835D02*
X0835917Y0382902D01*
X0833781Y0382902D01*
X0832714Y0381835D01*
X0832714Y0380767D01*
X0832714Y0377564D02*
X0833781Y0376497D01*
X0835917Y0376497D01*
X0836984Y0377564D01*
X0836984Y0381835D01*
X0839159Y0382902D02*
X0839159Y0378632D01*
X0841294Y0376497D01*
X0843430Y0378632D01*
X0843430Y0382902D01*
X0845605Y0382902D02*
X0848808Y0382902D01*
X0849875Y0381835D01*
X0849875Y0377564D01*
X0848808Y0376497D01*
X0845605Y0376497D01*
X0845605Y0382902D01*
X0852050Y0381835D02*
X0852050Y0377564D01*
X0853118Y0376497D01*
X0855253Y0376497D01*
X0856321Y0377564D01*
X0856321Y0381835D02*
X0855253Y0382902D01*
X0853118Y0382902D01*
X0852050Y0381835D01*
X0952303Y0353048D02*
X0955506Y0353048D01*
X0956573Y0351980D01*
X0956573Y0350913D01*
X0955506Y0349845D01*
X0952303Y0349845D01*
X0952303Y0346643D02*
X0955506Y0346643D01*
X0956573Y0347710D01*
X0956573Y0348778D01*
X0955506Y0349845D01*
X0958749Y0349845D02*
X0963019Y0349845D01*
X0963019Y0350913D02*
X0963019Y0346643D01*
X0961951Y0342548D02*
X0963019Y0341480D01*
X0963019Y0340413D01*
X0961951Y0339345D01*
X0963019Y0338278D01*
X0963019Y0337210D01*
X0961951Y0336143D01*
X0959816Y0336143D01*
X0958749Y0337210D01*
X0960884Y0339345D02*
X0961951Y0339345D01*
X0961951Y0342548D02*
X0959816Y0342548D01*
X0958749Y0341480D01*
X0958749Y0346643D02*
X0958749Y0350913D01*
X0960884Y0353048D01*
X0963019Y0350913D01*
X0965194Y0353048D02*
X0969464Y0353048D01*
X0967329Y0353048D02*
X0967329Y0346643D01*
X0973775Y0346643D02*
X0973775Y0353048D01*
X0971640Y0353048D02*
X0975910Y0353048D01*
X0978085Y0353048D02*
X0978085Y0346643D01*
X0982355Y0346643D01*
X0984531Y0346643D02*
X0984531Y0353048D01*
X0987733Y0353048D01*
X0988801Y0351980D01*
X0988801Y0349845D01*
X0987733Y0348778D01*
X0984531Y0348778D01*
X0986666Y0348778D02*
X0988801Y0346643D01*
X0993111Y0346643D02*
X0993111Y0349845D01*
X0995246Y0351980D01*
X0995246Y0353048D01*
X0993111Y0349845D02*
X0990976Y0351980D01*
X0990976Y0353048D01*
X0982355Y0353048D02*
X0978085Y0353048D01*
X0978085Y0349845D02*
X0980220Y0349845D01*
X0980220Y0342548D02*
X0978085Y0340413D01*
X0978085Y0336143D01*
X0975910Y0336143D02*
X0975910Y0340413D01*
X0973775Y0342548D01*
X0971640Y0340413D01*
X0971640Y0336143D01*
X0969464Y0336143D02*
X0965194Y0340413D01*
X0965194Y0336143D02*
X0969464Y0340413D01*
X0971640Y0339345D02*
X0975910Y0339345D01*
X0978085Y0339345D02*
X0982355Y0339345D01*
X0982355Y0340413D02*
X0982355Y0336143D01*
X0982355Y0340413D02*
X0980220Y0342548D01*
X0952303Y0346643D02*
X0952303Y0353048D01*
X1061161Y0361930D02*
X1065432Y0361930D01*
X1067607Y0361930D02*
X1067607Y0366200D01*
X1069742Y0368335D01*
X1071877Y0366200D01*
X1071877Y0361930D01*
X1074052Y0361930D02*
X1074052Y0368335D01*
X1077255Y0368335D01*
X1078323Y0367268D01*
X1078323Y0365133D01*
X1077255Y0364065D01*
X1074052Y0364065D01*
X1076188Y0364065D02*
X1078323Y0361930D01*
X1082633Y0361930D02*
X1082633Y0368335D01*
X1080498Y0368335D02*
X1084768Y0368335D01*
X1086943Y0368335D02*
X1086943Y0361930D01*
X1086943Y0365133D02*
X1091214Y0365133D01*
X1091214Y0368335D02*
X1091214Y0361930D01*
X1071877Y0365133D02*
X1067607Y0365133D01*
X1065432Y0368335D02*
X1061161Y0368335D01*
X1061161Y0361930D01*
X1061161Y0365133D02*
X1063297Y0365133D01*
D13*
X1066970Y0297096D02*
X1068721Y0297096D01*
X1069305Y0296512D01*
X1069305Y0295344D01*
X1068721Y0294760D01*
X1066970Y0294760D01*
X1066970Y0293593D02*
X1066970Y0297096D01*
X1070653Y0295928D02*
X1071820Y0297096D01*
X1071820Y0293593D01*
X1070653Y0293593D02*
X1072988Y0293593D01*
X1074336Y0293593D02*
X1076671Y0295928D01*
X1076671Y0296512D01*
X1076087Y0297096D01*
X1074920Y0297096D01*
X1074336Y0296512D01*
X1074336Y0293593D02*
X1076671Y0293593D01*
X1073220Y0269343D02*
X1073220Y0252343D01*
X1081220Y0252343D01*
X1081220Y0269343D02*
X1073220Y0269343D01*
X1002480Y0269343D02*
X0994480Y0269343D01*
X0994480Y0252343D01*
X1002480Y0252343D01*
X0923739Y0252343D02*
X0915739Y0252343D01*
X0915739Y0269343D01*
X0923739Y0269343D01*
X0920757Y0291518D02*
X0919589Y0291518D01*
X0919005Y0292102D01*
X0921341Y0294437D01*
X0921341Y0292102D01*
X0920757Y0291518D01*
X0919005Y0292102D02*
X0919005Y0294437D01*
X0919589Y0295021D01*
X0920757Y0295021D01*
X0921341Y0294437D01*
X0917657Y0291518D02*
X0915322Y0291518D01*
X0916490Y0291518D02*
X0916490Y0295021D01*
X0915322Y0293853D01*
X0913974Y0294437D02*
X0913974Y0293269D01*
X0913390Y0292685D01*
X0911639Y0292685D01*
X0911639Y0291518D02*
X0911639Y0295021D01*
X0913390Y0295021D01*
X0913974Y0294437D01*
X0987230Y0294093D02*
X0987230Y0297596D01*
X0988981Y0297596D01*
X0989565Y0297012D01*
X0989565Y0295844D01*
X0988981Y0295260D01*
X0987230Y0295260D01*
X0990913Y0294093D02*
X0993248Y0294093D01*
X0992080Y0294093D02*
X0992080Y0297596D01*
X0990913Y0296428D01*
X0994596Y0296428D02*
X0995763Y0297596D01*
X0995763Y0294093D01*
X0994596Y0294093D02*
X0996931Y0294093D01*
X0844999Y0269343D02*
X0836999Y0269343D01*
X0836999Y0252343D01*
X0844999Y0252343D01*
X0766259Y0252343D02*
X0758259Y0252343D01*
X0758259Y0269343D01*
X0766259Y0269343D01*
X0833749Y0293593D02*
X0833749Y0297096D01*
X0835501Y0297096D01*
X0836085Y0296512D01*
X0836085Y0295344D01*
X0835501Y0294760D01*
X0833749Y0294760D01*
X0837432Y0294176D02*
X0838016Y0293593D01*
X0839184Y0293593D01*
X0839768Y0294176D01*
X0839768Y0296512D01*
X0839184Y0297096D01*
X0838016Y0297096D01*
X0837432Y0296512D01*
X0837432Y0295928D01*
X0838016Y0295344D01*
X0839768Y0295344D01*
X0761528Y0295676D02*
X0760944Y0295093D01*
X0759776Y0295093D01*
X0759192Y0295676D01*
X0759192Y0296260D01*
X0759776Y0296844D01*
X0760944Y0296844D01*
X0761528Y0296260D01*
X0761528Y0295676D01*
X0760944Y0296844D02*
X0761528Y0297428D01*
X0761528Y0298012D01*
X0760944Y0298596D01*
X0759776Y0298596D01*
X0759192Y0298012D01*
X0759192Y0297428D01*
X0759776Y0296844D01*
X0757844Y0296844D02*
X0757261Y0296260D01*
X0755509Y0296260D01*
X0755509Y0295093D02*
X0755509Y0298596D01*
X0757261Y0298596D01*
X0757844Y0298012D01*
X0757844Y0296844D01*
X0686287Y0295196D02*
X0686287Y0294612D01*
X0683952Y0292276D01*
X0683952Y0291693D01*
X0682604Y0293444D02*
X0682020Y0292860D01*
X0680269Y0292860D01*
X0680269Y0291693D02*
X0680269Y0295196D01*
X0682020Y0295196D01*
X0682604Y0294612D01*
X0682604Y0293444D01*
X0683952Y0295196D02*
X0686287Y0295196D01*
X0687519Y0269343D02*
X0679519Y0269343D01*
X0679519Y0252343D01*
X0687519Y0252343D01*
X0608779Y0252343D02*
X0600779Y0252343D01*
X0600779Y0269343D01*
X0608779Y0269343D01*
X0604239Y0292573D02*
X0604823Y0293157D01*
X0604823Y0293740D01*
X0604239Y0294324D01*
X0602487Y0294324D01*
X0602487Y0293157D01*
X0603071Y0292573D01*
X0604239Y0292573D01*
X0602487Y0294324D02*
X0603655Y0295492D01*
X0604823Y0296076D01*
X0601140Y0295492D02*
X0601140Y0294324D01*
X0600556Y0293740D01*
X0598804Y0293740D01*
X0598804Y0292573D02*
X0598804Y0296076D01*
X0600556Y0296076D01*
X0601140Y0295492D01*
X0526807Y0295676D02*
X0526223Y0295093D01*
X0525056Y0295093D01*
X0524472Y0295676D01*
X0524472Y0296844D02*
X0525639Y0297428D01*
X0526223Y0297428D01*
X0526807Y0296844D01*
X0526807Y0295676D01*
X0524472Y0296844D02*
X0524472Y0298596D01*
X0526807Y0298596D01*
X0523124Y0298012D02*
X0523124Y0296844D01*
X0522540Y0296260D01*
X0520789Y0296260D01*
X0520789Y0295093D02*
X0520789Y0298596D01*
X0522540Y0298596D01*
X0523124Y0298012D01*
X0448567Y0299344D02*
X0446232Y0299344D01*
X0447983Y0301096D01*
X0447983Y0297593D01*
X0444884Y0299344D02*
X0444300Y0298760D01*
X0442548Y0298760D01*
X0442548Y0297593D02*
X0442548Y0301096D01*
X0444300Y0301096D01*
X0444884Y0300512D01*
X0444884Y0299344D01*
X0443298Y0269343D02*
X0443298Y0252343D01*
X0451298Y0252343D01*
X0451298Y0269343D02*
X0443298Y0269343D01*
X0372558Y0269343D02*
X0364558Y0269343D01*
X0364558Y0252343D01*
X0372558Y0252343D01*
X0293818Y0252343D02*
X0285818Y0252343D01*
X0285818Y0269343D01*
X0293818Y0269343D01*
X0289587Y0294093D02*
X0287251Y0294093D01*
X0289587Y0296428D01*
X0289587Y0297012D01*
X0289003Y0297596D01*
X0287835Y0297596D01*
X0287251Y0297012D01*
X0285903Y0297012D02*
X0285903Y0295844D01*
X0285320Y0295260D01*
X0283568Y0295260D01*
X0283568Y0294093D02*
X0283568Y0297596D01*
X0285320Y0297596D01*
X0285903Y0297012D01*
X0212846Y0300093D02*
X0210511Y0300093D01*
X0211679Y0300093D02*
X0211679Y0303596D01*
X0210511Y0302428D01*
X0209163Y0303012D02*
X0209163Y0301844D01*
X0208579Y0301260D01*
X0206828Y0301260D01*
X0206828Y0300093D02*
X0206828Y0303596D01*
X0208579Y0303596D01*
X0209163Y0303012D01*
X0207078Y0269343D02*
X0207078Y0252343D01*
X0215078Y0252343D01*
X0215078Y0269343D02*
X0207078Y0269343D01*
X0362308Y0296093D02*
X0362308Y0299596D01*
X0364060Y0299596D01*
X0364644Y0299012D01*
X0364644Y0297844D01*
X0364060Y0297260D01*
X0362308Y0297260D01*
X0365991Y0296676D02*
X0366575Y0296093D01*
X0367743Y0296093D01*
X0368327Y0296676D01*
X0368327Y0297260D01*
X0367743Y0297844D01*
X0367159Y0297844D01*
X0367743Y0297844D02*
X0368327Y0298428D01*
X0368327Y0299012D01*
X0367743Y0299596D01*
X0366575Y0299596D01*
X0365991Y0299012D01*
X0522039Y0269343D02*
X0522039Y0252343D01*
X0530039Y0252343D01*
X0530039Y0269343D02*
X0522039Y0269343D01*
D14*
X0138099Y0302826D03*
X0138099Y0303226D03*
X0138099Y0303626D03*
X0138099Y0304026D03*
X0115299Y0301626D03*
X0108099Y0301626D03*
X0108099Y0302026D03*
X0108099Y0302426D03*
X0108099Y0301226D03*
X0108099Y0300826D03*
X0108099Y0300426D03*
X0108099Y0300026D03*
X0108099Y0299626D03*
X0108099Y0299226D03*
X0108099Y0298826D03*
X0108099Y0298426D03*
X0108099Y0298026D03*
X0108099Y0297626D03*
X0108099Y0297226D03*
X0108099Y0296826D03*
X0108099Y0296426D03*
X0108099Y0296026D03*
X0108099Y0295626D03*
X0108099Y0295226D03*
X0108099Y0294826D03*
X0108099Y0294426D03*
X0108099Y0294026D03*
X0108099Y0293626D03*
X0108099Y0293226D03*
X0108099Y0292826D03*
X0108099Y0292426D03*
X0108099Y0292026D03*
X0108099Y0291626D03*
X0108099Y0291226D03*
X0108099Y0290826D03*
X0108099Y0290426D03*
X0108099Y0290026D03*
X0108099Y0289626D03*
X0108099Y0289226D03*
X0108099Y0288826D03*
X0108099Y0288426D03*
X0108099Y0288026D03*
X0108099Y0287626D03*
D15*
X0114099Y0288826D03*
X0115299Y0291226D03*
X0115299Y0291626D03*
X0115299Y0292026D03*
X0115299Y0292426D03*
X0115299Y0292826D03*
X0115299Y0293226D03*
X0115299Y0293626D03*
X0115299Y0294026D03*
X0115299Y0294426D03*
X0115299Y0294826D03*
X0115299Y0295226D03*
X0115299Y0295626D03*
X0115299Y0296026D03*
X0115299Y0296426D03*
X0115299Y0296826D03*
X0115299Y0297226D03*
X0115299Y0297626D03*
X0115299Y0298026D03*
X0115299Y0298426D03*
X0115299Y0299626D03*
X0115299Y0300026D03*
X0115299Y0300426D03*
X0115299Y0300826D03*
X0119699Y0296426D03*
X0119299Y0293626D03*
X0119299Y0293226D03*
X0124499Y0294026D03*
X0124499Y0296426D03*
X0122099Y0298826D03*
X0128499Y0298426D03*
X0128499Y0294826D03*
X0128499Y0294426D03*
X0128499Y0294026D03*
X0128499Y0293626D03*
X0128499Y0293226D03*
X0128499Y0292826D03*
X0128499Y0292426D03*
X0128499Y0292026D03*
X0128499Y0291626D03*
X0128499Y0291226D03*
X0133699Y0291226D03*
X0133699Y0291626D03*
X0133699Y0292026D03*
X0133699Y0292426D03*
X0133699Y0292826D03*
X0133699Y0293226D03*
X0133699Y0293626D03*
X0133699Y0294026D03*
X0133699Y0294426D03*
X0133699Y0294826D03*
X0133699Y0295226D03*
X0133699Y0295626D03*
X0133699Y0296026D03*
X0137699Y0296026D03*
X0138099Y0296426D03*
X0137699Y0294026D03*
X0142899Y0293226D03*
X0143299Y0296026D03*
X0142899Y0296426D03*
X0147299Y0296426D03*
X0147299Y0296826D03*
X0147299Y0297226D03*
X0147299Y0297626D03*
X0147299Y0298026D03*
X0147299Y0298426D03*
X0147299Y0298826D03*
X0147299Y0299226D03*
X0147299Y0299626D03*
X0147299Y0300026D03*
X0147299Y0300426D03*
X0147299Y0300826D03*
X0147299Y0301226D03*
X0147299Y0296026D03*
X0147299Y0295626D03*
X0147299Y0295226D03*
X0147299Y0294826D03*
X0147299Y0294426D03*
X0147299Y0294026D03*
X0147299Y0293626D03*
X0147299Y0293226D03*
X0147299Y0292826D03*
X0147299Y0292426D03*
X0147299Y0292026D03*
X0147299Y0291626D03*
X0147299Y0291226D03*
X0152099Y0291226D03*
X0152099Y0291626D03*
X0152099Y0292026D03*
X0152099Y0292426D03*
X0152099Y0292826D03*
X0152099Y0293226D03*
X0152099Y0293626D03*
X0152099Y0294026D03*
X0152099Y0294426D03*
X0152099Y0294826D03*
X0152099Y0295226D03*
X0152099Y0295626D03*
X0152099Y0296026D03*
X0152099Y0296426D03*
X0152099Y0296826D03*
X0152099Y0297226D03*
X0152099Y0297626D03*
X0152099Y0298026D03*
X0152099Y0298426D03*
X0156499Y0296426D03*
X0156099Y0293626D03*
X0156099Y0293226D03*
X0161299Y0294026D03*
X0161299Y0296426D03*
X0158899Y0298826D03*
X0161299Y0291226D03*
X0131299Y0303626D03*
X0101299Y0300826D03*
X0101299Y0298426D03*
X0101299Y0298026D03*
X0101299Y0297626D03*
X0101299Y0297226D03*
X0101299Y0296826D03*
X0101299Y0296426D03*
X0101299Y0296026D03*
X0101299Y0295626D03*
X0101299Y0295226D03*
X0101299Y0294826D03*
X0101299Y0294426D03*
X0101299Y0294026D03*
X0101299Y0293626D03*
X0101299Y0293226D03*
X0101299Y0292826D03*
X0101299Y0292426D03*
X0101299Y0292026D03*
X0101299Y0291626D03*
X0101299Y0291226D03*
X0097299Y0291226D03*
X0097299Y0291626D03*
X0097299Y0292026D03*
X0097299Y0292426D03*
X0097299Y0292826D03*
X0097299Y0293226D03*
X0097299Y0293626D03*
X0097299Y0294026D03*
X0097299Y0294426D03*
X0097299Y0294826D03*
X0097299Y0295226D03*
X0097299Y0295626D03*
X0097299Y0296026D03*
X0092499Y0295626D03*
X0092499Y0295226D03*
X0092499Y0294826D03*
X0092499Y0294426D03*
X0092499Y0294026D03*
X0092499Y0293626D03*
X0092499Y0293226D03*
X0092499Y0292826D03*
X0092499Y0292426D03*
X0092499Y0292026D03*
X0092499Y0291626D03*
X0092499Y0291226D03*
X0088099Y0291226D03*
X0088099Y0291626D03*
X0088099Y0292026D03*
X0088099Y0292426D03*
X0088099Y0292826D03*
X0088099Y0293226D03*
X0088099Y0293626D03*
X0088099Y0294026D03*
X0088099Y0294426D03*
X0088099Y0294826D03*
X0088099Y0295226D03*
X0088099Y0295626D03*
X0088099Y0296026D03*
X0083699Y0296026D03*
X0083699Y0295626D03*
X0078899Y0295626D03*
X0078899Y0295226D03*
X0078899Y0294826D03*
X0078899Y0294426D03*
X0078899Y0294026D03*
X0078899Y0293626D03*
X0078899Y0293226D03*
X0078899Y0292826D03*
X0078899Y0292426D03*
X0078899Y0292026D03*
X0078899Y0291626D03*
X0078899Y0291226D03*
X0074899Y0291226D03*
X0074899Y0291626D03*
X0074899Y0292026D03*
X0074899Y0292426D03*
X0074899Y0292826D03*
X0074899Y0293226D03*
X0074899Y0293626D03*
X0074899Y0294026D03*
X0074899Y0294426D03*
X0074899Y0294826D03*
X0074899Y0295226D03*
X0074899Y0295626D03*
X0074899Y0296026D03*
X0078899Y0298426D03*
X0078899Y0298826D03*
X0078899Y0299226D03*
X0078899Y0299626D03*
X0078899Y0300026D03*
X0078899Y0300426D03*
X0078899Y0300826D03*
X0078899Y0301226D03*
X0070099Y0301226D03*
X0070099Y0300826D03*
X0070099Y0300426D03*
X0070099Y0300026D03*
X0070099Y0299626D03*
X0070099Y0299226D03*
X0070099Y0298826D03*
X0070099Y0295626D03*
X0070099Y0295226D03*
X0070099Y0294826D03*
X0070099Y0294426D03*
X0070099Y0294026D03*
X0070099Y0293626D03*
X0070099Y0293226D03*
X0070099Y0292826D03*
X0070099Y0292426D03*
X0070099Y0292026D03*
X0070099Y0291626D03*
X0070099Y0291226D03*
D16*
X0070299Y0296026D03*
X0079099Y0296026D03*
X0082699Y0298426D03*
X0091499Y0298426D03*
X0092699Y0296026D03*
X0101499Y0299626D03*
X0101499Y0300026D03*
X0101499Y0300426D03*
X0119899Y0296826D03*
X0124299Y0293626D03*
X0124299Y0293226D03*
X0124699Y0291226D03*
X0128699Y0295226D03*
X0128699Y0295626D03*
X0128699Y0296026D03*
X0137899Y0293626D03*
X0138299Y0293226D03*
X0151899Y0299626D03*
X0151899Y0300026D03*
X0151899Y0300426D03*
X0156699Y0296826D03*
X0161099Y0293626D03*
X0161099Y0293226D03*
X0133099Y0303226D03*
X0114299Y0289226D03*
D17*
X0114499Y0289626D03*
X0120499Y0291226D03*
X0124099Y0296026D03*
X0124099Y0296826D03*
X0132499Y0298426D03*
X0135299Y0302826D03*
X0160899Y0296826D03*
X0160899Y0296026D03*
X0157299Y0291226D03*
X0096099Y0298426D03*
D18*
X0114699Y0290826D03*
X0114699Y0290426D03*
X0114699Y0290026D03*
X0119899Y0294026D03*
X0140699Y0291226D03*
X0156699Y0294026D03*
X0122699Y0310026D03*
D19*
X0125099Y0309626D03*
X0129499Y0304026D03*
X0140299Y0302026D03*
X0151899Y0301226D03*
X0151899Y0300826D03*
X0116699Y0308426D03*
X0087899Y0298426D03*
X0083899Y0295226D03*
X0083899Y0294826D03*
X0083899Y0294426D03*
X0083899Y0294026D03*
X0083899Y0293626D03*
X0083899Y0293226D03*
X0083899Y0292826D03*
X0083899Y0292426D03*
X0083899Y0292026D03*
X0083899Y0291626D03*
X0083899Y0291226D03*
D20*
X0081299Y0296426D03*
X0081299Y0296826D03*
X0081299Y0297226D03*
X0081299Y0297626D03*
X0072499Y0297626D03*
X0072499Y0297226D03*
X0072499Y0296826D03*
X0072499Y0296426D03*
X0122099Y0294826D03*
X0122099Y0291626D03*
X0130899Y0297626D03*
X0130899Y0298026D03*
X0140499Y0296826D03*
X0140499Y0292826D03*
X0158899Y0291626D03*
X0158899Y0294826D03*
D21*
X0140699Y0291626D03*
X0138699Y0302426D03*
D22*
X0131099Y0297226D03*
X0131099Y0296826D03*
X0131099Y0296426D03*
X0121899Y0294426D03*
X0121899Y0292826D03*
X0121899Y0292426D03*
X0121899Y0292026D03*
X0158699Y0292026D03*
X0158699Y0292426D03*
X0158699Y0292826D03*
X0158699Y0294426D03*
D23*
X0158699Y0298026D03*
X0140299Y0297626D03*
X0140699Y0292026D03*
X0121899Y0298026D03*
D24*
X0140499Y0297226D03*
X0140499Y0292426D03*
X0072099Y0298426D03*
D25*
X0140499Y0295626D03*
X0140499Y0295226D03*
X0140499Y0294826D03*
X0140499Y0294426D03*
D26*
X0122299Y0295226D03*
X0121899Y0297226D03*
X0121899Y0297626D03*
X0158699Y0297626D03*
X0158699Y0297226D03*
X0159099Y0295226D03*
X0081099Y0298026D03*
X0072299Y0298026D03*
D27*
X0122899Y0295626D03*
X0159699Y0295626D03*
D28*
X0092699Y0296426D03*
X0092699Y0296826D03*
X0092699Y0297226D03*
D29*
X0092499Y0297626D03*
X0092499Y0298026D03*
D30*
X0122099Y0298426D03*
X0140499Y0298026D03*
X0158899Y0298426D03*
D31*
X0140499Y0298426D03*
D32*
X0140499Y0298826D03*
X0132499Y0298826D03*
X0125699Y0305226D03*
X0128099Y0308826D03*
X0118099Y0308026D03*
X0115299Y0301226D03*
X0101299Y0301226D03*
X0096099Y0298826D03*
X0073699Y0298826D03*
D33*
X0082699Y0298826D03*
X0091499Y0298826D03*
X0119499Y0307626D03*
X0120299Y0307226D03*
X0122299Y0306426D03*
X0123499Y0306026D03*
X0124699Y0305626D03*
X0126699Y0309226D03*
X0130299Y0308026D03*
X0131499Y0307626D03*
X0121099Y0310426D03*
D34*
X0136299Y0305226D03*
X0101499Y0301626D03*
D35*
X0124299Y0307226D03*
X0124299Y0307626D03*
X0124299Y0308026D03*
X0124299Y0308426D03*
X0131099Y0306426D03*
X0131099Y0306026D03*
X0131099Y0305626D03*
X0131099Y0305226D03*
X0151899Y0301626D03*
D36*
X0132699Y0304426D03*
D37*
X0132099Y0304826D03*
D38*
X0133299Y0306826D03*
X0132499Y0307226D03*
X0134099Y0306426D03*
X0134899Y0306026D03*
X0135699Y0305626D03*
X0129299Y0308426D03*
D39*
X0125899Y0306826D03*
X0119099Y0308826D03*
X0119099Y0309226D03*
M02*
