G75*
%MOIN*%
%OFA0B0*%
%FSLAX25Y25*%
%IPPOS*%
%LPD*%
%AMOC8*
5,1,8,0,0,1.08239X$1,22.5*
%
%ADD10R,0.04724X0.01181*%
%ADD11R,0.03000X0.03000*%
%ADD12R,0.04000X0.06500*%
%ADD13R,0.04000X0.06000*%
%ADD14R,0.04300X0.01500*%
%ADD15R,0.06000X0.04000*%
%ADD16R,0.06299X0.07087*%
%ADD17R,0.04724X0.02165*%
%ADD18R,0.02165X0.04724*%
%ADD19R,0.12000X0.07000*%
%ADD20R,0.05512X0.06299*%
%ADD21R,0.06299X0.05512*%
%ADD22R,0.03937X0.07874*%
%ADD23R,0.02953X0.01575*%
%ADD24R,0.02700X0.01300*%
%ADD25R,0.03465X0.02323*%
%ADD26R,0.03504X0.02087*%
%ADD27R,0.03465X0.02283*%
%ADD28R,0.03543X0.02362*%
D10*
X0090157Y0055307D03*
X0090157Y0057866D03*
X0090157Y0060425D03*
X0090157Y0062984D03*
X0106791Y0062984D03*
X0106791Y0060425D03*
X0106791Y0057866D03*
X0106791Y0055307D03*
X0174449Y0055425D03*
X0174449Y0057984D03*
X0174449Y0060543D03*
X0174449Y0063102D03*
X0191083Y0063102D03*
X0191083Y0060543D03*
X0191083Y0057984D03*
X0191083Y0055425D03*
X0251260Y0055150D03*
X0251260Y0057709D03*
X0251260Y0060268D03*
X0251260Y0062827D03*
X0267894Y0062827D03*
X0267894Y0060268D03*
X0267894Y0057709D03*
X0267894Y0055150D03*
X0330039Y0055071D03*
X0330039Y0057630D03*
X0330039Y0060189D03*
X0330039Y0062748D03*
X0346673Y0062748D03*
X0346673Y0060189D03*
X0346673Y0057630D03*
X0346673Y0055071D03*
X0408425Y0055228D03*
X0408425Y0057787D03*
X0408425Y0060346D03*
X0408425Y0062906D03*
X0425059Y0062906D03*
X0425059Y0060346D03*
X0425059Y0057787D03*
X0425059Y0055228D03*
X0487205Y0055150D03*
X0487205Y0057709D03*
X0487205Y0060268D03*
X0487205Y0062827D03*
X0503839Y0062827D03*
X0503839Y0060268D03*
X0503839Y0057709D03*
X0503839Y0055150D03*
X0568346Y0055071D03*
X0568346Y0057630D03*
X0568346Y0060189D03*
X0568346Y0062748D03*
X0584980Y0062748D03*
X0584980Y0060189D03*
X0584980Y0057630D03*
X0584980Y0055071D03*
X0647126Y0054992D03*
X0647126Y0057551D03*
X0647126Y0060110D03*
X0647126Y0062669D03*
X0663760Y0062669D03*
X0663760Y0060110D03*
X0663760Y0057551D03*
X0663760Y0054992D03*
D11*
X0663748Y0049827D03*
X0663748Y0043827D03*
X0653717Y0046630D03*
X0647717Y0046630D03*
X0637575Y0056866D03*
X0637681Y0062378D03*
X0631681Y0062378D03*
X0631575Y0056866D03*
X0649929Y0068827D03*
X0649929Y0074827D03*
X0674094Y0077232D03*
X0680094Y0077232D03*
X0684646Y0077260D03*
X0690646Y0077260D03*
X0680016Y0083362D03*
X0674016Y0083362D03*
X0611512Y0077260D03*
X0605512Y0077260D03*
X0600921Y0077311D03*
X0600882Y0082772D03*
X0594882Y0082772D03*
X0594921Y0077311D03*
X0571150Y0074906D03*
X0571150Y0068906D03*
X0558705Y0062457D03*
X0558795Y0056945D03*
X0552795Y0056945D03*
X0552705Y0062457D03*
X0568937Y0046709D03*
X0574937Y0046709D03*
X0584535Y0043787D03*
X0584535Y0049787D03*
X0530803Y0077260D03*
X0524803Y0077260D03*
X0519780Y0077390D03*
X0519780Y0082772D03*
X0513780Y0082772D03*
X0513780Y0077390D03*
X0490008Y0074984D03*
X0490008Y0068984D03*
X0477760Y0062535D03*
X0477654Y0057024D03*
X0471654Y0057024D03*
X0471760Y0062535D03*
X0487795Y0047575D03*
X0493795Y0047575D03*
X0503748Y0048961D03*
X0503748Y0042961D03*
X0451669Y0077654D03*
X0445669Y0077654D03*
X0441000Y0077469D03*
X0441039Y0082772D03*
X0435039Y0082772D03*
X0435000Y0077469D03*
X0411228Y0075063D03*
X0411228Y0069063D03*
X0398980Y0062614D03*
X0398874Y0057102D03*
X0392874Y0057102D03*
X0392980Y0062614D03*
X0408819Y0047654D03*
X0414819Y0047654D03*
X0424732Y0048921D03*
X0424732Y0042921D03*
X0373520Y0077260D03*
X0367520Y0077260D03*
X0363008Y0077311D03*
X0362890Y0082969D03*
X0356890Y0082969D03*
X0357008Y0077311D03*
X0332843Y0074906D03*
X0332843Y0068906D03*
X0320594Y0062457D03*
X0320488Y0056945D03*
X0314488Y0056945D03*
X0314594Y0062457D03*
X0330630Y0046709D03*
X0336630Y0046709D03*
X0347134Y0049669D03*
X0347134Y0043669D03*
X0297165Y0017106D03*
X0297165Y0012000D03*
X0291165Y0012000D03*
X0291165Y0017106D03*
X0278638Y0018819D03*
X0278638Y0013909D03*
X0272638Y0013909D03*
X0272638Y0018819D03*
X0260528Y0020622D03*
X0260528Y0015713D03*
X0254528Y0015713D03*
X0254528Y0020622D03*
X0240272Y0022031D03*
X0240272Y0017122D03*
X0234272Y0017122D03*
X0234272Y0022031D03*
X0221272Y0024122D03*
X0221272Y0019122D03*
X0215272Y0019122D03*
X0215272Y0024122D03*
X0205346Y0026122D03*
X0205346Y0020925D03*
X0199346Y0020925D03*
X0199346Y0026122D03*
X0190055Y0028331D03*
X0190055Y0022961D03*
X0184055Y0022961D03*
X0184055Y0028331D03*
X0172484Y0030331D03*
X0172339Y0024701D03*
X0166339Y0024701D03*
X0166484Y0030331D03*
X0177795Y0048638D03*
X0183795Y0048638D03*
X0192055Y0049591D03*
X0192055Y0043591D03*
X0177252Y0069260D03*
X0177252Y0075260D03*
X0165055Y0063992D03*
X0165055Y0058362D03*
X0159055Y0058362D03*
X0159055Y0063992D03*
X0135134Y0077654D03*
X0129134Y0077654D03*
X0124110Y0077547D03*
X0124110Y0082772D03*
X0118110Y0082772D03*
X0118110Y0077547D03*
X0094142Y0075142D03*
X0094142Y0069142D03*
X0082409Y0062102D03*
X0082500Y0056894D03*
X0076500Y0056894D03*
X0076409Y0062102D03*
X0095866Y0047626D03*
X0101866Y0047626D03*
X0106346Y0050535D03*
X0106346Y0044535D03*
X0099307Y0018205D03*
X0093307Y0018205D03*
X0197087Y0077469D03*
X0197047Y0082575D03*
X0203047Y0082575D03*
X0203087Y0077469D03*
X0209055Y0077654D03*
X0215055Y0077654D03*
X0235815Y0062535D03*
X0235709Y0057024D03*
X0241709Y0057024D03*
X0241815Y0062535D03*
X0254063Y0068984D03*
X0254063Y0074984D03*
X0277835Y0077390D03*
X0277559Y0083362D03*
X0283559Y0083362D03*
X0283835Y0077390D03*
X0287795Y0077260D03*
X0293795Y0077260D03*
X0267921Y0049236D03*
X0267921Y0043236D03*
X0257850Y0047575D03*
X0251850Y0047575D03*
X0051472Y0109937D03*
X0045472Y0109937D03*
X0039646Y0109815D03*
X0033646Y0109815D03*
D12*
X0075150Y0078728D03*
X0075150Y0070067D03*
X0087150Y0070067D03*
X0087150Y0078728D03*
X0087740Y0046551D03*
X0075740Y0046551D03*
X0157866Y0048244D03*
X0169866Y0048244D03*
X0170260Y0072350D03*
X0170260Y0081406D03*
X0158260Y0081406D03*
X0158260Y0072350D03*
X0235071Y0070303D03*
X0235071Y0078571D03*
X0247071Y0078571D03*
X0247071Y0070303D03*
X0245693Y0046000D03*
X0233693Y0046000D03*
X0312472Y0045921D03*
X0324472Y0045921D03*
X0324669Y0070224D03*
X0312669Y0070224D03*
X0312669Y0078492D03*
X0324669Y0078492D03*
X0389874Y0078650D03*
X0401874Y0078650D03*
X0401874Y0070382D03*
X0389874Y0070382D03*
X0391055Y0045882D03*
X0403055Y0045882D03*
X0469441Y0046000D03*
X0481441Y0046000D03*
X0481441Y0070303D03*
X0481441Y0078177D03*
X0469441Y0078177D03*
X0469441Y0070303D03*
X0549795Y0070618D03*
X0561795Y0070618D03*
X0561795Y0078492D03*
X0549795Y0078492D03*
X0550780Y0046512D03*
X0562780Y0046512D03*
X0629362Y0046039D03*
X0641362Y0046039D03*
X0642937Y0070146D03*
X0642937Y0079594D03*
X0630937Y0079594D03*
X0630937Y0070146D03*
D13*
X0656783Y0071748D03*
X0663783Y0071748D03*
X0654217Y0039150D03*
X0647217Y0039150D03*
X0585043Y0072535D03*
X0578043Y0072535D03*
X0575437Y0039425D03*
X0568437Y0039425D03*
X0504531Y0072732D03*
X0497531Y0072732D03*
X0494295Y0040094D03*
X0487295Y0040094D03*
X0425988Y0072732D03*
X0418988Y0072732D03*
X0415319Y0040370D03*
X0408319Y0040370D03*
X0347642Y0072142D03*
X0340642Y0072142D03*
X0336933Y0039819D03*
X0329933Y0039819D03*
X0268508Y0072339D03*
X0261508Y0072339D03*
X0258154Y0040291D03*
X0251154Y0040291D03*
X0191539Y0071551D03*
X0184539Y0071551D03*
X0182130Y0041551D03*
X0175130Y0041551D03*
X0148626Y0035134D03*
X0141626Y0035134D03*
X0135437Y0035134D03*
X0128437Y0035134D03*
X0100988Y0039661D03*
X0093988Y0039661D03*
X0101272Y0074504D03*
X0108272Y0074504D03*
D14*
X0133104Y0029317D03*
X0133104Y0026817D03*
X0133104Y0024317D03*
X0133104Y0021817D03*
X0133104Y0019317D03*
X0133104Y0016817D03*
X0133104Y0014317D03*
X0133104Y0011817D03*
X0153604Y0011817D03*
X0153604Y0014317D03*
X0153604Y0016817D03*
X0153604Y0019317D03*
X0153604Y0021817D03*
X0153604Y0024317D03*
X0153604Y0026817D03*
X0153604Y0029317D03*
D15*
X0147882Y0042854D03*
X0147882Y0049854D03*
X0113827Y0050051D03*
X0113827Y0043051D03*
X0109299Y0018161D03*
X0118461Y0018161D03*
X0118461Y0011161D03*
X0109299Y0011161D03*
X0062252Y0065098D03*
X0062252Y0072098D03*
X0065008Y0090295D03*
X0065008Y0097295D03*
X0061122Y0102587D03*
X0061122Y0109587D03*
X0140622Y0109980D03*
X0140622Y0102980D03*
X0200441Y0049067D03*
X0200441Y0042067D03*
X0218713Y0102783D03*
X0218713Y0109783D03*
X0276819Y0049067D03*
X0276819Y0042067D03*
X0298031Y0102980D03*
X0298031Y0109980D03*
X0377287Y0109980D03*
X0377287Y0102980D03*
X0355756Y0049067D03*
X0355756Y0042067D03*
X0433512Y0040886D03*
X0433512Y0047886D03*
X0456106Y0102783D03*
X0456106Y0109783D03*
X0512646Y0048673D03*
X0512646Y0041673D03*
X0534728Y0102980D03*
X0534728Y0109980D03*
X0613197Y0109783D03*
X0613197Y0102783D03*
X0594142Y0048673D03*
X0594142Y0041673D03*
X0671898Y0042461D03*
X0671898Y0049461D03*
D16*
X0138630Y0045370D03*
X0127606Y0045370D03*
D17*
X0147685Y0103441D03*
X0147685Y0110921D03*
X0157921Y0110921D03*
X0157921Y0107181D03*
X0157921Y0103441D03*
X0226031Y0103441D03*
X0226031Y0110921D03*
X0236268Y0110921D03*
X0236268Y0107181D03*
X0236268Y0103441D03*
X0305165Y0103441D03*
X0305165Y0110921D03*
X0315402Y0110921D03*
X0315402Y0107181D03*
X0315402Y0103441D03*
X0383906Y0103441D03*
X0383906Y0110921D03*
X0394142Y0110921D03*
X0394142Y0107181D03*
X0394142Y0103441D03*
X0462646Y0103441D03*
X0462646Y0110921D03*
X0472882Y0110921D03*
X0472882Y0107181D03*
X0472882Y0103441D03*
X0541386Y0103441D03*
X0541386Y0110921D03*
X0551622Y0110921D03*
X0551622Y0107181D03*
X0551622Y0103441D03*
X0620126Y0103441D03*
X0620126Y0110921D03*
X0630362Y0110921D03*
X0630362Y0107181D03*
X0630362Y0103441D03*
D18*
X0052409Y0104032D03*
X0044929Y0104032D03*
X0044929Y0093795D03*
X0048669Y0093795D03*
X0052409Y0093795D03*
D19*
X0103197Y0100425D03*
X0181937Y0100425D03*
X0260677Y0100425D03*
X0339417Y0100425D03*
X0418157Y0100425D03*
X0496898Y0100819D03*
X0575638Y0100425D03*
X0654378Y0100425D03*
D20*
X0672094Y0091827D03*
X0683118Y0091827D03*
X0603984Y0091433D03*
X0592961Y0091433D03*
X0524063Y0091630D03*
X0513039Y0091630D03*
X0444535Y0091433D03*
X0433512Y0091433D03*
X0366386Y0091827D03*
X0355362Y0091827D03*
X0285874Y0091433D03*
X0274850Y0091433D03*
X0207134Y0091630D03*
X0196110Y0091630D03*
X0128394Y0092811D03*
X0117370Y0092811D03*
D21*
X0065008Y0042417D03*
X0065008Y0053441D03*
D22*
X0121307Y0057575D03*
X0121307Y0069386D03*
X0208118Y0069386D03*
X0208118Y0057575D03*
X0282331Y0057575D03*
X0282331Y0069386D03*
X0361661Y0069386D03*
X0361661Y0057575D03*
X0439811Y0057575D03*
X0439811Y0069386D03*
X0519339Y0069386D03*
X0519339Y0057575D03*
X0599850Y0057575D03*
X0599850Y0069386D03*
X0678197Y0069386D03*
X0678197Y0057575D03*
D23*
X0070815Y0104622D03*
X0070815Y0109740D03*
D24*
X0077313Y0109831D03*
X0077313Y0107181D03*
X0077313Y0104531D03*
D25*
X0078591Y0103421D03*
X0078591Y0110941D03*
D26*
X0078571Y0107161D03*
D27*
X0069535Y0110921D03*
D28*
X0069535Y0103441D03*
M02*
