%
M48
M72
T01C0.01181
T02C0.01378
T03C0.01400
T04C0.01575
T05C0.01700
T06C0.03937
%
T01
X81283Y91827
X135480Y87496
X135677Y83362
X139366Y90425
X143079Y92000
X157528Y91827
X178000Y94189
X188630Y94386
X214220Y87496
X215795Y83559
X218157Y90252
X221701Y92220
X237055Y91433
X255953Y94189
X294929Y87890
X298866Y90252
X302409Y92220
X316976Y91827
X335874Y94189
X374063Y87496
X377606Y90252
X381543Y91827
X396110Y91827
X414614Y93795
X427606Y95173
X453394Y87299
X457134Y90252
X461465Y92220
X473669Y91827
X494535Y94189
X506150Y94976
X534693Y87890
X538236Y90252
X542173Y91827
X552803Y91827
X572882Y93795
X584496Y94976
X611858Y88283
X615402Y90646
X620126Y90646
X631937Y89858
X652803Y93008
X664614Y95764
X685874Y84346
T02
X608512Y83756
X546307Y45764
X529772Y83362
X464811Y46157
X447882Y83953
X369929Y83953
X292567Y83756
X162646Y28047
T03
X176681Y28559
X138630Y14268
X123866Y12102
X102803Y12299
X181937Y80016
X228772Y27409
X225272Y23925
X258315Y79819
X336268Y79819
X413039Y79228
X492961Y79228
X572882Y79622
X654772Y79622
T04
X664012Y66209
X622685Y24504
X585035Y66681
X546504Y25488
X504287Y65972
X462843Y24701
X382528Y26866
X347319Y66091
X303000Y27850
X97882Y80016
X98866Y94189
T05
X111465Y94780
X107528Y67220
X99260Y55606
X92567Y52063
X89024Y40055
X79772Y36315
X74602Y40126
X80756Y21157
X107421Y40177
X123472Y38087
X141976Y29425
X156740Y33559
X157134Y41827
X168157Y41630
X175047Y52260
X182331Y53638
X195126Y66236
X186898Y41157
X179772Y31787
X179772Y23126
X194346Y28043
X209543Y28287
X228591Y45531
X246583Y39307
X250126Y51906
X259299Y54819
X268551Y66433
X269142Y94976
X230441Y78677
X230047Y70409
X262921Y40488
X263827Y31394
X264846Y21409
X244469Y22122
X282862Y18819
X301362Y17000
X325362Y38441
X328906Y51827
X338236Y54228
X341701Y39819
X344339Y31394
X307287Y46031
X307646Y70331
X308039Y78598
X349063Y94583
X383669Y78362
X383669Y70488
X407291Y51984
X417567Y55803
X425835Y66433
X421661Y38795
X420893Y30409
X403748Y38598
X385787Y45531
X464417Y70409
X464417Y77890
X495323Y55409
X486071Y51906
X482528Y38520
X491583Y29031
X499063Y40094
X544772Y70331
X544575Y78402
X567213Y51827
X576425Y52063
X580795Y39425
X572488Y29031
X563669Y38441
X624000Y45531
X642449Y38362
X652606Y30213
X659181Y39150
X645992Y51748
X655559Y54819
X625913Y70252
X626110Y79307
X153630Y80134
X153630Y75409
X72094Y63874
X67567Y58953
X70520Y76472
X61071Y76866
X59890Y85528
X58709Y96945
X71504Y90055
X39220Y94386
X40992Y102654
X37646Y105409
T06
X43866Y24031
X43866Y34031
X53866Y34031
X53866Y24031
X53866Y44031
X43866Y44031
X43866Y54031
X43866Y64031
X53866Y64031
X53866Y54031
X53866Y74031
X43866Y74031
X43866Y84031
X53866Y84031
M30
