G75*
%MOIN*%
%OFA0B0*%
%FSLAX25Y25*%
%IPPOS*%
%LPD*%
%AMOC8*
5,1,8,0,0,1.08239X$1,22.5*
%
%ADD10C,0.05937*%
%ADD11R,0.12000X0.07000*%
%ADD12C,0.03300*%
%ADD13C,0.01200*%
%ADD14C,0.03175*%
%ADD15C,0.01000*%
%ADD16C,0.03000*%
%ADD17C,0.00984*%
%ADD18C,0.02400*%
%ADD19C,0.01969*%
%ADD20C,0.01600*%
%ADD21C,0.02978*%
%ADD22C,0.02781*%
%ADD23C,0.00866*%
%ADD24C,0.01575*%
%ADD25C,0.01181*%
D10*
X0043866Y0024031D03*
X0043866Y0034031D03*
X0053866Y0034031D03*
X0053866Y0024031D03*
X0053866Y0044031D03*
X0043866Y0044031D03*
X0043866Y0054031D03*
X0043866Y0064031D03*
X0053866Y0064031D03*
X0053866Y0054031D03*
X0053866Y0074031D03*
X0043866Y0074031D03*
X0043866Y0084031D03*
X0053866Y0084031D03*
D11*
X0103197Y0100425D03*
X0181937Y0100425D03*
X0260677Y0100425D03*
X0339417Y0100425D03*
X0418157Y0100425D03*
X0496898Y0100819D03*
X0575638Y0100425D03*
X0654378Y0100425D03*
D12*
X0626110Y0079307D03*
X0625913Y0070252D03*
X0645992Y0051748D03*
X0655559Y0054819D03*
X0659181Y0039150D03*
X0652606Y0030213D03*
X0642449Y0038362D03*
X0624000Y0045531D03*
X0580795Y0039425D03*
X0572488Y0029031D03*
X0563669Y0038441D03*
X0567213Y0051827D03*
X0576425Y0052063D03*
X0544772Y0070331D03*
X0544575Y0078402D03*
X0495323Y0055409D03*
X0486071Y0051906D03*
X0482528Y0038520D03*
X0491583Y0029031D03*
X0499063Y0040094D03*
X0464417Y0070409D03*
X0464417Y0077890D03*
X0425835Y0066433D03*
X0417567Y0055803D03*
X0407291Y0051984D03*
X0403748Y0038598D03*
X0421661Y0038795D03*
X0420893Y0030409D03*
X0385787Y0045531D03*
X0383669Y0070488D03*
X0383669Y0078362D03*
X0349063Y0094583D03*
X0308039Y0078598D03*
X0307646Y0070331D03*
X0328906Y0051827D03*
X0338236Y0054228D03*
X0341701Y0039819D03*
X0344339Y0031394D03*
X0325362Y0038441D03*
X0307287Y0046031D03*
X0282862Y0018819D03*
X0301362Y0017000D03*
X0264846Y0021409D03*
X0263827Y0031394D03*
X0262921Y0040488D03*
X0246583Y0039307D03*
X0250126Y0051906D03*
X0259299Y0054819D03*
X0268551Y0066433D03*
X0269142Y0094976D03*
X0230441Y0078677D03*
X0230047Y0070409D03*
X0228591Y0045531D03*
X0209543Y0028287D03*
X0194346Y0028043D03*
X0179772Y0031787D03*
X0186898Y0041157D03*
X0175047Y0052260D03*
X0182331Y0053638D03*
X0195126Y0066236D03*
X0168157Y0041630D03*
X0157134Y0041827D03*
X0156740Y0033559D03*
X0141976Y0029425D03*
X0123472Y0038087D03*
X0107421Y0040177D03*
X0092567Y0052063D03*
X0099260Y0055606D03*
X0107528Y0067220D03*
X0111465Y0094780D03*
X0071504Y0090055D03*
X0059890Y0085528D03*
X0061071Y0076866D03*
X0070520Y0076472D03*
X0072094Y0063874D03*
X0067567Y0058953D03*
X0074602Y0040126D03*
X0079772Y0036315D03*
X0089024Y0040055D03*
X0080756Y0021157D03*
X0153630Y0075409D03*
X0153630Y0080134D03*
X0179772Y0023126D03*
X0244469Y0022122D03*
X0058709Y0096945D03*
X0040992Y0102654D03*
X0037646Y0105409D03*
X0039220Y0094386D03*
D13*
X0037646Y0096354D01*
X0037646Y0105409D01*
X0070126Y0079228D02*
X0070520Y0079622D01*
X0070520Y0076472D01*
X0096898Y0079622D02*
X0097291Y0080016D01*
X0097882Y0080016D01*
X0097291Y0093795D02*
X0097685Y0094189D01*
X0098866Y0094189D01*
X0102303Y0042146D02*
X0107421Y0040177D01*
X0102803Y0036906D02*
X0123472Y0036906D01*
X0123472Y0038087D01*
X0123472Y0036906D02*
X0153394Y0036906D01*
X0156740Y0033559D01*
X0150244Y0034740D02*
X0102213Y0034740D01*
X0100406Y0036154D01*
X0084559Y0036154D01*
X0080756Y0034740D02*
X0079772Y0036315D01*
X0080756Y0034740D02*
X0080756Y0021157D01*
X0157134Y0041827D02*
X0175835Y0023126D01*
X0179772Y0023126D01*
X0179772Y0031787D02*
X0179772Y0032378D01*
X0182134Y0034740D01*
X0182134Y0053441D01*
X0182331Y0053638D01*
X0175047Y0052260D02*
X0171504Y0052260D01*
X0168157Y0048913D01*
X0168157Y0041630D01*
X0186898Y0041157D02*
X0186898Y0040764D01*
X0228079Y0068441D02*
X0230047Y0070409D01*
X0230441Y0078677D02*
X0230441Y0079465D01*
X0230047Y0079071D01*
X0250126Y0051906D02*
X0250126Y0042850D01*
X0246976Y0039701D01*
X0246976Y0038913D01*
X0246583Y0039307D01*
X0262724Y0040488D02*
X0262921Y0040488D01*
X0303000Y0041744D02*
X0303000Y0027850D01*
X0303000Y0041744D02*
X0307287Y0046031D01*
X0325756Y0039622D02*
X0325756Y0038835D01*
X0325362Y0038441D01*
X0325756Y0039622D02*
X0328906Y0042772D01*
X0328906Y0051827D01*
X0341504Y0040409D02*
X0341701Y0039819D01*
X0306858Y0068362D02*
X0307646Y0070331D01*
X0308039Y0078598D02*
X0309220Y0079386D01*
X0308827Y0078992D01*
X0383669Y0078362D02*
X0387606Y0079543D01*
X0387213Y0079150D01*
X0383669Y0070488D02*
X0385244Y0068520D01*
X0407291Y0051984D02*
X0407291Y0042929D01*
X0404142Y0039780D01*
X0404142Y0038992D01*
X0403748Y0038598D01*
X0419890Y0040567D02*
X0421661Y0038795D01*
X0418551Y0059543D02*
X0425835Y0066433D01*
X0462843Y0043795D02*
X0464811Y0046157D01*
X0462843Y0043795D02*
X0462843Y0024701D01*
X0482528Y0038520D02*
X0482921Y0038913D01*
X0482921Y0039701D01*
X0486071Y0042850D01*
X0486071Y0051906D01*
X0498669Y0040488D02*
X0499063Y0040094D01*
X0464024Y0068441D02*
X0464417Y0070409D01*
X0464417Y0077890D02*
X0466386Y0079465D01*
X0465992Y0079071D01*
X0544575Y0078402D02*
X0547528Y0079386D01*
X0547134Y0078992D01*
X0544772Y0070331D02*
X0545165Y0068362D01*
X0567213Y0051827D02*
X0567213Y0042772D01*
X0564063Y0039622D01*
X0564063Y0038835D01*
X0563669Y0038441D01*
X0580795Y0039031D02*
X0580795Y0039425D01*
X0587449Y0066630D02*
X0592567Y0065449D01*
X0624000Y0045531D02*
X0622685Y0042445D01*
X0622685Y0024504D01*
X0642449Y0038362D02*
X0642843Y0038756D01*
X0642843Y0039543D01*
X0645992Y0042693D01*
X0645992Y0051748D01*
X0658591Y0040331D02*
X0659181Y0039150D01*
X0625913Y0070252D02*
X0623945Y0068283D01*
X0625913Y0078913D02*
X0626307Y0079307D01*
X0626110Y0079307D01*
X0546504Y0045370D02*
X0546504Y0025488D01*
X0546504Y0045370D02*
X0546307Y0045764D01*
X0385846Y0045197D02*
X0382528Y0041878D01*
X0382528Y0026866D01*
X0153630Y0079740D02*
X0153236Y0079346D01*
X0153630Y0079740D02*
X0153630Y0080134D01*
D14*
X0097882Y0080016D03*
X0098866Y0094189D03*
X0303000Y0027850D03*
X0347319Y0066091D03*
X0382528Y0026866D03*
X0462843Y0024701D03*
X0504287Y0065972D03*
X0546504Y0025488D03*
X0585035Y0066681D03*
X0622685Y0024504D03*
X0664012Y0066209D03*
D15*
X0035874Y0036039D02*
X0035874Y0018205D01*
X0047291Y0006787D01*
X0686661Y0006787D01*
X0697291Y0017417D01*
X0697291Y0084740D01*
X0692961Y0089071D01*
X0692567Y0089071D01*
X0691386Y0087102D02*
X0630362Y0087102D01*
X0629772Y0087496D01*
X0613039Y0087496D01*
X0611858Y0088283D01*
X0608315Y0083953D02*
X0608512Y0083756D01*
X0576425Y0052063D02*
X0576425Y0051079D01*
X0572488Y0047142D01*
X0572488Y0029031D01*
X0546272Y0045138D02*
X0546307Y0045764D01*
X0495323Y0052457D02*
X0491583Y0048717D01*
X0491583Y0029031D01*
X0464772Y0045134D02*
X0464811Y0046157D01*
X0495323Y0052457D02*
X0495323Y0055409D01*
X0485480Y0084346D02*
X0470126Y0083953D01*
X0447882Y0083953D02*
X0447094Y0084150D01*
X0417567Y0055803D02*
X0417567Y0033953D01*
X0417744Y0033736D01*
X0420893Y0030409D01*
X0385846Y0045197D02*
X0385787Y0045531D01*
X0344339Y0031394D02*
X0340795Y0031394D01*
X0338236Y0033953D01*
X0338236Y0054228D01*
X0369535Y0084346D02*
X0369929Y0083953D01*
X0292567Y0083756D02*
X0292567Y0083165D01*
X0272094Y0069386D02*
X0269339Y0066630D01*
X0268551Y0066433D01*
X0259299Y0054819D02*
X0259102Y0054819D01*
X0259102Y0036118D01*
X0263827Y0031394D01*
X0264846Y0021409D02*
X0263772Y0020531D01*
X0244469Y0022122D02*
X0244272Y0022531D01*
X0228772Y0027409D02*
X0228772Y0044031D01*
X0228591Y0045531D01*
X0209543Y0028287D02*
X0205272Y0026031D01*
X0194346Y0028043D02*
X0192772Y0022031D01*
X0191772Y0021031D01*
X0164417Y0011709D02*
X0164024Y0010921D01*
X0162646Y0028047D02*
X0156937Y0028047D01*
X0150244Y0034740D01*
X0138630Y0014268D02*
X0138630Y0013087D01*
X0102803Y0036906D02*
X0099260Y0040449D01*
X0099260Y0055606D01*
X0107528Y0067220D02*
X0108709Y0068992D01*
X0132091Y0088819D02*
X0073134Y0088819D01*
X0071504Y0090055D01*
X0081150Y0091039D02*
X0130984Y0091039D01*
X0133516Y0093350D01*
X0133835Y0090563D02*
X0138441Y0090563D01*
X0139366Y0090425D01*
X0133835Y0090563D02*
X0132091Y0088819D01*
X0103197Y0099307D02*
X0103197Y0100425D01*
X0081543Y0091433D02*
X0081150Y0091039D01*
X0081543Y0091433D02*
X0081283Y0091827D01*
X0053866Y0074031D02*
X0053748Y0073913D01*
X0050638Y0073913D01*
X0045717Y0068992D01*
X0040402Y0068992D01*
X0038236Y0066827D01*
X0038236Y0050488D01*
X0039614Y0049110D01*
X0046504Y0049110D01*
X0048276Y0047339D01*
X0048276Y0041039D01*
X0045913Y0038677D01*
X0041976Y0038677D01*
X0038433Y0035134D01*
X0038433Y0019780D01*
X0049457Y0008756D01*
X0685087Y0008756D01*
X0695323Y0018992D01*
X0695323Y0083165D01*
X0691386Y0087102D01*
X0655559Y0054819D02*
X0655559Y0050882D01*
X0652606Y0048126D01*
X0652606Y0030213D01*
X0302059Y0014728D02*
X0301362Y0017000D01*
X0282862Y0018819D02*
X0282181Y0019031D01*
X0195126Y0066236D02*
X0191976Y0066236D01*
X0182331Y0053638D02*
X0181740Y0053638D01*
X0188630Y0094386D02*
X0189142Y0095370D01*
X0185087Y0099425D01*
X0181937Y0100425D01*
X0084559Y0036154D02*
X0080980Y0040126D01*
X0074602Y0040126D01*
X0043866Y0044031D02*
X0035874Y0036039D01*
D16*
X0102803Y0012299D03*
X0123866Y0012102D03*
X0138630Y0014268D03*
X0176681Y0028559D03*
X0225272Y0023925D03*
X0228772Y0027409D03*
X0258315Y0079819D03*
X0181937Y0080016D03*
X0336268Y0079819D03*
X0413039Y0079228D03*
X0492961Y0079228D03*
X0572882Y0079622D03*
X0654772Y0079622D03*
D17*
X0651228Y0092220D02*
X0652016Y0093008D01*
X0652803Y0093008D01*
X0658039Y0095764D02*
X0654378Y0100425D01*
X0658039Y0095764D02*
X0664614Y0095764D01*
X0683750Y0082464D02*
X0684144Y0082070D01*
X0684360Y0082070D01*
X0685340Y0081664D01*
X0686408Y0081664D01*
X0687394Y0082072D01*
X0688148Y0082827D01*
X0688557Y0083813D01*
X0688557Y0084248D01*
X0691701Y0084253D01*
X0693531Y0082423D01*
X0693531Y0019734D01*
X0684344Y0010548D01*
X0050199Y0010548D01*
X0049818Y0010929D01*
X0049667Y0023036D01*
X0050254Y0021618D01*
X0051453Y0020420D01*
X0053019Y0019771D01*
X0054714Y0019771D01*
X0056280Y0020420D01*
X0057478Y0021618D01*
X0058127Y0023184D01*
X0058127Y0024879D01*
X0057478Y0026445D01*
X0056280Y0027643D01*
X0054714Y0028292D01*
X0053019Y0028292D01*
X0051453Y0027643D01*
X0050254Y0026445D01*
X0049643Y0024969D01*
X0049459Y0039688D01*
X0050068Y0040297D01*
X0050068Y0042068D01*
X0050254Y0041618D01*
X0051453Y0040420D01*
X0053019Y0039771D01*
X0054714Y0039771D01*
X0056280Y0040420D01*
X0057478Y0041618D01*
X0058127Y0043184D01*
X0058127Y0044879D01*
X0057478Y0046445D01*
X0056280Y0047643D01*
X0054714Y0048292D01*
X0053019Y0048292D01*
X0051453Y0047643D01*
X0050254Y0046445D01*
X0050068Y0045995D01*
X0050068Y0048081D01*
X0049444Y0048705D01*
X0049277Y0063940D01*
X0049606Y0064273D01*
X0049606Y0063184D01*
X0050254Y0061618D01*
X0051453Y0060420D01*
X0053019Y0059771D01*
X0054714Y0059771D01*
X0056280Y0060420D01*
X0057478Y0061618D01*
X0058127Y0063184D01*
X0058127Y0064879D01*
X0057478Y0066445D01*
X0057384Y0066539D01*
X0065427Y0066539D01*
X0069229Y0063105D01*
X0069600Y0062207D01*
X0070428Y0061380D01*
X0071509Y0060932D01*
X0072680Y0060932D01*
X0073761Y0061380D01*
X0074589Y0062207D01*
X0075037Y0063289D01*
X0075037Y0064459D01*
X0074589Y0065541D01*
X0073761Y0066368D01*
X0072680Y0066816D01*
X0072555Y0066816D01*
X0068103Y0070838D01*
X0067797Y0071144D01*
X0067737Y0071169D01*
X0067689Y0071213D01*
X0067281Y0071358D01*
X0066882Y0071524D01*
X0066816Y0071524D01*
X0066755Y0071546D01*
X0066323Y0071524D01*
X0057384Y0071524D01*
X0057478Y0071618D01*
X0058127Y0073184D01*
X0058127Y0074879D01*
X0057478Y0076445D01*
X0057181Y0076743D01*
X0059182Y0076743D01*
X0064115Y0081676D01*
X0128696Y0081676D01*
X0128708Y0081664D01*
X0130285Y0081664D01*
X0133845Y0081400D01*
X0134158Y0081088D01*
X0135144Y0080680D01*
X0136211Y0080680D01*
X0137197Y0081088D01*
X0137785Y0081676D01*
X0213884Y0081676D01*
X0214276Y0081285D01*
X0215262Y0080876D01*
X0216329Y0080876D01*
X0217315Y0081285D01*
X0217706Y0081676D01*
X0290713Y0081676D01*
X0290992Y0081398D01*
X0292014Y0080975D01*
X0293120Y0080975D01*
X0294142Y0081398D01*
X0294420Y0081676D01*
X0310439Y0081676D01*
X0310833Y0082070D01*
X0367464Y0082070D01*
X0367574Y0081905D01*
X0367823Y0081856D01*
X0368002Y0081676D01*
X0368272Y0081676D01*
X0368354Y0081595D01*
X0369376Y0081172D01*
X0370482Y0081172D01*
X0371407Y0081555D01*
X0371526Y0081495D01*
X0372070Y0081676D01*
X0384791Y0081676D01*
X0385002Y0081536D01*
X0385706Y0081676D01*
X0386423Y0081676D01*
X0386603Y0081856D01*
X0387674Y0082070D01*
X0445831Y0082070D01*
X0446307Y0081595D01*
X0447329Y0081172D01*
X0448435Y0081172D01*
X0449457Y0081595D01*
X0449539Y0081676D01*
X0527307Y0081676D01*
X0527416Y0081512D01*
X0527757Y0081444D01*
X0528196Y0081005D01*
X0529218Y0080581D01*
X0530325Y0080581D01*
X0531347Y0081005D01*
X0532019Y0081676D01*
X0546659Y0081676D01*
X0547053Y0082070D01*
X0606191Y0082070D01*
X0606585Y0081676D01*
X0606658Y0081676D01*
X0606936Y0081398D01*
X0607959Y0080975D01*
X0609065Y0080975D01*
X0610087Y0081398D01*
X0610365Y0081676D01*
X0626778Y0081676D01*
X0627565Y0082464D01*
X0683750Y0082464D01*
X0685326Y0081670D02*
X0610359Y0081670D01*
X0606665Y0081670D02*
X0532012Y0081670D01*
X0530581Y0080687D02*
X0693531Y0080687D01*
X0693531Y0079704D02*
X0062143Y0079704D01*
X0061161Y0078722D02*
X0693531Y0078722D01*
X0693531Y0077739D02*
X0060178Y0077739D01*
X0059195Y0076756D02*
X0693531Y0076756D01*
X0693531Y0075773D02*
X0057756Y0075773D01*
X0058127Y0074790D02*
X0693531Y0074790D01*
X0693531Y0073808D02*
X0058127Y0073808D01*
X0057978Y0072825D02*
X0693531Y0072825D01*
X0693531Y0071842D02*
X0057571Y0071842D01*
X0057685Y0065946D02*
X0066084Y0065946D01*
X0067172Y0064963D02*
X0058092Y0064963D01*
X0058127Y0063980D02*
X0068260Y0063980D01*
X0069273Y0062997D02*
X0058049Y0062997D01*
X0057642Y0062015D02*
X0069793Y0062015D01*
X0071268Y0061032D02*
X0056892Y0061032D01*
X0055385Y0060049D02*
X0693531Y0060049D01*
X0693531Y0061032D02*
X0072921Y0061032D01*
X0074396Y0062015D02*
X0693531Y0062015D01*
X0693531Y0062997D02*
X0074916Y0062997D01*
X0075037Y0063980D02*
X0693531Y0063980D01*
X0693531Y0064963D02*
X0074828Y0064963D01*
X0074184Y0065946D02*
X0693531Y0065946D01*
X0693531Y0066928D02*
X0072431Y0066928D01*
X0071343Y0067911D02*
X0693531Y0067911D01*
X0693531Y0068894D02*
X0070256Y0068894D01*
X0069168Y0069877D02*
X0693531Y0069877D01*
X0693531Y0070859D02*
X0068082Y0070859D01*
X0063126Y0080687D02*
X0135125Y0080687D01*
X0136229Y0080687D02*
X0528963Y0080687D01*
X0527311Y0081670D02*
X0449532Y0081670D01*
X0446232Y0081670D02*
X0385673Y0081670D01*
X0384801Y0081670D02*
X0372050Y0081670D01*
X0368279Y0081670D02*
X0294414Y0081670D01*
X0290720Y0081670D02*
X0217700Y0081670D01*
X0215795Y0083559D02*
X0208315Y0083559D01*
X0208315Y0083953D01*
X0211465Y0089071D02*
X0140720Y0089071D01*
X0139366Y0090425D01*
X0141728Y0093350D02*
X0143079Y0092000D01*
X0141728Y0093350D02*
X0133516Y0093350D01*
X0130362Y0083953D02*
X0143748Y0083953D01*
X0137779Y0081670D02*
X0213891Y0081670D01*
X0219732Y0088677D02*
X0290992Y0088677D01*
X0293354Y0091039D01*
X0297685Y0091039D01*
X0298866Y0090252D01*
X0300047Y0089071D01*
X0370126Y0089071D01*
X0371307Y0090252D01*
X0377606Y0090252D01*
X0378787Y0089071D01*
X0450441Y0089071D01*
X0452803Y0091433D01*
X0455953Y0091433D01*
X0457134Y0090252D01*
X0458315Y0089071D01*
X0531150Y0089071D01*
X0533512Y0091433D01*
X0537055Y0091433D01*
X0538236Y0090646D01*
X0539024Y0090646D01*
X0537979Y0090469D01*
X0538413Y0090469D01*
X0539811Y0089071D01*
X0607921Y0089071D01*
X0610283Y0091433D01*
X0614614Y0091433D01*
X0615402Y0090646D01*
X0617370Y0093402D02*
X0609496Y0093402D01*
X0607134Y0091039D01*
X0553984Y0091039D01*
X0552803Y0091827D01*
X0542567Y0091827D02*
X0542173Y0091827D01*
X0540598Y0093402D01*
X0532331Y0093402D01*
X0529969Y0091039D01*
X0472882Y0091039D01*
X0473669Y0091827D01*
X0461465Y0092220D02*
X0459890Y0093402D01*
X0452016Y0093402D01*
X0449654Y0091039D01*
X0398472Y0091039D01*
X0397685Y0091827D01*
X0396110Y0091827D01*
X0381543Y0091827D02*
X0380362Y0093008D01*
X0371307Y0093008D01*
X0369339Y0091039D01*
X0317370Y0091039D01*
X0316976Y0091827D01*
X0318157Y0094976D02*
X0319732Y0093795D01*
X0330756Y0093008D01*
X0335874Y0094189D01*
X0338630Y0093795D01*
X0339417Y0094583D01*
X0343472Y0095370D02*
X0339417Y0100425D01*
X0343472Y0095370D02*
X0347685Y0095370D01*
X0352016Y0095370D01*
X0337055Y0080016D02*
X0336268Y0079819D01*
X0318157Y0094976D02*
X0309496Y0094976D01*
X0308315Y0096157D01*
X0301622Y0096157D01*
X0300835Y0093402D02*
X0292567Y0093402D01*
X0290205Y0091039D01*
X0239024Y0091039D01*
X0238236Y0091827D01*
X0237055Y0091433D01*
X0234299Y0083953D02*
X0228787Y0083953D01*
X0221701Y0092220D02*
X0220520Y0093402D01*
X0212646Y0093402D01*
X0209890Y0091039D01*
X0158709Y0091039D01*
X0157528Y0091827D01*
X0178000Y0093795D02*
X0178000Y0094189D01*
X0181937Y0080016D02*
X0181150Y0078638D01*
X0181745Y0056580D02*
X0180664Y0056132D01*
X0179836Y0055304D01*
X0179389Y0054223D01*
X0179389Y0053053D01*
X0179836Y0051971D01*
X0180242Y0051566D01*
X0180242Y0035524D01*
X0179447Y0034730D01*
X0179186Y0034730D01*
X0178105Y0034282D01*
X0177277Y0033454D01*
X0176830Y0032373D01*
X0176830Y0031202D01*
X0177277Y0030121D01*
X0178105Y0029293D01*
X0179186Y0028845D01*
X0180357Y0028845D01*
X0181438Y0029293D01*
X0182266Y0030121D01*
X0182714Y0031202D01*
X0182714Y0032373D01*
X0182634Y0032565D01*
X0182918Y0032848D01*
X0184026Y0033956D01*
X0184026Y0051172D01*
X0184825Y0051971D01*
X0185273Y0053053D01*
X0185273Y0054223D01*
X0184825Y0055304D01*
X0183997Y0056132D01*
X0182916Y0056580D01*
X0181745Y0056580D01*
X0180650Y0056118D02*
X0102202Y0056118D01*
X0102202Y0056192D02*
X0101754Y0057273D01*
X0100926Y0058101D01*
X0099845Y0058548D01*
X0098675Y0058548D01*
X0097593Y0058101D01*
X0096766Y0057273D01*
X0096318Y0056192D01*
X0096318Y0055021D01*
X0096766Y0053940D01*
X0097468Y0053238D01*
X0097468Y0039706D01*
X0099129Y0038046D01*
X0091175Y0038046D01*
X0091518Y0038389D01*
X0091966Y0039470D01*
X0091966Y0040119D01*
X0094066Y0042336D01*
X0094659Y0042929D01*
X0094659Y0042962D01*
X0094682Y0042986D01*
X0094659Y0043824D01*
X0094659Y0049994D01*
X0095061Y0050396D01*
X0095509Y0051478D01*
X0095509Y0052648D01*
X0095061Y0053730D01*
X0094234Y0054557D01*
X0093152Y0055005D01*
X0091982Y0055005D01*
X0090900Y0054557D01*
X0090073Y0053730D01*
X0089625Y0052648D01*
X0089625Y0051478D01*
X0090073Y0050396D01*
X0090475Y0049994D01*
X0090475Y0044629D01*
X0088929Y0042997D01*
X0088438Y0042997D01*
X0087357Y0042549D01*
X0086529Y0041722D01*
X0086081Y0040640D01*
X0086081Y0039470D01*
X0086529Y0038389D01*
X0086872Y0038046D01*
X0085267Y0038046D01*
X0082772Y0040814D01*
X0082772Y0040868D01*
X0082281Y0041360D01*
X0081815Y0041877D01*
X0081761Y0041880D01*
X0081723Y0041918D01*
X0081027Y0041918D01*
X0080332Y0041954D01*
X0080292Y0041918D01*
X0076971Y0041918D01*
X0076269Y0042620D01*
X0075188Y0043068D01*
X0074017Y0043068D01*
X0072936Y0042620D01*
X0072108Y0041793D01*
X0071660Y0040711D01*
X0071660Y0039541D01*
X0072108Y0038459D01*
X0072936Y0037632D01*
X0074017Y0037184D01*
X0075188Y0037184D01*
X0076269Y0037632D01*
X0076971Y0038334D01*
X0077630Y0038334D01*
X0077277Y0037982D01*
X0076830Y0036900D01*
X0076830Y0035730D01*
X0077277Y0034648D01*
X0078105Y0033821D01*
X0078864Y0033506D01*
X0078864Y0023426D01*
X0078262Y0022824D01*
X0077814Y0021743D01*
X0077814Y0020572D01*
X0078262Y0019491D01*
X0079089Y0018663D01*
X0080171Y0018215D01*
X0081341Y0018215D01*
X0082422Y0018663D01*
X0083250Y0019491D01*
X0083698Y0020572D01*
X0083698Y0021743D01*
X0083250Y0022824D01*
X0082648Y0023426D01*
X0082648Y0034525D01*
X0082776Y0035078D01*
X0082648Y0035283D01*
X0082648Y0035524D01*
X0082634Y0035538D01*
X0082655Y0035589D01*
X0082667Y0035576D01*
X0082667Y0035370D01*
X0083775Y0034261D01*
X0099753Y0034261D01*
X0100956Y0033321D01*
X0101429Y0032848D01*
X0101561Y0032848D01*
X0101664Y0032767D01*
X0102328Y0032848D01*
X0149602Y0032848D01*
X0155145Y0027305D01*
X0155145Y0027305D01*
X0156195Y0026255D01*
X0160505Y0026255D01*
X0161070Y0025690D01*
X0162092Y0025266D01*
X0163199Y0025266D01*
X0164221Y0025690D01*
X0165003Y0026472D01*
X0165427Y0027494D01*
X0165427Y0028600D01*
X0165003Y0029623D01*
X0164221Y0030405D01*
X0163199Y0030828D01*
X0162092Y0030828D01*
X0161070Y0030405D01*
X0160505Y0029839D01*
X0157679Y0029839D01*
X0156902Y0030617D01*
X0157325Y0030617D01*
X0158407Y0031065D01*
X0159234Y0031892D01*
X0159682Y0032974D01*
X0159682Y0034144D01*
X0159234Y0035226D01*
X0158407Y0036053D01*
X0157325Y0036501D01*
X0156474Y0036501D01*
X0154177Y0038798D01*
X0126362Y0038798D01*
X0125967Y0039753D01*
X0125139Y0040581D01*
X0124058Y0041029D01*
X0122887Y0041029D01*
X0121806Y0040581D01*
X0120978Y0039753D01*
X0120582Y0038798D01*
X0103445Y0038798D01*
X0101052Y0041191D01*
X0101052Y0053238D01*
X0101754Y0053940D01*
X0102202Y0055021D01*
X0102202Y0056192D01*
X0101825Y0057101D02*
X0257420Y0057101D01*
X0257633Y0057313D02*
X0256805Y0056485D01*
X0256357Y0055404D01*
X0256357Y0054234D01*
X0256805Y0053152D01*
X0257310Y0052647D01*
X0257310Y0035376D01*
X0260885Y0031801D01*
X0260885Y0030808D01*
X0261333Y0029727D01*
X0262160Y0028899D01*
X0263242Y0028452D01*
X0264412Y0028452D01*
X0265493Y0028899D01*
X0266321Y0029727D01*
X0266769Y0030808D01*
X0266769Y0031979D01*
X0266321Y0033060D01*
X0265493Y0033888D01*
X0264412Y0034336D01*
X0263419Y0034336D01*
X0260894Y0036860D01*
X0260894Y0052295D01*
X0260966Y0052325D01*
X0261793Y0053152D01*
X0262241Y0054234D01*
X0262241Y0055404D01*
X0261793Y0056485D01*
X0260966Y0057313D01*
X0259884Y0057761D01*
X0258714Y0057761D01*
X0257633Y0057313D01*
X0256653Y0056118D02*
X0184011Y0056118D01*
X0184895Y0055135D02*
X0256357Y0055135D01*
X0256391Y0054152D02*
X0252040Y0054152D01*
X0251793Y0054400D02*
X0250711Y0054848D01*
X0249541Y0054848D01*
X0248459Y0054400D01*
X0247632Y0053572D01*
X0247184Y0052491D01*
X0247184Y0051320D01*
X0247632Y0050239D01*
X0248234Y0049637D01*
X0248234Y0043634D01*
X0246849Y0042249D01*
X0245997Y0042249D01*
X0244916Y0041801D01*
X0244088Y0040974D01*
X0243641Y0039892D01*
X0243641Y0038722D01*
X0244088Y0037641D01*
X0244916Y0036813D01*
X0245997Y0036365D01*
X0247168Y0036365D01*
X0248249Y0036813D01*
X0249077Y0037641D01*
X0249525Y0038722D01*
X0249525Y0039573D01*
X0252018Y0042067D01*
X0252018Y0049637D01*
X0252620Y0050239D01*
X0253068Y0051320D01*
X0253068Y0052491D01*
X0252620Y0053572D01*
X0251793Y0054400D01*
X0252787Y0053170D02*
X0256798Y0053170D01*
X0257310Y0052187D02*
X0253068Y0052187D01*
X0253020Y0051204D02*
X0257310Y0051204D01*
X0257310Y0050221D02*
X0252603Y0050221D01*
X0252018Y0049239D02*
X0257310Y0049239D01*
X0257310Y0048256D02*
X0252018Y0048256D01*
X0252018Y0047273D02*
X0257310Y0047273D01*
X0257310Y0046290D02*
X0252018Y0046290D01*
X0252018Y0045308D02*
X0257310Y0045308D01*
X0257310Y0044325D02*
X0252018Y0044325D01*
X0252018Y0043342D02*
X0257310Y0043342D01*
X0257310Y0042359D02*
X0252018Y0042359D01*
X0251328Y0041377D02*
X0257310Y0041377D01*
X0257310Y0040394D02*
X0250345Y0040394D01*
X0249525Y0039411D02*
X0257310Y0039411D01*
X0257310Y0038428D02*
X0249403Y0038428D01*
X0248882Y0037445D02*
X0257310Y0037445D01*
X0257310Y0036463D02*
X0247404Y0036463D01*
X0245762Y0036463D02*
X0230564Y0036463D01*
X0230564Y0037445D02*
X0244284Y0037445D01*
X0243762Y0038428D02*
X0230564Y0038428D01*
X0230564Y0039411D02*
X0243641Y0039411D01*
X0243848Y0040394D02*
X0230564Y0040394D01*
X0230564Y0041377D02*
X0244491Y0041377D01*
X0246959Y0042359D02*
X0230564Y0042359D01*
X0230564Y0043342D02*
X0247942Y0043342D01*
X0248234Y0044325D02*
X0231275Y0044325D01*
X0231085Y0043865D02*
X0231533Y0044946D01*
X0231533Y0046117D01*
X0231085Y0047198D01*
X0230257Y0048026D01*
X0229176Y0048474D01*
X0228005Y0048474D01*
X0226924Y0048026D01*
X0226096Y0047198D01*
X0225648Y0046117D01*
X0225648Y0044946D01*
X0226096Y0043865D01*
X0226924Y0043037D01*
X0226980Y0043014D01*
X0226980Y0029566D01*
X0226405Y0028991D01*
X0225980Y0027965D01*
X0225980Y0026854D01*
X0226405Y0025828D01*
X0227190Y0025042D01*
X0228216Y0024617D01*
X0229327Y0024617D01*
X0230353Y0025042D01*
X0231139Y0025828D01*
X0231564Y0026854D01*
X0231564Y0027965D01*
X0231139Y0028991D01*
X0230564Y0029566D01*
X0230564Y0043344D01*
X0231085Y0043865D01*
X0231533Y0045308D02*
X0248234Y0045308D01*
X0248234Y0046290D02*
X0231461Y0046290D01*
X0231010Y0047273D02*
X0248234Y0047273D01*
X0248234Y0048256D02*
X0229702Y0048256D01*
X0227480Y0048256D02*
X0184026Y0048256D01*
X0184026Y0049239D02*
X0248234Y0049239D01*
X0247649Y0050221D02*
X0184026Y0050221D01*
X0184058Y0051204D02*
X0247232Y0051204D01*
X0247184Y0052187D02*
X0184914Y0052187D01*
X0185273Y0053170D02*
X0247465Y0053170D01*
X0248212Y0054152D02*
X0185273Y0054152D01*
X0179766Y0055135D02*
X0175794Y0055135D01*
X0175632Y0055202D02*
X0174462Y0055202D01*
X0173381Y0054754D01*
X0172779Y0054152D01*
X0101842Y0054152D01*
X0102202Y0055135D02*
X0174301Y0055135D01*
X0175632Y0055202D02*
X0176714Y0054754D01*
X0177541Y0053926D01*
X0177989Y0052845D01*
X0177989Y0051675D01*
X0177541Y0050593D01*
X0176714Y0049766D01*
X0175632Y0049318D01*
X0174462Y0049318D01*
X0173381Y0049766D01*
X0172779Y0050368D01*
X0172288Y0050368D01*
X0170050Y0048130D01*
X0170050Y0043899D01*
X0170652Y0043296D01*
X0171100Y0042215D01*
X0171100Y0041045D01*
X0170652Y0039963D01*
X0169824Y0039136D01*
X0168743Y0038688D01*
X0167572Y0038688D01*
X0166491Y0039136D01*
X0165663Y0039963D01*
X0165215Y0041045D01*
X0165215Y0042215D01*
X0165663Y0043296D01*
X0166265Y0043899D01*
X0166265Y0049697D01*
X0167374Y0050805D01*
X0170720Y0054152D01*
X0172779Y0054152D01*
X0169738Y0053170D02*
X0101052Y0053170D01*
X0101052Y0052187D02*
X0168755Y0052187D01*
X0167772Y0051204D02*
X0101052Y0051204D01*
X0101052Y0050221D02*
X0166790Y0050221D01*
X0166265Y0049239D02*
X0101052Y0049239D01*
X0101052Y0048256D02*
X0166265Y0048256D01*
X0166265Y0047273D02*
X0101052Y0047273D01*
X0101052Y0046290D02*
X0166265Y0046290D01*
X0166265Y0045308D02*
X0101052Y0045308D01*
X0101052Y0044325D02*
X0155476Y0044325D01*
X0155467Y0044321D02*
X0154640Y0043493D01*
X0154192Y0042412D01*
X0154192Y0041242D01*
X0154640Y0040160D01*
X0155467Y0039333D01*
X0156549Y0038885D01*
X0157400Y0038885D01*
X0175051Y0021234D01*
X0177503Y0021234D01*
X0178105Y0020632D01*
X0179186Y0020184D01*
X0180357Y0020184D01*
X0181438Y0020632D01*
X0182266Y0021459D01*
X0182714Y0022541D01*
X0182714Y0023711D01*
X0182266Y0024793D01*
X0181438Y0025620D01*
X0180357Y0026068D01*
X0179186Y0026068D01*
X0178105Y0025620D01*
X0177503Y0025018D01*
X0176618Y0025018D01*
X0160076Y0041561D01*
X0160076Y0042412D01*
X0159628Y0043493D01*
X0158800Y0044321D01*
X0157719Y0044769D01*
X0156549Y0044769D01*
X0155467Y0044321D01*
X0154577Y0043342D02*
X0101052Y0043342D01*
X0101052Y0042359D02*
X0154192Y0042359D01*
X0154192Y0041377D02*
X0101052Y0041377D01*
X0101849Y0040394D02*
X0121619Y0040394D01*
X0120836Y0039411D02*
X0102832Y0039411D01*
X0098746Y0038428D02*
X0091534Y0038428D01*
X0091941Y0039411D02*
X0097763Y0039411D01*
X0097468Y0040394D02*
X0092226Y0040394D01*
X0093157Y0041377D02*
X0097468Y0041377D01*
X0097468Y0042359D02*
X0094090Y0042359D01*
X0094672Y0043342D02*
X0097468Y0043342D01*
X0097468Y0044325D02*
X0094659Y0044325D01*
X0094659Y0045308D02*
X0097468Y0045308D01*
X0097468Y0046290D02*
X0094659Y0046290D01*
X0094659Y0047273D02*
X0097468Y0047273D01*
X0097468Y0048256D02*
X0094659Y0048256D01*
X0094659Y0049239D02*
X0097468Y0049239D01*
X0097468Y0050221D02*
X0094886Y0050221D01*
X0095396Y0051204D02*
X0097468Y0051204D01*
X0097468Y0052187D02*
X0095509Y0052187D01*
X0095293Y0053170D02*
X0097468Y0053170D01*
X0096678Y0054152D02*
X0094638Y0054152D01*
X0096318Y0055135D02*
X0058021Y0055135D01*
X0058127Y0054879D02*
X0057478Y0056445D01*
X0056280Y0057643D01*
X0054714Y0058292D01*
X0053019Y0058292D01*
X0051453Y0057643D01*
X0050254Y0056445D01*
X0049606Y0054879D01*
X0049606Y0053184D01*
X0050254Y0051618D01*
X0051453Y0050420D01*
X0053019Y0049771D01*
X0054714Y0049771D01*
X0056280Y0050420D01*
X0057478Y0051618D01*
X0058127Y0053184D01*
X0058127Y0054879D01*
X0058127Y0054152D02*
X0090496Y0054152D01*
X0089841Y0053170D02*
X0058121Y0053170D01*
X0057714Y0052187D02*
X0089625Y0052187D01*
X0089738Y0051204D02*
X0057064Y0051204D01*
X0055801Y0050221D02*
X0090248Y0050221D01*
X0090475Y0049239D02*
X0049438Y0049239D01*
X0049427Y0050221D02*
X0051931Y0050221D01*
X0050668Y0051204D02*
X0049417Y0051204D01*
X0049406Y0052187D02*
X0050019Y0052187D01*
X0049611Y0053170D02*
X0049395Y0053170D01*
X0049384Y0054152D02*
X0049606Y0054152D01*
X0049712Y0055135D02*
X0049374Y0055135D01*
X0049363Y0056118D02*
X0050119Y0056118D01*
X0049352Y0057101D02*
X0050910Y0057101D01*
X0049341Y0058083D02*
X0052515Y0058083D01*
X0052347Y0060049D02*
X0049320Y0060049D01*
X0049309Y0061032D02*
X0050840Y0061032D01*
X0050090Y0062015D02*
X0049298Y0062015D01*
X0049288Y0062997D02*
X0049683Y0062997D01*
X0049606Y0063980D02*
X0049317Y0063980D01*
X0049331Y0059066D02*
X0693531Y0059066D01*
X0693531Y0058083D02*
X0496555Y0058083D01*
X0496989Y0057904D02*
X0495908Y0058352D01*
X0494738Y0058352D01*
X0493656Y0057904D01*
X0492829Y0057076D01*
X0492381Y0055995D01*
X0492381Y0054824D01*
X0492829Y0053743D01*
X0493452Y0053120D01*
X0490840Y0050509D01*
X0489791Y0049459D01*
X0489791Y0031400D01*
X0489088Y0030698D01*
X0488641Y0029617D01*
X0488641Y0028446D01*
X0489088Y0027365D01*
X0489916Y0026537D01*
X0490997Y0026089D01*
X0492168Y0026089D01*
X0493249Y0026537D01*
X0494077Y0027365D01*
X0494525Y0028446D01*
X0494525Y0029617D01*
X0494077Y0030698D01*
X0493375Y0031400D01*
X0493375Y0047974D01*
X0497115Y0051714D01*
X0497115Y0053041D01*
X0497817Y0053743D01*
X0498265Y0054824D01*
X0498265Y0055995D01*
X0497817Y0057076D01*
X0496989Y0057904D01*
X0497792Y0057101D02*
X0653680Y0057101D01*
X0653892Y0057313D02*
X0653065Y0056485D01*
X0652617Y0055404D01*
X0652617Y0054234D01*
X0653065Y0053152D01*
X0653767Y0052450D01*
X0653767Y0051661D01*
X0651900Y0049918D01*
X0651864Y0049918D01*
X0651361Y0049415D01*
X0650841Y0048930D01*
X0650840Y0048894D01*
X0650814Y0048868D01*
X0650814Y0048157D01*
X0650790Y0047446D01*
X0650814Y0047420D01*
X0650814Y0032581D01*
X0650112Y0031879D01*
X0649664Y0030798D01*
X0649664Y0029627D01*
X0650112Y0028546D01*
X0650940Y0027718D01*
X0652021Y0027270D01*
X0653192Y0027270D01*
X0654273Y0027718D01*
X0655101Y0028546D01*
X0655548Y0029627D01*
X0655548Y0030798D01*
X0655101Y0031879D01*
X0654398Y0032581D01*
X0654398Y0047347D01*
X0656265Y0049090D01*
X0656301Y0049090D01*
X0656804Y0049593D01*
X0657325Y0050078D01*
X0657326Y0050114D01*
X0657351Y0050140D01*
X0657351Y0050851D01*
X0657376Y0051562D01*
X0657351Y0051588D01*
X0657351Y0052450D01*
X0658053Y0053152D01*
X0658501Y0054234D01*
X0658501Y0055404D01*
X0658053Y0056485D01*
X0657226Y0057313D01*
X0656144Y0057761D01*
X0654974Y0057761D01*
X0653892Y0057313D01*
X0652913Y0056118D02*
X0498214Y0056118D01*
X0498265Y0055135D02*
X0652617Y0055135D01*
X0652651Y0054152D02*
X0647749Y0054152D01*
X0647659Y0054242D02*
X0646577Y0054690D01*
X0645407Y0054690D01*
X0644326Y0054242D01*
X0643498Y0053415D01*
X0643050Y0052333D01*
X0643050Y0051163D01*
X0643498Y0050081D01*
X0644100Y0049479D01*
X0644100Y0043477D01*
X0642059Y0041435D01*
X0641928Y0041304D01*
X0641864Y0041304D01*
X0640782Y0040856D01*
X0639955Y0040029D01*
X0639507Y0038947D01*
X0639507Y0037777D01*
X0639955Y0036696D01*
X0640782Y0035868D01*
X0641864Y0035420D01*
X0643034Y0035420D01*
X0644115Y0035868D01*
X0644943Y0036696D01*
X0645391Y0037777D01*
X0645391Y0038947D01*
X0645254Y0039279D01*
X0647884Y0041909D01*
X0647884Y0049479D01*
X0648486Y0050081D01*
X0648934Y0051163D01*
X0648934Y0052333D01*
X0648486Y0053415D01*
X0647659Y0054242D01*
X0648588Y0053170D02*
X0653058Y0053170D01*
X0653767Y0052187D02*
X0648934Y0052187D01*
X0648934Y0051204D02*
X0653278Y0051204D01*
X0652225Y0050221D02*
X0648544Y0050221D01*
X0647884Y0049239D02*
X0651172Y0049239D01*
X0650814Y0048256D02*
X0647884Y0048256D01*
X0647884Y0047273D02*
X0650814Y0047273D01*
X0650814Y0046290D02*
X0647884Y0046290D01*
X0647884Y0045308D02*
X0650814Y0045308D01*
X0650814Y0044325D02*
X0647884Y0044325D01*
X0647884Y0043342D02*
X0650814Y0043342D01*
X0650814Y0042359D02*
X0647884Y0042359D01*
X0647352Y0041377D02*
X0650814Y0041377D01*
X0650814Y0040394D02*
X0646369Y0040394D01*
X0645386Y0039411D02*
X0650814Y0039411D01*
X0650814Y0038428D02*
X0645391Y0038428D01*
X0645254Y0037445D02*
X0650814Y0037445D01*
X0650814Y0036463D02*
X0644710Y0036463D01*
X0643179Y0035480D02*
X0650814Y0035480D01*
X0650814Y0034497D02*
X0624577Y0034497D01*
X0624577Y0033514D02*
X0650814Y0033514D01*
X0650765Y0032532D02*
X0624577Y0032532D01*
X0624577Y0031549D02*
X0649975Y0031549D01*
X0649664Y0030566D02*
X0624577Y0030566D01*
X0624577Y0029583D02*
X0649682Y0029583D01*
X0650089Y0028601D02*
X0624577Y0028601D01*
X0624577Y0027618D02*
X0651182Y0027618D01*
X0654030Y0027618D02*
X0693531Y0027618D01*
X0693531Y0028601D02*
X0655123Y0028601D01*
X0655530Y0029583D02*
X0693531Y0029583D01*
X0693531Y0030566D02*
X0655548Y0030566D01*
X0655237Y0031549D02*
X0693531Y0031549D01*
X0693531Y0032532D02*
X0654448Y0032532D01*
X0654398Y0033514D02*
X0693531Y0033514D01*
X0693531Y0034497D02*
X0654398Y0034497D01*
X0654398Y0035480D02*
X0693531Y0035480D01*
X0693531Y0036463D02*
X0654398Y0036463D01*
X0654398Y0037445D02*
X0693531Y0037445D01*
X0693531Y0038428D02*
X0654398Y0038428D01*
X0654398Y0039411D02*
X0693531Y0039411D01*
X0693531Y0040394D02*
X0654398Y0040394D01*
X0654398Y0041377D02*
X0693531Y0041377D01*
X0693531Y0042359D02*
X0654398Y0042359D01*
X0654398Y0043342D02*
X0693531Y0043342D01*
X0693531Y0044325D02*
X0654398Y0044325D01*
X0654398Y0045308D02*
X0693531Y0045308D01*
X0693531Y0046290D02*
X0654398Y0046290D01*
X0654398Y0047273D02*
X0693531Y0047273D01*
X0693531Y0048256D02*
X0655372Y0048256D01*
X0656450Y0049239D02*
X0693531Y0049239D01*
X0693531Y0050221D02*
X0657351Y0050221D01*
X0657363Y0051204D02*
X0693531Y0051204D01*
X0693531Y0052187D02*
X0657351Y0052187D01*
X0658060Y0053170D02*
X0693531Y0053170D01*
X0693531Y0054152D02*
X0658468Y0054152D01*
X0658501Y0055135D02*
X0693531Y0055135D01*
X0693531Y0056118D02*
X0658205Y0056118D01*
X0657438Y0057101D02*
X0693531Y0057101D01*
X0693531Y0081670D02*
X0686422Y0081670D01*
X0687974Y0082653D02*
X0693301Y0082653D01*
X0692318Y0083635D02*
X0688483Y0083635D01*
X0692567Y0089071D02*
X0692764Y0089071D01*
X0692567Y0089071D02*
X0633906Y0089071D01*
X0633118Y0089858D01*
X0631937Y0089858D01*
X0620126Y0090646D02*
X0617370Y0093402D01*
X0584496Y0094976D02*
X0580087Y0094976D01*
X0575638Y0100425D01*
X0572882Y0093795D02*
X0572094Y0093402D01*
X0571701Y0093795D01*
X0572882Y0079622D02*
X0575244Y0078835D01*
X0575840Y0055005D02*
X0574759Y0054557D01*
X0573931Y0053730D01*
X0573483Y0052648D01*
X0573483Y0051478D01*
X0573719Y0050907D01*
X0571746Y0048934D01*
X0570696Y0047884D01*
X0570696Y0031400D01*
X0569994Y0030698D01*
X0569546Y0029617D01*
X0569546Y0028446D01*
X0569994Y0027365D01*
X0570822Y0026537D01*
X0571903Y0026089D01*
X0573073Y0026089D01*
X0574155Y0026537D01*
X0574982Y0027365D01*
X0575430Y0028446D01*
X0575430Y0029617D01*
X0574982Y0030698D01*
X0574280Y0031400D01*
X0574280Y0046399D01*
X0577002Y0049121D01*
X0577010Y0049121D01*
X0578092Y0049569D01*
X0578919Y0050396D01*
X0579367Y0051478D01*
X0579367Y0052648D01*
X0578919Y0053730D01*
X0578092Y0054557D01*
X0577010Y0055005D01*
X0575840Y0055005D01*
X0574354Y0054152D02*
X0569048Y0054152D01*
X0568879Y0054321D02*
X0567798Y0054769D01*
X0566627Y0054769D01*
X0565546Y0054321D01*
X0564718Y0053493D01*
X0564270Y0052412D01*
X0564270Y0051242D01*
X0564718Y0050160D01*
X0565320Y0049558D01*
X0565320Y0043555D01*
X0563279Y0041514D01*
X0563148Y0041383D01*
X0563084Y0041383D01*
X0562003Y0040935D01*
X0561175Y0040108D01*
X0560727Y0039026D01*
X0560727Y0037856D01*
X0561175Y0036774D01*
X0562003Y0035947D01*
X0563084Y0035499D01*
X0564255Y0035499D01*
X0565336Y0035947D01*
X0566163Y0036774D01*
X0566611Y0037856D01*
X0566611Y0039026D01*
X0566474Y0039357D01*
X0569105Y0041988D01*
X0569105Y0049558D01*
X0569707Y0050160D01*
X0570155Y0051242D01*
X0570155Y0052412D01*
X0569707Y0053493D01*
X0568879Y0054321D01*
X0569841Y0053170D02*
X0573699Y0053170D01*
X0573483Y0052187D02*
X0570155Y0052187D01*
X0570139Y0051204D02*
X0573596Y0051204D01*
X0573033Y0050221D02*
X0569732Y0050221D01*
X0569105Y0049239D02*
X0572051Y0049239D01*
X0571068Y0048256D02*
X0569105Y0048256D01*
X0569105Y0047273D02*
X0570696Y0047273D01*
X0570696Y0046290D02*
X0569105Y0046290D01*
X0569105Y0045308D02*
X0570696Y0045308D01*
X0570696Y0044325D02*
X0569105Y0044325D01*
X0569105Y0043342D02*
X0570696Y0043342D01*
X0570696Y0042359D02*
X0569105Y0042359D01*
X0568493Y0041377D02*
X0570696Y0041377D01*
X0570696Y0040394D02*
X0567511Y0040394D01*
X0566528Y0039411D02*
X0570696Y0039411D01*
X0570696Y0038428D02*
X0566611Y0038428D01*
X0566441Y0037445D02*
X0570696Y0037445D01*
X0570696Y0036463D02*
X0565852Y0036463D01*
X0561487Y0036463D02*
X0548396Y0036463D01*
X0548396Y0037445D02*
X0560897Y0037445D01*
X0560727Y0038428D02*
X0548396Y0038428D01*
X0548396Y0039411D02*
X0560887Y0039411D01*
X0561461Y0040394D02*
X0548396Y0040394D01*
X0548396Y0041377D02*
X0563068Y0041377D01*
X0564124Y0042359D02*
X0548396Y0042359D01*
X0548396Y0043342D02*
X0565107Y0043342D01*
X0565320Y0044325D02*
X0548721Y0044325D01*
X0548665Y0044188D02*
X0549088Y0045211D01*
X0549088Y0046317D01*
X0548665Y0047339D01*
X0547882Y0048121D01*
X0546860Y0048545D01*
X0545754Y0048545D01*
X0544732Y0048121D01*
X0543949Y0047339D01*
X0543526Y0046317D01*
X0543526Y0045211D01*
X0543949Y0044188D01*
X0544612Y0043526D01*
X0544612Y0027668D01*
X0544063Y0027119D01*
X0543624Y0026061D01*
X0543624Y0024915D01*
X0544063Y0023857D01*
X0544873Y0023047D01*
X0545931Y0022609D01*
X0547077Y0022609D01*
X0548135Y0023047D01*
X0548945Y0023857D01*
X0549383Y0024915D01*
X0549383Y0026061D01*
X0548945Y0027119D01*
X0548396Y0027668D01*
X0548396Y0043920D01*
X0548665Y0044188D01*
X0549088Y0045308D02*
X0565320Y0045308D01*
X0565320Y0046290D02*
X0549088Y0046290D01*
X0548692Y0047273D02*
X0565320Y0047273D01*
X0565320Y0048256D02*
X0547558Y0048256D01*
X0545056Y0048256D02*
X0493656Y0048256D01*
X0493375Y0047273D02*
X0543922Y0047273D01*
X0543526Y0046290D02*
X0493375Y0046290D01*
X0493375Y0045308D02*
X0543526Y0045308D01*
X0543893Y0044325D02*
X0493375Y0044325D01*
X0493375Y0043342D02*
X0544612Y0043342D01*
X0544612Y0042359D02*
X0493375Y0042359D01*
X0493375Y0041377D02*
X0544612Y0041377D01*
X0544612Y0040394D02*
X0493375Y0040394D01*
X0493375Y0039411D02*
X0544612Y0039411D01*
X0544612Y0038428D02*
X0493375Y0038428D01*
X0493375Y0037445D02*
X0544612Y0037445D01*
X0544612Y0036463D02*
X0493375Y0036463D01*
X0493375Y0035480D02*
X0544612Y0035480D01*
X0544612Y0034497D02*
X0493375Y0034497D01*
X0493375Y0033514D02*
X0544612Y0033514D01*
X0544612Y0032532D02*
X0493375Y0032532D01*
X0493375Y0031549D02*
X0544612Y0031549D01*
X0544612Y0030566D02*
X0494132Y0030566D01*
X0494525Y0029583D02*
X0544612Y0029583D01*
X0544612Y0028601D02*
X0494525Y0028601D01*
X0494182Y0027618D02*
X0544561Y0027618D01*
X0543862Y0026635D02*
X0493347Y0026635D01*
X0489818Y0026635D02*
X0464980Y0026635D01*
X0464735Y0026881D02*
X0464735Y0043110D01*
X0464922Y0043335D01*
X0465445Y0043315D01*
X0465630Y0043487D01*
X0466386Y0043800D01*
X0467169Y0044582D01*
X0467592Y0045604D01*
X0467592Y0046711D01*
X0467169Y0047733D01*
X0466386Y0048515D01*
X0465364Y0048939D01*
X0464258Y0048939D01*
X0463236Y0048515D01*
X0462453Y0047733D01*
X0462030Y0046711D01*
X0462030Y0045776D01*
X0461444Y0045072D01*
X0460950Y0044579D01*
X0460950Y0044480D01*
X0460887Y0044404D01*
X0460950Y0043709D01*
X0460950Y0026881D01*
X0460401Y0026332D01*
X0459963Y0025274D01*
X0459963Y0024128D01*
X0460401Y0023070D01*
X0461211Y0022260D01*
X0462270Y0021821D01*
X0463415Y0021821D01*
X0464474Y0022260D01*
X0465284Y0023070D01*
X0465722Y0024128D01*
X0465722Y0025274D01*
X0465284Y0026332D01*
X0464735Y0026881D01*
X0464735Y0027618D02*
X0488984Y0027618D01*
X0488641Y0028601D02*
X0464735Y0028601D01*
X0464735Y0029583D02*
X0488641Y0029583D01*
X0489034Y0030566D02*
X0464735Y0030566D01*
X0464735Y0031549D02*
X0489791Y0031549D01*
X0489791Y0032532D02*
X0464735Y0032532D01*
X0464735Y0033514D02*
X0489791Y0033514D01*
X0489791Y0034497D02*
X0464735Y0034497D01*
X0464735Y0035480D02*
X0489791Y0035480D01*
X0489791Y0036463D02*
X0484631Y0036463D01*
X0485022Y0036853D02*
X0485470Y0037934D01*
X0485470Y0039105D01*
X0485332Y0039436D01*
X0487963Y0042067D01*
X0487963Y0049637D01*
X0488565Y0050239D01*
X0489013Y0051320D01*
X0489013Y0052491D01*
X0488565Y0053572D01*
X0487737Y0054400D01*
X0486656Y0054848D01*
X0485486Y0054848D01*
X0484404Y0054400D01*
X0483577Y0053572D01*
X0483129Y0052491D01*
X0483129Y0051320D01*
X0483577Y0050239D01*
X0484179Y0049637D01*
X0484179Y0043634D01*
X0482138Y0041593D01*
X0482006Y0041462D01*
X0481942Y0041462D01*
X0480861Y0041014D01*
X0480033Y0040186D01*
X0479585Y0039105D01*
X0479585Y0037934D01*
X0480033Y0036853D01*
X0480861Y0036025D01*
X0481942Y0035578D01*
X0483113Y0035578D01*
X0484194Y0036025D01*
X0485022Y0036853D01*
X0485267Y0037445D02*
X0489791Y0037445D01*
X0489791Y0038428D02*
X0485470Y0038428D01*
X0485343Y0039411D02*
X0489791Y0039411D01*
X0489791Y0040394D02*
X0486290Y0040394D01*
X0487273Y0041377D02*
X0489791Y0041377D01*
X0489791Y0042359D02*
X0487963Y0042359D01*
X0487963Y0043342D02*
X0489791Y0043342D01*
X0489791Y0044325D02*
X0487963Y0044325D01*
X0487963Y0045308D02*
X0489791Y0045308D01*
X0489791Y0046290D02*
X0487963Y0046290D01*
X0487963Y0047273D02*
X0489791Y0047273D01*
X0489791Y0048256D02*
X0487963Y0048256D01*
X0487963Y0049239D02*
X0489791Y0049239D01*
X0490553Y0050221D02*
X0488548Y0050221D01*
X0488965Y0051204D02*
X0491536Y0051204D01*
X0492519Y0052187D02*
X0489013Y0052187D01*
X0488732Y0053170D02*
X0493402Y0053170D01*
X0492659Y0054152D02*
X0487985Y0054152D01*
X0484157Y0054152D02*
X0420068Y0054152D01*
X0420061Y0054137D02*
X0420509Y0055218D01*
X0420509Y0056388D01*
X0420061Y0057470D01*
X0419234Y0058297D01*
X0418152Y0058745D01*
X0416982Y0058745D01*
X0415900Y0058297D01*
X0415073Y0057470D01*
X0414625Y0056388D01*
X0414625Y0055218D01*
X0415073Y0054137D01*
X0415775Y0053434D01*
X0415775Y0034044D01*
X0415709Y0033395D01*
X0415775Y0033315D01*
X0415775Y0033210D01*
X0415932Y0033053D01*
X0415932Y0033043D01*
X0416397Y0032552D01*
X0416824Y0032028D01*
X0416900Y0032020D01*
X0417951Y0030910D01*
X0417951Y0029824D01*
X0418399Y0028743D01*
X0419227Y0027915D01*
X0420308Y0027467D01*
X0421479Y0027467D01*
X0422560Y0027915D01*
X0423388Y0028743D01*
X0423836Y0029824D01*
X0423836Y0030995D01*
X0423388Y0032076D01*
X0422560Y0032904D01*
X0421479Y0033352D01*
X0420576Y0033352D01*
X0419359Y0034637D01*
X0419359Y0053434D01*
X0420061Y0054137D01*
X0420475Y0055135D02*
X0492381Y0055135D01*
X0492432Y0056118D02*
X0420509Y0056118D01*
X0420214Y0057101D02*
X0492853Y0057101D01*
X0494090Y0058083D02*
X0419447Y0058083D01*
X0415686Y0058083D02*
X0100943Y0058083D01*
X0097576Y0058083D02*
X0055217Y0058083D01*
X0056822Y0057101D02*
X0096694Y0057101D01*
X0096318Y0056118D02*
X0057614Y0056118D01*
X0054801Y0048256D02*
X0090475Y0048256D01*
X0090475Y0047273D02*
X0056650Y0047273D01*
X0057542Y0046290D02*
X0090475Y0046290D01*
X0090475Y0045308D02*
X0057949Y0045308D01*
X0058127Y0044325D02*
X0090187Y0044325D01*
X0089256Y0043342D02*
X0058127Y0043342D01*
X0057785Y0042359D02*
X0072675Y0042359D01*
X0071936Y0041377D02*
X0057237Y0041377D01*
X0056217Y0040394D02*
X0071660Y0040394D01*
X0071714Y0039411D02*
X0049462Y0039411D01*
X0049475Y0038428D02*
X0072139Y0038428D01*
X0073386Y0037445D02*
X0056478Y0037445D01*
X0056280Y0037643D02*
X0054714Y0038292D01*
X0053019Y0038292D01*
X0051453Y0037643D01*
X0050254Y0036445D01*
X0049606Y0034879D01*
X0049606Y0033184D01*
X0050254Y0031618D01*
X0051453Y0030420D01*
X0053019Y0029771D01*
X0054714Y0029771D01*
X0056280Y0030420D01*
X0057478Y0031618D01*
X0058127Y0033184D01*
X0058127Y0034879D01*
X0057478Y0036445D01*
X0056280Y0037643D01*
X0057460Y0036463D02*
X0076830Y0036463D01*
X0076933Y0035480D02*
X0057878Y0035480D01*
X0058127Y0034497D02*
X0077429Y0034497D01*
X0078845Y0033514D02*
X0058127Y0033514D01*
X0057857Y0032532D02*
X0078864Y0032532D01*
X0078864Y0031549D02*
X0057409Y0031549D01*
X0056426Y0030566D02*
X0078864Y0030566D01*
X0078864Y0029583D02*
X0049585Y0029583D01*
X0049597Y0028601D02*
X0078864Y0028601D01*
X0078864Y0027618D02*
X0056305Y0027618D01*
X0057288Y0026635D02*
X0078864Y0026635D01*
X0078864Y0025652D02*
X0057806Y0025652D01*
X0058127Y0024670D02*
X0078864Y0024670D01*
X0078864Y0023687D02*
X0058127Y0023687D01*
X0057928Y0022704D02*
X0078212Y0022704D01*
X0077814Y0021721D02*
X0057521Y0021721D01*
X0056599Y0020738D02*
X0077814Y0020738D01*
X0078152Y0019756D02*
X0049708Y0019756D01*
X0049696Y0020738D02*
X0051134Y0020738D01*
X0050211Y0021721D02*
X0049683Y0021721D01*
X0049671Y0022704D02*
X0049804Y0022704D01*
X0049926Y0025652D02*
X0049634Y0025652D01*
X0049622Y0026635D02*
X0050444Y0026635D01*
X0049610Y0027618D02*
X0051427Y0027618D01*
X0051306Y0030566D02*
X0049573Y0030566D01*
X0049561Y0031549D02*
X0050323Y0031549D01*
X0049876Y0032532D02*
X0049548Y0032532D01*
X0049536Y0033514D02*
X0049606Y0033514D01*
X0049606Y0034497D02*
X0049524Y0034497D01*
X0049511Y0035480D02*
X0049854Y0035480D01*
X0049499Y0036463D02*
X0050272Y0036463D01*
X0049487Y0037445D02*
X0051255Y0037445D01*
X0051515Y0040394D02*
X0050068Y0040394D01*
X0050068Y0041377D02*
X0050496Y0041377D01*
X0050190Y0046290D02*
X0050068Y0046290D01*
X0050068Y0047273D02*
X0051082Y0047273D01*
X0049893Y0048256D02*
X0052931Y0048256D01*
X0043866Y0044031D02*
X0042843Y0043008D01*
X0049720Y0018773D02*
X0078980Y0018773D01*
X0082532Y0018773D02*
X0692569Y0018773D01*
X0693531Y0019756D02*
X0083360Y0019756D01*
X0083698Y0020738D02*
X0177998Y0020738D01*
X0181545Y0020738D02*
X0693531Y0020738D01*
X0693531Y0021721D02*
X0623492Y0021721D01*
X0623258Y0021624D02*
X0624316Y0022063D01*
X0625126Y0022873D01*
X0625565Y0023931D01*
X0625565Y0025077D01*
X0625126Y0026135D01*
X0624577Y0026684D01*
X0624577Y0042059D01*
X0624850Y0042699D01*
X0625667Y0043037D01*
X0626494Y0043865D01*
X0626942Y0044946D01*
X0626942Y0046117D01*
X0626494Y0047198D01*
X0625667Y0048026D01*
X0624585Y0048474D01*
X0623415Y0048474D01*
X0622333Y0048026D01*
X0621506Y0047198D01*
X0621058Y0046117D01*
X0621058Y0044946D01*
X0621371Y0044189D01*
X0621088Y0043524D01*
X0620793Y0043229D01*
X0620793Y0042831D01*
X0620637Y0042465D01*
X0620793Y0042078D01*
X0620793Y0026684D01*
X0620244Y0026135D01*
X0619806Y0025077D01*
X0619806Y0023931D01*
X0620244Y0022873D01*
X0621054Y0022063D01*
X0622112Y0021624D01*
X0623258Y0021624D01*
X0621878Y0021721D02*
X0182374Y0021721D01*
X0182714Y0022704D02*
X0460767Y0022704D01*
X0460146Y0023687D02*
X0182714Y0023687D01*
X0182317Y0024670D02*
X0228090Y0024670D01*
X0229453Y0024670D02*
X0380652Y0024670D01*
X0380896Y0024425D02*
X0381955Y0023987D01*
X0383100Y0023987D01*
X0384159Y0024425D01*
X0384969Y0025235D01*
X0385407Y0026293D01*
X0385407Y0027439D01*
X0384969Y0028497D01*
X0384420Y0029046D01*
X0384420Y0041094D01*
X0385915Y0042589D01*
X0386373Y0042589D01*
X0387454Y0043037D01*
X0388282Y0043865D01*
X0388730Y0044946D01*
X0388730Y0046117D01*
X0388282Y0047198D01*
X0387454Y0048026D01*
X0386373Y0048474D01*
X0385202Y0048474D01*
X0384121Y0048026D01*
X0383293Y0047198D01*
X0382845Y0046117D01*
X0382845Y0044946D01*
X0382867Y0044893D01*
X0380635Y0042662D01*
X0380635Y0029046D01*
X0380086Y0028497D01*
X0379648Y0027439D01*
X0379648Y0026293D01*
X0380086Y0025235D01*
X0380896Y0024425D01*
X0379914Y0025652D02*
X0304874Y0025652D01*
X0304631Y0025409D02*
X0305441Y0026219D01*
X0305880Y0027278D01*
X0305880Y0028423D01*
X0305441Y0029482D01*
X0304892Y0030031D01*
X0304892Y0040960D01*
X0307021Y0043089D01*
X0307873Y0043089D01*
X0308954Y0043537D01*
X0309782Y0044365D01*
X0310230Y0045446D01*
X0310230Y0046617D01*
X0309782Y0047698D01*
X0308954Y0048526D01*
X0307873Y0048974D01*
X0306702Y0048974D01*
X0305621Y0048526D01*
X0304793Y0047698D01*
X0304345Y0046617D01*
X0304345Y0045765D01*
X0301108Y0042528D01*
X0301108Y0030031D01*
X0300559Y0029482D01*
X0300120Y0028423D01*
X0300120Y0027278D01*
X0300559Y0026219D01*
X0301369Y0025409D01*
X0302427Y0024971D01*
X0303573Y0024971D01*
X0304631Y0025409D01*
X0305613Y0026635D02*
X0379648Y0026635D01*
X0379722Y0027618D02*
X0305880Y0027618D01*
X0305806Y0028601D02*
X0343394Y0028601D01*
X0343753Y0028452D02*
X0344924Y0028452D01*
X0346005Y0028899D01*
X0346833Y0029727D01*
X0347281Y0030808D01*
X0347281Y0031979D01*
X0346833Y0033060D01*
X0346005Y0033888D01*
X0344924Y0034336D01*
X0343753Y0034336D01*
X0342672Y0033888D01*
X0341970Y0033186D01*
X0341538Y0033186D01*
X0340028Y0034695D01*
X0340028Y0051860D01*
X0340730Y0052562D01*
X0341178Y0053643D01*
X0341178Y0054814D01*
X0340730Y0055895D01*
X0339903Y0056723D01*
X0338821Y0057170D01*
X0337651Y0057170D01*
X0336570Y0056723D01*
X0335742Y0055895D01*
X0335294Y0054814D01*
X0335294Y0053643D01*
X0335742Y0052562D01*
X0336444Y0051860D01*
X0336444Y0033210D01*
X0337494Y0032161D01*
X0340053Y0029602D01*
X0341970Y0029602D01*
X0342672Y0028899D01*
X0343753Y0028452D01*
X0345284Y0028601D02*
X0380190Y0028601D01*
X0380635Y0029583D02*
X0346689Y0029583D01*
X0347180Y0030566D02*
X0380635Y0030566D01*
X0380635Y0031549D02*
X0347281Y0031549D01*
X0347052Y0032532D02*
X0380635Y0032532D01*
X0380635Y0033514D02*
X0346379Y0033514D01*
X0342298Y0033514D02*
X0341209Y0033514D01*
X0340226Y0034497D02*
X0380635Y0034497D01*
X0380635Y0035480D02*
X0340028Y0035480D01*
X0340028Y0036463D02*
X0380635Y0036463D01*
X0380635Y0037445D02*
X0340028Y0037445D01*
X0340028Y0038428D02*
X0380635Y0038428D01*
X0380635Y0039411D02*
X0340028Y0039411D01*
X0340028Y0040394D02*
X0380635Y0040394D01*
X0380635Y0041377D02*
X0340028Y0041377D01*
X0340028Y0042359D02*
X0380635Y0042359D01*
X0381316Y0043342D02*
X0340028Y0043342D01*
X0340028Y0044325D02*
X0382299Y0044325D01*
X0382845Y0045308D02*
X0340028Y0045308D01*
X0340028Y0046290D02*
X0382917Y0046290D01*
X0383368Y0047273D02*
X0340028Y0047273D01*
X0340028Y0048256D02*
X0384676Y0048256D01*
X0386898Y0048256D02*
X0405399Y0048256D01*
X0405399Y0049239D02*
X0340028Y0049239D01*
X0340028Y0050221D02*
X0404893Y0050221D01*
X0404797Y0050318D02*
X0405399Y0049716D01*
X0405399Y0043713D01*
X0403358Y0041672D01*
X0403227Y0041541D01*
X0403163Y0041541D01*
X0402081Y0041093D01*
X0401254Y0040265D01*
X0400806Y0039184D01*
X0400806Y0038013D01*
X0401254Y0036932D01*
X0402081Y0036104D01*
X0403163Y0035656D01*
X0404333Y0035656D01*
X0405415Y0036104D01*
X0406242Y0036932D01*
X0406690Y0038013D01*
X0406690Y0039184D01*
X0406553Y0039515D01*
X0409183Y0042145D01*
X0409183Y0049716D01*
X0409786Y0050318D01*
X0410233Y0051399D01*
X0410233Y0052569D01*
X0409786Y0053651D01*
X0408958Y0054478D01*
X0407877Y0054926D01*
X0406706Y0054926D01*
X0405625Y0054478D01*
X0404797Y0053651D01*
X0404349Y0052569D01*
X0404349Y0051399D01*
X0404797Y0050318D01*
X0404430Y0051204D02*
X0340028Y0051204D01*
X0340356Y0052187D02*
X0404349Y0052187D01*
X0404598Y0053170D02*
X0340982Y0053170D01*
X0341178Y0054152D02*
X0405299Y0054152D01*
X0409284Y0054152D02*
X0415066Y0054152D01*
X0414659Y0055135D02*
X0341045Y0055135D01*
X0340507Y0056118D02*
X0414625Y0056118D01*
X0414920Y0057101D02*
X0338990Y0057101D01*
X0337483Y0057101D02*
X0261178Y0057101D01*
X0261946Y0056118D02*
X0335965Y0056118D01*
X0335427Y0055135D02*
X0262241Y0055135D01*
X0262208Y0054152D02*
X0327070Y0054152D01*
X0327239Y0054321D02*
X0326411Y0053493D01*
X0325963Y0052412D01*
X0325963Y0051242D01*
X0326411Y0050160D01*
X0327013Y0049558D01*
X0327013Y0043555D01*
X0324972Y0041514D01*
X0324841Y0041383D01*
X0324777Y0041383D01*
X0323696Y0040935D01*
X0322868Y0040108D01*
X0322420Y0039026D01*
X0322420Y0037856D01*
X0322868Y0036774D01*
X0323696Y0035947D01*
X0324777Y0035499D01*
X0325947Y0035499D01*
X0327029Y0035947D01*
X0327856Y0036774D01*
X0328304Y0037856D01*
X0328304Y0039026D01*
X0328167Y0039357D01*
X0330798Y0041988D01*
X0330798Y0049558D01*
X0331400Y0050160D01*
X0331848Y0051242D01*
X0331848Y0052412D01*
X0331400Y0053493D01*
X0330572Y0054321D01*
X0329491Y0054769D01*
X0328320Y0054769D01*
X0327239Y0054321D01*
X0326277Y0053170D02*
X0261801Y0053170D01*
X0260894Y0052187D02*
X0325963Y0052187D01*
X0325979Y0051204D02*
X0260894Y0051204D01*
X0260894Y0050221D02*
X0326386Y0050221D01*
X0327013Y0049239D02*
X0260894Y0049239D01*
X0260894Y0048256D02*
X0305351Y0048256D01*
X0304617Y0047273D02*
X0260894Y0047273D01*
X0260894Y0046290D02*
X0304345Y0046290D01*
X0303888Y0045308D02*
X0260894Y0045308D01*
X0260894Y0044325D02*
X0302905Y0044325D01*
X0301922Y0043342D02*
X0260894Y0043342D01*
X0260894Y0042359D02*
X0301108Y0042359D01*
X0301108Y0041377D02*
X0260894Y0041377D01*
X0260894Y0040394D02*
X0301108Y0040394D01*
X0301108Y0039411D02*
X0260894Y0039411D01*
X0260894Y0038428D02*
X0301108Y0038428D01*
X0301108Y0037445D02*
X0260894Y0037445D01*
X0261292Y0036463D02*
X0301108Y0036463D01*
X0301108Y0035480D02*
X0262275Y0035480D01*
X0263258Y0034497D02*
X0301108Y0034497D01*
X0301108Y0033514D02*
X0265867Y0033514D01*
X0266540Y0032532D02*
X0301108Y0032532D01*
X0301108Y0031549D02*
X0266769Y0031549D01*
X0266668Y0030566D02*
X0301108Y0030566D01*
X0300661Y0029583D02*
X0266177Y0029583D01*
X0264772Y0028601D02*
X0300194Y0028601D01*
X0300120Y0027618D02*
X0231564Y0027618D01*
X0231473Y0026635D02*
X0300387Y0026635D01*
X0301126Y0025652D02*
X0230963Y0025652D01*
X0231300Y0028601D02*
X0262882Y0028601D01*
X0261476Y0029583D02*
X0230564Y0029583D01*
X0230564Y0030566D02*
X0260985Y0030566D01*
X0260885Y0031549D02*
X0230564Y0031549D01*
X0230564Y0032532D02*
X0260154Y0032532D01*
X0259172Y0033514D02*
X0230564Y0033514D01*
X0230564Y0034497D02*
X0258189Y0034497D01*
X0257310Y0035480D02*
X0230564Y0035480D01*
X0226980Y0035480D02*
X0184026Y0035480D01*
X0184026Y0036463D02*
X0226980Y0036463D01*
X0226980Y0037445D02*
X0184026Y0037445D01*
X0184026Y0038428D02*
X0226980Y0038428D01*
X0226980Y0039411D02*
X0184026Y0039411D01*
X0184026Y0040394D02*
X0226980Y0040394D01*
X0226980Y0041377D02*
X0184026Y0041377D01*
X0184026Y0042359D02*
X0226980Y0042359D01*
X0226619Y0043342D02*
X0184026Y0043342D01*
X0184026Y0044325D02*
X0225906Y0044325D01*
X0225648Y0045308D02*
X0184026Y0045308D01*
X0184026Y0046290D02*
X0225720Y0046290D01*
X0226171Y0047273D02*
X0184026Y0047273D01*
X0180242Y0047273D02*
X0170050Y0047273D01*
X0170050Y0046290D02*
X0180242Y0046290D01*
X0180242Y0045308D02*
X0170050Y0045308D01*
X0170050Y0044325D02*
X0180242Y0044325D01*
X0180242Y0043342D02*
X0170606Y0043342D01*
X0171040Y0042359D02*
X0180242Y0042359D01*
X0180242Y0041377D02*
X0171100Y0041377D01*
X0170830Y0040394D02*
X0180242Y0040394D01*
X0180242Y0039411D02*
X0170099Y0039411D01*
X0166216Y0039411D02*
X0162226Y0039411D01*
X0163208Y0038428D02*
X0180242Y0038428D01*
X0180242Y0037445D02*
X0164191Y0037445D01*
X0165174Y0036463D02*
X0180242Y0036463D01*
X0180198Y0035480D02*
X0166157Y0035480D01*
X0167139Y0034497D02*
X0178625Y0034497D01*
X0177338Y0033514D02*
X0168122Y0033514D01*
X0169105Y0032532D02*
X0176895Y0032532D01*
X0176830Y0031549D02*
X0170088Y0031549D01*
X0171070Y0030566D02*
X0177093Y0030566D01*
X0177815Y0029583D02*
X0172053Y0029583D01*
X0173036Y0028601D02*
X0226243Y0028601D01*
X0225980Y0027618D02*
X0174019Y0027618D01*
X0175001Y0026635D02*
X0226070Y0026635D01*
X0226580Y0025652D02*
X0181361Y0025652D01*
X0178183Y0025652D02*
X0175984Y0025652D01*
X0173581Y0022704D02*
X0083300Y0022704D01*
X0083698Y0021721D02*
X0174564Y0021721D01*
X0172598Y0023687D02*
X0082648Y0023687D01*
X0082648Y0024670D02*
X0171615Y0024670D01*
X0170632Y0025652D02*
X0164131Y0025652D01*
X0165071Y0026635D02*
X0169650Y0026635D01*
X0168667Y0027618D02*
X0165427Y0027618D01*
X0165427Y0028601D02*
X0167684Y0028601D01*
X0166701Y0029583D02*
X0165020Y0029583D01*
X0165719Y0030566D02*
X0163832Y0030566D01*
X0164736Y0031549D02*
X0158891Y0031549D01*
X0159499Y0032532D02*
X0163753Y0032532D01*
X0162770Y0033514D02*
X0159682Y0033514D01*
X0159536Y0034497D02*
X0161788Y0034497D01*
X0160805Y0035480D02*
X0158980Y0035480D01*
X0159822Y0036463D02*
X0157418Y0036463D01*
X0158839Y0037445D02*
X0155530Y0037445D01*
X0154547Y0038428D02*
X0157857Y0038428D01*
X0155389Y0039411D02*
X0126108Y0039411D01*
X0125326Y0040394D02*
X0154543Y0040394D01*
X0158791Y0044325D02*
X0166265Y0044325D01*
X0165709Y0043342D02*
X0159691Y0043342D01*
X0160076Y0042359D02*
X0165275Y0042359D01*
X0165215Y0041377D02*
X0160260Y0041377D01*
X0161243Y0040394D02*
X0165485Y0040394D01*
X0161459Y0030566D02*
X0156953Y0030566D01*
X0154832Y0027618D02*
X0082648Y0027618D01*
X0082648Y0028601D02*
X0153849Y0028601D01*
X0152866Y0029583D02*
X0082648Y0029583D01*
X0082648Y0030566D02*
X0151884Y0030566D01*
X0150901Y0031549D02*
X0082648Y0031549D01*
X0082648Y0032532D02*
X0149918Y0032532D01*
X0155815Y0026635D02*
X0082648Y0026635D01*
X0082648Y0025652D02*
X0161160Y0025652D01*
X0181728Y0029583D02*
X0226980Y0029583D01*
X0226980Y0030566D02*
X0182450Y0030566D01*
X0182714Y0031549D02*
X0226980Y0031549D01*
X0226980Y0032532D02*
X0182648Y0032532D01*
X0183584Y0033514D02*
X0226980Y0033514D01*
X0226980Y0034497D02*
X0184026Y0034497D01*
X0180242Y0048256D02*
X0170176Y0048256D01*
X0171159Y0049239D02*
X0180242Y0049239D01*
X0180242Y0050221D02*
X0177170Y0050221D01*
X0177794Y0051204D02*
X0180242Y0051204D01*
X0179747Y0052187D02*
X0177989Y0052187D01*
X0177855Y0053170D02*
X0179389Y0053170D01*
X0179389Y0054152D02*
X0177315Y0054152D01*
X0172925Y0050221D02*
X0172141Y0050221D01*
X0128702Y0081670D02*
X0064109Y0081670D01*
X0076530Y0042359D02*
X0087167Y0042359D01*
X0086386Y0041377D02*
X0082266Y0041377D01*
X0083151Y0040394D02*
X0086081Y0040394D01*
X0086106Y0039411D02*
X0084037Y0039411D01*
X0084922Y0038428D02*
X0086513Y0038428D01*
X0082667Y0035480D02*
X0082648Y0035480D01*
X0082648Y0034497D02*
X0083540Y0034497D01*
X0082648Y0033514D02*
X0100709Y0033514D01*
X0077055Y0037445D02*
X0075819Y0037445D01*
X0049733Y0017790D02*
X0691586Y0017790D01*
X0690604Y0016807D02*
X0049745Y0016807D01*
X0049757Y0015825D02*
X0689621Y0015825D01*
X0688638Y0014842D02*
X0049769Y0014842D01*
X0049782Y0013859D02*
X0687655Y0013859D01*
X0686673Y0012876D02*
X0049794Y0012876D01*
X0049806Y0011894D02*
X0685690Y0011894D01*
X0684707Y0010911D02*
X0049836Y0010911D01*
X0211465Y0089071D02*
X0213039Y0090646D01*
X0217370Y0090646D01*
X0218157Y0090252D01*
X0219732Y0088677D01*
X0255165Y0093795D02*
X0255953Y0094189D01*
X0260677Y0100425D02*
X0265126Y0094976D01*
X0269142Y0094976D01*
X0273669Y0094976D01*
X0258709Y0079622D02*
X0258315Y0079819D01*
X0300835Y0093402D02*
X0302409Y0092220D01*
X0330741Y0054152D02*
X0335294Y0054152D01*
X0335490Y0053170D02*
X0331534Y0053170D01*
X0331848Y0052187D02*
X0336117Y0052187D01*
X0336444Y0051204D02*
X0331832Y0051204D01*
X0331425Y0050221D02*
X0336444Y0050221D01*
X0336444Y0049239D02*
X0330798Y0049239D01*
X0330798Y0048256D02*
X0336444Y0048256D01*
X0336444Y0047273D02*
X0330798Y0047273D01*
X0330798Y0046290D02*
X0336444Y0046290D01*
X0336444Y0045308D02*
X0330798Y0045308D01*
X0330798Y0044325D02*
X0336444Y0044325D01*
X0336444Y0043342D02*
X0330798Y0043342D01*
X0330798Y0042359D02*
X0336444Y0042359D01*
X0336444Y0041377D02*
X0330186Y0041377D01*
X0329203Y0040394D02*
X0336444Y0040394D01*
X0336444Y0039411D02*
X0328221Y0039411D01*
X0328304Y0038428D02*
X0336444Y0038428D01*
X0336444Y0037445D02*
X0328134Y0037445D01*
X0327545Y0036463D02*
X0336444Y0036463D01*
X0336444Y0035480D02*
X0304892Y0035480D01*
X0304892Y0036463D02*
X0323180Y0036463D01*
X0322590Y0037445D02*
X0304892Y0037445D01*
X0304892Y0038428D02*
X0322420Y0038428D01*
X0322579Y0039411D02*
X0304892Y0039411D01*
X0304892Y0040394D02*
X0323154Y0040394D01*
X0324761Y0041377D02*
X0305308Y0041377D01*
X0306291Y0042359D02*
X0325817Y0042359D01*
X0326800Y0043342D02*
X0308483Y0043342D01*
X0309741Y0044325D02*
X0327013Y0044325D01*
X0327013Y0045308D02*
X0310172Y0045308D01*
X0310230Y0046290D02*
X0327013Y0046290D01*
X0327013Y0047273D02*
X0309958Y0047273D01*
X0309224Y0048256D02*
X0327013Y0048256D01*
X0336444Y0034497D02*
X0304892Y0034497D01*
X0304892Y0033514D02*
X0336444Y0033514D01*
X0337123Y0032532D02*
X0304892Y0032532D01*
X0304892Y0031549D02*
X0338106Y0031549D01*
X0339088Y0030566D02*
X0304892Y0030566D01*
X0305339Y0029583D02*
X0341988Y0029583D01*
X0384420Y0029583D02*
X0418051Y0029583D01*
X0417951Y0030566D02*
X0384420Y0030566D01*
X0384420Y0031549D02*
X0417347Y0031549D01*
X0416413Y0032532D02*
X0384420Y0032532D01*
X0384420Y0033514D02*
X0415721Y0033514D01*
X0415775Y0034497D02*
X0384420Y0034497D01*
X0384420Y0035480D02*
X0415775Y0035480D01*
X0415775Y0036463D02*
X0405773Y0036463D01*
X0406455Y0037445D02*
X0415775Y0037445D01*
X0415775Y0038428D02*
X0406690Y0038428D01*
X0406596Y0039411D02*
X0415775Y0039411D01*
X0415775Y0040394D02*
X0407432Y0040394D01*
X0408415Y0041377D02*
X0415775Y0041377D01*
X0415775Y0042359D02*
X0409183Y0042359D01*
X0409183Y0043342D02*
X0415775Y0043342D01*
X0415775Y0044325D02*
X0409183Y0044325D01*
X0409183Y0045308D02*
X0415775Y0045308D01*
X0415775Y0046290D02*
X0409183Y0046290D01*
X0409183Y0047273D02*
X0415775Y0047273D01*
X0415775Y0048256D02*
X0409183Y0048256D01*
X0409183Y0049239D02*
X0415775Y0049239D01*
X0415775Y0050221D02*
X0409689Y0050221D01*
X0410153Y0051204D02*
X0415775Y0051204D01*
X0415775Y0052187D02*
X0410233Y0052187D01*
X0409985Y0053170D02*
X0415775Y0053170D01*
X0419359Y0053170D02*
X0483410Y0053170D01*
X0483129Y0052187D02*
X0419359Y0052187D01*
X0419359Y0051204D02*
X0483177Y0051204D01*
X0483594Y0050221D02*
X0419359Y0050221D01*
X0419359Y0049239D02*
X0484179Y0049239D01*
X0484179Y0048256D02*
X0466646Y0048256D01*
X0467359Y0047273D02*
X0484179Y0047273D01*
X0484179Y0046290D02*
X0467592Y0046290D01*
X0467469Y0045308D02*
X0484179Y0045308D01*
X0484179Y0044325D02*
X0466911Y0044325D01*
X0465474Y0043342D02*
X0483887Y0043342D01*
X0482904Y0042359D02*
X0464735Y0042359D01*
X0464735Y0041377D02*
X0481736Y0041377D01*
X0480241Y0040394D02*
X0464735Y0040394D01*
X0464735Y0039411D02*
X0479712Y0039411D01*
X0479585Y0038428D02*
X0464735Y0038428D01*
X0464735Y0037445D02*
X0479788Y0037445D01*
X0480424Y0036463D02*
X0464735Y0036463D01*
X0460950Y0036463D02*
X0419359Y0036463D01*
X0419359Y0037445D02*
X0460950Y0037445D01*
X0460950Y0038428D02*
X0419359Y0038428D01*
X0419359Y0039411D02*
X0460950Y0039411D01*
X0460950Y0040394D02*
X0419359Y0040394D01*
X0419359Y0041377D02*
X0460950Y0041377D01*
X0460950Y0042359D02*
X0419359Y0042359D01*
X0419359Y0043342D02*
X0460950Y0043342D01*
X0460894Y0044325D02*
X0419359Y0044325D01*
X0419359Y0045308D02*
X0461640Y0045308D01*
X0462030Y0046290D02*
X0419359Y0046290D01*
X0419359Y0047273D02*
X0462263Y0047273D01*
X0462976Y0048256D02*
X0419359Y0048256D01*
X0405399Y0047273D02*
X0388207Y0047273D01*
X0388658Y0046290D02*
X0405399Y0046290D01*
X0405399Y0045308D02*
X0388730Y0045308D01*
X0388472Y0044325D02*
X0405399Y0044325D01*
X0405028Y0043342D02*
X0387759Y0043342D01*
X0385685Y0042359D02*
X0404046Y0042359D01*
X0402767Y0041377D02*
X0384702Y0041377D01*
X0384420Y0040394D02*
X0401383Y0040394D01*
X0400900Y0039411D02*
X0384420Y0039411D01*
X0384420Y0038428D02*
X0400806Y0038428D01*
X0401041Y0037445D02*
X0384420Y0037445D01*
X0384420Y0036463D02*
X0401723Y0036463D01*
X0418541Y0028601D02*
X0384865Y0028601D01*
X0385333Y0027618D02*
X0419945Y0027618D01*
X0421842Y0027618D02*
X0460950Y0027618D01*
X0460950Y0028601D02*
X0423245Y0028601D01*
X0423736Y0029583D02*
X0460950Y0029583D01*
X0460950Y0030566D02*
X0423836Y0030566D01*
X0423606Y0031549D02*
X0460950Y0031549D01*
X0460950Y0032532D02*
X0422932Y0032532D01*
X0420422Y0033514D02*
X0460950Y0033514D01*
X0460950Y0034497D02*
X0419491Y0034497D01*
X0419359Y0035480D02*
X0460950Y0035480D01*
X0460705Y0026635D02*
X0385407Y0026635D01*
X0385142Y0025652D02*
X0460120Y0025652D01*
X0459963Y0024670D02*
X0384403Y0024670D01*
X0413039Y0079228D02*
X0413827Y0079622D01*
X0413433Y0079228D01*
X0414220Y0093795D02*
X0414614Y0093795D01*
X0418157Y0100425D02*
X0422213Y0095370D01*
X0427606Y0095173D01*
X0492961Y0094189D02*
X0493354Y0093795D01*
X0494535Y0094189D01*
X0501346Y0095370D02*
X0496898Y0100819D01*
X0501346Y0095370D02*
X0506150Y0094976D01*
X0492567Y0080409D02*
X0492961Y0079228D01*
X0497987Y0054152D02*
X0565377Y0054152D01*
X0564584Y0053170D02*
X0497244Y0053170D01*
X0497115Y0052187D02*
X0564270Y0052187D01*
X0564286Y0051204D02*
X0496605Y0051204D01*
X0495622Y0050221D02*
X0564693Y0050221D01*
X0565320Y0049239D02*
X0494639Y0049239D01*
X0465565Y0025652D02*
X0543624Y0025652D01*
X0543726Y0024670D02*
X0465722Y0024670D01*
X0465539Y0023687D02*
X0544233Y0023687D01*
X0545701Y0022704D02*
X0464918Y0022704D01*
X0547307Y0022704D02*
X0620413Y0022704D01*
X0619907Y0023687D02*
X0548775Y0023687D01*
X0549282Y0024670D02*
X0619806Y0024670D01*
X0620044Y0025652D02*
X0549383Y0025652D01*
X0549146Y0026635D02*
X0570724Y0026635D01*
X0569889Y0027618D02*
X0548447Y0027618D01*
X0548396Y0028601D02*
X0569546Y0028601D01*
X0569546Y0029583D02*
X0548396Y0029583D01*
X0548396Y0030566D02*
X0569939Y0030566D01*
X0570696Y0031549D02*
X0548396Y0031549D01*
X0548396Y0032532D02*
X0570696Y0032532D01*
X0570696Y0033514D02*
X0548396Y0033514D01*
X0548396Y0034497D02*
X0570696Y0034497D01*
X0570696Y0035480D02*
X0548396Y0035480D01*
X0574280Y0035480D02*
X0620793Y0035480D01*
X0620793Y0036463D02*
X0574280Y0036463D01*
X0574280Y0037445D02*
X0620793Y0037445D01*
X0620793Y0038428D02*
X0574280Y0038428D01*
X0574280Y0039411D02*
X0620793Y0039411D01*
X0620793Y0040394D02*
X0574280Y0040394D01*
X0574280Y0041377D02*
X0620793Y0041377D01*
X0620680Y0042359D02*
X0574280Y0042359D01*
X0574280Y0043342D02*
X0620906Y0043342D01*
X0621315Y0044325D02*
X0574280Y0044325D01*
X0574280Y0045308D02*
X0621058Y0045308D01*
X0621130Y0046290D02*
X0574280Y0046290D01*
X0575154Y0047273D02*
X0621581Y0047273D01*
X0622889Y0048256D02*
X0576137Y0048256D01*
X0577295Y0049239D02*
X0644100Y0049239D01*
X0644100Y0048256D02*
X0625111Y0048256D01*
X0626419Y0047273D02*
X0644100Y0047273D01*
X0644100Y0046290D02*
X0626870Y0046290D01*
X0626942Y0045308D02*
X0644100Y0045308D01*
X0644100Y0044325D02*
X0626685Y0044325D01*
X0625971Y0043342D02*
X0643965Y0043342D01*
X0642983Y0042359D02*
X0624705Y0042359D01*
X0624577Y0041377D02*
X0642000Y0041377D01*
X0640320Y0040394D02*
X0624577Y0040394D01*
X0624577Y0039411D02*
X0639699Y0039411D01*
X0639507Y0038428D02*
X0624577Y0038428D01*
X0624577Y0037445D02*
X0639644Y0037445D01*
X0640188Y0036463D02*
X0624577Y0036463D01*
X0624577Y0035480D02*
X0641719Y0035480D01*
X0625326Y0025652D02*
X0693531Y0025652D01*
X0693531Y0024670D02*
X0625565Y0024670D01*
X0625463Y0023687D02*
X0693531Y0023687D01*
X0693531Y0022704D02*
X0624957Y0022704D01*
X0624626Y0026635D02*
X0693531Y0026635D01*
X0643440Y0050221D02*
X0578744Y0050221D01*
X0579254Y0051204D02*
X0643050Y0051204D01*
X0643050Y0052187D02*
X0579367Y0052187D01*
X0579151Y0053170D02*
X0643396Y0053170D01*
X0644236Y0054152D02*
X0578497Y0054152D01*
X0574280Y0034497D02*
X0620793Y0034497D01*
X0620793Y0033514D02*
X0574280Y0033514D01*
X0574280Y0032532D02*
X0620793Y0032532D01*
X0620793Y0031549D02*
X0574280Y0031549D01*
X0575037Y0030566D02*
X0620793Y0030566D01*
X0620793Y0029583D02*
X0575430Y0029583D01*
X0575430Y0028601D02*
X0620793Y0028601D01*
X0620793Y0027618D02*
X0575087Y0027618D01*
X0574253Y0026635D02*
X0620744Y0026635D01*
X0539024Y0090252D02*
X0538236Y0090646D01*
X0537979Y0090469D02*
X0538236Y0090252D01*
D18*
X0141976Y0029425D02*
X0140598Y0030213D01*
X0140205Y0029819D01*
X0072094Y0063874D02*
X0066386Y0069031D01*
X0050795Y0069031D01*
X0045520Y0063677D01*
X0045520Y0064031D01*
X0043866Y0064031D01*
X0061071Y0076866D02*
X0070303Y0076866D01*
X0072497Y0078666D01*
X0070688Y0078666D01*
X0070520Y0076472D01*
X0069732Y0058756D02*
X0068551Y0057575D01*
X0067567Y0058953D01*
X0103197Y0095567D02*
X0104181Y0094583D01*
X0110087Y0094583D01*
X0111465Y0094780D01*
X0103197Y0095567D02*
X0103197Y0099307D01*
X0058709Y0098520D02*
X0058709Y0096945D01*
X0058709Y0098520D02*
X0054969Y0102457D01*
X0054575Y0102654D01*
X0040992Y0102654D01*
D19*
X0063827Y0083953D02*
X0130362Y0083953D01*
X0208315Y0083953D01*
X0234299Y0083953D01*
X0292567Y0083953D01*
X0292567Y0083756D01*
X0292567Y0083953D02*
X0309496Y0083953D01*
X0309890Y0084346D01*
X0369535Y0084346D01*
X0370913Y0084346D01*
X0371701Y0083953D01*
X0369929Y0083953D01*
X0368945Y0083953D01*
X0369535Y0084346D01*
X0371701Y0083953D02*
X0385480Y0083953D01*
X0387449Y0084346D01*
X0446504Y0084346D01*
X0447488Y0083953D01*
X0447094Y0084150D01*
X0447488Y0083953D02*
X0447882Y0083953D01*
X0470126Y0083953D01*
X0530362Y0083953D01*
X0528787Y0083559D01*
X0529772Y0083362D01*
X0530362Y0083953D02*
X0544929Y0083953D01*
X0545717Y0083953D01*
X0545323Y0084346D02*
X0544929Y0083953D01*
X0545323Y0084346D02*
X0609102Y0084346D01*
X0608709Y0083953D01*
X0608315Y0083953D01*
X0607528Y0083953D01*
X0608709Y0083953D02*
X0625835Y0083953D01*
X0626622Y0084740D01*
X0684693Y0084740D01*
X0685087Y0084346D01*
X0685874Y0084346D01*
X0357921Y0095071D02*
X0357433Y0094583D01*
X0339417Y0094583D02*
X0339417Y0100425D01*
X0301622Y0096157D02*
X0280268Y0096157D01*
X0279181Y0095071D01*
X0300921Y0096858D02*
X0301622Y0096157D01*
X0123866Y0012102D02*
X0117370Y0011512D01*
X0103591Y0011315D02*
X0103591Y0011118D01*
X0102803Y0012299D01*
D20*
X0089024Y0040055D02*
X0092567Y0043795D01*
X0092567Y0052063D01*
X0063630Y0084150D02*
X0058315Y0078835D01*
X0049063Y0078835D01*
X0043866Y0084031D01*
X0045244Y0084425D01*
X0053866Y0084031D02*
X0053866Y0088953D01*
X0055559Y0090646D01*
X0060283Y0086315D02*
X0060677Y0086315D01*
X0059890Y0085528D01*
X0063630Y0084150D02*
X0063827Y0083953D01*
X0129575Y0083756D02*
X0130362Y0083756D01*
X0135677Y0083362D01*
X0268551Y0094583D02*
X0269142Y0094976D01*
X0347685Y0095370D02*
X0348276Y0095370D01*
X0349063Y0094583D01*
D21*
X0369929Y0083953D03*
X0292567Y0083756D03*
X0162646Y0028047D03*
X0447882Y0083953D03*
X0464811Y0046157D03*
X0529772Y0083362D03*
X0546307Y0045764D03*
X0608512Y0083756D03*
D22*
X0611858Y0088283D03*
X0615402Y0090646D03*
X0620126Y0090646D03*
X0631937Y0089858D03*
X0652803Y0093008D03*
X0664614Y0095764D03*
X0685874Y0084346D03*
X0584496Y0094976D03*
X0572882Y0093795D03*
X0552803Y0091827D03*
X0542173Y0091827D03*
X0538236Y0090252D03*
X0534693Y0087890D03*
X0506150Y0094976D03*
X0494535Y0094189D03*
X0473669Y0091827D03*
X0461465Y0092220D03*
X0457134Y0090252D03*
X0453394Y0087299D03*
X0427606Y0095173D03*
X0414614Y0093795D03*
X0396110Y0091827D03*
X0381543Y0091827D03*
X0377606Y0090252D03*
X0374063Y0087496D03*
X0335874Y0094189D03*
X0316976Y0091827D03*
X0302409Y0092220D03*
X0298866Y0090252D03*
X0294929Y0087890D03*
X0255953Y0094189D03*
X0237055Y0091433D03*
X0221701Y0092220D03*
X0218157Y0090252D03*
X0214220Y0087496D03*
X0215795Y0083559D03*
X0188630Y0094386D03*
X0178000Y0094189D03*
X0157528Y0091827D03*
X0143079Y0092000D03*
X0139366Y0090425D03*
X0135480Y0087496D03*
X0135677Y0083362D03*
X0081283Y0091827D03*
D23*
X0083732Y0092772D02*
X0083508Y0093313D01*
X0082770Y0094051D01*
X0081805Y0094450D01*
X0080762Y0094450D01*
X0079797Y0094051D01*
X0079059Y0093313D01*
X0078660Y0092349D01*
X0078660Y0091305D01*
X0078972Y0090552D01*
X0074387Y0090552D01*
X0074387Y0090629D01*
X0073948Y0091688D01*
X0073137Y0092499D01*
X0072077Y0092938D01*
X0070930Y0092938D01*
X0069871Y0092499D01*
X0069060Y0091688D01*
X0068621Y0090629D01*
X0068621Y0089482D01*
X0068933Y0088729D01*
X0059840Y0088729D01*
X0059813Y0088702D01*
X0048079Y0088677D01*
X0048079Y0100220D01*
X0053737Y0100220D01*
X0055971Y0097869D01*
X0055826Y0097518D01*
X0055826Y0096371D01*
X0056265Y0095312D01*
X0057076Y0094501D01*
X0058135Y0094062D01*
X0059282Y0094062D01*
X0060342Y0094501D01*
X0061153Y0095312D01*
X0061592Y0096371D01*
X0061592Y0097518D01*
X0061153Y0098578D01*
X0061144Y0098587D01*
X0061153Y0098941D01*
X0061142Y0098971D01*
X0061142Y0099004D01*
X0060968Y0099422D01*
X0060806Y0099845D01*
X0060784Y0099868D01*
X0060771Y0099898D01*
X0060451Y0100218D01*
X0058310Y0102472D01*
X0081276Y0102507D01*
X0081276Y0099217D01*
X0081646Y0098323D01*
X0082330Y0097638D01*
X0083225Y0097268D01*
X0094232Y0097268D01*
X0095126Y0097638D01*
X0095764Y0098276D01*
X0095764Y0096737D01*
X0095861Y0096372D01*
X0096050Y0096045D01*
X0096317Y0095778D01*
X0096644Y0095590D01*
X0097008Y0095492D01*
X0102764Y0095492D01*
X0102764Y0099992D01*
X0103630Y0099992D01*
X0103630Y0095492D01*
X0109386Y0095492D01*
X0109750Y0095590D01*
X0110077Y0095778D01*
X0110344Y0096045D01*
X0110532Y0096372D01*
X0110630Y0096737D01*
X0110630Y0098276D01*
X0111267Y0097638D01*
X0112162Y0097268D01*
X0123169Y0097268D01*
X0124063Y0097638D01*
X0124748Y0098323D01*
X0125118Y0099217D01*
X0125118Y0102574D01*
X0160016Y0102627D01*
X0160016Y0099217D01*
X0160386Y0098323D01*
X0161071Y0097638D01*
X0161965Y0097268D01*
X0172972Y0097268D01*
X0173866Y0097638D01*
X0174504Y0098276D01*
X0174504Y0096737D01*
X0174602Y0096372D01*
X0174790Y0096045D01*
X0175057Y0095778D01*
X0175384Y0095590D01*
X0175748Y0095492D01*
X0181504Y0095492D01*
X0181504Y0099992D01*
X0182370Y0099992D01*
X0182370Y0095492D01*
X0188126Y0095492D01*
X0188490Y0095590D01*
X0188817Y0095778D01*
X0189084Y0096045D01*
X0189272Y0096372D01*
X0189370Y0096737D01*
X0189370Y0098276D01*
X0190008Y0097638D01*
X0190902Y0097268D01*
X0201909Y0097268D01*
X0202803Y0097638D01*
X0203488Y0098323D01*
X0203858Y0099217D01*
X0203858Y0102694D01*
X0238756Y0102748D01*
X0238756Y0099217D01*
X0239126Y0098323D01*
X0239811Y0097638D01*
X0240705Y0097268D01*
X0251712Y0097268D01*
X0252607Y0097638D01*
X0253244Y0098276D01*
X0253244Y0096737D01*
X0253342Y0096372D01*
X0253530Y0096045D01*
X0253797Y0095778D01*
X0254124Y0095590D01*
X0254488Y0095492D01*
X0260244Y0095492D01*
X0260244Y0099992D01*
X0261110Y0099992D01*
X0261110Y0095492D01*
X0266866Y0095492D01*
X0267230Y0095590D01*
X0267557Y0095778D01*
X0267824Y0096045D01*
X0268013Y0096372D01*
X0268110Y0096737D01*
X0268110Y0098276D01*
X0268748Y0097638D01*
X0269642Y0097268D01*
X0280649Y0097268D01*
X0281544Y0097638D01*
X0282228Y0098323D01*
X0282598Y0099217D01*
X0282598Y0102815D01*
X0317496Y0102868D01*
X0317496Y0099217D01*
X0317866Y0098323D01*
X0318551Y0097638D01*
X0319445Y0097268D01*
X0330452Y0097268D01*
X0331347Y0097638D01*
X0331984Y0098276D01*
X0331984Y0096737D01*
X0332082Y0096372D01*
X0332271Y0096045D01*
X0332537Y0095778D01*
X0332864Y0095590D01*
X0333229Y0095492D01*
X0338984Y0095492D01*
X0338984Y0099992D01*
X0339850Y0099992D01*
X0339850Y0095492D01*
X0345606Y0095492D01*
X0345970Y0095590D01*
X0346297Y0095778D01*
X0346564Y0096045D01*
X0346753Y0096372D01*
X0346850Y0096737D01*
X0346850Y0098276D01*
X0347488Y0097638D01*
X0348382Y0097268D01*
X0359389Y0097268D01*
X0360284Y0097638D01*
X0360968Y0098323D01*
X0361339Y0099217D01*
X0361339Y0102935D01*
X0396236Y0102988D01*
X0396236Y0099217D01*
X0396607Y0098323D01*
X0397291Y0097638D01*
X0398185Y0097268D01*
X0409193Y0097268D01*
X0410087Y0097638D01*
X0410724Y0098276D01*
X0410724Y0096737D01*
X0410822Y0096372D01*
X0411011Y0096045D01*
X0411278Y0095778D01*
X0411604Y0095590D01*
X0411969Y0095492D01*
X0417724Y0095492D01*
X0417724Y0099992D01*
X0418591Y0099992D01*
X0418591Y0095492D01*
X0424346Y0095492D01*
X0424711Y0095590D01*
X0425037Y0095778D01*
X0425304Y0096045D01*
X0425493Y0096372D01*
X0425591Y0096737D01*
X0425591Y0098276D01*
X0426228Y0097638D01*
X0427122Y0097268D01*
X0438130Y0097268D01*
X0439024Y0097638D01*
X0439708Y0098323D01*
X0440079Y0099217D01*
X0440079Y0103055D01*
X0474976Y0103108D01*
X0474976Y0099217D01*
X0475347Y0098323D01*
X0476031Y0097638D01*
X0476925Y0097268D01*
X0487933Y0097268D01*
X0488827Y0097638D01*
X0489465Y0098276D01*
X0489465Y0097130D01*
X0489562Y0096766D01*
X0489751Y0096439D01*
X0490018Y0096172D01*
X0490344Y0095983D01*
X0490709Y0095886D01*
X0496465Y0095886D01*
X0496465Y0100386D01*
X0497331Y0100386D01*
X0497331Y0095886D01*
X0503086Y0095886D01*
X0503451Y0095983D01*
X0503778Y0096172D01*
X0504044Y0096439D01*
X0504233Y0096766D01*
X0504331Y0097130D01*
X0504331Y0098276D01*
X0504968Y0097638D01*
X0505862Y0097268D01*
X0516870Y0097268D01*
X0517764Y0097638D01*
X0518448Y0098323D01*
X0518819Y0099217D01*
X0518819Y0103175D01*
X0553717Y0103228D01*
X0553717Y0099217D01*
X0554087Y0098323D01*
X0554771Y0097638D01*
X0555666Y0097268D01*
X0566673Y0097268D01*
X0567567Y0097638D01*
X0568205Y0098276D01*
X0568205Y0096737D01*
X0568302Y0096372D01*
X0568491Y0096045D01*
X0568758Y0095778D01*
X0569085Y0095590D01*
X0569449Y0095492D01*
X0575205Y0095492D01*
X0575205Y0099992D01*
X0576071Y0099992D01*
X0576071Y0095492D01*
X0581826Y0095492D01*
X0582191Y0095590D01*
X0582518Y0095778D01*
X0582785Y0096045D01*
X0582973Y0096372D01*
X0583071Y0096737D01*
X0583071Y0098276D01*
X0583708Y0097638D01*
X0584603Y0097268D01*
X0595610Y0097268D01*
X0596504Y0097638D01*
X0597189Y0098323D01*
X0597559Y0099217D01*
X0597559Y0103295D01*
X0632457Y0103348D01*
X0632457Y0099217D01*
X0632827Y0098323D01*
X0633512Y0097638D01*
X0634406Y0097268D01*
X0645413Y0097268D01*
X0646307Y0097638D01*
X0646945Y0098276D01*
X0646945Y0096737D01*
X0647043Y0096372D01*
X0647231Y0096045D01*
X0647498Y0095778D01*
X0647825Y0095590D01*
X0648189Y0095492D01*
X0653945Y0095492D01*
X0653945Y0099992D01*
X0654811Y0099992D01*
X0654811Y0095492D01*
X0660567Y0095492D01*
X0660931Y0095590D01*
X0661258Y0095778D01*
X0661525Y0096045D01*
X0661713Y0096372D01*
X0661811Y0096737D01*
X0661811Y0099160D01*
X0662158Y0098323D01*
X0662842Y0097638D01*
X0663736Y0097268D01*
X0674350Y0097268D01*
X0675244Y0097638D01*
X0675929Y0098323D01*
X0676299Y0099217D01*
X0676299Y0103415D01*
X0693157Y0103441D01*
X0693157Y0090804D01*
X0691849Y0090804D01*
X0691841Y0090796D01*
X0634620Y0090796D01*
X0634224Y0091192D01*
X0634161Y0091344D01*
X0633423Y0092082D01*
X0632459Y0092482D01*
X0631415Y0092482D01*
X0630451Y0092082D01*
X0629713Y0091344D01*
X0629313Y0090380D01*
X0629313Y0089919D01*
X0622659Y0089905D01*
X0622750Y0090124D01*
X0622750Y0091168D01*
X0622350Y0092132D01*
X0621612Y0092870D01*
X0620648Y0093269D01*
X0619942Y0093269D01*
X0618085Y0095127D01*
X0608781Y0095127D01*
X0607771Y0094116D01*
X0606419Y0092765D01*
X0555254Y0092765D01*
X0555027Y0093313D01*
X0554289Y0094051D01*
X0553325Y0094450D01*
X0552281Y0094450D01*
X0551317Y0094051D01*
X0550579Y0093313D01*
X0550180Y0092349D01*
X0550180Y0091305D01*
X0550390Y0090796D01*
X0544586Y0090796D01*
X0544797Y0091305D01*
X0544797Y0092349D01*
X0544397Y0093313D01*
X0543659Y0094051D01*
X0542695Y0094450D01*
X0541989Y0094450D01*
X0541313Y0095127D01*
X0531616Y0095127D01*
X0529254Y0092765D01*
X0476121Y0092765D01*
X0475893Y0093313D01*
X0475155Y0094051D01*
X0474191Y0094450D01*
X0473147Y0094450D01*
X0472183Y0094051D01*
X0471445Y0093313D01*
X0471046Y0092349D01*
X0471046Y0091305D01*
X0471157Y0091037D01*
X0471157Y0090796D01*
X0463714Y0090796D01*
X0464088Y0091699D01*
X0464088Y0092742D01*
X0463689Y0093707D01*
X0462951Y0094445D01*
X0461986Y0094844D01*
X0460943Y0094844D01*
X0460903Y0094828D01*
X0460604Y0095127D01*
X0460465Y0095127D01*
X0460353Y0095210D01*
X0459767Y0095127D01*
X0451301Y0095127D01*
X0450291Y0094116D01*
X0448939Y0092765D01*
X0399187Y0092765D01*
X0398400Y0093552D01*
X0398095Y0093552D01*
X0397596Y0094051D01*
X0396632Y0094450D01*
X0395588Y0094450D01*
X0394624Y0094051D01*
X0393886Y0093313D01*
X0393487Y0092349D01*
X0393487Y0091305D01*
X0393697Y0090796D01*
X0383956Y0090796D01*
X0384167Y0091305D01*
X0384167Y0092349D01*
X0383767Y0093313D01*
X0383029Y0094051D01*
X0382065Y0094450D01*
X0381359Y0094450D01*
X0381077Y0094733D01*
X0370592Y0094733D01*
X0369582Y0093722D01*
X0368624Y0092765D01*
X0319428Y0092765D01*
X0319201Y0093313D01*
X0318463Y0094051D01*
X0317498Y0094450D01*
X0316455Y0094450D01*
X0315490Y0094051D01*
X0314752Y0093313D01*
X0314353Y0092349D01*
X0314353Y0091305D01*
X0314564Y0090796D01*
X0304659Y0090796D01*
X0305033Y0091699D01*
X0305033Y0092742D01*
X0304634Y0093707D01*
X0303896Y0094445D01*
X0302931Y0094844D01*
X0301888Y0094844D01*
X0301848Y0094828D01*
X0301549Y0095127D01*
X0301410Y0095127D01*
X0301298Y0095210D01*
X0300712Y0095127D01*
X0291852Y0095127D01*
X0290842Y0094116D01*
X0289490Y0092765D01*
X0239742Y0092765D01*
X0239647Y0093050D01*
X0239258Y0093245D01*
X0238951Y0093552D01*
X0238647Y0093552D01*
X0238541Y0093657D01*
X0237577Y0094057D01*
X0236533Y0094057D01*
X0235569Y0093657D01*
X0234831Y0092919D01*
X0234431Y0091955D01*
X0234431Y0090911D01*
X0234642Y0090402D01*
X0223593Y0090402D01*
X0223925Y0090734D01*
X0224324Y0091699D01*
X0224324Y0092742D01*
X0223925Y0093707D01*
X0223187Y0094445D01*
X0222223Y0094844D01*
X0221517Y0094844D01*
X0221234Y0095127D01*
X0212712Y0095127D01*
X0212065Y0095176D01*
X0212007Y0095127D01*
X0211931Y0095127D01*
X0211473Y0094668D01*
X0209252Y0092765D01*
X0159979Y0092765D01*
X0159752Y0093313D01*
X0159014Y0094051D01*
X0158049Y0094450D01*
X0157006Y0094450D01*
X0156041Y0094051D01*
X0155303Y0093313D01*
X0154904Y0092349D01*
X0154904Y0091305D01*
X0155115Y0090796D01*
X0145420Y0090796D01*
X0145702Y0091478D01*
X0145702Y0092522D01*
X0145303Y0093486D01*
X0144565Y0094224D01*
X0143601Y0094624D01*
X0142895Y0094624D01*
X0142443Y0095076D01*
X0133728Y0095076D01*
X0132877Y0095114D01*
X0132835Y0095076D01*
X0132801Y0095076D01*
X0132446Y0094721D01*
X0130312Y0092772D01*
X0083732Y0092772D01*
X0083600Y0093091D02*
X0130661Y0093091D01*
X0131608Y0093955D02*
X0082865Y0093955D01*
X0079702Y0093955D02*
X0048079Y0093955D01*
X0048079Y0093091D02*
X0078967Y0093091D01*
X0078660Y0092226D02*
X0073410Y0092226D01*
X0074083Y0091361D02*
X0078660Y0091361D01*
X0082871Y0097414D02*
X0061592Y0097414D01*
X0061592Y0096549D02*
X0095814Y0096549D01*
X0095764Y0097414D02*
X0094585Y0097414D01*
X0096479Y0095685D02*
X0061307Y0095685D01*
X0060661Y0094820D02*
X0132546Y0094820D01*
X0124704Y0098279D02*
X0160430Y0098279D01*
X0160046Y0099143D02*
X0125088Y0099143D01*
X0125118Y0100008D02*
X0160016Y0100008D01*
X0160016Y0100873D02*
X0125118Y0100873D01*
X0125118Y0101737D02*
X0160016Y0101737D01*
X0160016Y0102602D02*
X0143281Y0102602D01*
X0142698Y0094820D02*
X0211624Y0094820D01*
X0210641Y0093955D02*
X0159109Y0093955D01*
X0159844Y0093091D02*
X0209632Y0093091D01*
X0203444Y0098279D02*
X0239170Y0098279D01*
X0238786Y0099143D02*
X0203828Y0099143D01*
X0203858Y0100008D02*
X0238756Y0100008D01*
X0238756Y0100873D02*
X0203858Y0100873D01*
X0203858Y0101737D02*
X0238756Y0101737D01*
X0238756Y0102602D02*
X0203858Y0102602D01*
X0202262Y0097414D02*
X0240352Y0097414D01*
X0237821Y0093955D02*
X0290681Y0093955D01*
X0289816Y0093091D02*
X0239566Y0093091D01*
X0236289Y0093955D02*
X0223676Y0093955D01*
X0224180Y0093091D02*
X0235002Y0093091D01*
X0234544Y0092226D02*
X0224324Y0092226D01*
X0224185Y0091361D02*
X0234431Y0091361D01*
X0234603Y0090497D02*
X0223687Y0090497D01*
X0222281Y0094820D02*
X0291546Y0094820D01*
X0282568Y0099143D02*
X0317526Y0099143D01*
X0317496Y0100008D02*
X0282598Y0100008D01*
X0282598Y0100873D02*
X0317496Y0100873D01*
X0317496Y0101737D02*
X0282598Y0101737D01*
X0282598Y0102602D02*
X0317496Y0102602D01*
X0317910Y0098279D02*
X0282184Y0098279D01*
X0281003Y0097414D02*
X0319092Y0097414D01*
X0318558Y0093955D02*
X0369815Y0093955D01*
X0368950Y0093091D02*
X0319293Y0093091D01*
X0315395Y0093955D02*
X0304385Y0093955D01*
X0304889Y0093091D02*
X0314660Y0093091D01*
X0314353Y0092226D02*
X0305033Y0092226D01*
X0304893Y0091361D02*
X0314353Y0091361D01*
X0302989Y0094820D02*
X0450994Y0094820D01*
X0450130Y0093955D02*
X0397692Y0093955D01*
X0398861Y0093091D02*
X0449265Y0093091D01*
X0462044Y0094820D02*
X0531309Y0094820D01*
X0530445Y0093955D02*
X0475251Y0093955D01*
X0475986Y0093091D02*
X0529580Y0093091D01*
X0518405Y0098279D02*
X0554131Y0098279D01*
X0553747Y0099143D02*
X0518788Y0099143D01*
X0518819Y0100008D02*
X0553717Y0100008D01*
X0553717Y0100873D02*
X0518819Y0100873D01*
X0518819Y0101737D02*
X0553717Y0101737D01*
X0553717Y0102602D02*
X0518819Y0102602D01*
X0517223Y0097414D02*
X0555312Y0097414D01*
X0554385Y0093955D02*
X0607610Y0093955D01*
X0606745Y0093091D02*
X0555119Y0093091D01*
X0551221Y0093955D02*
X0543755Y0093955D01*
X0544489Y0093091D02*
X0550487Y0093091D01*
X0550180Y0092226D02*
X0544797Y0092226D01*
X0544797Y0091361D02*
X0550180Y0091361D01*
X0541620Y0094820D02*
X0608475Y0094820D01*
X0597529Y0099143D02*
X0632487Y0099143D01*
X0632457Y0100008D02*
X0597559Y0100008D01*
X0597559Y0100873D02*
X0632457Y0100873D01*
X0632457Y0101737D02*
X0597559Y0101737D01*
X0597559Y0102602D02*
X0632457Y0102602D01*
X0632871Y0098279D02*
X0597145Y0098279D01*
X0595963Y0097414D02*
X0634053Y0097414D01*
X0633076Y0092226D02*
X0693157Y0092226D01*
X0693157Y0091361D02*
X0634144Y0091361D01*
X0630798Y0092226D02*
X0622256Y0092226D01*
X0622669Y0091361D02*
X0629730Y0091361D01*
X0629362Y0090497D02*
X0622750Y0090497D01*
X0621079Y0093091D02*
X0693157Y0093091D01*
X0693157Y0093955D02*
X0619256Y0093955D01*
X0618391Y0094820D02*
X0693157Y0094820D01*
X0693157Y0095685D02*
X0661096Y0095685D01*
X0661761Y0096549D02*
X0693157Y0096549D01*
X0693157Y0097414D02*
X0674703Y0097414D01*
X0675885Y0098279D02*
X0693157Y0098279D01*
X0693157Y0099143D02*
X0676269Y0099143D01*
X0676299Y0100008D02*
X0693157Y0100008D01*
X0693157Y0100873D02*
X0676299Y0100873D01*
X0676299Y0101737D02*
X0693157Y0101737D01*
X0693157Y0102602D02*
X0676299Y0102602D01*
X0663383Y0097414D02*
X0661811Y0097414D01*
X0661811Y0098279D02*
X0662202Y0098279D01*
X0661818Y0099143D02*
X0661811Y0099143D01*
X0654811Y0099143D02*
X0653945Y0099143D01*
X0653945Y0098279D02*
X0654811Y0098279D01*
X0654811Y0097414D02*
X0653945Y0097414D01*
X0653945Y0096549D02*
X0654811Y0096549D01*
X0654811Y0095685D02*
X0653945Y0095685D01*
X0647660Y0095685D02*
X0582355Y0095685D01*
X0583021Y0096549D02*
X0646995Y0096549D01*
X0646945Y0097414D02*
X0645766Y0097414D01*
X0584249Y0097414D02*
X0583071Y0097414D01*
X0576071Y0097414D02*
X0575205Y0097414D01*
X0575205Y0096549D02*
X0576071Y0096549D01*
X0576071Y0095685D02*
X0575205Y0095685D01*
X0575205Y0098279D02*
X0576071Y0098279D01*
X0576071Y0099143D02*
X0575205Y0099143D01*
X0568920Y0095685D02*
X0424875Y0095685D01*
X0425540Y0096549D02*
X0489687Y0096549D01*
X0489465Y0097414D02*
X0488286Y0097414D01*
X0496465Y0097414D02*
X0497331Y0097414D01*
X0497331Y0096549D02*
X0496465Y0096549D01*
X0496465Y0098279D02*
X0497331Y0098279D01*
X0497331Y0099143D02*
X0496465Y0099143D01*
X0496465Y0100008D02*
X0497331Y0100008D01*
X0504331Y0097414D02*
X0505509Y0097414D01*
X0504108Y0096549D02*
X0568255Y0096549D01*
X0568205Y0097414D02*
X0567026Y0097414D01*
X0476572Y0097414D02*
X0438483Y0097414D01*
X0439664Y0098279D02*
X0475391Y0098279D01*
X0475007Y0099143D02*
X0440048Y0099143D01*
X0440079Y0100008D02*
X0474976Y0100008D01*
X0474976Y0100873D02*
X0440079Y0100873D01*
X0440079Y0101737D02*
X0474976Y0101737D01*
X0474976Y0102602D02*
X0440079Y0102602D01*
X0426769Y0097414D02*
X0425591Y0097414D01*
X0418591Y0097414D02*
X0417724Y0097414D01*
X0417724Y0096549D02*
X0418591Y0096549D01*
X0418591Y0095685D02*
X0417724Y0095685D01*
X0417724Y0098279D02*
X0418591Y0098279D01*
X0418591Y0099143D02*
X0417724Y0099143D01*
X0411440Y0095685D02*
X0346135Y0095685D01*
X0346800Y0096549D02*
X0410775Y0096549D01*
X0410724Y0097414D02*
X0409546Y0097414D01*
X0397832Y0097414D02*
X0359743Y0097414D01*
X0360924Y0098279D02*
X0396651Y0098279D01*
X0396267Y0099143D02*
X0361308Y0099143D01*
X0361339Y0100008D02*
X0396236Y0100008D01*
X0396236Y0100873D02*
X0361339Y0100873D01*
X0361339Y0101737D02*
X0396236Y0101737D01*
X0396236Y0102602D02*
X0361339Y0102602D01*
X0348029Y0097414D02*
X0346850Y0097414D01*
X0339850Y0097414D02*
X0338984Y0097414D01*
X0338984Y0096549D02*
X0339850Y0096549D01*
X0339850Y0095685D02*
X0338984Y0095685D01*
X0338984Y0098279D02*
X0339850Y0098279D01*
X0339850Y0099143D02*
X0338984Y0099143D01*
X0332700Y0095685D02*
X0267395Y0095685D01*
X0268060Y0096549D02*
X0332034Y0096549D01*
X0331984Y0097414D02*
X0330806Y0097414D01*
X0383125Y0093955D02*
X0394529Y0093955D01*
X0393794Y0093091D02*
X0383860Y0093091D01*
X0384167Y0092226D02*
X0393487Y0092226D01*
X0393487Y0091361D02*
X0384167Y0091361D01*
X0463440Y0093955D02*
X0472088Y0093955D01*
X0471353Y0093091D02*
X0463944Y0093091D01*
X0464088Y0092226D02*
X0471046Y0092226D01*
X0471046Y0091361D02*
X0463949Y0091361D01*
X0269289Y0097414D02*
X0268110Y0097414D01*
X0261110Y0097414D02*
X0260244Y0097414D01*
X0260244Y0096549D02*
X0261110Y0096549D01*
X0261110Y0095685D02*
X0260244Y0095685D01*
X0260244Y0098279D02*
X0261110Y0098279D01*
X0261110Y0099143D02*
X0260244Y0099143D01*
X0253960Y0095685D02*
X0188655Y0095685D01*
X0189320Y0096549D02*
X0253294Y0096549D01*
X0253244Y0097414D02*
X0252066Y0097414D01*
X0190549Y0097414D02*
X0189370Y0097414D01*
X0182370Y0097414D02*
X0181504Y0097414D01*
X0181504Y0096549D02*
X0182370Y0096549D01*
X0182370Y0095685D02*
X0181504Y0095685D01*
X0181504Y0098279D02*
X0182370Y0098279D01*
X0182370Y0099143D02*
X0181504Y0099143D01*
X0175219Y0095685D02*
X0109914Y0095685D01*
X0110580Y0096549D02*
X0174554Y0096549D01*
X0174504Y0097414D02*
X0173325Y0097414D01*
X0161612Y0097414D02*
X0123522Y0097414D01*
X0111808Y0097414D02*
X0110630Y0097414D01*
X0103630Y0097414D02*
X0102764Y0097414D01*
X0102764Y0096549D02*
X0103630Y0096549D01*
X0103630Y0095685D02*
X0102764Y0095685D01*
X0102764Y0098279D02*
X0103630Y0098279D01*
X0103630Y0099143D02*
X0102764Y0099143D01*
X0081690Y0098279D02*
X0061277Y0098279D01*
X0061084Y0099143D02*
X0081306Y0099143D01*
X0081276Y0100008D02*
X0060661Y0100008D01*
X0059829Y0100873D02*
X0081276Y0100873D01*
X0081276Y0101737D02*
X0059008Y0101737D01*
X0055582Y0098279D02*
X0048079Y0098279D01*
X0048079Y0099143D02*
X0054760Y0099143D01*
X0053939Y0100008D02*
X0048079Y0100008D01*
X0048079Y0097414D02*
X0055826Y0097414D01*
X0055826Y0096549D02*
X0048079Y0096549D01*
X0048079Y0095685D02*
X0056110Y0095685D01*
X0056756Y0094820D02*
X0048079Y0094820D01*
X0048079Y0092226D02*
X0069598Y0092226D01*
X0068924Y0091361D02*
X0048079Y0091361D01*
X0048079Y0090497D02*
X0068621Y0090497D01*
X0068621Y0089632D02*
X0048079Y0089632D01*
X0048079Y0088767D02*
X0068917Y0088767D01*
X0144834Y0093955D02*
X0155946Y0093955D01*
X0155211Y0093091D02*
X0145467Y0093091D01*
X0145702Y0092226D02*
X0154904Y0092226D01*
X0154904Y0091361D02*
X0145654Y0091361D01*
D24*
X0138236Y0086709D02*
X0214220Y0086709D01*
X0214220Y0087496D01*
X0138236Y0086709D02*
X0135480Y0087496D01*
X0138236Y0086709D02*
X0060677Y0086709D01*
X0060283Y0086315D01*
X0294929Y0087102D02*
X0294929Y0087890D01*
X0374063Y0087496D02*
X0374850Y0087102D01*
X0453394Y0087299D02*
X0453984Y0087102D01*
X0534693Y0087890D02*
X0535480Y0087102D01*
X0610677Y0087102D02*
X0611858Y0088283D01*
D25*
X0610677Y0087102D02*
X0535480Y0087102D01*
X0453984Y0087102D01*
X0374850Y0087102D01*
X0294929Y0087102D01*
X0294142Y0086709D01*
X0214220Y0086709D01*
M02*
