G75*
%MOIN*%
%OFA0B0*%
%FSLAX25Y25*%
%IPPOS*%
%LPD*%
%AMOC8*
5,1,8,0,0,1.08239X$1,22.5*
%
%ADD10R,0.05524X0.01981*%
%ADD11R,0.03800X0.03800*%
%ADD12R,0.04800X0.07300*%
%ADD13R,0.04800X0.06800*%
%ADD14R,0.04900X0.01900*%
%ADD15R,0.06800X0.04800*%
%ADD16R,0.07099X0.07887*%
%ADD17R,0.05524X0.02965*%
%ADD18R,0.02965X0.05524*%
%ADD19C,0.06737*%
%ADD20R,0.12800X0.07800*%
%ADD21R,0.05800X0.03300*%
%ADD22R,0.06312X0.07099*%
%ADD23R,0.07099X0.06312*%
%ADD24C,0.05000*%
%ADD25C,0.06706*%
%ADD26R,0.04737X0.08674*%
%ADD27R,0.03753X0.02178*%
%ADD28R,0.03753X0.02375*%
%ADD29R,0.04016X0.03031*%
%ADD30R,0.04016X0.02795*%
%ADD31R,0.03976X0.02835*%
%ADD32R,0.03780X0.02441*%
%ADD33R,0.03819X0.02677*%
D10*
X0090157Y0055307D03*
X0090157Y0057866D03*
X0090157Y0060425D03*
X0090157Y0062984D03*
X0106791Y0062984D03*
X0106791Y0060425D03*
X0106791Y0057866D03*
X0106791Y0055307D03*
X0174449Y0055425D03*
X0174449Y0057984D03*
X0174449Y0060543D03*
X0174449Y0063102D03*
X0191083Y0063102D03*
X0191083Y0060543D03*
X0191083Y0057984D03*
X0191083Y0055425D03*
X0251260Y0055150D03*
X0251260Y0057709D03*
X0251260Y0060268D03*
X0251260Y0062827D03*
X0267894Y0062827D03*
X0267894Y0060268D03*
X0267894Y0057709D03*
X0267894Y0055150D03*
X0330039Y0055071D03*
X0330039Y0057630D03*
X0330039Y0060189D03*
X0330039Y0062748D03*
X0346673Y0062748D03*
X0346673Y0060189D03*
X0346673Y0057630D03*
X0346673Y0055071D03*
X0408425Y0055228D03*
X0408425Y0057787D03*
X0408425Y0060346D03*
X0408425Y0062906D03*
X0425059Y0062906D03*
X0425059Y0060346D03*
X0425059Y0057787D03*
X0425059Y0055228D03*
X0487205Y0055150D03*
X0487205Y0057709D03*
X0487205Y0060268D03*
X0487205Y0062827D03*
X0503839Y0062827D03*
X0503839Y0060268D03*
X0503839Y0057709D03*
X0503839Y0055150D03*
X0568346Y0055071D03*
X0568346Y0057630D03*
X0568346Y0060189D03*
X0568346Y0062748D03*
X0584980Y0062748D03*
X0584980Y0060189D03*
X0584980Y0057630D03*
X0584980Y0055071D03*
X0647126Y0054992D03*
X0647126Y0057551D03*
X0647126Y0060110D03*
X0647126Y0062669D03*
X0663760Y0062669D03*
X0663760Y0060110D03*
X0663760Y0057551D03*
X0663760Y0054992D03*
D11*
X0663748Y0049827D03*
X0663748Y0043827D03*
X0653717Y0046630D03*
X0647717Y0046630D03*
X0637575Y0056866D03*
X0637681Y0062378D03*
X0631681Y0062378D03*
X0631575Y0056866D03*
X0649929Y0068827D03*
X0649929Y0074827D03*
X0674094Y0077232D03*
X0680094Y0077232D03*
X0684646Y0077260D03*
X0690646Y0077260D03*
X0680016Y0083362D03*
X0674016Y0083362D03*
X0611512Y0077260D03*
X0605512Y0077260D03*
X0600921Y0077311D03*
X0600882Y0082772D03*
X0594882Y0082772D03*
X0594921Y0077311D03*
X0571150Y0074906D03*
X0571150Y0068906D03*
X0558705Y0062457D03*
X0558795Y0056945D03*
X0552795Y0056945D03*
X0552705Y0062457D03*
X0568937Y0046709D03*
X0574937Y0046709D03*
X0584535Y0043787D03*
X0584535Y0049787D03*
X0530803Y0077260D03*
X0524803Y0077260D03*
X0519780Y0077390D03*
X0519780Y0082772D03*
X0513780Y0082772D03*
X0513780Y0077390D03*
X0490008Y0074984D03*
X0490008Y0068984D03*
X0477760Y0062535D03*
X0477654Y0057024D03*
X0471654Y0057024D03*
X0471760Y0062535D03*
X0487795Y0047575D03*
X0493795Y0047575D03*
X0503748Y0048961D03*
X0503748Y0042961D03*
X0451669Y0077654D03*
X0445669Y0077654D03*
X0441000Y0077469D03*
X0441039Y0082772D03*
X0435039Y0082772D03*
X0435000Y0077469D03*
X0411228Y0075063D03*
X0411228Y0069063D03*
X0398980Y0062614D03*
X0398874Y0057102D03*
X0392874Y0057102D03*
X0392980Y0062614D03*
X0408819Y0047654D03*
X0414819Y0047654D03*
X0424732Y0048921D03*
X0424732Y0042921D03*
X0373520Y0077260D03*
X0367520Y0077260D03*
X0363008Y0077311D03*
X0362890Y0082969D03*
X0356890Y0082969D03*
X0357008Y0077311D03*
X0332843Y0074906D03*
X0332843Y0068906D03*
X0320594Y0062457D03*
X0320488Y0056945D03*
X0314488Y0056945D03*
X0314594Y0062457D03*
X0330630Y0046709D03*
X0336630Y0046709D03*
X0347134Y0049669D03*
X0347134Y0043669D03*
X0297165Y0017106D03*
X0297165Y0012000D03*
X0291165Y0012000D03*
X0291165Y0017106D03*
X0278638Y0018819D03*
X0278638Y0013909D03*
X0272638Y0013909D03*
X0272638Y0018819D03*
X0260528Y0020622D03*
X0260528Y0015713D03*
X0254528Y0015713D03*
X0254528Y0020622D03*
X0240272Y0022031D03*
X0240272Y0017122D03*
X0234272Y0017122D03*
X0234272Y0022031D03*
X0221272Y0024122D03*
X0221272Y0019122D03*
X0215272Y0019122D03*
X0215272Y0024122D03*
X0205346Y0026122D03*
X0205346Y0020925D03*
X0199346Y0020925D03*
X0199346Y0026122D03*
X0190055Y0028331D03*
X0190055Y0022961D03*
X0184055Y0022961D03*
X0184055Y0028331D03*
X0172484Y0030331D03*
X0172339Y0024701D03*
X0166339Y0024701D03*
X0166484Y0030331D03*
X0177795Y0048638D03*
X0183795Y0048638D03*
X0192055Y0049591D03*
X0192055Y0043591D03*
X0177252Y0069260D03*
X0177252Y0075260D03*
X0165055Y0063992D03*
X0165055Y0058362D03*
X0159055Y0058362D03*
X0159055Y0063992D03*
X0135134Y0077654D03*
X0129134Y0077654D03*
X0124110Y0077547D03*
X0124110Y0082772D03*
X0118110Y0082772D03*
X0118110Y0077547D03*
X0094142Y0075142D03*
X0094142Y0069142D03*
X0082409Y0062102D03*
X0082500Y0056894D03*
X0076500Y0056894D03*
X0076409Y0062102D03*
X0095866Y0047626D03*
X0101866Y0047626D03*
X0106346Y0050535D03*
X0106346Y0044535D03*
X0099307Y0018205D03*
X0093307Y0018205D03*
X0197087Y0077469D03*
X0197047Y0082575D03*
X0203047Y0082575D03*
X0203087Y0077469D03*
X0209055Y0077654D03*
X0215055Y0077654D03*
X0235815Y0062535D03*
X0235709Y0057024D03*
X0241709Y0057024D03*
X0241815Y0062535D03*
X0254063Y0068984D03*
X0254063Y0074984D03*
X0277835Y0077390D03*
X0277559Y0083362D03*
X0283559Y0083362D03*
X0283835Y0077390D03*
X0287795Y0077260D03*
X0293795Y0077260D03*
X0267921Y0049236D03*
X0267921Y0043236D03*
X0257850Y0047575D03*
X0251850Y0047575D03*
X0051472Y0109937D03*
X0045472Y0109937D03*
X0039646Y0109815D03*
X0033646Y0109815D03*
D12*
X0075150Y0078728D03*
X0075150Y0070067D03*
X0087150Y0070067D03*
X0087150Y0078728D03*
X0087740Y0046551D03*
X0075740Y0046551D03*
X0157866Y0048244D03*
X0169866Y0048244D03*
X0170260Y0072350D03*
X0170260Y0081406D03*
X0158260Y0081406D03*
X0158260Y0072350D03*
X0235071Y0070303D03*
X0235071Y0078571D03*
X0247071Y0078571D03*
X0247071Y0070303D03*
X0245693Y0046000D03*
X0233693Y0046000D03*
X0312472Y0045921D03*
X0324472Y0045921D03*
X0324669Y0070224D03*
X0312669Y0070224D03*
X0312669Y0078492D03*
X0324669Y0078492D03*
X0389874Y0078650D03*
X0401874Y0078650D03*
X0401874Y0070382D03*
X0389874Y0070382D03*
X0391055Y0045882D03*
X0403055Y0045882D03*
X0469441Y0046000D03*
X0481441Y0046000D03*
X0481441Y0070303D03*
X0481441Y0078177D03*
X0469441Y0078177D03*
X0469441Y0070303D03*
X0549795Y0070618D03*
X0561795Y0070618D03*
X0561795Y0078492D03*
X0549795Y0078492D03*
X0550780Y0046512D03*
X0562780Y0046512D03*
X0629362Y0046039D03*
X0641362Y0046039D03*
X0642937Y0070146D03*
X0642937Y0079594D03*
X0630937Y0079594D03*
X0630937Y0070146D03*
D13*
X0656783Y0071748D03*
X0663783Y0071748D03*
X0654217Y0039150D03*
X0647217Y0039150D03*
X0585043Y0072535D03*
X0578043Y0072535D03*
X0575437Y0039425D03*
X0568437Y0039425D03*
X0504531Y0072732D03*
X0497531Y0072732D03*
X0494295Y0040094D03*
X0487295Y0040094D03*
X0425988Y0072732D03*
X0418988Y0072732D03*
X0415319Y0040370D03*
X0408319Y0040370D03*
X0347642Y0072142D03*
X0340642Y0072142D03*
X0336933Y0039819D03*
X0329933Y0039819D03*
X0268508Y0072339D03*
X0261508Y0072339D03*
X0258154Y0040291D03*
X0251154Y0040291D03*
X0191539Y0071551D03*
X0184539Y0071551D03*
X0182130Y0041551D03*
X0175130Y0041551D03*
X0148626Y0035134D03*
X0141626Y0035134D03*
X0135437Y0035134D03*
X0128437Y0035134D03*
X0100988Y0039661D03*
X0093988Y0039661D03*
X0101272Y0074504D03*
X0108272Y0074504D03*
D14*
X0133104Y0029317D03*
X0133104Y0026817D03*
X0133104Y0024317D03*
X0133104Y0021817D03*
X0133104Y0019317D03*
X0133104Y0016817D03*
X0133104Y0014317D03*
X0133104Y0011817D03*
X0153604Y0011817D03*
X0153604Y0014317D03*
X0153604Y0016817D03*
X0153604Y0019317D03*
X0153604Y0021817D03*
X0153604Y0024317D03*
X0153604Y0026817D03*
X0153604Y0029317D03*
D15*
X0147882Y0042854D03*
X0147882Y0049854D03*
X0113827Y0050051D03*
X0113827Y0043051D03*
X0109299Y0018161D03*
X0118461Y0018161D03*
X0118461Y0011161D03*
X0109299Y0011161D03*
X0062252Y0065098D03*
X0062252Y0072098D03*
X0065008Y0090295D03*
X0065008Y0097295D03*
X0061122Y0102587D03*
X0061122Y0109587D03*
X0140622Y0109980D03*
X0140622Y0102980D03*
X0200441Y0049067D03*
X0200441Y0042067D03*
X0218713Y0102783D03*
X0218713Y0109783D03*
X0276819Y0049067D03*
X0276819Y0042067D03*
X0298031Y0102980D03*
X0298031Y0109980D03*
X0377287Y0109980D03*
X0377287Y0102980D03*
X0355756Y0049067D03*
X0355756Y0042067D03*
X0433512Y0040886D03*
X0433512Y0047886D03*
X0456106Y0102783D03*
X0456106Y0109783D03*
X0512646Y0048673D03*
X0512646Y0041673D03*
X0534728Y0102980D03*
X0534728Y0109980D03*
X0613197Y0109783D03*
X0613197Y0102783D03*
X0594142Y0048673D03*
X0594142Y0041673D03*
X0671898Y0042461D03*
X0671898Y0049461D03*
D16*
X0138630Y0045370D03*
X0127606Y0045370D03*
D17*
X0147685Y0103441D03*
X0147685Y0110921D03*
X0157921Y0110921D03*
X0157921Y0107181D03*
X0157921Y0103441D03*
X0226031Y0103441D03*
X0226031Y0110921D03*
X0236268Y0110921D03*
X0236268Y0107181D03*
X0236268Y0103441D03*
X0305165Y0103441D03*
X0305165Y0110921D03*
X0315402Y0110921D03*
X0315402Y0107181D03*
X0315402Y0103441D03*
X0383906Y0103441D03*
X0383906Y0110921D03*
X0394142Y0110921D03*
X0394142Y0107181D03*
X0394142Y0103441D03*
X0462646Y0103441D03*
X0462646Y0110921D03*
X0472882Y0110921D03*
X0472882Y0107181D03*
X0472882Y0103441D03*
X0541386Y0103441D03*
X0541386Y0110921D03*
X0551622Y0110921D03*
X0551622Y0107181D03*
X0551622Y0103441D03*
X0620126Y0103441D03*
X0620126Y0110921D03*
X0630362Y0110921D03*
X0630362Y0107181D03*
X0630362Y0103441D03*
D18*
X0052409Y0104032D03*
X0044929Y0104032D03*
X0044929Y0093795D03*
X0048669Y0093795D03*
X0052409Y0093795D03*
D19*
X0043866Y0024031D03*
X0043866Y0034031D03*
X0053866Y0034031D03*
X0053866Y0024031D03*
X0053866Y0044031D03*
X0043866Y0044031D03*
X0043866Y0054031D03*
X0043866Y0064031D03*
X0053866Y0064031D03*
X0053866Y0054031D03*
X0053866Y0074031D03*
X0043866Y0074031D03*
X0043866Y0084031D03*
X0053866Y0084031D03*
D20*
X0103197Y0100425D03*
X0181937Y0100425D03*
X0260677Y0100425D03*
X0339417Y0100425D03*
X0418157Y0100425D03*
X0496898Y0100819D03*
X0575638Y0100425D03*
X0654378Y0100425D03*
D21*
X0654772Y0087528D03*
X0654772Y0083528D03*
X0572882Y0083528D03*
X0572882Y0087528D03*
X0492961Y0087134D03*
X0492961Y0083134D03*
X0413039Y0083134D03*
X0413039Y0087134D03*
X0336268Y0087921D03*
X0336268Y0083921D03*
X0258315Y0084315D03*
X0258315Y0088315D03*
X0177606Y0088709D03*
X0177606Y0084709D03*
X0098669Y0084709D03*
X0098669Y0088709D03*
D22*
X0117370Y0092811D03*
X0128394Y0092811D03*
X0196110Y0091630D03*
X0207134Y0091630D03*
X0274850Y0091433D03*
X0285874Y0091433D03*
X0355362Y0091827D03*
X0366386Y0091827D03*
X0433512Y0091433D03*
X0444535Y0091433D03*
X0513039Y0091630D03*
X0524063Y0091630D03*
X0592961Y0091433D03*
X0603984Y0091433D03*
X0672094Y0091827D03*
X0683118Y0091827D03*
D23*
X0065008Y0053441D03*
X0065008Y0042417D03*
D24*
X0046866Y0011906D02*
X0046868Y0011995D01*
X0046874Y0012084D01*
X0046884Y0012173D01*
X0046898Y0012261D01*
X0046915Y0012348D01*
X0046937Y0012434D01*
X0046963Y0012520D01*
X0046992Y0012604D01*
X0047025Y0012687D01*
X0047061Y0012768D01*
X0047102Y0012848D01*
X0047145Y0012925D01*
X0047192Y0013001D01*
X0047243Y0013074D01*
X0047296Y0013145D01*
X0047353Y0013214D01*
X0047413Y0013280D01*
X0047476Y0013344D01*
X0047541Y0013404D01*
X0047609Y0013462D01*
X0047680Y0013516D01*
X0047753Y0013567D01*
X0047828Y0013615D01*
X0047905Y0013660D01*
X0047984Y0013701D01*
X0048065Y0013738D01*
X0048147Y0013772D01*
X0048231Y0013803D01*
X0048316Y0013829D01*
X0048402Y0013852D01*
X0048489Y0013870D01*
X0048577Y0013885D01*
X0048666Y0013896D01*
X0048755Y0013903D01*
X0048844Y0013906D01*
X0048933Y0013905D01*
X0049022Y0013900D01*
X0049110Y0013891D01*
X0049199Y0013878D01*
X0049286Y0013861D01*
X0049373Y0013841D01*
X0049459Y0013816D01*
X0049543Y0013788D01*
X0049626Y0013756D01*
X0049708Y0013720D01*
X0049788Y0013681D01*
X0049866Y0013638D01*
X0049942Y0013592D01*
X0050016Y0013542D01*
X0050088Y0013489D01*
X0050157Y0013433D01*
X0050224Y0013374D01*
X0050288Y0013312D01*
X0050349Y0013248D01*
X0050408Y0013180D01*
X0050463Y0013110D01*
X0050515Y0013038D01*
X0050564Y0012963D01*
X0050609Y0012887D01*
X0050651Y0012808D01*
X0050689Y0012728D01*
X0050724Y0012646D01*
X0050755Y0012562D01*
X0050783Y0012477D01*
X0050806Y0012391D01*
X0050826Y0012304D01*
X0050842Y0012217D01*
X0050854Y0012128D01*
X0050862Y0012040D01*
X0050866Y0011951D01*
X0050866Y0011861D01*
X0050862Y0011772D01*
X0050854Y0011684D01*
X0050842Y0011595D01*
X0050826Y0011508D01*
X0050806Y0011421D01*
X0050783Y0011335D01*
X0050755Y0011250D01*
X0050724Y0011166D01*
X0050689Y0011084D01*
X0050651Y0011004D01*
X0050609Y0010925D01*
X0050564Y0010849D01*
X0050515Y0010774D01*
X0050463Y0010702D01*
X0050408Y0010632D01*
X0050349Y0010564D01*
X0050288Y0010500D01*
X0050224Y0010438D01*
X0050157Y0010379D01*
X0050088Y0010323D01*
X0050016Y0010270D01*
X0049942Y0010220D01*
X0049866Y0010174D01*
X0049788Y0010131D01*
X0049708Y0010092D01*
X0049626Y0010056D01*
X0049543Y0010024D01*
X0049459Y0009996D01*
X0049373Y0009971D01*
X0049286Y0009951D01*
X0049199Y0009934D01*
X0049110Y0009921D01*
X0049022Y0009912D01*
X0048933Y0009907D01*
X0048844Y0009906D01*
X0048755Y0009909D01*
X0048666Y0009916D01*
X0048577Y0009927D01*
X0048489Y0009942D01*
X0048402Y0009960D01*
X0048316Y0009983D01*
X0048231Y0010009D01*
X0048147Y0010040D01*
X0048065Y0010074D01*
X0047984Y0010111D01*
X0047905Y0010152D01*
X0047828Y0010197D01*
X0047753Y0010245D01*
X0047680Y0010296D01*
X0047609Y0010350D01*
X0047541Y0010408D01*
X0047476Y0010468D01*
X0047413Y0010532D01*
X0047353Y0010598D01*
X0047296Y0010667D01*
X0047243Y0010738D01*
X0047192Y0010811D01*
X0047145Y0010887D01*
X0047102Y0010964D01*
X0047061Y0011044D01*
X0047025Y0011125D01*
X0046992Y0011208D01*
X0046963Y0011292D01*
X0046937Y0011378D01*
X0046915Y0011464D01*
X0046898Y0011551D01*
X0046884Y0011639D01*
X0046874Y0011728D01*
X0046868Y0011817D01*
X0046866Y0011906D01*
X0017339Y0107181D02*
X0017341Y0107270D01*
X0017347Y0107359D01*
X0017357Y0107448D01*
X0017371Y0107536D01*
X0017388Y0107623D01*
X0017410Y0107709D01*
X0017436Y0107795D01*
X0017465Y0107879D01*
X0017498Y0107962D01*
X0017534Y0108043D01*
X0017575Y0108123D01*
X0017618Y0108200D01*
X0017665Y0108276D01*
X0017716Y0108349D01*
X0017769Y0108420D01*
X0017826Y0108489D01*
X0017886Y0108555D01*
X0017949Y0108619D01*
X0018014Y0108679D01*
X0018082Y0108737D01*
X0018153Y0108791D01*
X0018226Y0108842D01*
X0018301Y0108890D01*
X0018378Y0108935D01*
X0018457Y0108976D01*
X0018538Y0109013D01*
X0018620Y0109047D01*
X0018704Y0109078D01*
X0018789Y0109104D01*
X0018875Y0109127D01*
X0018962Y0109145D01*
X0019050Y0109160D01*
X0019139Y0109171D01*
X0019228Y0109178D01*
X0019317Y0109181D01*
X0019406Y0109180D01*
X0019495Y0109175D01*
X0019583Y0109166D01*
X0019672Y0109153D01*
X0019759Y0109136D01*
X0019846Y0109116D01*
X0019932Y0109091D01*
X0020016Y0109063D01*
X0020099Y0109031D01*
X0020181Y0108995D01*
X0020261Y0108956D01*
X0020339Y0108913D01*
X0020415Y0108867D01*
X0020489Y0108817D01*
X0020561Y0108764D01*
X0020630Y0108708D01*
X0020697Y0108649D01*
X0020761Y0108587D01*
X0020822Y0108523D01*
X0020881Y0108455D01*
X0020936Y0108385D01*
X0020988Y0108313D01*
X0021037Y0108238D01*
X0021082Y0108162D01*
X0021124Y0108083D01*
X0021162Y0108003D01*
X0021197Y0107921D01*
X0021228Y0107837D01*
X0021256Y0107752D01*
X0021279Y0107666D01*
X0021299Y0107579D01*
X0021315Y0107492D01*
X0021327Y0107403D01*
X0021335Y0107315D01*
X0021339Y0107226D01*
X0021339Y0107136D01*
X0021335Y0107047D01*
X0021327Y0106959D01*
X0021315Y0106870D01*
X0021299Y0106783D01*
X0021279Y0106696D01*
X0021256Y0106610D01*
X0021228Y0106525D01*
X0021197Y0106441D01*
X0021162Y0106359D01*
X0021124Y0106279D01*
X0021082Y0106200D01*
X0021037Y0106124D01*
X0020988Y0106049D01*
X0020936Y0105977D01*
X0020881Y0105907D01*
X0020822Y0105839D01*
X0020761Y0105775D01*
X0020697Y0105713D01*
X0020630Y0105654D01*
X0020561Y0105598D01*
X0020489Y0105545D01*
X0020415Y0105495D01*
X0020339Y0105449D01*
X0020261Y0105406D01*
X0020181Y0105367D01*
X0020099Y0105331D01*
X0020016Y0105299D01*
X0019932Y0105271D01*
X0019846Y0105246D01*
X0019759Y0105226D01*
X0019672Y0105209D01*
X0019583Y0105196D01*
X0019495Y0105187D01*
X0019406Y0105182D01*
X0019317Y0105181D01*
X0019228Y0105184D01*
X0019139Y0105191D01*
X0019050Y0105202D01*
X0018962Y0105217D01*
X0018875Y0105235D01*
X0018789Y0105258D01*
X0018704Y0105284D01*
X0018620Y0105315D01*
X0018538Y0105349D01*
X0018457Y0105386D01*
X0018378Y0105427D01*
X0018301Y0105472D01*
X0018226Y0105520D01*
X0018153Y0105571D01*
X0018082Y0105625D01*
X0018014Y0105683D01*
X0017949Y0105743D01*
X0017886Y0105807D01*
X0017826Y0105873D01*
X0017769Y0105942D01*
X0017716Y0106013D01*
X0017665Y0106086D01*
X0017618Y0106162D01*
X0017575Y0106239D01*
X0017534Y0106319D01*
X0017498Y0106400D01*
X0017465Y0106483D01*
X0017436Y0106567D01*
X0017410Y0106653D01*
X0017388Y0106739D01*
X0017371Y0106826D01*
X0017357Y0106914D01*
X0017347Y0107003D01*
X0017341Y0107092D01*
X0017339Y0107181D01*
X0692929Y0106394D02*
X0692931Y0106483D01*
X0692937Y0106572D01*
X0692947Y0106661D01*
X0692961Y0106749D01*
X0692978Y0106836D01*
X0693000Y0106922D01*
X0693026Y0107008D01*
X0693055Y0107092D01*
X0693088Y0107175D01*
X0693124Y0107256D01*
X0693165Y0107336D01*
X0693208Y0107413D01*
X0693255Y0107489D01*
X0693306Y0107562D01*
X0693359Y0107633D01*
X0693416Y0107702D01*
X0693476Y0107768D01*
X0693539Y0107832D01*
X0693604Y0107892D01*
X0693672Y0107950D01*
X0693743Y0108004D01*
X0693816Y0108055D01*
X0693891Y0108103D01*
X0693968Y0108148D01*
X0694047Y0108189D01*
X0694128Y0108226D01*
X0694210Y0108260D01*
X0694294Y0108291D01*
X0694379Y0108317D01*
X0694465Y0108340D01*
X0694552Y0108358D01*
X0694640Y0108373D01*
X0694729Y0108384D01*
X0694818Y0108391D01*
X0694907Y0108394D01*
X0694996Y0108393D01*
X0695085Y0108388D01*
X0695173Y0108379D01*
X0695262Y0108366D01*
X0695349Y0108349D01*
X0695436Y0108329D01*
X0695522Y0108304D01*
X0695606Y0108276D01*
X0695689Y0108244D01*
X0695771Y0108208D01*
X0695851Y0108169D01*
X0695929Y0108126D01*
X0696005Y0108080D01*
X0696079Y0108030D01*
X0696151Y0107977D01*
X0696220Y0107921D01*
X0696287Y0107862D01*
X0696351Y0107800D01*
X0696412Y0107736D01*
X0696471Y0107668D01*
X0696526Y0107598D01*
X0696578Y0107526D01*
X0696627Y0107451D01*
X0696672Y0107375D01*
X0696714Y0107296D01*
X0696752Y0107216D01*
X0696787Y0107134D01*
X0696818Y0107050D01*
X0696846Y0106965D01*
X0696869Y0106879D01*
X0696889Y0106792D01*
X0696905Y0106705D01*
X0696917Y0106616D01*
X0696925Y0106528D01*
X0696929Y0106439D01*
X0696929Y0106349D01*
X0696925Y0106260D01*
X0696917Y0106172D01*
X0696905Y0106083D01*
X0696889Y0105996D01*
X0696869Y0105909D01*
X0696846Y0105823D01*
X0696818Y0105738D01*
X0696787Y0105654D01*
X0696752Y0105572D01*
X0696714Y0105492D01*
X0696672Y0105413D01*
X0696627Y0105337D01*
X0696578Y0105262D01*
X0696526Y0105190D01*
X0696471Y0105120D01*
X0696412Y0105052D01*
X0696351Y0104988D01*
X0696287Y0104926D01*
X0696220Y0104867D01*
X0696151Y0104811D01*
X0696079Y0104758D01*
X0696005Y0104708D01*
X0695929Y0104662D01*
X0695851Y0104619D01*
X0695771Y0104580D01*
X0695689Y0104544D01*
X0695606Y0104512D01*
X0695522Y0104484D01*
X0695436Y0104459D01*
X0695349Y0104439D01*
X0695262Y0104422D01*
X0695173Y0104409D01*
X0695085Y0104400D01*
X0694996Y0104395D01*
X0694907Y0104394D01*
X0694818Y0104397D01*
X0694729Y0104404D01*
X0694640Y0104415D01*
X0694552Y0104430D01*
X0694465Y0104448D01*
X0694379Y0104471D01*
X0694294Y0104497D01*
X0694210Y0104528D01*
X0694128Y0104562D01*
X0694047Y0104599D01*
X0693968Y0104640D01*
X0693891Y0104685D01*
X0693816Y0104733D01*
X0693743Y0104784D01*
X0693672Y0104838D01*
X0693604Y0104896D01*
X0693539Y0104956D01*
X0693476Y0105020D01*
X0693416Y0105086D01*
X0693359Y0105155D01*
X0693306Y0105226D01*
X0693255Y0105299D01*
X0693208Y0105375D01*
X0693165Y0105452D01*
X0693124Y0105532D01*
X0693088Y0105613D01*
X0693055Y0105696D01*
X0693026Y0105780D01*
X0693000Y0105866D01*
X0692978Y0105952D01*
X0692961Y0106039D01*
X0692947Y0106127D01*
X0692937Y0106216D01*
X0692931Y0106305D01*
X0692929Y0106394D01*
X0690961Y0012299D02*
X0690963Y0012388D01*
X0690969Y0012477D01*
X0690979Y0012566D01*
X0690993Y0012654D01*
X0691010Y0012741D01*
X0691032Y0012827D01*
X0691058Y0012913D01*
X0691087Y0012997D01*
X0691120Y0013080D01*
X0691156Y0013161D01*
X0691197Y0013241D01*
X0691240Y0013318D01*
X0691287Y0013394D01*
X0691338Y0013467D01*
X0691391Y0013538D01*
X0691448Y0013607D01*
X0691508Y0013673D01*
X0691571Y0013737D01*
X0691636Y0013797D01*
X0691704Y0013855D01*
X0691775Y0013909D01*
X0691848Y0013960D01*
X0691923Y0014008D01*
X0692000Y0014053D01*
X0692079Y0014094D01*
X0692160Y0014131D01*
X0692242Y0014165D01*
X0692326Y0014196D01*
X0692411Y0014222D01*
X0692497Y0014245D01*
X0692584Y0014263D01*
X0692672Y0014278D01*
X0692761Y0014289D01*
X0692850Y0014296D01*
X0692939Y0014299D01*
X0693028Y0014298D01*
X0693117Y0014293D01*
X0693205Y0014284D01*
X0693294Y0014271D01*
X0693381Y0014254D01*
X0693468Y0014234D01*
X0693554Y0014209D01*
X0693638Y0014181D01*
X0693721Y0014149D01*
X0693803Y0014113D01*
X0693883Y0014074D01*
X0693961Y0014031D01*
X0694037Y0013985D01*
X0694111Y0013935D01*
X0694183Y0013882D01*
X0694252Y0013826D01*
X0694319Y0013767D01*
X0694383Y0013705D01*
X0694444Y0013641D01*
X0694503Y0013573D01*
X0694558Y0013503D01*
X0694610Y0013431D01*
X0694659Y0013356D01*
X0694704Y0013280D01*
X0694746Y0013201D01*
X0694784Y0013121D01*
X0694819Y0013039D01*
X0694850Y0012955D01*
X0694878Y0012870D01*
X0694901Y0012784D01*
X0694921Y0012697D01*
X0694937Y0012610D01*
X0694949Y0012521D01*
X0694957Y0012433D01*
X0694961Y0012344D01*
X0694961Y0012254D01*
X0694957Y0012165D01*
X0694949Y0012077D01*
X0694937Y0011988D01*
X0694921Y0011901D01*
X0694901Y0011814D01*
X0694878Y0011728D01*
X0694850Y0011643D01*
X0694819Y0011559D01*
X0694784Y0011477D01*
X0694746Y0011397D01*
X0694704Y0011318D01*
X0694659Y0011242D01*
X0694610Y0011167D01*
X0694558Y0011095D01*
X0694503Y0011025D01*
X0694444Y0010957D01*
X0694383Y0010893D01*
X0694319Y0010831D01*
X0694252Y0010772D01*
X0694183Y0010716D01*
X0694111Y0010663D01*
X0694037Y0010613D01*
X0693961Y0010567D01*
X0693883Y0010524D01*
X0693803Y0010485D01*
X0693721Y0010449D01*
X0693638Y0010417D01*
X0693554Y0010389D01*
X0693468Y0010364D01*
X0693381Y0010344D01*
X0693294Y0010327D01*
X0693205Y0010314D01*
X0693117Y0010305D01*
X0693028Y0010300D01*
X0692939Y0010299D01*
X0692850Y0010302D01*
X0692761Y0010309D01*
X0692672Y0010320D01*
X0692584Y0010335D01*
X0692497Y0010353D01*
X0692411Y0010376D01*
X0692326Y0010402D01*
X0692242Y0010433D01*
X0692160Y0010467D01*
X0692079Y0010504D01*
X0692000Y0010545D01*
X0691923Y0010590D01*
X0691848Y0010638D01*
X0691775Y0010689D01*
X0691704Y0010743D01*
X0691636Y0010801D01*
X0691571Y0010861D01*
X0691508Y0010925D01*
X0691448Y0010991D01*
X0691391Y0011060D01*
X0691338Y0011131D01*
X0691287Y0011204D01*
X0691240Y0011280D01*
X0691197Y0011357D01*
X0691156Y0011437D01*
X0691120Y0011518D01*
X0691087Y0011601D01*
X0691058Y0011685D01*
X0691032Y0011771D01*
X0691010Y0011857D01*
X0690993Y0011944D01*
X0690979Y0012032D01*
X0690969Y0012121D01*
X0690963Y0012210D01*
X0690961Y0012299D01*
D25*
X0692961Y0012299D03*
X0694929Y0106394D03*
X0048866Y0011906D03*
X0019339Y0107181D03*
D26*
X0121307Y0069386D03*
X0121307Y0057575D03*
X0208118Y0057575D03*
X0208118Y0069386D03*
X0282331Y0069386D03*
X0282331Y0057575D03*
X0361661Y0057575D03*
X0361661Y0069386D03*
X0439811Y0069386D03*
X0439811Y0057575D03*
X0519339Y0057575D03*
X0519339Y0069386D03*
X0599850Y0069386D03*
X0599850Y0057575D03*
X0678197Y0057575D03*
X0678197Y0069386D03*
D27*
X0077311Y0104622D03*
X0077311Y0109740D03*
D28*
X0077311Y0107181D03*
X0070815Y0104622D03*
X0070815Y0109740D03*
D29*
X0069535Y0103421D03*
D30*
X0069535Y0110941D03*
D31*
X0078610Y0103402D03*
D32*
X0078709Y0107181D03*
D33*
X0078650Y0110961D03*
M02*
